<svg xmlns="http://www.w3.org/2000/svg" viewBox="0 0 955.72 955.75"><defs><linearGradient id="a" x1="50.543" x2="1018" y1="532.89" y2="532.89" gradientUnits="userSpaceOnUse"><stop offset="0" stop-color="#d47440"/><stop offset=".016" stop-color="#d27341"/><stop offset=".031" stop-color="#dd7d48"/><stop offset=".063" stop-color="#f27733"/><stop offset=".125" stop-color="#df6e2f"/><stop offset=".25" stop-color="#e8996e"/><stop offset=".5" stop-color="#dd5c10"/><stop offset=".75" stop-color="#db6c2a"/><stop offset="1" stop-color="#de9260"/></linearGradient><linearGradient id="b" x1="115.04" x2="971.33" y1="289.7" y2="713.62" gradientUnits="userSpaceOnUse"><stop offset="0" stop-color="#ff8c4e"/><stop offset=".016" stop-color="#ff8c4e"/><stop offset=".031" stop-color="#ff8643"/><stop offset=".063" stop-color="#ff8e50"/><stop offset=".125" stop-color="#ff7325"/><stop offset=".25" stop-color="#ffac7e"/><stop offset=".5" stop-color="#ff6f1b"/><stop offset=".75" stop-color="#ff8e4a"/><stop offset="1" stop-color="#ffae7a"/></linearGradient></defs><path fill="url(#a)" stroke="#000" stroke-width="3.045" d="M1017.1 532.89c0 266.67-216.18 482.86-482.86 482.86-266.67 0-482.86-216.18-482.86-482.86 0-266.67 216.18-482.86 482.86-482.86 266.67 0 482.86 216.18 482.86 482.86z" transform="translate(-49.26 -46.42) scale(.98523)"/><path fill="url(#b)" stroke="#000" stroke-width="1.772" d="M1017.1 532.89c0 266.67-216.18 482.86-482.86 482.86-266.67 0-482.86-216.18-482.86-482.86 0-266.67 216.18-482.86 482.86-482.86 266.67 0 482.86 216.18 482.86 482.86z" transform="matrix(.90845 0 0 .9055 -8.23 -5.36)"/><g fill="none" stroke="#000" stroke-width="2"><path d="M-88.404-46.314v10.49h-4.52c-.725-2.09-1.34-3.502-1.846-4.239a5.96 5.96 0 0 0-1.815-1.748c-.704-.429-1.902-.643-3.595-.643h-7.192v15.834h4.355c.967 0 1.726-.138 2.276-.413.55-.275 1.006-.731 1.369-1.369s.709-1.627 1.039-2.969h3.727v13.393h-3.727c-.308-1.275-.649-2.248-1.023-2.919-.374-.67-.819-1.149-1.336-1.435-.517-.286-1.292-.429-2.325-.429h-4.355v17.615h7.159c.77 0 1.418-.05 1.946-.148.528-.1 1-.27 1.418-.511.418-.242.82-.572 1.204-.99a8.738 8.738 0 0 0 1.023-1.353c.297-.483.61-1.121.94-1.913.33-.792.693-1.88 1.089-3.266h4.519l-.627 12.04h-32.426v-2.177c.814-.22 1.457-.456 1.93-.709a2.446 2.446 0 0 0 1.055-1.056c.231-.45.38-1.022.446-1.715.066-.693.099-1.567.099-2.622v-28.435c0-1.034-.028-1.903-.083-2.606-.055-.704-.198-1.276-.429-1.716a2.672 2.672 0 0 0-1.055-1.072c-.473-.275-1.127-.522-1.963-.742v-2.177zM-53.009-38.035c0-1.65-.072-2.798-.214-3.447-.143-.649-.424-1.171-.842-1.567-.417-.396-1.231-.759-2.44-1.089v-2.177h14.513v2.177c-.791.22-1.418.457-1.88.71a2.57 2.57 0 0 0-1.056 1.055c-.242.451-.395 1.023-.461 1.715a28.52 28.52 0 0 0-.1 2.623v20.617c0 2.727-.22 5.009-.66 6.845-.439 1.836-1.12 3.38-2.044 4.634-.924 1.254-2.073 2.266-3.448 3.035s-2.919 1.32-4.634 1.65c-1.716.33-3.64.494-5.773.494-3.123 0-5.762-.324-7.917-.973-2.155-.648-3.909-1.627-5.261-2.936s-2.354-2.897-3.002-4.766c-.649-1.87-.973-4.278-.973-7.224v-21.343a34.37 34.37 0 0 0-.083-2.606c-.055-.704-.198-1.276-.429-1.716a2.672 2.672 0 0 0-1.055-1.072c-.473-.275-1.127-.522-1.963-.742v-2.177h17.318v2.177c-.902.242-1.567.5-1.996.775a2.83 2.83 0 0 0-.973 1.006c-.22.396-.374.913-.462 1.55-.088.638-.132 1.573-.132 2.805v21.772c0 1.737.11 3.32.33 4.75.22 1.43.622 2.655 1.204 3.678s1.391 1.809 2.425 2.358c1.034.55 2.364.825 3.991.825 2.244 0 3.915-.45 5.015-1.352 1.1-.902 1.874-2.161 2.325-3.777.45-1.617.676-4.03.676-7.241zM-19.098-1.287h-17.318v-2.177c.814-.22 1.457-.456 1.93-.71a2.446 2.446 0 0 0 1.055-1.055c.231-.45.38-1.023.446-1.715.066-.693.099-1.567.099-2.623v-28.435a34.37 34.37 0 0 0-.083-2.606c-.055-.703-.198-1.275-.429-1.715a2.672 2.672 0 0 0-1.055-1.072c-.473-.275-1.127-.522-1.963-.742v-2.178h19.232c2.595 0 4.8.182 6.614.545 1.814.363 3.403.918 4.767 1.666A9.925 9.925 0 0 1-2.9-41.78c.791.935 1.401 2.024 1.83 3.266.43 1.243.644 2.688.644 4.338 0 2.155-.38 4.002-1.138 5.542-.76 1.54-1.782 2.82-3.068 3.843s-3.008 1.984-5.163 2.886v.33c1.628.704 2.975 1.644 4.041 2.82 1.067 1.177 2.029 2.667 2.887 4.47L-.79-9.798c.923 2.002 1.841 3.503 2.754 4.503s1.996 1.611 3.25 1.831v2.177h-12.7c-1.276-1.76-2.717-4.376-4.322-7.85l-2.573-5.642c-.77-1.67-1.43-2.858-1.98-3.562-.549-.704-1.115-1.188-1.698-1.452-.583-.263-1.479-.395-2.688-.395h-1.914v10.622c0 1.649.077 2.803.231 3.463.154.66.451 1.188.89 1.584.44.396 1.254.747 2.442 1.055zm-3.563-41.102v18.341h3.266c1.76 0 3.21-.236 4.354-.71 1.144-.472 2.051-1.132 2.722-1.978.67-.847 1.132-1.842 1.385-2.986.253-1.143.38-2.397.38-3.76 0-2.99-.704-5.234-2.112-6.73-1.407-1.495-3.496-2.243-6.267-2.243-1.891 0-3.134.022-3.728.066zM28.074-.76c-6.466 0-11.32-1.89-14.564-5.673-3.244-3.782-4.866-9.445-4.866-16.988 0-4.948.786-9.176 2.359-12.684 1.572-3.508 3.887-6.174 6.944-8 3.057-1.825 6.696-2.737 10.919-2.737 6.575 0 11.513 1.886 14.81 5.657 3.3 3.772 4.949 9.374 4.949 16.807 0 4.156-.49 7.725-1.468 10.704-.979 2.98-2.37 5.426-4.173 7.34s-3.964 3.32-6.482 4.222c-2.518.902-5.328 1.353-8.428 1.353zm-8.94-23.552c0 6.641.797 11.584 2.392 14.828 1.594 3.244 4.03 4.865 7.306 4.865 1.694 0 3.134-.456 4.322-1.369 1.187-.912 2.15-2.188 2.886-3.826.737-1.638 1.264-3.58 1.583-5.822.32-2.243.479-4.706.479-7.39 0-4.376-.347-8.043-1.04-11-.692-2.958-1.737-5.19-3.133-6.697-1.397-1.506-3.183-2.26-5.36-2.26-3.19 0-5.559 1.524-7.11 4.57-1.55 3.045-2.325 7.746-2.325 14.101z" transform="matrix(1.0893 0 -.19541 .91798 659.28 176.23)"/></g><path fill="none" stroke="#000" stroke-width="2" d="M-73.273 13.859v18.184h-7.834c-1.258-3.621-2.325-6.07-3.202-7.348-.877-1.277-1.925-2.287-3.145-3.03-1.22-.744-3.297-1.115-6.233-1.115h-12.466v27.447h7.548c1.678 0 2.993-.239 3.946-.715.953-.477 1.744-1.268 2.373-2.373.629-1.106 1.23-2.821 1.8-5.146h6.462v23.216h-6.461c-.534-2.211-1.125-3.898-1.773-5.061-.648-1.163-1.42-1.992-2.315-2.487-.896-.496-2.24-.744-4.032-.744h-7.548v30.535h12.408c1.335 0 2.459-.085 3.374-.257a7.7 7.7 0 0 0 2.459-.886c.724-.42 1.42-.991 2.087-1.716a15.153 15.153 0 0 0 1.773-2.344c.514-.839 1.057-1.944 1.63-3.317.571-1.372 1.2-3.259 1.886-5.66h7.834l-1.086 20.87h-56.21v-3.774c1.411-.38 2.526-.79 3.346-1.229.82-.438 1.43-1.048 1.83-1.83.4-.781.657-1.772.771-2.973.115-1.201.172-2.716.172-4.546V28.27c0-1.792-.048-3.297-.143-4.517-.095-1.22-.343-2.211-.743-2.974-.4-.762-1.01-1.382-1.83-1.858-.82-.477-1.954-.905-3.402-1.287V13.86z" transform="matrix(1.0497 0 -.15038 .95261 659.28 176.23)"/><path fill="none" stroke="#000" stroke-width="2" d="M7.453 13.944v3.797c-1.534.499-4.184.377-5.99 1.266-.63.31-1.17.805-1.61 1.38-.442.576-.777 1.449-1.007 2.618-.23 1.17-.346 2.963-.345 5.38v64.09h-14.613l-25.89-44.76c-3.49-6.06-6.06-10.815-7.71-14.267h-.518c.384 8.246.576 16.953.576 26.12v18.525c0 2.876.143 4.89.431 6.04.288 1.151.806 2.062 1.554 2.733.747.672 2.157 1.276 4.228 1.813v3.797h-21.747v-3.797c1.42-.384 2.541-.806 3.366-1.266.824-.46 1.438-1.084 1.84-1.87.404-.786.662-1.774.778-2.963.115-1.189.172-2.685.172-4.487V28.327c0-2.877-.125-4.862-.374-5.955-.25-1.093-.767-2.004-1.553-2.733-.787-.728-7.285-1.361-9.318-1.898l-.592-3.797h28.981l20.367 35.383c1.266 2.224 2.915 5.235 4.948 9.032a217.73 217.73 0 0 1 5.408 10.76h.92c-.421-9.168-.632-19.178-.632-30.033v-10.7c0-2.494-.096-4.297-.288-5.409-.192-1.112-.489-1.956-.892-2.531-.402-.576-.99-1.144-1.61-1.439-3.25-1.542-8.531-.805-10.103-1.265l-.465-3.797z" transform="matrix(1.0562 0 -.15231 .9468 659.28 176.23)"/><path fill="none" stroke="#000" stroke-width="2" d="m-123.14-24.96-2.779 43.219h-6.334c-1.515-7.132-7.675-28.151-10.957-31.528-3.282-3.376-7.573-5.065-12.875-5.065-9.972 0-21.55 4.859-28.306 13.933-6.336 8.512-9.36 21.66-9.064 34.774.376 16.623 4.065 36.305 13.625 50.565 3.41 5.086 8.783 7.88 13.513 9.371 7.496 2.364 15.242 1.718 21.64-1.27 4.418-2.066 7.874-6.354 10.584-11.054 3.138-5.441 4.937-13.59 6.199-19.207l6.925 4.504-2.17 34.827c-6.942 1.641-13.284 2.84-19.028 3.598-5.743.757-16.024 2.655-24.407.42-6.924-1.847-14.14-5.531-20.357-11.154-6.72-6.074-12.852-14.263-17.023-23.225-6.01-12.914-9.69-27.652-10.225-41.22-.35-8.853 1.479-17.386 4.654-24.272 4.708-10.21 12.102-18.184 20.496-23.43 9.488-5.932 19.818-8.237 32.377-8.237 6.374 0 12.149.347 17.325 1.041 5.175.695 10.571 1.83 16.189 3.409z" transform="matrix(1.1466 0 -.20567 .87218 656.092 176.083)"/><path fill-opacity=".314" stroke="#000" stroke-width="2" d="M-306.06 303.35c1.155 10.288 3.013 20.253 8.697 30.096 3.873 6.708 9.462 13.485 16.706 18.688 9.157 6.578 20.603 11.16 31.676 14.297 15.355 4.35 37.983 7.87 47.004 8.25l2.19 8.655h-253.92l-5.392-14.101c21.131-.952 36.561-2.713 51.591-8.606 7.233-2.836 13.007-7.401 17.582-12.485 3.803-4.226 5.68-8.71 7.87-14.612 2.19-5.902 3.568-15.461 3.284-28.841l-4.297-202.75c0-3.391-.461-10.766-1.224-18.304-.994-9.811-1.892-17.41-4.168-21.836-2.276-4.427-7.19-6.617-13.315-8.724-5.05-1.736-16.529-3.575-31.767-3.35-12.633-.42-23.786 2.129-31.855-3.232l-5.25-12.672c45.98-7.217 91.661-13.366 144.69-45.795l21.612.64c-1.142 18.276-1.713 43.596-1.713 75.959z" transform="matrix(.89584 0 -.29473 1.1163 659.28 176.23)"/><path fill="none" stroke="#000" stroke-width="2" d="M27.481 87.76v-3.603c1.529-.255 2.739-.592 3.63-1.01.893-.42 1.557-1.01 1.994-1.775.436-.764.71-1.738.819-2.921.109-1.183.163-2.648.163-4.395V19.62h-4.422c-2.184 0-3.858.255-5.023.764-1.165.51-2.175 1.31-3.03 2.402-.856 1.092-1.593 2.558-2.212 4.396a64.196 64.196 0 0 0-1.528 5.214h-7.48V13.233h64.262v19.164h-7.48c-.69-2.474-1.236-4.294-1.636-5.46-.401-1.163-.847-2.155-1.338-2.974-.492-.82-1.01-1.502-1.556-2.048s-1.13-.982-1.747-1.31c-.62-.328-1.393-.573-2.321-.737s-2.138-.246-3.631-.246h-3.932v54.435c0 1.929.055 3.394.164 4.395.11 1.001.31 1.81.6 2.43.292.618.647 1.119 1.066 1.501.418.382 1 .728 1.747 1.037.746.31 1.756.556 3.03.738v3.603z" transform="matrix(1.0023 0 -.1798 .99768 659.28 176.23)"/><path d="M80.594 72.531a3.921 3.921 0 0 0-2.625 1.094l-181.44 171.59c-.25.236-.372.495-.531.75-67.143 30.595-113.81 98.215-113.81 176.75 0 100.61 76.59 183.36 174.69 193.22 6.473.65 13.042 1 19.688 1 4.641 0 9.252-.18 13.812-.5 1.433-.1 2.857-.213 4.28-.344 98.86-9.12 176.28-92.222 176.28-193.38 0-34.012-8.778-65.98-24.155-93.781l38.22-36.16c1.49-1.409 1.709-3.753.312-5.219l-1.75-1.812c-1.393-1.463-3.754-1.383-5.25.031l-36.56 34.6c-6.873-11.051-14.834-21.329-23.719-30.75l55.188-52.188c1.49-1.409 1.71-3.754.313-5.219l-1.75-1.844c-1.394-1.462-3.755-1.382-5.25.032l-55.312 52.312a195.088 195.088 0 0 0-30.47-23.91l72.469-68.531c1.49-1.409 1.709-3.754.312-5.22l-1.75-1.812c-1.393-1.462-3.754-1.383-5.25.031l-74.375 70.344a193.63 193.63 0 0 0-36.217-15.81l94.062-88.97c1.483-1.401 1.703-3.729.313-5.187l-1.75-1.844c-1.394-1.462-3.755-1.383-5.25.031L25.194 234.68c-10.352-2.66-21.026-4.42-31.966-5.34a200.053 200.053 0 0 0-10.188-.625l124.47-117.72c1.49-1.408 1.71-3.753.313-5.218l-1.75-1.813c-1.394-1.462-3.755-1.383-5.25.031l-131.84 124.69a191.955 191.955 0 0 0-31.656 3.875c-1.061.22-2.133.45-3.188.688-.187.042-.375.082-.562.125-.711.16-1.417.332-2.125.5-1.145.274-2.27.55-3.406.844-.032.008-.062.023-.094.03-1.182.307-2.358.642-3.531.97-1.797.498-3.6.982-5.375 1.53l165.62-156.62c1.489-1.408 1.663-3.737.281-5.187l-1.719-1.844c-.706-.74-1.686-1.078-2.625-1.062zm.063 2c.445-.008.844.143 1.124.438l1.72 1.844c.591.62.559 1.639-.22 2.374l-168.62 159.47-.03.032a193.122 193.122 0 0 0-13.75 5.187L79.34 75.056a1.955 1.955 0 0 1 1.312-.531zm22.811 30.344c.44-.008.867.164 1.157.469l1.75 1.812c.577.606.527 1.67-.25 2.406l-125.97 119.12c-1.24-.023-2.473-.062-3.72-.062-1.538 0-3.063.027-4.593.062l130.34-123.25c.386-.365.841-.554 1.281-.562zm22.5 37.844c.44-.008.867.164 1.157.469l1.75 1.844c.584.613.535 1.632-.25 2.375l-94.97 89.812a192.85 192.85 0 0 0-6.343-1.813l97.375-92.125c.386-.365.84-.554 1.281-.562zm23.22 41.438c.44-.008.866.164 1.156.469l1.75 1.812c.577.606.528 1.67-.25 2.406l-73 69.031a193.118 193.118 0 0 0-5.063-3.062l74.125-70.094c.386-.365.841-.554 1.281-.563zm-172.75 46.25c1.244 0 2.48.039 3.718.062a1 1 0 0 0 .47.125 192.752 192.752 0 0 1 41.249 5.344c-3.609.916-9.4 2.462-12.969 3.875C.581 243.11-7.466 247.212-15 252.063a136.74 136.74 0 0 0-15.406 11.562c-9.963-11.496-19.754-21.708-20.125-22.094.463-1.369.781-2.5.781-2.5.175-.642-.467-1.356-1.125-1.25-.385.062-.72.37-.812.75 0 0-.356 1.432-.969 3.094s-1.542 3.574-2.312 4.313c-.974.932-2.674 1.287-4.407 1.687-2.9.67-6.1.456-9.375.313s-6.652-.193-9.843 1.093c-2.023.816-3.435 2.365-4.75 3.813s-2.536 2.782-4 3.469c-.807.378-2.02.378-3.375.375-1.356-.003-2.943.02-4.188 1.125-.845.75-1.182 1.808-1.344 2.812-.161 1.005-.172 2.027-.187 2.969-.016.942-.052 1.784-.219 2.344-.167.56-.309.788-.75.937-4.029 1.365-12.473.966-19.719.125s-13.406-2.062-13.406-2.062c-.515-.098-1.058.297-1.156.812-.098.516.266 1.058.781 1.156 0 0 6.195 1.243 13.531 2.094 5.282.613 11.083 1.034 15.75.625.26 1.823 1.972 13.406 4.438 19.531l.062.157c-7.24 4.564-14.271 9.482-21 14.75-8.385 6.564-15.968 14.092-23.312 21.719-5.592 5.806-10.811 11.957-15.781 18.28-5.381 6.848-10.774 13.812-15.25 21.376-2.743 4.635-5.224 9.417-7.531 14.28-10.902-13.984-21.312-30.03-21.312-30.03-.017-.044-.04-.084-.063-.125 1.613-3.912 3.33-7.786 5.188-11.562.221-.45.431-.896.656-1.344.283-.565.587-1.127.875-1.688 19.778-38.446 52.161-69.364 91.688-87.312a1 1 0 0 0 .375-.281 1 1 0 0 0 0-.031 191.263 191.263 0 0 1 17.781-6.969 1 1 0 0 0 .438-.031c16.996-5.666 35.042-9.007 53.78-9.688a1 1 0 0 0 .407-.125c2.198-.074 4.409-.125 6.625-.125zm192.75.875c.44-.008.866.164 1.156.469l1.75 1.844c.577.605.528 1.67-.25 2.406l-55.375 52.375a195.008 195.008 0 0 0-4.031-4.094l55.469-52.438c.385-.365.84-.554 1.28-.563zm-143.69 5.5a1 1 0 0 0 .125 0 190.13 190.13 0 0 1 7.78 2.219 1 1 0 0 0 .095.06c.062.074.107.165.187.219 0 0 1.553 1.147 3.594 2.843 1.024 2.613 2.843 7.399 3.344 10.22.342 1.928.64 3.887.875 5.843a294.374 294.374 0 0 0-24.032.125c-13.616.632-37.128 4.096-44.75 5.25a133.286 133.286 0 0 1 13.344-9.812c7.418-4.777 15.384-8.813 23.594-12.062 5.007-1.982 15.938-4.594 15.938-4.594l-.095-.31zm13.75 4.437c4.863 1.658 12.456 4.426 22.625 9.407 7.302 3.576 15.044 8.376 21.75 12.938-6.34-1.3-17.37-3.46-24.25-4.157-3.096-.313-6.209-.542-9.313-.75.084-.25.157-.503.188-.78.261-2.37-.7-4.802-2.125-7.095-1.427-2.292-3.382-4.496-5.344-6.437-1.275-1.26-2.377-2.146-3.532-3.125zm-90.531 2.407c1.443 1.514 9.53 10.055 18.468 20.312-9.15-1.076-18.222-3.716-27.625-4.72-7.044-.75-18.037-1.153-25.5-1.374 1.675-.94 2.916-2.36 4.094-3.656 1.305-1.436 2.515-2.714 4-3.313 2.717-1.095 5.773-1.078 9-.937 3.228.14 6.6.42 9.906-.344 1.677-.387 3.791-.731 5.344-2.219.996-.953 1.732-2.35 2.313-3.75zm91.843 1.37c.273.26.538.51.812.78 1.893 1.873 3.765 3.979 5.063 6.063s1.997 4.136 1.812 5.813a1.964 1.964 0 0 1-.281.844 274.967 274.967 0 0 0-4.438-.219c-.247-2.115-.57-4.21-.937-6.281-.355-2-1.195-4.644-2.031-7zM-93.82 259.62h.03s22.219.43 33.126 1.594c7.916.844 15.775 2.924 23.812 4.187-6.937 1.394-17.448 3.643-24 5.813-7.275 2.409-14.332 5.554-21.062 9.187a261.273 261.273 0 0 0-13.47 7.813c-2.186-5.585-3.918-16.774-4.218-18.781a17.373 17.373 0 0 0 2.812-.688c1.086-.368 1.753-1.315 2.032-2.25.278-.935.296-1.904.312-2.875.016-.971.033-1.92.156-2.688.09-.562.253-.992.47-1.312zm121.76.38c4.59-.049 9.192.046 13.78.218a79.5 79.5 0 0 1 .157 1.782 10.83 10.83 0 0 0-.719.437c-1.018.669-1.94 1.58-2.344 2.844-.794 2.488-1.046 5.448-.469 8.25.387 1.873 1.194 3.684 2.47 5.156a77.68 77.68 0 0 1-.5 2.219c-5.365-2.94-10.864-5.645-16.563-7.875-11.339-4.436-23.335-7.334-35.406-8.813-1.548-.19-3.089-.248-4.625-.25 10.601-1.467 24.731-3.234 33.812-3.656 3.468-.16 6.93-.275 10.406-.312zm15.812.281c.53.024 1.063.067 1.593.094-.307.146-.61.291-.937.437-.193.086-.396.194-.594.281-.023-.271-.037-.54-.062-.812zm5.03.281c3.48.219 6.944.494 10.407.844 9.419.953 27.78 4.898 28.688 5.094 2.252 1.6 4.338 3.146 6.156 4.531 16.764 12.769 31.328 28.981 43.03 46.406.028.04.068.084.095.125-.174 1-2.09 11.87-5.594 25.125-1.486 5.62-3.269 11.597-5.281 17.344-6.105-9.506-12.712-18.721-20.156-27.25-6.853-7.86-14.581-14.94-22.432-21.72-7.407-6.4-15.087-12.56-23.313-17.94a505.042 505.042 0 0 0-7.094-4.563c-.477-1.17-1.149-2.298-1.938-3.343-1.994-2.641-4.754-4.851-7.28-6.344a7.12 7.12 0 0 1-1.095-.813c.116-.595.24-1.187.344-1.78.747-4.294.867-8.677.625-13.032.419-.196.836-.395 1.281-.594 1.086-.483 2.182-.998 3.125-1.718a6.61 6.61 0 0 0 .438-.375zm-6.78 3.75c.165 3.921.005 7.82-.657 11.625-.003.02.004.043 0 .063a10.438 10.438 0 0 1-1.03-2.875c-.496-2.403-.285-5.09.406-7.25.192-.603.632-1.095 1.28-1.563zm-58.406 1.69c1.518-.007 3.017.037 4.5.219 11.917 1.46 23.77 4.318 34.938 8.687 5.763 2.255 11.33 4.99 16.78 8-1.707 6.34-4.298 12.467-8.124 17.594-6.526 8.745-15.045 16.38-24.562 22-.87-1.877-1.72-3.763-2.625-5.625.592.04 1.18.082 1.844.094 1.923.036 3.884-.054 5.53-.562.824-.255 1.575-.615 2.188-1.157a3.588 3.588 0 0 0 1.188-2.187c.408-3.009-.777-5.35-2.688-6.844s-4.434-2.26-6.969-2.687a36.743 36.743 0 0 0-8.25-.438c-.202-.36-.392-.73-.595-1.09.016-.18.02-.32.032-.594.071-1.632.078-3.562-1.094-4.906-1.047-1.201-2.342-2.121-3.781-2.812A246.835 246.835 0 0 0-14.53 283.6c-3.377-5.008-8.354-11.178-13.53-17.25 3.954.086 7.86-.327 11.655-.344zm-14.188.469c5.519 6.425 10.888 13.034 14.406 18.25a242.84 242.84 0 0 1 5.094 7.906 18.797 18.797 0 0 0-5.438-.469 19.059 19.059 0 0 0-4.344.75c-6.316 1.9-12.729 8.569-17.75 14.72-4.566 5.592-7.557 10.286-8.125 11.187-.56-.228-1.72-.729-3.812-1.28-2.54-.671-5.536-1.284-7.813-.22-2.52 1.18-3.87 3.683-4.75 6.188-.072-.032-.146-.062-.219-.094-3.006-1.34-5.87-3.035-8.593-4.969 3.177-5.629 6.547-11.145 10.25-16.406 8.012-11.385 17.039-22.139 27.03-31.812a137.637 137.637 0 0 1 4.063-3.75zm-3.5.437c-.665.618-1.318 1.245-1.97 1.875-10.092 9.772-19.172 20.648-27.25 32.125-3.702 5.262-7.082 10.725-10.25 16.312-3.547-2.705-6.847-5.796-9.812-9.093-4.718-5.249-8.413-11.52-11.219-18.062a254.15 254.15 0 0 1 13.625-7.907c6.64-3.584 13.601-6.663 20.75-9.03 7.038-2.331 19.518-4.915 26.125-6.22zm76.625 13.312c.177.123.341.264.531.375 2.278 1.346 4.815 3.408 6.594 5.72a237.013 237.013 0 0 0-7.531-4.407c.138-.564.28-1.122.406-1.687zm-.938 3.688a258.665 258.665 0 0 1 10.062 6.031c.399 1.238.486 2.48.156 3.656-.491 1.76-1.554 2.87-3.156 3.75-1.601.88-3.735 1.466-6.03 1.97-3.016.66-6.34 1.188-9.25 2.343 3.895-5.244 6.478-11.422 8.218-17.75zm139.38 2.75c.44-.008.866.164 1.156.469l1.75 1.812c.578.606.528 1.67-.25 2.406l-38.1 36.03a194.05 194.05 0 0 0-2.968-5.03l37.125-35.126c.386-.365.84-.554 1.28-.562zm-277.31 4.5c2.868 6.604 6.678 12.949 11.5 18.312 3.094 3.442 6.537 6.695 10.281 9.531-2.958 5.31-5.737 10.72-8.469 16.125-.377.746-.75 1.501-1.125 2.25-1.023.42-2.01.979-2.906 1.656-2.024 1.533-3.652 3.614-4.312 5.938-.326 1.148-.125 2.3.281 3.281.261.631.602 1.213.969 1.781-1.421 3.296-2.746 6.65-3.875 10.062-1.324 4-2.597 8.022-3.813 12.062-1.297.142-2.556.482-3.781 1.125-2.859 1.501-4.177 4.449-5.344 7.22-1.167 2.77-2.231 5.423-4.156 6.905-3.078 2.37-8.149 2.565-13.062 3.031-2.457.234-4.886.565-7 1.375s-3.963 2.172-5 4.407c-1.025 2.21-1.127 4.19-.625 5.875.502 1.684 1.544 3.041 2.688 4.25 2.286 2.417 4.848 4.37 5.312 6.78.44 2.283-.132 4.86-.375 7.563-.062.688-.309 1.474-.594 2.313-13.44-7.72-25.837-17.515-37.062-28.156-3.603-3.416-7.734-8.222-11.844-13.406a177.117 177.117 0 0 1 7.906-15c4.39-7.42 9.718-14.284 15.094-21.125 4.94-6.286 10.124-12.411 15.656-18.156 7.322-7.603 14.862-15.031 23.125-21.5a253.834 253.834 0 0 1 20.531-14.5zm150.34.25a551.211 551.211 0 0 1 5.281 3.406c8.118 5.306 15.724 11.416 23.094 17.781 7.822 6.756 15.458 13.754 22.22 21.5 7.694 8.816 14.55 18.411 20.843 28.312-2.77 7.55-5.958 14.524-9.468 19.375-17.467 24.14-44.412 41.81-72.064 53.22a128.444 128.444 0 0 1-5.125 1.969 450.756 450.756 0 0 0-6.031-35.53c-4.455-21.05-10.202-41.95-18.25-61.94a372.338 372.338 0 0 0-5.907-13.844c.935-.044 1.92-.03 2.938 0 2.578.074 5.372.17 7.719-1.406 3.311-2.225 4.822-5.89 6.219-9.438s2.694-7.012 5.125-9.219c2.786-2.53 7.766-3.313 12.469-4.343 2.35-.516 4.643-1.102 6.562-2.157 1.92-1.054 3.479-2.657 4.125-4.968a7.675 7.675 0 0 0 .25-2.72zm-70.469 2.781c2.407-.114 4.902.27 7.031 1.156 1.413 2.346 2.815 4.703 4.157 7.094-.097.918-.25 1.594-.25 1.594-.122.614.471 1.258 1.093 1.187 0 0 .318-.037.657-.062a293.213 293.213 0 0 1 4.875 9.344c-1.012-.146-1.907-.281-1.907-.281a1.036 1.036 0 0 0-1.156.687s-2.045 6.367-5.469 13.062c-.198.388-.417.769-.625 1.156-.48.921-.792 1.491-1.28 2.313-3.215 5.436-7.266 10.307-11.345 11.344-1.61.409-4.634-.941-7.094-2.625s-4.375-3.531-4.375-3.531c-.602-.604-1.857.07-1.687.906 0 0 .417 2.285.469 4.906.051 2.62-.43 5.511-1.438 6.531-.45.455-1.004.646-1.812.688-.809.041-1.816-.116-2.875-.282s-2.167-.342-3.281-.312c-1.115.03-2.289.304-3.22 1.125-1.532 1.353-2.655 3.325-3.218 5.437s-.554 4.406.5 6.282c.721 1.282 1.958 1.938 3.25 2.25 1.292.311 2.693.344 4.031.375s2.616.083 3.625.312c1.01.229 1.702.595 2.125 1.281 1.332 2.158 1.546 5 .969 7.907-.577 2.907-1.967 5.824-3.594 8-.779 1.041-2.101 1.555-3.75 2.03s-3.549.88-5.125 2.063c-3.004 2.254-4.6 5.597-6.906 7.781-5.838 5.527-13.791 9.1-19.5 15.47-1.484 1.655-2.193 3.763-2.969 5.593-.775 1.83-1.563 3.307-2.937 4.031-.906.477-2.375.086-4.094-.437-.86-.262-1.75-.521-2.688-.594-.938-.072-1.984.095-2.844.75-1.061.81-1.554 1.976-1.75 3.156-.195 1.181-.144 2.415-.093 3.594s.1 2.301-.032 3.219c-.131.918-.391 1.592-.937 2.062-1.224 1.056-3.04.96-5.281.657-2.242-.304-4.779-.853-6.813.156-1.467.728-2.282 2.503-3.062 3.844a7.028 7.028 0 0 1-.938 1c-.368.302-1.055.522-1.625.531-.704.012-1.428-.229-2.03-.594-.632-.382-1.05-1.073-1.532-1.594-.695-.75-1.416-1.622-2.25-2.375-1.411-1.109-2.282-1.403-3.563-1.687-1.71-.38-3.81-.09-5.25.031-1.023.086-1.955.11-2.687-.031-.732-.142-1.238-.392-1.656-.938-.345-.449-.472-.894-.47-1.5.004-.605.22-1.449.407-2.156.189-.713.507-1.387.719-2.094.312-1.04.714-2.057.812-3.156.225-2.5.893-5.245.344-8.094-.665-3.451-3.71-5.559-5.812-7.78-1.051-1.112-1.887-2.22-2.25-3.438-.364-1.219-.305-2.6.562-4.469.798-1.72 2.084-2.72 3.875-3.406 1.79-.687 4.06-.99 6.469-1.219 4.816-.457 10.263-.52 14.094-3.469 2.524-1.943 3.631-4.99 4.781-7.719s2.294-5.078 4.406-6.187c.703-.37 1.456-.585 2.22-.75a9.23 9.23 0 0 1 2.155-.219c2.285.052 4.396.462 6.782 1 4.157.937 8.557 2.071 12.625.375 9.7-4.045 17.082-13.17 21.625-22.438 1.21-2.47 1.697-6.153 1.968-9.281a76.85 76.85 0 0 0 .282-5.688c.022-.458-.304-.921-.75-1.03-.446-.11-.963.145-1.157.562 0 0-.957 1.815-2.343 3.687-1.387 1.873-3.277 3.668-4.5 3.875-.758.129-1.814-.062-2.688-.5-.874-.437-1.522-1.098-1.75-1.75-.208-.594-.175-1.136.063-1.781.237-.645.702-1.36 1.25-2.125 1.096-1.528 2.574-3.167 3-5.281.275-1.367.069-2.68-.094-3.844s-.266-2.192-.031-3.062c.051-.192.1-.4.156-.594l.625-1.906c.817-2.273 1.96-4.366 3.719-5.188 1.27-.594 4.087-.285 6.468.344 2.382.628 4.344 1.469 4.344 1.469.433.17.975-.01 1.219-.407 0 0 3.477-5.618 8.406-11.656 4.93-6.037 11.415-12.439 16.812-14.062 1.183-.355 2.474-.561 3.813-.625zm14.906 10.875c1.861-.04 4.345.022 6.813.438 2.353.396 4.615 1.125 6.094 2.28 1.478 1.157 2.264 2.59 1.937 5-.054.4-.214.69-.531.97s-.828.52-1.469.718c-1.283.396-3.097.534-4.906.5a39.208 39.208 0 0 1-2.938-.187c-1.617-3.267-3.264-6.515-5-9.719zm26.156 6.563c-.33.818-.652 1.633-.969 2.437-1.382 3.51-2.807 6.723-5.5 8.531-1.685 1.132-3.971 1.136-6.53 1.063-.79-.023-1.618-.07-2.438-.063a86.708 86.708 0 0 0 15.438-11.969zM-.34 316.284c.368.068 1.271.251 2.531.406a325.448 325.448 0 0 1 3.22 6.813 77.39 77.39 0 0 1-8.282 4c-.836.343-1.698.635-2.562.906C-2.406 322.4-.684 317.32-.34 316.284zm139.06 3.75c6.8 10.924 17.982 32.985 22.5 49.625 5.345 19.684 7.57 39.59 7.406 55.406v.031c-.013.003-.012-.002-.03 0-.26.03-.95-.083-1.75-.281s-1.734-.46-2.657-.625c-.923-.166-1.865-.264-2.781.062-1.334.474-2.301 1.367-3.156 2.22-.856.851-1.617 1.682-2.438 2.155-.337.195-1.059.322-1.875.438-1.285-7.21-3.21-14.311-5.312-21.281-2.19-7.264-4.773-14.445-7.907-21.375a200.514 200.514 0 0 0-13.062-24.25c2.242-6.258 4.189-12.826 5.813-18.97a345.343 345.343 0 0 0 5.25-23.155zm-211.62.156c2.763 1.949 5.674 3.69 8.75 5.063.145.064.292.124.438.187-.085.3-.173.59-.25.875-.368 1.365-.197 2.661-.032 3.844s.307 2.253.125 3.156c-.273 1.359-1.488 2.902-2.656 4.531-.584.815-1.151 1.646-1.5 2.594-.348.948-.47 2.047-.093 3.125.462 1.321 1.564 2.266 2.78 2.875 1.217.61 2.604.909 3.907.688 2.416-.41 4.29-2.643 5.781-4.657.26-.351.21-.35.438-.687-.04.81-.008.818-.094 1.812-.263 3.034-.838 6.608-1.781 8.532-4.394 8.963-11.525 17.732-20.562 21.5-3.276 1.365-7.26.473-11.438-.47-2.171-.489-4.401-.98-6.594-1.062a465.856 465.856 0 0 1 3.594-11.375c.973-2.94 2.106-5.82 3.312-8.687.847 1.275 1.48 2.434 1.406 3.5-.11 1.603-1.423 3.153-2.937 4.844s-3.249 3.596-3.125 6.156c.058 1.204.492 2.452 1.187 3.531.695 1.08 1.68 2.015 3 2.313 2.521.568 4.652-.82 6.47-2.344 1.816-1.524 3.535-3.256 5.187-4.031.606-.285 1.692-.395 2.812-.594.56-.1 1.131-.25 1.688-.531.556-.281 1.098-.749 1.406-1.407.527-1.125.512-2.31.219-3.375s-.86-2.018-1.438-2.968c-1.157-1.902-2.423-3.75-2.625-5.313-.191-1.483.317-3.23.781-5.094s.888-3.91.032-5.906c-.897-2.09-2.872-4.208-5.438-4.25a9.069 9.069 0 0 0-1.406.094c.105-.208.207-.418.312-.625 2.693-5.327 5.449-10.628 8.344-15.844zm79.438 5.719a366.493 366.493 0 0 1 6.125 14.344c7.992 19.847 13.718 40.627 18.156 61.594 2.506 11.838 4.492 23.79 6.031 35.812-13.86 4.793-28.58 7.35-43.438 8.469-1.272-3.083-2.132-6.908-2.093-10.5.038-3.643 1.01-7.003 3.218-9.25 1.274-1.296 2.996-1.7 5.188-1.625s4.743.696 7.312 1.28c2.57.586 5.157 1.14 7.532 1.095 2.375-.045 4.662-.815 6.093-2.906.57-.832.62-1.823.407-2.688-.214-.864-.645-1.654-1.125-2.438-.962-1.567-2.146-3.137-2.5-4.312-.343-1.134-.116-2.957-.125-4.75-.005-.896-.08-1.792-.407-2.656a3.92 3.92 0 0 0-1.937-2.156c-.95-.465-1.989-.45-2.875-.188-.886.261-1.675.721-2.438 1.219-1.525.995-2.984 2.075-4.156 2.281-1.803.317-3.95-.183-6.187-.594s-4.626-.732-6.844.438c-2.566 1.352-4.512 4.53-6 7.344-1.268 2.396-1.833 3.936-2.063 4.53l-7.437-1.593c-.728-.166-1.447.732-1.125 1.406 0 0 2.373 5.055 4.437 10.406 1.033 2.676 1.98 5.426 2.532 7.594.275 1.084.462 2.049.5 2.719.028.503-.081.8-.094.875-.007-.008-.364.237-.969.406-.637.179-1.522.361-2.531.5-2.018.277-4.584.423-7.156.469-2.572.046-5.15-.01-7.156-.219-1.003-.104-1.876-.248-2.5-.406-.534-.135-.822-.297-.875-.313.008-.068-.114-.42-.094-.937.026-.69.148-1.662.375-2.781.453-2.24 1.267-5.086 2.125-7.875 1.715-5.579 3.656-10.906 3.656-10.906.278-.776-.769-1.622-1.469-1.188 0 0-.818.554-1.844 1.063s-2.304.881-2.75.812c-2.17-.337-4.451-2.29-5.437-4.375-1.042-2.202-.68-5.24.156-7.844.46-1.434 1.753-2.7 3.125-4.093s2.842-2.937 3.219-5.125c.32-1.865-.596-3.441-1.313-4.813s-1.217-2.502-.968-3.437c.28-1.053 1.191-1.869 2.437-2.75 1.246-.882 2.771-1.77 3.75-3.282 1.973-3.047 2.408-6.792 3.063-10.188.654-3.395 1.487-6.352 3.78-8.125.492-.379 1.456-.307 2.75-.125.648.092 1.337.196 2.063.157.727-.04 1.544-.275 2.188-.844 2.272-2.01 2.524-4.974 2.625-7.781.1-2.808.088-5.56 1.125-7.5 1.835-3.434 5.656-5.778 8.594-9.157 4.311-4.958 6.583-11.547 11.594-14.438.528-.305 1.122-.513 1.75-.656zm-7.288 2.84c-2.904 3.48-4.861 7.795-7.594 10.938-2.65 3.049-6.633 5.453-8.812 9.531-1.388 2.598-1.278 5.625-1.375 8.344-.097 2.719-.387 4.976-1.969 6.375-.228.202-.486.319-.937.344-.452.024-1.047-.066-1.688-.157-1.281-.18-2.898-.513-4.25.532-2.945 2.275-3.86 5.828-4.531 9.312-.672 3.484-1.156 6.99-2.781 9.5-.64.987-1.904 1.819-3.22 2.75-1.314.931-2.734 2.02-3.218 3.844-.49 1.848.399 3.485 1.125 4.875s1.293 2.59 1.125 3.562c-.249 1.448-1.342 2.697-2.687 4.063s-2.926 2.796-3.594 4.875c-.915 2.847-1.47 6.371-.063 9.344 1.269 2.68 3.9 4.996 6.938 5.469 1.327.206 2.582-.336 3.687-.875-.6 1.668-1.527 4.15-2.875 8.53-.868 2.823-1.678 5.735-2.156 8.095-.239 1.18-.404 2.215-.437 3.093-.034.878-.087 1.616.562 2.313.526.564 1.132.742 1.906.937.775.196 1.718.327 2.782.438 2.127.22 4.77.297 7.406.25 2.636-.047 5.271-.207 7.406-.5 1.067-.147 2.005-.314 2.781-.531.776-.218 1.387-.399 1.906-.938.656-.68.675-1.515.625-2.406-.05-.891-.268-1.938-.562-3.094-.588-2.312-1.578-5.097-2.625-7.812-1.74-4.513-3.084-7.426-3.688-8.75l6.313 1.375c.466.105.988-.178 1.156-.625 0 0 .892-2.41 2.312-5.094s3.478-5.599 5.188-6.5c1.543-.814 3.41-.646 5.562-.25s4.491 1.013 6.875.594c1.938-.341 3.499-1.644 4.907-2.563.704-.46 1.355-.837 1.906-1 .551-.162.97-.166 1.437.063.527.257.752.57.938 1.062s.277 1.208.281 2c.008 1.584-.321 3.492.219 5.281.534 1.77 1.813 3.356 2.687 4.781.437.713.782 1.371.907 1.875.124.505.09.778-.125 1.094-1.024 1.497-2.46 1.994-4.47 2.031-2.01.038-4.472-.48-7.03-1.062-2.559-.583-5.23-1.196-7.72-1.281-2.49-.086-4.912.413-6.687 2.219-2.698 2.745-3.739 6.649-3.78 10.625-.04 3.672.77 7.431 2 10.625-9.022.598-18.068.712-27 .468-23.254-.635-46.874-4.41-68.813-12.219.303-.521.605-.916 1-1.094 1.534-.687 3.691-.343 6-.03 2.309.312 4.901.576 6.875-1.126 1.008-.869 1.423-2.087 1.594-3.28.17-1.195.113-2.42.062-3.595s-.083-2.273.063-3.156c.146-.883.43-1.503 1-1.937.396-.303.833-.362 1.469-.313.636.05 1.405.243 2.25.5 1.689.514 3.704 1.277 5.594.281 2.055-1.083 3.06-3.08 3.875-5 .813-1.92 1.49-3.831 2.593-5.062 5.33-5.946 13.234-9.5 19.406-15.344 2.673-2.531 4.237-5.763 6.72-7.625 1.104-.829 2.743-1.222 4.468-1.719 1.725-.497 3.616-1.139 4.844-2.781 1.816-2.43 3.263-5.572 3.906-8.813.643-3.24.47-6.608-1.219-9.343-.772-1.251-2.039-1.892-3.344-2.188-1.304-.296-2.696-.313-4.03-.344-1.336-.03-2.644-.076-3.626-.312-.982-.237-1.574-.58-1.969-1.281-.706-1.257-.81-3.032-.343-4.782s1.495-3.444 2.656-4.468c.483-.427 1.094-.603 1.937-.625.844-.023 1.841.146 2.906.312s2.176.338 3.282.281c1.105-.056 2.28-.395 3.156-1.28 1.891-1.915 2.055-5.167 2-7.97-.03-1.494-.161-1.816-.281-2.78.836.727 1.207 1.13 2.75 2.187 2.615 1.79 5.793 3.641 8.687 2.906 5.62-1.428 10.098-7.602 13.5-13.844a35.168 35.168 0 0 0 4.594-1.531c.46-.189.918-.396 1.375-.594zm-79.438 9.812c1.325.022 2.988 1.545 3.625 3.032.56 1.302.321 2.867-.125 4.656-.446 1.788-1.08 3.735-.812 5.812.3 2.332 1.816 4.303 2.906 6.094.545.896.982 1.725 1.187 2.469.206.744.212 1.347-.093 2-.102.216-.235.335-.5.469s-.68.259-1.157.343c-.952.17-2.17.214-3.312.75-2.172 1.02-3.904 2.896-5.594 4.313s-3.15 2.267-4.75 1.906c-.627-.141-1.251-.663-1.75-1.437s-.837-1.773-.875-2.563c-.076-1.58 1.098-3.017 2.594-4.687s3.295-3.5 3.469-6.032c.16-2.342-1.313-4.212-2.469-5.875-.563-.725-.998-1.437-1.281-2.062a5.82 5.82 0 0 1-.125-.281c-.296-.716-.368-1.304-.188-1.938.506-1.781 1.863-3.596 3.594-4.906.943-.7 1.831-1.386 2.906-1.75.87-.295 1.94-.326 2.75-.313zm-19.312 7.47c-1.912.212-3.443 1.684-4.5 3.375-1.208 1.934-1.941 4.289-2.062 6.282-.107 1.763.272 3.873 1.125 5.687.853 1.815 2.305 3.435 4.375 3.563 2.223.137 3.971-1.436 5.125-3.282 1.153-1.845 1.843-4.071 2-5.968.147-1.78-.156-3.95-.938-5.844s-2.167-3.64-4.281-3.813a4.412 4.412 0 0 0-.844 0zm.219 2c.157-.018.31-.013.469 0 1.075.088 1.96 1.027 2.594 2.563.633 1.536.897 3.528.78 4.937-.126 1.526-.769 3.545-1.718 5.063-.949 1.518-2.076 2.418-3.281 2.344-1.052-.065-2-.977-2.688-2.438s-1.02-3.36-.937-4.719c.096-1.587.75-3.711 1.75-5.312.875-1.401 1.932-2.305 3.031-2.438zm-103 3.782c1.34 2.07 10.847 16.615 21.312 29.938a227.764 227.764 0 0 0-5.125 12.03h-.031c-11.101 29.334-13.837 51.472-12.031 80.25.239 3.772.623 7.538 1.094 11.282-6.46-8.19-13.19-17.81-13.19-17.81a1.013 1.013 0 0 0-.375-.344 190.728 190.728 0 0 1-2.188-10.406 192.602 192.602 0 0 1-1.469-9.563 193.751 193.751 0 0 1-1.531-24.469c0-25.052 4.81-48.964 13.531-70.906zm329.06 12.75c4.517 7.288 8.594 14.88 12.125 22.688 3.09 6.832 5.643 13.928 7.812 21.125 2.087 6.919 3.985 13.894 5.25 20.969-.57.095-1.136.224-1.656.53-.635.376-1.139 1.259-1.031 2.126 1.211 9.732 4.145 16.99 3.031 25.125-.572 4.178-.906 9.722-2.062 14.219-.578 2.248-1.35 4.222-2.406 5.594-1.058 1.371-2.312 2.185-4.094 2.312-2.077.149-3.714-.472-5.125-1.531-1.411-1.06-2.568-2.592-3.469-4.156-1.359-2.36-1.308-5.202-1-8.344s.891-6.517.219-9.781c-.475-2.302-1.997-5.085-4.094-7.47-2.097-2.383-4.815-4.399-7.844-4.624-5.507-.41-8.15 3.494-8.875 4.75-.724.014-15.488.268-23.094.719-2.499.148-3.866 1.454-5.344 2.468s-3.185 1.923-6.968 1.938c-3.23.012-5.351-1.044-7.438-2.125s-4.228-2.25-7-1.781c-2.68.452-5.753 1.983-6.812 4.812-.621 1.657-.678 3.613-.25 5.438s1.352 3.561 2.906 4.594c1.912 1.27 4.065 1.556 6.219 1.312 2.153-.243 4.35-.998 6.5-1.812 4.3-1.628 8.502-3.484 11.625-2.907 2.749.509 4.948 2.634 6.25 5.313s1.62 5.867.812 8.156c-1.525 4.317-5.919 9.012-11.406 12.531-5.487 3.52-12.031 5.883-17.688 5.875-8.633-.012-14.53-2.542-19.219-6.344-.138-4.66-.323-9.32-.593-13.97a503.682 503.682 0 0 0-3.031-33.31c1.888-.679 3.77-1.39 5.625-2.156 27.902-11.512 55.171-29.356 72.938-53.906 3.463-4.785 6.523-11.3 9.188-18.375zm-306.38 18.938c3.942 4.928 7.876 9.466 11.406 12.812 11.404 10.81 24.044 20.752 37.781 28.594-.068.2-.124.39-.188.593-.276.883-.495 1.787-.5 2.72-.005.93.239 1.918.875 2.75.744.97 1.782 1.48 2.844 1.687 1.062.206 2.167.153 3.25.062 2.166-.181 4.296-.457 5.688.094 1.26.499 2.442 1.9 3.75 3.312.738.798 1.58 1.608 2.562 2.157-.094.727-.19 1.46-.281 2.187-.064.521-.127 1.041-.187 1.563-7.387.23-13.552 2.472-19.97 4.468-6.637 2.065-15.526 3.16-20.093 8.47-6.16 7.16-6.761 18.572-4.25 27.437 1.126 3.976 4 6.846 6.968 9.5s6.05 5.115 7.907 8.156c2.689 4.406 3.64 10.272 4.968 15.906 1.329 5.634 3.094 11.125 7.813 14.562 3.664 2.67 8.113 2.79 12.53 2.5 2.115-.138 4.248-.346 6.313-.468.108.694.201 1.4.313 2.093a425.066 425.066 0 0 0 2.812 15.562c-16.298-5.902-31.672-14.699-46.094-24.406-13.65-9.188-25.828-20.632-37.125-32.688-1.255-1.34-2.682-3.047-4.156-4.843-.66-4.783-1.195-9.573-1.5-14.375-1.793-28.591.884-50.282 11.906-79.406a225.73 225.73 0 0 1 4.656-11zm132.44 12.125c-.867.03-1.784.253-2.719.562-1.87.619-3.893 1.684-5.937 2.969-4.089 2.57-8.25 5.986-11 8.344-1.301 1.114-1.41 2.762-1.532 4.094-.121 1.331-.288 2.387-.812 2.906-.297.294-1.001.421-2 .5-.999.078-2.313.136-3.219 1.219-.975 1.164-.72 2.577-.594 3.656.127 1.078.126 1.799-.156 2.125-.452.522-1.232.837-2.312.968s-2.38.062-3.688.032-2.61-.042-3.781.28c-1.171.324-2.29 1.208-2.563 2.595-.512 2.605.915 5.042 3.094 6.687s5.16 2.64 8.25 2.594c3.764-.056 6.307-1.913 8.344-3.406 1.018-.747 1.92-1.399 2.781-1.781.86-.383 1.66-.52 2.656-.282.865.207 1.588.89 2.282 2 .694 1.11 1.273 2.594 1.906 4.032.632 1.437 1.278 2.835 2.25 3.906.971 1.07 2.505 1.754 4.156 1.312.994-.265 1.69-.976 2.281-1.75.592-.773 1.108-1.686 1.72-2.625 1.22-1.877 2.747-3.892 5.624-5.312.708-.35 1.28-.933 1.5-1.625.22-.692.135-1.387-.062-2.063-.395-1.351-1.266-2.734-2.25-4.219-1.97-2.969-4.335-6.366-4.438-8.562-.167-3.556.457-7.298 2.688-10.062.918-1.138 1.51-2.74 1.656-4.344.073-.802.025-1.596-.219-2.344-.244-.747-.708-1.465-1.469-1.875-.741-.4-1.57-.56-2.437-.53zm.031 2.03c.601-.022 1.082.06 1.438.25.241.131.403.327.531.72s.18.96.125 1.562c-.11 1.203-.656 2.584-1.219 3.281-2.665 3.302-3.305 7.558-3.125 11.406.156 3.325 2.829 6.665 4.75 9.563.96 1.448 1.74 2.795 2 3.687.13.446.145.746.094.907s-.125.268-.469.437c-3.307 1.633-5.151 4.055-6.437 6.031-.643.988-1.153 1.852-1.625 2.469-.473.617-.85.933-1.22 1.031-1.001.268-1.47.002-2.124-.719-.655-.72-1.29-1.972-1.906-3.375-.618-1.402-1.233-2.953-2.063-4.28-.83-1.329-1.946-2.497-3.531-2.876-1.44-.344-2.76-.103-3.906.407-1.146.51-2.143 1.256-3.156 2-2.028 1.486-4.048 2.952-7.188 3-2.63.039-5.252-.845-7.031-2.188-1.78-1.343-2.645-3.028-2.313-4.719.133-.673.377-.825 1.125-1.031.749-.206 1.91-.248 3.188-.219 1.278.03 2.676.1 4-.062 1.323-.162 2.642-.56 3.562-1.625.996-1.151.752-2.575.625-3.656-.127-1.082-.122-1.824.157-2.157.256-.306.865-.454 1.843-.53.978-.078 2.293-.083 3.282-1.063 1.206-1.196 1.255-2.81 1.375-4.125.12-1.316.295-2.28.843-2.75 2.72-2.33 6.823-5.72 10.75-8.188 1.964-1.234 3.884-2.247 5.5-2.781a7.745 7.745 0 0 1 2.125-.406zm209.91 28.376c.3.004.673.055 1.063.125.778.14 1.647.382 2.5.594.789.195 1.545.364 2.312.312a193.769 193.769 0 0 1-1.625 21.188c-.175.1-.319.255-.406.438 0 0-4.618 8.502-10.281 17.78.106-11.17-.188-22.42-1.781-33.53-.09-.629-.18-1.25-.282-1.875.86-.1 1.734-.26 2.532-.72 1.177-.678 2.058-1.624 2.875-2.437.816-.813 1.565-1.482 2.406-1.78.16-.058.387-.1.687-.095zm-10.5 5.281c.102.633.222 1.272.313 1.906.629 4.387 1.038 8.812 1.312 13.25-.757-4.664-1.991-9.374-2.656-14.719-.026-.21-.088-.048.094-.156.143-.085.502-.195.937-.281zm-218 2.5c-.346-.009-.703.003-1.062.031-.72.056-1.46.202-2.156.438-1.393.47-2.768 1.397-3 3-.244 1.675.853 3.06 2.125 3.969 1.27.909 2.79 1.48 4.187 1.593 1.2.097 2.549-.187 3.719-.78s2.248-1.564 2.406-3c.16-1.465-.713-2.691-1.75-3.532-1.037-.841-2.284-1.418-3.469-1.625a6.8 6.8 0 0 0-1-.094zm-.906 2.031a6.766 6.766 0 0 1 1.562.063c.782.136 1.827.59 2.563 1.187.736.597 1.088 1.23 1.031 1.75-.054.494-.525 1.023-1.344 1.438-.818.415-1.89.622-2.625.562-.93-.075-2.273-.542-3.218-1.219-.946-.676-1.405-1.427-1.313-2.062.082-.563.636-1.061 1.656-1.406a6.865 6.865 0 0 1 1.688-.313zm-38.844.438c22.254 7.962 46.187 11.795 69.719 12.438 9.246.252 18.637.152 28-.5 1.238 1.93 3.358 3.626 5.281 5.03.97.709 1.09.711 1.844 1.188-4.745.435-46.327 4.164-68.312.938-7.09-1.04-13.854-4.325-20.75-7.406-6.7-2.994-13.529-5.79-20.906-5.97.051-.437.102-.874.156-1.312.074-.592.143-1.188.219-1.78.213.02.43.04.656.03 1.153-.049 2.093-.435 2.781-1 .602-.492.99-1.082 1.313-1.656zm142.56 3.406a505.38 505.38 0 0 1 2.969 32.719c.233 4.02.396 8.034.531 12.062-3.783-3.638-6.79-8.162-9.844-12.75-.733-1.102-.722-2.804-.687-4.719.034-1.915.09-4.101-1.406-5.75-1.37-1.507-3.35-2.82-5.47-3.562-2.118-.743-4.465-.92-6.405.218-4.158 2.438-5.958 8.409-3.157 13.72 7.386 14 10.385 25.508 23.062 33.811 1.29.845 2.69 1.392 4.157 1.72a531.58 531.58 0 0 1-1.844 38.687c-.193 2.287-.458 4.86-.782 7.563a12.618 12.618 0 0 0-2.343 2.28c-12.397 3.716-25.051 6.397-37.781 7.813-22.216 2.472-44.992.896-67.22-3.312-.044-2.129.005-4.32 0-6.5-.01-5.274-.398-10.582-4-14.531-3.705-4.064-8.908-5.703-14.343-6.563-5.435-.86-11.178-.945-16.156-1.812-1.666-.29-3.383-.356-5.094-.313-1.479-9.87-2.547-19.797-2.969-29.75-.801-18.914-1.184-37.968.844-56.719 6.975.121 13.617 2.807 20.344 5.813 6.856 3.064 13.779 6.461 21.28 7.562 23.904 3.51 71.73-1.15 71.73-1.15.809-.118 1.073-1.419.376-1.843 0 0-1.99-1.114-4.188-2.72-1.445-1.055-2.943-2.362-4-3.593 14.463-1.16 28.813-3.717 42.406-8.375zm-149.91 4.344c-2.022 18.847-1.674 37.91-.875 56.78.422 9.975 1.495 19.89 2.969 29.75-2.069.137-4.132.37-6.125.5-4.29.282-8.19.104-11.25-2.124-4.082-2.974-5.728-7.909-7.031-13.438-1.304-5.53-2.205-11.581-5.188-16.47-2.11-3.458-5.373-6.023-8.281-8.624-2.909-2.602-5.426-5.212-6.375-8.563-2.362-8.34-1.69-19.168 3.812-25.562 3.776-4.389 12.29-5.698 19.188-7.844 6.395-1.989 12.26-4.135 19.156-4.406zm234.16 1.28c.306-.01.637.008.969.032 2.212.165 4.58 1.791 6.469 3.938 1.887 2.146 3.262 4.804 3.625 6.562.568 2.758.067 5.924-.25 9.156-.318 3.233-.429 6.594 1.28 9.563.988 1.715 2.28 3.459 4 4.75s3.903 2.12 6.47 1.937a7.153 7.153 0 0 0 3.625-1.28c-1.466 2.046-2.892 3.915-4.22 5.468-15.247 17.839-32.542 34.683-52.75 46.406-15.66 9.086-32.477 16.722-49.874 22.344 1.876-1.093 4.077-1.866 6.406-2.625 3.978-1.296 8.25-2.514 11.312-5.594 5.569-5.601 6.724-13.92 10.5-20 1.068-1.72 2.754-3.29 4.344-5 1.59-1.71 3.12-3.6 3.625-6.062.4-1.95.528-4.234.156-6.407s-1.281-4.287-3.094-5.593c-2.21-1.594-5.055-1.792-8.125-1.438-3.07.354-6.445 1.293-9.844 2.156-4.588 1.166-9.193 2.189-13.094 1.813.044-5.537-.02-11.061-.156-16.594 4.808 3.486 10.9 5.77 19.156 5.781 6.207.009 13.031-2.5 18.781-6.187 5.75-3.688 10.452-8.56 12.22-13.562 1.046-2.966.6-6.584-.907-9.688s-4.158-5.722-7.688-6.375c-4.105-.76-8.513 1.377-12.719 2.969-2.102.796-4.153 1.478-6 1.687-1.847.21-3.452-.034-4.906-1-.98-.65-1.72-1.913-2.062-3.375-.343-1.461-.26-3.058.187-4.25.66-1.762 3.126-3.167 5.281-3.53 2.091-.354 3.617.442 5.72 1.53 2.101 1.089 4.685 2.39 8.374 2.375 4.132-.016 6.456-1.157 8.094-2.28 1.637-1.124 2.47-2.015 4.344-2.126 7.682-.455 23.562-.75 23.562-.75.381-.003.75-.245.906-.594 0 0 1.692-3.985 6.281-4.156zm44.91 8.2c-2.366 14.706-6.376 28.862-11.875 42.25.603-6.331 1.554-17.08 1.875-25.311a409.375 409.375 0 0 0 10-16.938zm-11.938 3.563c.052 3.136.061 6.274.031 9.407-.01 1.02-.051 2.223-.094 3.406-.922 1.47-1.87 2.94-2.812 4.375.282-.778.535-1.57.75-2.406 1.232-4.794 1.542-10.407 2.094-14.438.016-.116.017-.23.031-.344zm-134.34 2.032c.803-.002 1.678.158 2.562.468 1.77.62 3.515 1.808 4.625 3.032.868.955.94 2.495.907 4.375s-.184 4.05 1.03 5.875c3.418 5.132 6.86 10.342 11.595 14.406.166 5.945.231 11.893.187 17.844-1.1-.278-2.13-.703-3.062-1.313-12.09-7.92-14.917-18.89-22.408-33.09-2.35-4.454-.73-9.224 2.406-11.062.621-.364 1.353-.53 2.156-.531zm-229.31 13.188c2.977 4.158 8.065 11.099 12.781 16.875.233 1.658.494 3.316.75 4.968 1.005 6.487 2.172 12.978 3.781 19.375.27 1.07.675 2.411 1.094 3.782a190.983 190.983 0 0 1-18.406-45zm363.4 1.6c-.64 11.809-2.188 26.969-2.188 26.969-.056.204-.045.427.032.625-15.608 34.742-41.231 64.01-73.188 84.125-1.421.894-2.836 1.767-4.282 2.625-.032.019-.06.043-.093.062l-.157.094c-1.427.844-2.893 1.66-4.343 2.469-1.504.837-3.004 1.64-4.532 2.437-1.289.673-2.6 1.324-3.906 1.969-.242.12-.476.256-.718.375-.24.116-.48.228-.72.344A191.14 191.14 0 0 1 56 597.864c-.085.038-.165.086-.25.125-.816.37-1.647.703-2.469 1.062-.613.267-1.227.552-1.844.813-.064.027-.123.066-.187.093-1.375.58-2.765 1.109-4.156 1.657-.23.09-.457.19-.688.28a189.68 189.68 0 0 1-3.687 1.407c-.397.146-.79.294-1.188.438-1.08.387-2.16.756-3.25 1.125-.01.003-.022-.003-.031 0-2.204.744-4.448 1.427-6.688 2.093.583-3.067 5.614-29.73 8.25-50.344 18.07-5.707 35.531-13.59 51.75-23 20.498-11.893 37.921-28.91 53.25-46.844 2.87-3.357 6.107-8.011 9.25-12.875zm-348.16 18.25c.734.848 1.456 1.66 2.125 2.375 11.355 12.118 23.637 23.658 37.469 32.969 14.835 9.985 30.74 19.078 47.688 25.062 1.73 8.429 3.715 16.81 6.031 25.094 2.129 7.613 6.855 20.432 8.406 24.594-39.425-15.125-72.6-42.837-94.594-78.22.099-.227.142-.483.063-.718 0 0-2.332-6.881-3.188-10.281-1.586-6.306-2.749-12.73-3.75-19.188-.087-.562-.165-1.126-.25-1.688zm262.16 11.21c1.924-.018 3.52.323 4.719 1.187 1.235.89 1.964 2.462 2.28 4.313.318 1.85.2 3.924-.155 5.656-.385 1.875-1.607 3.493-3.125 5.125s-3.295 3.239-4.563 5.281c-4.09 6.587-5.275 14.684-10.219 19.656-2.58 2.595-6.518 3.786-10.53 5.094-2.074.675-4.181 1.393-6.095 2.406.242-2.126.469-4.177.625-6.031a532.805 532.805 0 0 0 1.844-38.562c4.317.397 9.101-.757 13.625-1.906 3.418-.869 6.721-1.766 9.563-2.094.71-.082 1.39-.12 2.03-.125zm-176.47 29.125c1.54-.028 3.027.035 4.437.28 5.201.906 10.945 1.015 16.188 1.845 5.243.829 9.932 2.335 13.188 5.906 3.048 3.342 3.46 8.018 3.47 13.188.003 1.99-.058 4.046-.032 6.094a314.998 314.998 0 0 1-27.875-6.844 138.92 138.92 0 0 1-6.094-1.969 416.504 416.504 0 0 1-3-16.625c-.1-.623-.184-1.252-.281-1.875zm3.781 20.812c1.671.56 3.34 1.097 5.031 1.593a316.27 316.27 0 0 0 28.531 6.97c.13 2.567.445 5.116 1.313 7.5 1.743 4.787 5.5 8.272 7.219 12.405 1.177 2.831 1.156 7.381 1.468 11.438.157 2.028.413 3.955 1.032 5.563.618 1.607 1.736 2.96 3.468 3.406 3.918 1.01 5.325 3.906 6.72 6.969.687 1.51 1.338 3.033 2.312 4.312-14.688-1.834-28.878-5.3-42.344-10.25-.268-.71-6.545-17.422-8.97-26.094-2.196-7.859-4.109-15.813-5.78-23.812zm142.38 3.937c-2.783 21.344-8.208 49.666-8.344 50.375-1.533.437-3.045.85-4.593 1.25.064-.185.11-.37.156-.562.343-1.47.311-3.185.219-5-.186-3.631-.56-7.676.375-10.031 1.125-2.834 4.363-4.99 5.906-8.563 1.986-4.599 2.013-9.776 2.312-14.656.29-4.719.822-9.14 3.25-12.594.24-.072.479-.145.719-.219zm-3.531 1.063c-1.785 3.552-2.191 7.604-2.438 11.625-.303 4.948-.388 9.874-2.156 13.969-1.216 2.816-4.495 4.991-5.937 8.625-1.262 3.178-.68 7.378-.5 10.906.09 1.764.096 3.353-.157 4.437-.252 1.084-.578 1.53-1.343 1.719-7.913 1.96-18.462 3.667-27.25 4.531-1.026.095-2.033.203-3.063.281-.113.01-.232.023-.344.032-.726.053-1.459.079-2.187.125-.828.047-1.677.1-2.438.125-9.032.294-17.649.232-28-.594-.501-.047-1-.074-1.5-.125-.124-.013-.25-.019-.375-.031-1.08-.214-1.77-.796-2.437-1.657-.769-.993-1.417-2.412-2.125-3.968-1.417-3.113-3.31-6.815-8.031-8.032-1.03-.265-1.642-.962-2.125-2.218-.484-1.256-.724-3.009-.875-4.97-.302-3.92-.176-8.577-1.625-12.061-1.946-4.678-5.666-8.164-7.188-12.344-.716-1.967-1.017-4.132-1.156-6.406 22.234 4.17 45.043 5.73 67.344 3.25 12.096-1.346 24.116-3.815 35.906-7.22zM103.81 22.312a1 1 0 0 0-.219.031 1 1 0 0 0-.718.688l-4.965 14.28-15.186-.03a1 1 0 0 0-.594 1.78L94.19 48.25l-4.72 14.375a1 1 0 0 0 1.5 1.156l12.47-8.688 12.25 8.97a1 1 0 0 0 1.53-1.095l-4.343-14.5 12.28-8.875a1 1 0 0 0 .09-.062 1 1 0 0 0 .06-.03 1 1 0 0 0 .19-.126l11.313-9.125c1.597-1.291 1.995-3.653.719-5.218a1 1 0 0 0-.032 0l-.156-.188a3.497 3.497 0 0 0-2.5-1.25 3.903 3.903 0 0 0-2.687.875l-13.93 11.281a4.06 4.06 0 0 0-1.313 1.875l-7.469-.156-4.656-14.438a1 1 0 0 0-.97-.72zm30.562 3.281c.111-.013.231-.007.344 0 .432.026.832.21 1.094.531l.156.188c.531.652.423 1.705-.406 2.375l-11.03 8.907-5.15-.094c.055-.056.03-.136.093-.188l13.938-11.28c.316-.255.635-.398.969-.438zm-30.562.875 3.94 12.282a1 1 0 0 0 .938.688l12.9.28-10.47 7.532a1 1 0 0 0-.407 1.094l3.75 12.344-10.438-7.594a1 1 0 0 0-1.156 0l-10.579 7.312 4.031-12.218a1 1 0 0 0-.343-1.094l-10.28-7.844 12.905.062a1 1 0 0 0 .969-.657l4.25-12.188zM127.53 58.844a1 1 0 0 0-.906.688l-5 14.312-15.156-.063a1 1 0 0 0-.594 1.813l12.062 9.156-4.719 14.406a1 1 0 0 0 1.5 1.125l12.47-8.656 12.25 8.968a1 1 0 0 0 1.53-1.125l-4.343-14.5 12.28-8.843a1 1 0 0 0-.562-1.813l-15.15-.339-4.66-14.407a1 1 0 0 0-1-.719zm0 4.156 3.969 12.281a1 1 0 0 0 .906.688l12.9.282-10.47 7.53a1 1 0 0 0-.375 1.094l3.719 12.313-10.406-7.594a1 1 0 0 0-1.156 0l-10.594 7.344 4.03-12.25a1 1 0 0 0-.343-1.094l-10.28-7.813 12.905.063a1 1 0 0 0 .969-.688L127.524 63zM154.75 96.719a1 1 0 0 0-.781.656l-5 14.312-15.188-.031a1 1 0 0 0-.594 1.781l12.094 9.156-4.75 14.406a1 1 0 0 0 1.531 1.125l12.47-8.625 12.218 8.938a1 1 0 0 0 1.563-1.094l-4.375-14.5 12.28-8.875a1 1 0 0 0-.562-1.812l-15.16-.34-4.66-14.404a1 1 0 0 0-1.09-.687zm.094 4.156 3.969 12.25a1 1 0 0 0 .937.688l12.875.28-10.438 7.532a1 1 0 0 0-.375 1.094l3.719 12.312-10.406-7.563a1 1 0 0 0-1.156-.03l-10.594 7.343 4-12.219a1 1 0 0 0-.344-1.125l-10.22-7.781 12.845.031a1 1 0 0 0 .969-.656l4.21-12.15zM176.28 136.34a1 1 0 0 0-.906.688l-5 14.312-15.156-.063a1 1 0 0 0-.594 1.813l12.062 9.156-4.719 14.406a1 1 0 0 0 1.5 1.125l12.47-8.656 12.25 8.968a1 1 0 0 0 1.53-1.125l-4.343-14.5 12.28-8.843a1 1 0 0 0-.562-1.813l-15.156-.344-4.656-14.406a1 1 0 0 0-1-.718zm0 4.156 3.969 12.281a1 1 0 0 0 .906.688l12.906.281-10.469 7.531a1 1 0 0 0-.375 1.094l3.719 12.312-10.406-7.594a1 1 0 0 0-1.156 0l-10.594 7.344 4.03-12.25a1 1 0 0 0-.343-1.094l-10.28-7.812 12.905.062a1 1 0 0 0 .969-.687l4.21-12.15zM195.22 187.59a1 1 0 0 0-.906.688l-5 14.312-15.156-.063a1 1 0 0 0-.625 1.813l12.1 9.16-4.75 14.406a1 1 0 0 0 1.53 1.125l12.47-8.625 12.25 8.937a1 1 0 0 0 1.531-1.125l-4.375-14.469 12.312-8.875a1 1 0 0 0-.562-1.812l-15.188-.344-4.625-14.406a1 1 0 0 0-1-.719zm0 4.156 3.938 12.281a1 1 0 0 0 .937.688l12.875.281-10.438 7.531a1 1 0 0 0-.375 1.094l3.719 12.344-10.406-7.625a1 1 0 0 0-1.156 0l-10.594 7.344 4.03-12.25a1 1 0 0 0-.343-1.094l-10.281-7.813 12.906.063a1 1 0 0 0 .938-.688l4.25-12.156zM204.59 240.47a1 1 0 0 0-.813.656l-4.968 14.312-15.188-.03a1 1 0 0 0-.62 1.78l12.094 9.155-4.75 14.406a1 1 0 0 0 1.53 1.125l12.47-8.625 12.25 8.938a1 1 0 0 0 1.531-1.094l-4.375-14.5 12.312-8.875a1 1 0 0 0-.562-1.813l-15.188-.343-4.625-14.406a1 1 0 0 0-1.094-.688zm.094 4.125 3.937 12.281a1 1 0 0 0 .938.688l12.875.28-10.44 7.53a1 1 0 0 0-.375 1.095l3.75 12.344-10.438-7.594a1 1 0 0 0-1.156-.031l-10.594 7.343 4.03-12.219a1 1 0 0 0-.343-1.125l-10.25-7.78 12.875.03a1 1 0 0 0 .937-.656l4.25-12.188zM146.34 61.353a4.332 4.332 0 0 0-.634 6.098 4.372 4.372 0 0 0 6.122.637l5.492-4.44a4.332 4.332 0 0 0 .634-6.099 4.372 4.372 0 0 0-6.122-.636l-5.492 4.44zm1.263 1.55 5.492-4.44a2.324 2.324 0 0 1 3.304.343 2.302 2.302 0 0 1-.342 3.29l-5.492 4.441c-1.026.83-2.47.68-3.304-.343s-.683-2.461.342-3.29zM171.07 94.123a4.332 4.332 0 0 0-.634 6.098 4.372 4.372 0 0 0 6.122.637l2.503-2.024a4.332 4.332 0 0 0 .634-6.098 4.372 4.372 0 0 0-6.122-.637l-2.503 2.024zm1.263 1.55 2.503-2.023c1.026-.83 2.47-.68 3.304.343s.683 2.461-.342 3.29l-2.503 2.024c-1.026.83-2.47.68-3.304-.343s-.683-2.461.342-3.29zM195.71 137.86c-1.86 1.504-2.17 4.263-.658 6.118 1.511 1.854 4.305 2.145 6.166.64l2.503-2.023c1.86-1.504 2.125-4.268.614-6.122a4.372 4.372 0 0 0-6.122-.637l-2.503 2.024zm1.263 1.55 2.503-2.023c1.026-.83 2.47-.68 3.304.343s.703 2.485-.323 3.315l-2.503 2.023a2.377 2.377 0 0 1-3.347-.348c-.833-1.022-.66-2.48.366-3.31zM213.38 185.17c-1.86 1.504-2.15 4.287-.638 6.142s4.285 2.12 6.146.617l2.503-2.024c1.86-1.504 2.145-4.243.634-6.098s-4.282-2.165-6.142-.66l-2.503 2.023zm1.263 1.55 2.503-2.023c1.026-.83 2.49-.655 3.323.367s.684 2.461-.342 3.29l-2.503 2.024c-1.026.83-2.494.7-3.327-.323a2.355 2.355 0 0 1 .346-3.335zM223.92 243.56c-1.86 1.504-2.15 4.287-.638 6.142s4.285 2.12 6.146.617l2.503-2.024a4.332 4.332 0 0 0 .634-6.098c-1.512-1.855-4.282-2.165-6.142-.66l-2.503 2.023zm1.263 1.55 2.503-2.023c1.026-.83 2.49-.655 3.323.367a2.302 2.302 0 0 1-.342 3.29l-2.503 2.024c-1.026.83-2.494.7-3.327-.323s-.68-2.505.346-3.335zM201.03 317.53c-1.658.087-3.065 1.378-3.375 3.125l-4.75 26.75c-.299 1.681.502 3.342 1.938 4.031-.084-.04.088.037.125.063s-.042-.002.125.062v-.031c.503.242 1.08.438 1.718.438h5.531l-1.437 8.062a1 1 0 0 0-.031 0c-.278 1.562.399 3.105 1.656 3.875v.031c.016.011.046-.01.063 0 .63.412 1.38.657 2.187.656l14.594-.03c2.011-.004 3.76-1.504 3.75-3.47v-1.062c-.01-1.969-1.78-3.44-3.781-3.438h-9.688l.813-4.656h3.094c2.01-.003 3.76-1.503 3.75-3.469v-1.062c-.01-1.969-1.767-3.471-3.782-3.469h-1.625l1.625-9.25c.35-1.966-.837-3.963-2.75-4.312h-.03l-1.032-.188a1 1 0 0 0-.031 0c-1.928-.335-3.711 1.115-4.063 3.094l-1.875 10.688h-2.062l3.875-21.906c.348-1.961-.845-3.925-2.75-4.281h-.031l-1-.188a1 1 0 0 0-.032-.031 3.187 3.187 0 0 0-.718-.031zm.125 2c.086-.005.182.014.281.031v-.031l1 .188a1 1 0 0 0 .031.03c.762.133 1.28.895 1.094 1.938l-4.094 23.094a1 1 0 0 0 1 1.188h4.125a1 1 0 0 0 1-.813l2.032-11.5c.182-1.026.965-1.58 1.718-1.469h.032l1.03.188a1 1 0 0 0 .032 0c.761.132 1.28.894 1.094 1.937l-1.84 10.43a1 1 0 0 0 1 1.188h2.844c1.051-.001 1.777.706 1.78 1.469v1.062c.005.765-.694 1.468-1.75 1.469h-3.937a1 1 0 0 0-1 .813l-1.187 6.656a1 1 0 0 0 1 1.187h10.906c1.065 0 1.777.676 1.781 1.438v1.062c.004.765-.695 1.468-1.75 1.469l-14.594.031c-.438 0-.83-.144-1.125-.344a1 1 0 0 0-.062-.03c-.512-.295-.867-.982-.72-1.813h-.03l1.656-9.25a1 1 0 0 0-.969-1.188h-6.719c-.334 0-.612-.067-.906-.219a1 1 0 0 0-.125-.062c.223.086.211.069-.062-.063-.567-.271-.968-.97-.813-1.843l4.75-26.75c.159-.895.85-1.466 1.5-1.5zM-446.92 538.41a1 1 0 0 0-.781.656l-5 14.312-15.188-.031a1 1 0 0 0-.594 1.781l12.094 9.156-4.75 14.406a1 1 0 0 0 1.531 1.125l12.47-8.625 12.218 8.938a1 1 0 0 0 1.563-1.094l-4.375-14.5 12.28-8.875a1 1 0 0 0-.562-1.812l-15.156-.344-4.656-14.406a1 1 0 0 0-1.094-.688zm.094 4.156 3.969 12.25a1 1 0 0 0 .937.688l12.875.28-10.438 7.532a1 1 0 0 0-.375 1.094l3.719 12.312-10.406-7.563a1 1 0 0 0-1.156-.03l-10.594 7.343 4-12.219a1 1 0 0 0-.344-1.125l-10.22-7.781 12.845.031a1 1 0 0 0 .969-.656l4.218-12.156zM-413.71 568.21a1 1 0 0 0-.781.656l-5 14.312-15.188-.03a1 1 0 0 0-.594 1.78l12.094 9.156-4.75 14.406a1 1 0 0 0 1.531 1.125l12.47-8.625 12.218 8.938a1 1 0 0 0 1.563-1.094l-4.375-14.5 12.28-8.875a1 1 0 0 0-.562-1.812l-15.156-.344-4.656-14.406a1 1 0 0 0-1.094-.688zm.094 4.156 3.969 12.25a1 1 0 0 0 .937.688l12.875.281-10.438 7.531a1 1 0 0 0-.375 1.094l3.719 12.312-10.406-7.563a1 1 0 0 0-1.156-.03l-10.594 7.343 4-12.219a1 1 0 0 0-.344-1.125l-10.22-7.781 12.845.031a1 1 0 0 0 .969-.656l4.218-12.156zM-376.97 595.36a1 1 0 0 0-.781.656l-5 14.312-15.188-.03a1 1 0 0 0-.594 1.78l12.094 9.156-4.75 14.406a1 1 0 0 0 1.531 1.125l12.47-8.625 12.218 8.938a1 1 0 0 0 1.563-1.094l-4.375-14.5 12.28-8.875a1 1 0 0 0-.562-1.812l-15.156-.344-4.656-14.406a1 1 0 0 0-1.094-.688zm.094 4.156 3.968 12.25a1 1 0 0 0 .938.688l12.875.281-10.438 7.531a1 1 0 0 0-.375 1.094l3.719 12.312-10.406-7.563a1 1 0 0 0-1.156-.03l-10.594 7.343 4-12.219a1 1 0 0 0-.344-1.125l-10.22-7.781 12.845.031a1 1 0 0 0 .969-.656l4.218-12.156zM-337.32 618.84a1 1 0 0 0-.781.656l-5 14.312-15.188-.03a1 1 0 0 0-.594 1.78l12.094 9.156-4.75 14.406a1 1 0 0 0 1.531 1.125l12.47-8.625 12.218 8.938a1 1 0 0 0 1.563-1.094l-4.375-14.5 12.28-8.875a1 1 0 0 0-.562-1.812l-15.156-.344-4.656-14.406a1 1 0 0 0-1.094-.688zm.094 4.156 3.969 12.25a1 1 0 0 0 .937.688l12.875.281-10.438 7.531a1 1 0 0 0-.375 1.094l3.719 12.312-10.406-7.563a1 1 0 0 0-1.156-.03l-10.594 7.343 4-12.219a1 1 0 0 0-.344-1.125l-10.22-7.781 12.845.031a1 1 0 0 0 .969-.656l4.218-12.156zM-289.34 638.41a1 1 0 0 0-.781.656l-5 14.312-15.188-.031a1 1 0 0 0-.594 1.781l12.094 9.156-4.75 14.406a1 1 0 0 0 1.531 1.125l12.47-8.625 12.218 8.938a1 1 0 0 0 1.563-1.094l-4.375-14.5 12.28-8.875a1 1 0 0 0-.562-1.812l-15.156-.344-4.656-14.406a1 1 0 0 0-1.094-.688zm.094 4.156 3.969 12.25a1 1 0 0 0 .937.688l12.875.28-10.438 7.532a1 1 0 0 0-.375 1.094l3.719 12.312-10.406-7.563a1 1 0 0 0-1.156-.03l-10.594 7.343 4-12.219a1 1 0 0 0-.344-1.125l-10.22-7.781 12.845.031a1 1 0 0 0 .969-.656l4.218-12.156zM-232.14 652.18a1 1 0 0 0-.781.656l-5 14.312-15.188-.031a1 1 0 0 0-.594 1.781l12.094 9.156-4.75 14.406a1 1 0 0 0 1.531 1.125l12.47-8.625 12.218 8.938a1 1 0 0 0 1.563-1.094l-4.375-14.5 12.28-8.875a1 1 0 0 0-.562-1.812l-15.156-.344-4.656-14.406a1 1 0 0 0-1.094-.688zm.094 4.156 3.969 12.25a1 1 0 0 0 .937.688l12.875.28-10.438 7.532a1 1 0 0 0-.375 1.094l3.719 12.312-10.406-7.563a1 1 0 0 0-1.156-.03l-10.594 7.343 4-12.219a1 1 0 0 0-.344-1.125l-10.22-7.781 12.845.031a1 1 0 0 0 .969-.656l4.218-12.156zM-421.79 537.17c-1.938 1.833-2.017 4.904-.177 6.835s4.923 2.01 6.86.178l91.183-86.232c1.937-1.833 2.017-4.904.177-6.835s-4.923-2.01-6.861-.178l-91.182 86.232zm1.38 1.448 91.182-86.232c1.158-1.095 2.928-1.05 4.028.104s1.053 2.918-.104 4.013l-91.182 86.232c-1.158 1.095-2.929 1.049-4.028-.105s-1.054-2.917.104-4.012zM-393.78 565.7c-1.938 1.833-1.996 4.927-.156 6.857a4.877 4.877 0 0 0 6.861.178l116.33-110.03c1.938-1.832 2.018-4.904.178-6.834s-4.945-2.033-6.883-.201l-116.34 110.02zm1.38 1.448 116.34-110.02c1.158-1.095 2.95-1.026 4.05.127s1.053 2.918-.105 4.012l-116.34 110.02c-1.157 1.095-2.928 1.05-4.028-.104s-1.075-2.94.083-4.035z" style="block-progression:tb;color:#000;text-transform:none;text-indent:0" transform="translate(659.28 176.23)"/><path d="M-358.93 589.94c-1.938 1.833-2.017 4.904-.177 6.835s4.923 2.01 6.86.178l134.09-126.81c1.938-1.833 2.018-4.904.178-6.835s-4.923-2.01-6.861-.178l-134.09 126.81zm1.38 1.448 134.09-126.81a2.828 2.828 0 0 1 4.028.104 2.802 2.802 0 0 1-.104 4.013l-134.09 126.81a2.828 2.828 0 0 1-4.028-.105 2.802 2.802 0 0 1 .104-4.012zM-318.27 615.44c-1.938 1.833-2.017 4.904-.177 6.835s4.945 2.033 6.882.2l109.85-103.88c1.938-1.832 1.996-4.926.156-6.857a4.877 4.877 0 0 0-6.861-.178l-109.85 103.88zm1.38 1.448 109.85-103.88a2.828 2.828 0 0 1 4.028.104c1.1 1.154 1.075 2.94-.083 4.035l-109.85 103.88c-1.158 1.095-2.95 1.027-4.05-.127s-1.053-2.917.105-4.012zM-271.05 635.9c-1.938 1.833-2.017 4.904-.177 6.835s4.923 2.01 6.86.178l90.775-85.846c1.937-1.833 2.017-4.904.177-6.835s-4.923-2.01-6.861-.178L-271.05 635.9zm1.38 1.448 90.774-85.846c1.158-1.095 2.928-1.05 4.028.104s1.053 2.918-.104 4.013l-90.774 85.846c-1.158 1.095-2.929 1.049-4.028-.105s-1.054-2.917.104-4.012zM-212.46 650.82c-1.938 1.833-2.017 4.904-.177 6.835s4.923 2.01 6.86.178l70-66.2c1.937-1.832 2.017-4.903.177-6.834s-4.923-2.01-6.861-.178l-69.999 66.199zm1.38 1.448 69.999-66.2c1.158-1.094 2.928-1.048 4.028.105s1.053 2.918-.104 4.013l-70 66.199a2.828 2.828 0 0 1-4.027-.105 2.802 2.802 0 0 1 .104-4.012zM-265.24 697.03c-1.938 1.833-2.017 4.904-.177 6.835s4.923 2.01 6.86.178l2.18-2.062c1.938-1.832 2.018-4.904.178-6.834s-4.924-2.01-6.861-.178l-2.18 2.061zm1.38 1.448 2.18-2.061c1.157-1.095 2.928-1.05 4.028.104s1.053 2.918-.105 4.013l-2.18 2.06a2.828 2.828 0 0 1-4.027-.104 2.802 2.802 0 0 1 .104-4.012zM-322.82 682.37c-1.938 1.833-2.017 4.904-.177 6.835s4.923 2.01 6.86.178l2.158-2.04c1.937-1.833 2.017-4.904.177-6.835s-4.923-2.01-6.861-.178l-2.157 2.04zm1.38 1.448 2.157-2.04c1.158-1.095 2.928-1.049 4.028.104s1.053 2.918-.104 4.013l-2.157 2.04a2.828 2.828 0 0 1-4.028-.105 2.802 2.802 0 0 1 .104-4.012zM-369.53 662.93c-1.938 1.833-2.017 4.904-.177 6.835s4.923 2.01 6.86.178l2.158-2.04c1.937-1.833 2.017-4.904.177-6.835s-4.923-2.01-6.861-.178l-2.157 2.04zm1.38 1.448 2.157-2.04c1.158-1.095 2.928-1.049 4.028.104s1.053 2.918-.104 4.013l-2.157 2.04c-1.158 1.095-2.929 1.049-4.028-.105s-1.054-2.917.104-4.012zM-410.94 636.16c-1.938 1.833-2.017 4.904-.177 6.835s4.923 2.01 6.86.178l2.158-2.04c1.937-1.833 2.017-4.904.177-6.835s-4.923-2.01-6.861-.178l-2.157 2.04zm1.38 1.448 2.157-2.04c1.158-1.095 2.928-1.049 4.028.104s1.053 2.918-.104 4.013l-2.157 2.04c-1.158 1.095-2.929 1.049-4.028-.105s-1.054-2.917.104-4.012zM-444.29 611.18c-1.938 1.833-2.017 4.904-.177 6.835s4.923 2.01 6.86.178l2.18-2.062c1.938-1.832 2.018-4.904.178-6.834s-4.924-2.01-6.861-.178l-2.18 2.061zm1.38 1.448 2.18-2.062a2.828 2.828 0 0 1 4.028.105 2.802 2.802 0 0 1-.105 4.013l-2.18 2.06c-1.157 1.096-2.928 1.05-4.027-.104s-1.054-2.917.104-4.012zM-473.07 585.15c-1.938 1.833-2.017 4.904-.177 6.835s4.923 2.01 6.86.178l2.158-2.04c1.937-1.833 2.017-4.904.177-6.835s-4.923-2.01-6.861-.178l-2.157 2.04zm1.38 1.448 2.157-2.04c1.158-1.095 2.928-1.049 4.028.104s1.053 2.918-.104 4.013l-2.157 2.04a2.828 2.828 0 0 1-4.028-.105 2.802 2.802 0 0 1 .104-4.012z" style="block-progression:tb;color:#000;text-transform:none;text-indent:0" transform="translate(659.28 176.23)"/><path fill-opacity=".314" d="M829.664 598.603c0 107.123-87.157 193.968-194.672 193.968S440.32 705.73 440.32 598.603c0-107.122 87.157-193.967 194.672-193.967s194.672 86.84 194.672 193.967z"/><path fill-opacity=".314" d="M737.92 250.16c3.697-1.366 6.567 2.664 5.556 5.808l-169.2 159.86-17.173 6.566zM761.03 280.53c3.697-1.366 6.567 2.664 5.556 5.808l-126.27 119.45h-11.617zM783.52 318.48c3.697-1.366 6.567 2.664 5.556 5.808l-95.712 89.904-8.587-2.272zM806.88 359.77c3.697-1.366 6.567 2.664 5.556 5.808l-73.994 69.448-7.071-3.788zM826.83 406.86c3.697-1.366 6.567 2.664 5.556 5.808l-56.821 53.538-5.304-5.555zM838.57 462.04c3.697-1.366 6.567 2.664 5.556 5.808l-39.65 37.376-3.787-6.818zM742.574 213.407l15.357.179 5.536-14.643 4.821 14.82 15.18.358-12.323 9.285 4.286 14.464-12.68-8.571-12.678 8.75 4.643-14.821zM765.7 251.125l15.357.179 5.536-14.643 4.821 14.82 15.18.358-12.323 9.285 4.286 14.464-12.68-8.571-12.678 8.75 4.643-14.821zM793.73 288.25l15.357.179 5.536-14.643 4.821 14.82 15.18.358-12.323 9.285 4.286 14.464-12.68-8.571-12.678 8.75 4.643-14.821zM814.95 328.65l15.357.179 5.536-14.643 4.821 14.82 15.18.358-12.323 9.285 4.286 14.464-12.68-8.571-12.678 8.75 4.643-14.821zM833.89 379.41l15.357.179 5.536-14.643 4.821 14.82 15.18.358-12.323 9.285 4.286 14.464-12.68-8.571-12.678 8.75 4.643-14.821zM843.48 431.69l15.357.179 5.536-14.643 4.821 14.82 15.18.358-12.323 9.285 4.286 14.464-12.68-8.571-12.678 8.75 4.643-14.821zM192.19 729.68l15.357.179 5.536-14.643 4.821 14.82 15.18.358-12.323 9.285 4.286 14.464-12.68-8.571-12.678 8.75 4.643-14.821zM225.78 759.99l15.357.179 5.536-14.643 4.821 14.82 15.18.358-12.323 9.285 4.286 14.464-12.68-8.571-12.678 8.75 4.643-14.821zM262.14 786.76l15.357.179 5.536-14.643 4.821 14.82 15.18.358-12.323 9.285 4.286 14.464-12.68-8.571-12.678 8.75 4.643-14.821zM301.79 811l15.357.179 5.536-14.643 4.821 14.82 15.18.358-12.323 9.285 4.286 14.464-12.68-8.571-12.678 8.75 4.643-14.821zM349.77 829.94l15.357.179 5.536-14.643 4.821 14.82 15.18.358-12.323 9.285 4.286 14.464-12.68-8.571-12.678 8.75 4.643-14.821zM406.59 844.59l15.357.179 5.536-14.643 4.821 14.82 15.18.358-12.323 9.285 4.286 14.464-12.68-8.571-12.678 8.75 4.643-14.821zM330.11 626.97c3.697-1.366 6.567 2.664 5.556 5.808l-92.05 86.873c-6.69 3.144-7.342-3.416-5.556-5.682zM383.11 631.96c3.697-1.366 6.567 2.664 5.556 5.808l-117.18 110.74c-6.69 3.144-7.342-3.416-5.556-5.682zM435.38 639.36c3.697-1.366 6.567 2.664 5.556 5.808l-134.73 127.59c-6.69 3.144-7.342-3.416-5.556-5.682zM452.61 687.39c3.697-1.366 6.567 2.664 5.556 5.808l-111.24 104.8c-6.69 3.144-7.342-3.416-5.556-5.682zM480.71 725.78c3.697-1.366 6.567 2.664 5.556 5.808l-92.05 86.873c-6.69 3.144-7.342-3.416-5.556-5.682zM518.59 760.63c3.697-1.366 6.567 2.664 5.556 5.808l-71.09 66.923c-6.689 3.144-7.34-3.416-5.555-5.682zM397.9 871.2c3.76-1.681 6.693 2.98 5.303 5.24l-3.463 3.416c-5.616 2.954-7.152-3.48-5.366-5.745zM340 856.57c3.76-1.681 6.693 2.98 5.303 5.24l-3.463 3.416c-5.616 2.954-7.152-3.48-5.366-5.745zM293.22 837.29c3.76-1.681 6.693 2.98 5.303 5.24l-3.463 3.416c-5.616 2.954-7.152-3.48-5.366-5.745zM252.14 810.14c3.76-1.681 6.693 2.98 5.303 5.24l-3.463 3.416c-5.616 2.954-7.152-3.48-5.366-5.745zM218.93 785.5c3.76-1.681 6.693 2.98 5.303 5.24l-3.463 3.416c-5.616 2.954-7.152-3.48-5.366-5.745zM190 759.07c3.76-1.681 6.693 2.98 5.303 5.24l-3.463 3.416c-5.616 2.954-7.152-3.48-5.366-5.745zM886.43 417.64c3.76-1.681 6.693 2.98 5.303 5.24l-3.463 3.416c-5.616 2.954-7.152-3.48-5.366-5.745zM875.72 359.43c3.76-1.682 6.693 2.98 5.303 5.24l-3.463 3.416c-5.616 2.954-7.152-3.48-5.366-5.745zM858.22 311.93c3.76-1.682 6.693 2.98 5.303 5.24l-3.463 3.416c-5.616 2.954-7.152-3.48-5.366-5.745zM833.93 268c3.76-1.681 6.693 2.98 5.303 5.24l-3.463 3.416c-5.616 2.954-7.152-3.48-5.366-5.745zM811.79 233.358c3.76-1.681 6.693 2.98 5.303 5.24l-6.32 5.202c-5.616 2.954-7.152-3.48-5.366-5.745z"/><path fill-opacity=".314" d="M791.97 201.483c3.76-1.681 5.265 1.73 3.875 3.99l-11.677 9.398c-4.992-.17-9.117.717-6.26-2.084zM500.8 191.72l7.77-.253 10.715-37.143c-17.81-2.48-34.308-4.889-48.306-3.193-42.113 5.1-65.657 29.05-66.737 53.324-.52 11.667.861 27.409 8.716 40.019 7.636 12.259 21.473 21.559 39.898 21.28 14.282.462 27.788-2.183 41.43-4.286l10-30-6.43-3.571c-7.61 15.866-21.01 27.532-42.69 28.658-31.781-2.881-28.93-29.45-29.156-42.944-.26-15.462 8.098-37.07 28.276-47.143 7.365-2.676 10.617-6.265 29.286-6.429 7.673 1.567 12.506 3.285 13.406 10.628 2.199 6.826 3.05 15.07 3.824 21.053zM535.89 135.76l.416-2.064 35.697.044-1.768 9.344-5.14.058c-.932-4.769-3.138-5.99-5.72-5.614h-8.585l-3.03 14.142h5.302c3.333.224 4.166-2.175 5.273-4.13l3.819-.163-2.452 12.405h-4.114c.15-2.077-.535-3.69-2.526-4.577h-6.06l-3.64 16.088 10.458-.178c4.72-1.715 5.179-4.74 7.072-7.324l5.05.105-2.971 11.08-35.414.18.252-2.021c2.7-.206 3.722-1.67 4.546-3.283l6.566-30.81c.355-2.05-1.017-2.891-3.03-3.283zM577.59 135.75l.625-2.143 18.661.179-.446 1.696c-3.012.853-4.308 2.422-4.465 4.464l-5.268 24.821c-.425 3.932 1.171 6.59 5.536 7.143 5.729.727 10.611-2.223 11.34-6.16l5.713-27.054c.172-2.331-1.522-2.53-2.946-3.036l.536-2.054 15.893.09-.447 1.875c-2.366.455-4.644 1.03-4.91 4.285l-5.625 25.714c-2.32 4.318-5.777 7.198-10 8.661-3.062.48-4.495 1.164-9.286 1.429-11.354.105-13.018-2.707-14.821-3.929-2.738-4.529-1.792-5.987-1.875-8.304l5-25.446c.028-1.844-1.945-1.686-3.214-2.232zM628.56 133.53l-.34 2.22c1.36.51 2.91.81 3.12 2.69l-6.53 31.15c-.43 2.01-2.09 3.13-4.9 3.47l-.35 2.06 19.28.1.25-2.25c-3.4-.72-2.98-1.95-2.93-3.13l2.4-12.12 3.66.25c1.34.02 2.69.38 4.03 3.69.76 4.93 3.04 9.26 4.91 13.75l13.84-.29.81-2.15c-1.14-.27-2.87-.8-3.81-1.97-1.14-1.42-1.49-3.65-2.62-6.31-.57-4.16-3.34-6.34-5.97-8.66 3.2-.18 11.78-4.89 12.34-11.62.41-4.89-.28-8.23-9.84-10.44l-27.35-.44zm20.82 3.81c3.78.77 6.14 2.99 5.18 8.5-2.99 8.84-8.63 8.17-11.15 8.57l-4.13-.25 3.5-16.72 6.6-.1zM699.28 132.97c-16.74 1.1-22.31 9.64-25.62 19.94-5.34 22.86 11.96 22.82 17.5 22.65 9.01-.94 21.24-2.45 25.53-21.25 3.07-14.37-2.18-20.24-17.41-21.34zm.28 3.84c9.5 1.28 6.61 12.06 5.97 18.85-5.61 17.77-11.33 15.79-14.72 16.15-7.03-.62-8.59-7.61-5.62-19.9 2.59-7.46 5.05-15.07 14.37-15.1zM520.27 193.133l.49-3.744 59.317.168-2.483 17.13-8.258.017c-1.497-8.652-5.041-11.493-9.189-10.81l-15.313-.09-4.154 26.19 9.324-.446c5.354.406 6.692-3.945 8.471-7.492l6.671.061-3.402 21.968-7.058.268c.24-3.766-1.573-6.514-4.771-8.123H539.73l-5.045 29.185 17.875.033c7.582-3.11 8.676-9.044 11.718-13.732l7.668.279-4.239 19.923-58.684.235.406-3.665c4.473-.418 7.121-3.41 7.303-5.956l8.675-55.354c.57-3.719-.652-4.977-3.887-5.687zM582.23 189.23l.09 3.393 8.839 1.964c.872 1.123 2.523.912 1.875 4.643l-9.018 55.982c-1.337 1.68-.686 3.451-6.875 4.91l-.536 3.483 22.59.268.267-3.75c-5.995-1.405-4.683-3.42-5.357-5.268l7.143-46.696 26.875 55.536 15.536.268 10.625-65.09c1.533-6.537 6.171-5 9.91-5.803l.536-3.66-33.304.178-.09 3.571 7.5.447c3.066.244 5.907.777 5 6.16l-6.16 41.876-.49.114c-6.608-15.916-15.789-34.405-24.42-52.347zM663.84 208.43l3.482-19.107 64.107.357-2.946 18.571-7.679.09c-.306-10.802-3.906-12.382-8.214-12.59l-5.982.09-10.268 58.125c-.6 5.953 2.91 5.605 5.714 6.339l-.536 3.75-30.446-.268.447-3.393c6.828-1.363 6.996-4.007 7.857-6.518l10.268-58.036-5.625-.089c-7.15.46-9.76 7.064-13.036 12.768z"/></svg>