<svg xmlns="http://www.w3.org/2000/svg" viewBox="0 0 715.13 719.16"><defs><linearGradient id="a" x1="-224.48" x2="1012.4" y1="129.08" y2="129.08" gradientUnits="userSpaceOnUse"><stop offset="0" stop-color="#e6e6e6"/><stop offset="1" stop-color="#ccc" stop-opacity=".746"/></linearGradient><linearGradient id="b" x1="-224.48" x2="1012.4" y1="129.08" y2="129.08" gradientTransform="matrix(.41639 0 0 .69851 208.46 295.68)" gradientUnits="userSpaceOnUse"><stop offset="0" stop-color="#e6e6e6"/><stop offset="1" stop-color="#ccc" stop-opacity=".746"/></linearGradient></defs><g transform="translate(-13.377 -26.164)"><path fill="#b9a464" fill-opacity=".993" stroke="#000" stroke-width="3" d="M977.83 472.53c0 324.69-268.64 587.91-600.03 587.91s-600.03-263.22-600.03-587.91S46.41-115.38 377.8-115.38s600.03 263.22 600.03 587.91z" transform="matrix(.59444 0 0 .61007 146.36 97.467)"/><path fill="#d0c27b" stroke="#000" stroke-width=".348" d="M945.71 459.51c0 8.679-251.36 15.714-561.43 15.714s-561.43-7.035-561.43-15.714 251.36-15.714 561.43-15.714 561.43 7.035 561.43 15.714z" transform="matrix(.60547 0 0 21.788 140.76 -9628.2)"/><path fill="url(#a)" stroke="#000" stroke-width="1.115" d="M1012.2 129.08c0 205.3-276.78 371.74-618.21 371.74s-618.21-166.43-618.21-371.74c0-205.3 276.78-371.74 618.21-371.74S1012.2-76.23 1012.2 129.08z" transform="matrix(.41639 0 0 .69851 208.46 295.68)"/><path fill="url(#b)" d="M629.58 399.3c-2.173 4.473-3.574 9.49-4.02 14.935-.242 4.998.133 9.568.995 13.695a262.719 262.719 0 0 0 3.025-28.63z"/><path fill-opacity=".314" stroke="#000" stroke-width=".601" d="M665.03 377.65c-21.09.007-37.704 15.022-39.469 36.576-1.225 25.344 13.112 39.821 29.137 40.089 17.67-.173 31.455-9.415 37.816-35.843-1.144-.516 5.075-34.637-27.484-40.822zm-4.734 4.32a21.47 21.47 0 0 1 3.813.226c20.514 9.579 17.346 17.65 17.17 34.923-3.153 15.151-9.324 34.6-27.033 31.73 0 0-23.378-1.004-18.222-36.445 4.67-19.008 12.403-30.075 24.271-30.433z"/><path fill-opacity=".129" stroke="#000" stroke-width=".601" d="M403.48 375.55c5.137.138 10.004-2.359 15.029-3.435 2.14-.459 4.31-.785 6.44-1.288 1.59-.375 3.092-1.271 4.724-1.288 2.36-.026 4.68.837 6.87 1.717 1.071.43 2.008 2.297 3.006 1.718 1.114-.647.054-2.578 0-3.865-.072-1.722-1.478-3.784-.43-5.152.974-1.27 3.223-.305 4.724-.86 1.865-.689 4.423-1.155 5.153-3.005.548-1.39 1.288-4.294-1.289-4.294-2.576 0-6.249.347-9.017-.859-1.58-.688-3.364-1.785-3.864-3.435-.988-3.255 3.376-6.569 2.576-9.876-.858-3.547-5.885-4.795-7.3-8.158-.834-1.983.172-4.375-.429-6.44-.5-1.723-1.661-3.182-2.576-4.724-1.216-2.05-3.76-3.632-3.865-6.012-.15-3.39 3.006-8.588 4.723-9.017 1.718-.43 4.212-1.747 3.865-3.435-.546-2.66-5.014-2.517-7.73-2.576-1.04-.023-2.094 1.364-3.005.858-.91-.506-1.098-1.991-.859-3.005.536-2.268 5.097-2.853 4.724-5.153-.236-1.455-2.394-2.054-3.865-2.147-1.538-.097-3.043.816-4.294 1.718-1.977 1.425-3.226 3.658-4.723 5.582-.756.971-2.193 1.775-2.147 3.005.042 1.118 2.198 1.46 2.147 2.577-.082 1.82-2.759 2.417-3.864 3.864-.7.917-2.11 1.92-1.718 3.006.415 1.15 2.433.587 3.435 1.288 1.081.757 2.323 1.71 2.576 3.006.261 1.332-1.07 2.524-1.288 3.864-.114.707-.376 1.539 0 2.147.505.817 2.252.385 2.576 1.288.476 1.327-2.773 2.93-1.717 3.865 1.875 1.659 4.028-3.196 6.44-3.865.69-.19 1.59-.447 2.148 0 1.029.826.714 2.553.858 3.865.141 1.28 0 2.147 0 3.864 0 1.718-.218 4.02 0 6.012.144 1.312 1.128 2.572.86 3.864-.397 1.906-1.834 3.618-3.436 4.724-1.343.927-3.17.786-4.723 1.288-1.164.376-2.95.166-3.435 1.288-.74 1.708 2.508 3.327 2.147 5.153-.354 1.787-2.182 3.167-3.865 3.864-1.719.712-4.494-1.51-5.582 0-.53.735.112 2.066.859 2.577 2.366 1.617 5.737-.731 8.588-.43 2.21.234 5.087-.044 6.44 1.718.698.908.184 2.305 0 3.435-.145.893-.165 1.994-.858 2.576-2.993 2.511-8.074.022-11.594 1.718-2.646 1.275-7.129 3.156-6.441 6.011.244 1.013 1.964.831 3.006.859z"/><path fill-opacity=".129" stroke="#000" stroke-width=".601" d="M571.61 161.96c-1.025.073-2.123.39-3.025.62-1.997.508-3.732 1.679-5.429 2.912l.395.075-5.335 4.696.939 6.989-6.218-3.532-2.78 1.296c-2.072 1.601-4.135 3.201-6.256 4.734-2.623 1.896-5.586 3.366-7.946 5.58-5.758 5.399-10.427 11.91-14.823 18.466-2.14 3.19-4.619 6.367-5.579 10.088-.483 1.873.893 4.088 0 5.804-.804 1.548-3.877 1.31-4.283 3.006-.282 1.18 1.71 2.139 1.71 3.212s.864 3.65.864 4.509c0 .859-2.682.333-3.438 1.296-.355.452-.251 1.137-.207 1.71.08 1.037 1.474 2.176.845 3.005-1.077 1.423-3.788-.856-5.354 0-2.91 1.592-3.136 5.929-5.372 8.379-2.75 3.012-6.49 4.944-9.656 7.514-4.733 3.842-11.79 6.12-13.958 11.816-.54 1.419 1.44 3.22.639 4.509-.477.767-1.982.163-2.574.845-1.334 1.537-.892 3.984-1.07 6.012-.152 1.715-1.219 3.948 0 5.166 1.261 1.262 4.23-1.388 5.353 0 .415.512-.238 1.299-.413 1.935-.3 1.09-.493 2.252-1.09 3.212-.266.429-.69.74-1.07 1.07-.54.47-1.574.595-1.71 1.297-.159.816.61 1.647 1.277 2.142.716.53 2.107-.107 2.593.638.913 1.4-.931 3.27-.864 4.941.068 1.7-.201 4.099 1.277 4.94 2.011 1.146 4.738-.658 6.669-1.934.85-.562 1.287-1.581 1.935-2.367.71-.861 1.34-1.797 2.142-2.574 1.756-1.7 4.208-2.64 5.786-4.508 1.363-1.614.895-5.678 3.005-5.58 1.475.069 1.22 2.691 1.729 4.077.413 1.127.432 2.42 1.07 3.438.78 1.242 2.393 1.79 3.213 3.005 2.229 3.305 2.895 7.43 4.302 11.16.728 1.929 1.377 3.889 2.141 5.804 1.011 2.532 2.802 6.011 3.232 7.514s2.267 2.514 2.78 4.077c.649 1.976.225 5.378.225 6.237 0 .858.237 1.526.846 1.71.956.288 1.982-.713 2.592-1.504 1.313-1.702.723-4.308 1.71-6.218.467-.905 1.205-1.655 1.934-2.367 1.17-1.14 2.939-1.664 3.87-3.005.813-1.17 1.062-2.67 1.278-4.077.508-3.324.125-6.728 0-10.088-.072-1.939-1.214-4.029-.432-5.805.514-1.167 2.036-1.539 3.005-2.367 1.038-.886 1.976-1.884 3.006-2.78.769-.669 1.668-1.193 2.367-1.935 1.092-1.158 2.309-2.355 2.8-3.87.329-1.019.698-2.4 0-3.212-.331-.384-1.205.183-1.504-.226-.254-.348.147-.85.207-1.277.08-.575.25-1.15.207-1.728-.04-.519-.024-1.16-.414-1.503-1.14-1.003-3.24.194-4.508-.639-1.264-.83-1.833-2.455-2.367-3.87a10.103 10.103 0 0 1-.639-3.644c.015-1.462.67-2.851.845-4.302.197-1.63-.172-3.329.226-4.922.403-1.615 1.567-2.947 2.141-4.509.385-1.046.447-2.197.865-3.231.551-1.367 1.34-2.632 2.141-3.87.97-1.498 2.23-2.793 3.213-4.283.635-.965 1.302-1.931 1.728-3.006.46-1.16.344-2.509.864-3.644.405-.885 1.105-1.604 1.71-2.367.884-1.117 2.36-1.876 2.799-3.231.265-.82.195-1.823-.226-2.574-.175-.313-.672-.336-.864-.639-.585-.922-.784-2.13-.639-3.212.129-.958.785-1.773 1.296-2.593 1-1.603 2.594-2.817 3.438-4.508.465-.931.424-2.054.846-3.006.272-.615.78-1.103 1.07-1.71.756-1.572.364-3.853 1.729-4.94 1.015-.809 2.599-.167 3.87-.432.705-.147 1.379-.856 2.066-.639 2.158.683 2.923 3.472 4.152 5.373 1.322 2.044 2.946 4.06 3.438 6.443.347 1.687-.047 3.47-.433 5.148-.892 3.885-2.695 7.51-4.302 11.159-1.161 2.637-2.212 5.37-3.85 7.74-1.555 2.248-4.441 3.526-5.58 6.011-1.62 3.534-1.935 7.756-1.296 11.591.937 5.623 2.798 11.973 7.307 15.461 2.42 1.872 6.08 2.562 9.018 1.71 2.816-.818 4.002-4.36 6.424-6.012 3.015-2.057 6.322-3.91 9.882-4.715 1.814-.41 3.736-.247 5.579 0 3.236.433 6.968.452 9.45 2.573 1.069.915 1.433 2.476 1.728 3.852.3 1.402.717 3.06 0 4.302-2.152 3.723-7.121 5.016-11.178 6.443-1.776.625-3.706.69-5.58.864-4.28.399-10.299-3.018-12.887.413-.711.944.329 2.385.864 3.438 1.016 1.998 3.54 3.06 4.302 5.166.682 1.885-.429 3.865 0 6.012.43 2.147 2.425 1.562 3.438 2.573 2.022 2.02 6.425 4.3 5.147 6.857-.576 1.154-2.614.297-3.87 0-1.553-.367-2.753-1.684-4.283-2.141-2.35-.703-4.855-.914-7.307-.865-2.752.055-6.312-.748-8.153 1.297-1.821 2.022-.663 5.441-.432 8.153.274 3.218.627 6.596 2.141 9.449 1.473 2.774 5.616 3.845 6.444 6.875.348 1.275-.292 2.679-.864 3.87-1.188 2.474-3.11 4.588-5.148 6.425-1.77 1.596-3.664 3.456-6.011 3.87-3.18.56-6.268-1.588-9.45-2.142-4.686-.814-9.417-2.023-14.163-1.728-5.89.366-15.453 4.302-17.17 4.302-1.718 0-7.3 2.142-9.018 2.142s-3.837 2.05-5.598 1.296c-3.362-1.441-4.29-6.027-5.58-9.45-1.078-2.862-1.97-5.969-1.709-9.017.209-2.438 1.879-4.529 2.574-6.875.749-2.528 2.072-5.11 1.71-7.721-.291-2.093-1.121-4.626-3.006-5.58-1.806-.913-4.395-.37-6.012.846-2.51 1.888-3.533 5.478-3.85 8.604-.268 2.622 1.206 5.133 1.709 7.72.665 3.422.649 7 1.728 10.314 1.288 3.954 6.649 7.14 5.58 11.159-.4 1.497-2.813 1.441-3.87 2.573-1.577 1.686-1.484 4.782-3.438 6.012-1.7 1.07-4.004.36-6.012.432-1.289.046-2.614.297-3.87 0-2.488-.589-5.193-5.38-6.857-3.438-1.6 1.869 4.678 3.583 4.284 6.011-.312 1.92-3.143 2.293-4.716 3.438-3.148 2.294-6.024 5.02-9.449 6.876-1.995 1.08-4.877 2.166-8.115 3.231 11.75.004 23.267.143 23.257.676l-.113 6.556.056 8.999c-1.346.79-2.692 1.511-4.039.338l-.826-7.928-1.522-3.644-5.467-.3h-8.81l-7.89 1.22-4.546 27.316 2.123.62h4.546l7.909-.921 2.723-1.202 2.123-2.743 2.743-4.546h1.202l1.522 2.724-3.945 8.51.601 11.534-2.123 2.122-2.123-2.122v-8.21l-1.22-1.202h-14.56l-3.043 1.202-3.344 19.443-1.202 6.989 2.423 3.024 2.424 1.221h11.854l8.49-1.221 3.946-1.822s3.04-1.404 3.945-2.724c1.47-2.147-.221-5.979 1.822-7.59.477-.376 1.306-.319 1.822 0 .963.595 1.39 1.901 1.522 3.025.205 1.756-.77 3.457-1.221 5.166-.459 1.734-1.503 5.166-1.503 5.166l-5.467 3.645-8.21.6-11.834-.6h-10.332s-7.075-.128-10.614-.301c-2.939-.143-8.204 2.259-8.81-.62-.45-2.126 3.898-1.914 5.766-3.024.941-.56 1.977-1.04 2.743-1.823a9.526 9.526 0 0 0 2.123-3.344c6.573-17.95 7.841-56.168 7.89-57.71a.986.986 0 0 1-.226.113c-2.449.97-6.511 2.205-8.829 3.457-2.897 1.565-5.133 4.267-8.153 5.58-1.212.526-2.565 1.075-3.87.863-2.467-.401-4.016-3.2-6.424-3.87-1.52-.422-3.172-.22-4.734 0-1.033.146-2.205.198-3.006.865-1.475 1.226-2.691 3.232-2.574 5.147.063 1.028 1.025 1.804 1.71 2.573 1.625 1.825 3.7 3.194 5.598 4.734 2.533 2.056 5.587 3.545 7.721 6.012.754.872 1.24 1.953 1.71 3.006 1.29 2.893 2.614 5.873 3.005 9.017.23 1.85-.413 3.862-.413 5.58s-.11 4.692-.864 6.875c-1.09 3.154-3.052 5.988-5.148 8.585-1.972 2.444-3.862 5.557-6.875 6.443-1.539.453-3.2-.395-4.734-.864-2.387-.73-4.556-2.04-6.857-3.005-2.843-1.192-5.668-2.442-8.585-3.438-1.972-.673-4.001-1.164-6.011-1.71-3.858-1.047-7.632-2.611-11.61-3.005-2.566-.254-5.164.11-7.721.432-1.45.182-3.658-.467-4.302.845-.988 2.01 2.94 3.772 3.005 6.011.065 2.18-1.228 4.297-2.573 6.012-1.326 1.689-4.07 2.013-5.148 3.87-.58.999-.187 2.309-.432 3.438-.508 2.346-.807 4.88-2.141 6.875-.62.928-1.698 1.45-2.574 2.142-1.689 1.333-3.975 2.078-5.166 3.87-1.958 2.946-1.892 6.823-2.574 10.295-.195.993-.277 2.005-.432 3.005-.399 2.585-.945 5.147-1.277 7.74-.2 1.566-1.113 3.291-.432 4.715 2.002 4.189 10.732 6.004 11.59 7.721.86 1.718 3.966 4.436 6.444 6.012 1.304.829 2.8 1.363 4.302 1.728 2.934.714 6.001.72 9.017.864 3.86.185 7.728-.051 11.591 0 5.155.07 10.507 1.841 15.461.414 2.474-.713 4.162-3.058 6.425-4.284 1.917-1.038 4.157-1.428 6.012-2.573 2.079-1.284 3.45-4.305 5.598-4.734 2.147-.43.396-3.426.413-5.148.023-2.296-.933-4.639-.413-6.875.522-2.246 2.142-4.092 3.419-6.012 1.3-1.955 2.288-4.371 4.302-5.579 1.492-.895 3-.005 5.147-.864 2.147-.859 4.482-3.034 6.876-4.283 1.932-1.008 3.985-1.77 6.011-2.574 1.556-.618 3.804-.324 4.715-1.728 1.093-1.685-.554-4.008-.413-6.012.144-2.043-.253-4.649 1.277-6.011 2.255-2.008 6-.795 9.018-.846 2.295-.038 4.597.7 6.875.414 4.176-.525 8.545-1.483 12.023-3.851 1.685-1.147 2.457-3.266 3.87-4.734 2.249-2.337 4.138-5.677 7.29-6.444 2.295-.559 5.422-.135 6.875 1.728 1.494 1.916-.926 5.043 0 7.29.464 1.125 1.714 1.73 2.573 2.592.857.86 1.715 1.717 2.574 2.573 1.288 1.286 2.686 2.469 3.87 3.851 1.268 1.482 2.254 3.185 3.438 4.734 1.11 1.455 2.015 3.132 3.437 4.284 1.494 1.208 3.668 1.367 5.148 2.592 1.806 1.495 2.403 4.178 4.283 5.58 1.602 1.194 3.747 1.388 5.598 2.141 1.01.411 2.103.684 3.006 1.296.835.567 1.393 1.464 2.141 2.142 1.507 1.365 3.033 2.728 4.716 3.87 2.44 1.656 5.344 2.564 7.74 4.283 1.728 1.24 3.856 2.355 4.715 4.302.518 1.174.155 2.577 0 3.85-.215 1.762-.905 3.433-1.278 5.167-.336 1.562-1.887 3.488-.864 4.715.55.66 1.716 0 2.574 0 2.147 0 2.17-1.238 3.005-2.141 1.701-1.84 3.404-3.982 3.87-6.444.324-1.71-.067-3.6-.864-5.147-.556-1.079-2.059-1.475-2.574-2.574-.672-1.435-1.297-3.407-.432-4.734.495-.758 1.677-.985 2.574-.864 1.024.138 1.602 1.376 2.574 1.728 2.574.935 6.015 2.553 8.171.865.797-.624.869-2.103.414-3.006-1.612-3.201-6.182-3.653-9.43-5.166-2.51-1.169-5.57-1.289-7.74-3.006-2.176-1.721-2.43-5.285-4.716-6.857-3.036-2.088-7.532-.79-10.745-2.592-2.82-1.581-5.33-4.008-6.857-6.857-1.379-2.573-.264-6.06-1.728-8.585-.09-.157-.177-.306-.282-.45-2.877.432-5.745.536-8.622.112-4.546-.482-8.181-2.324-11.591-4.509-2.333-2.052-4.005-5.207-5.486-8.679.248-8.243.72-16.426 1.822-24.384l4.19-27.578c.628-2.67.191-4.127-1.184-4.508l-5.467-.32-.112-1.503 1.408-1.296 10.727.32 9.13-.094h4.828l.64 1.277-.32 1.296s-.854.094-1.39.094h-2.048l-3.325.658-1.935 1.277-.32.751-.638 3.87-6.012 40.371-.432 5.786.207 4.828 1.728 3.55 5.786 3.645 2.405.188a6.15 6.15 0 0 1-.582-.714c-1.393-2.012-2.745-4.434-2.574-6.875.125-1.792 1.801-3.113 2.574-4.734 1.13-2.373.734-5.967 3.005-7.29 1.996-1.162 4.692.112 6.876.865 1.58.545 2.783 1.877 4.302 2.573 2.057.944 4.686.715 6.443 2.142.555.45 1.035.966 1.466 1.522l1.202-3.138 2.048-11.159 2.46-15.348 1.41-7.514c.071-3.655.022-3.847.093-5.899l.226-3.757-.113-2.367-.207-2.047-1.503-.64h-3.118l-1.71-.544-.338-1.503.113-1.164 1.616-.226 6.537.113 7.627.113 3.757.093.113 1.823-.432 1.09a14.768 14.768 0 0 0-3.55.093c-2.237.573-2.248 2.919-3.213 4.509l-3.118 13.638-5.786 32.424-2.086 4.978c.808 1.763 1.53 3.603 2.518 5.222.97 1.592 1.64 3.447 3.005 4.716 1.548 1.438 3.779 1.902 5.58 3.005 3.857 2.363 7.531 5.019 11.159 7.721 2.94 2.19 7.41 3.403 8.585 6.876.566 1.674-1.362 3.381-1.277 5.147.123 2.58 1.681 4.884 2.573 7.308.688 1.87 1.338 3.756 2.142 5.58.903 2.05 1.75 4.155 3.006 6.01 1.934 2.859 6.446 6.023 6.875 7.74.43 1.718-1.126 1.997-.864 3.006.508 1.959 3.526 2.415 4.302 4.283.658 1.585-.655 3.562 0 5.148.928 2.246 2.856 4.353 5.147 5.166 2.576.913 5.756.449 8.153-.864 1.61-.882 2.735-2.606 3.438-4.302.495-1.194.36-2.562.432-3.851.096-1.72.482-3.513 0-5.166-.522-1.79-2.205-3.033-3.006-4.716-.972-2.043-1.306-4.34-2.141-6.443-.757-1.906-2.381-3.54-2.593-5.58-.197-1.899-.46-4.832 1.297-5.579 1.538-.653 2.638 2.732 4.302 2.574 1.713-.163 2.427-2.472 3.85-3.438 2.121-1.439 4.93-1.772 6.876-3.438.935-.8.965-2.647 2.142-3.006 1.171-.356 2.326.783 3.438 1.297 1.338.618 2.432 1.813 3.87 2.141 2.512.575 5.428.747 7.72-.432 1.628-.837 1.985-3.17 3.438-4.283 1.987-1.52 5.323-1.045 6.876-3.006.996-1.257 1.398-3.221.864-4.734-1.384-3.923-7.717-4.37-9.45-8.153-1.43-3.125-.212-6.882 0-10.313.192-3.079.05-6.352-.15-9.674-2.092-5.585-3.15-12.248-2.78-19.913 1.626-19.847 15.84-34.148 34.547-36.294-.631-10.72-2.118-21.392-3.72-32.011-1.933-12.821-4.018-25.663-7.288-38.21-1.37-5.257-3.35-10.335-5.148-15.461-2.876-8.206-5.562-16.498-9.017-24.478-1.176-2.718-2.531-5.342-3.907-7.966l-5.504 2.574 1.503-6.894-4.941-5.11 4.058-.413c-2.297-5.124-4.355-10.362-7.101-15.254a164.144 164.144 0 0 0-5.786-9.506l.244 1.841-6.218-3.532-6.463 3.025 1.484-6.895-4.921-5.11 7.138-.732.282-.526-.357-.47c-3.699-4.83-7.364-9.819-12.023-13.732-1.943-1.632-3.993-3.775-6.105-5.936l.47 3.532-6.219-3.513-6.48 3.024 1.502-6.894-4.922-5.11 3.137-.319c-1.083-.26-2.167-.33-3.25-.132.937-1.489 2.185-2.608 3.833-2.48 2.882.226 1.282-.829 1.503-1.502.45-1.373-.137-2.936-.658-4.283-.838-2.166-3.92-3.484-3.851-5.805.032-1.073 1.498-1.594 1.935-2.574.595-1.335 1.753-3.156.845-4.302-.578-.73-1.53-.9-2.555-.826z"/><path fill-opacity=".129" stroke="#000" stroke-width=".601" d="M660.29 381.98c-10.177.307-17.302 8.496-22.073 22.806.933.018 1.869.055 2.724-.038 2.705-.294 5.485.124 8.153-.413 3.726-.75 8.508-.783 10.727-3.87 3.598-5.006 1.102-12.19.526-18.485h-.056zM437.01 383.72l-4.865.282c-.09.03-.196.064-.282.094-1.54.531 4.684-.392 5.147-.17v-.206zM372.57 349.36c-1.607-2.437-.403-6.582 1.718-8.588 2.205-2.086 6.119-.383 9.017-1.288 1.222-.382 3.23-.454 3.435-1.718.162-.999-1.242-1.694-2.147-2.147-1.81-.905-4.86.806-6.012-.858-1.5-2.17-.34-6.078 1.718-7.73 1.34-1.074 3.597-.728 5.153 0 1.012.475 1.063 2.303 2.147 2.577 1.494.378 3.43-.441 4.294-1.718 1.123-1.659-1.417-4.594 0-6.011 1.315-1.316 3.764-.4 5.582 0 2.001.44 4.477.85 5.582 2.576 1.157 1.809.943 4.513 0 6.441-.717 1.466-3.148 1.54-3.865 3.006-1.069 2.186.081 4.868 0 7.3-.071 2.15.962 4.799-.43 6.44-1.615 1.907-4.846 1.234-7.299 1.718-3.555.702-7.112 1.806-10.735 1.717-2.778-.067-6.628.603-8.158-1.717zM437.84 488.48c-.96.035-1.872.636-2.576 1.288-.613.567-1.296 1.313-1.289 2.147.013 1.35 1.148 2.527 2.147 3.435 1.658 1.507 3.887 3.714 6.012 3.006 1.518-.506 1.534-2.816 2.147-4.294.346-.836 1.235-1.753.859-2.576-1.095-2.393-4.67-3.102-7.3-3.006zM490.22 473.45c1.52-1.375.994-3.983 1.288-6.011.268-1.847 1.077-3.832.43-5.583-.211-.569-.728-1.055-1.289-1.288-1.586-.657-3.723-.952-5.152 0-1.549 1.032-1.843 3.317-2.147 5.153-.352 2.123-.649 4.579.43 6.44.516.894 1.573 1.474 2.575 1.718 1.26.307 2.904.44 3.865-.429zM493.23 484.19c.096.911-1.414 1.282-1.718 2.147-.52 1.486.193 3.16 0 4.723-.144 1.172-.858 1.718-.858 3.435 0 1.718.27 3.369-.86 4.294-1.106.908-2.862 0-4.293 0-1.002 0-3.006 2.147-3.006 0s-.066-3.722 0-5.582c.072-2.007-.044-4.059.43-6.011.514-2.119.94-4.57 2.576-6.012.782-.688 1.985-1.07 3.006-.858 1.992.411 4.51 1.841 4.723 3.864zM537.88 510.81c1.874 1.976-.09 5.456-.43 8.158-.181 1.449.197 3.286-.858 4.294-1.36 1.301-3.7.88-5.582.86-2.471-.028-4.916-.638-7.3-1.29-2.36-.644-5.083-.906-6.87-2.575-1.264-1.181-1.688-3.056-2.147-4.724-.344-1.25-.977-2.69-.43-3.864.436-.936 1.289-1.718 2.577-1.718s-2.147-.859 5.153 0c7.3.859 5.427.716 8.158.859 2.573.135 5.956-1.869 7.729 0zM642.23 494.92c-.062 2.936-3.318 5.27-6.011 6.44-2.232.97-4.867 0-7.3 0-2.29 0-5.153 2.148-6.87 0-1.718-2.146-4.413-2.447-3.865-4.293.633-2.13 4.28-1.202 6.441-1.718 2.703-.644 6.011-.858 8.158-1.717 2.147-.86 4.622-2.435 6.87-1.718 1.258.4 2.605 1.687 2.577 3.006zM542.18 307.28c-1.355 2.192-.688 5.246 0 7.729.223.804.457 2.073 1.288 2.147 1.516.136 2.349-2.063 3.006-3.435 1.067-2.228 1.375-4.83 1.288-7.3-.02-.59.107-1.47-.43-1.717-1.744-.803-4.142.943-5.152 2.576zM507.83 330.47c-.585.629 0 1.718 0 2.576 0 1.002-.552 2.17 0 3.006.6.91 1.944 1.535 3.006 1.288 1.285-.299 2.057-1.792 2.576-3.005.566-1.323 1.432-3.263.43-4.294-1.4-1.44-4.643-1.041-6.012.429zM498.38 332.61c-.784 1.711-.442 4.221.859 5.582.504.528 1.448.641 2.147.43.968-.294 1.76-1.212 2.147-2.147.493-1.19.426-2.65 0-3.865-.304-.865-.814-1.993-1.718-2.147-1.33-.227-2.872.92-3.435 2.147z"/><path fill-opacity=".325" stroke="#000" stroke-width="1.914" d="m593.97 66.453-11.515-6.66-12.014 5.71 2.775-13.01-9.143-9.66 13.23-1.381 6.364-11.682 5.401 12.156 13.076 2.441-9.892 8.894z" transform="matrix(.53895 0 0 .52918 239.03 142.08)"/><path fill-opacity=".314" stroke="#000" stroke-width="1.914" d="m593.97 66.453-11.515-6.66-12.014 5.71 2.775-13.01-9.143-9.66 13.23-1.381 6.364-11.682 5.401 12.156 13.076 2.441-9.892 8.894z" transform="matrix(.53895 0 0 .52918 266.66 161.51)"/><path fill-opacity=".314" stroke="#000" stroke-width="1.914" d="m593.97 66.453-11.515-6.66-12.014 5.71 2.775-13.01-9.143-9.66 13.23-1.381 6.364-11.682 5.401 12.156 13.076 2.441-9.892 8.894z" transform="matrix(.53895 0 0 .52918 293.38 191.87)"/><path fill-opacity=".314" stroke="#000" stroke-width="1.914" d="m593.97 66.453-11.515-6.66-12.014 5.71 2.775-13.01-9.143-9.66 13.23-1.381 6.364-11.682 5.401 12.156 13.076 2.441-9.892 8.894z" transform="matrix(.53895 0 0 .52918 318.08 227.72)"/><path fill-opacity=".314" stroke="#000" stroke-width=".601" d="m129.13 518.23 199.48 2.733 2.733-10.93-34.006-6.073c-21.85-4.92-33.29-18.77-32.48-43.12l79.853-293.91h-8.198c-37.738 21.42-78.798 37.616-127.83 41.293l-1.822 6.68 46.758 3.34c5.825.416 17.44 3.797 13.359 19.128l-56.17 211.02c-6.335 28.464-18.795 53.298-68.315 56.17l-10.627 1.821zM477.59 393.97l-.052-9.005.12-6.55c.02-1.09-48.04-.537-48.04-.537s-1.645 1.433-1.822 2.429c-.185 1.04.154 2.299.91 3.036.827.806 3.34.911 3.34.911l5.162-.304s-1.186 39.673-7.894 57.992a9.516 9.516 0 0 1-2.126 3.34c-.765.783-1.791 1.263-2.732 1.822-1.868 1.11-6.217.91-5.77 3.036.608 2.879 5.868.464 8.806.607 3.54.173 10.627.304 10.627.304h10.323l11.841.607 8.198-.607 5.465-3.643s1.06-3.428 1.518-5.162c.452-1.709 1.42-3.406 1.215-5.162-.132-1.124-.556-2.441-1.518-3.036-.517-.32-1.345-.376-1.822 0-2.044 1.611-.352 5.444-1.822 7.59-.904 1.321-3.947 2.733-3.947 2.733l-3.947 1.822-8.502 1.215h-11.84l-2.43-1.215-2.429-3.036 1.215-6.983 3.34-19.432 3.036-1.215h14.574l1.214 1.215v8.197l2.126 2.126 2.125-2.126-.607-11.538 3.947-8.501-1.518-2.733h-1.215l-2.732 4.555-2.126 2.732-2.732 1.215-7.894.91h-4.555l-2.125-.607 4.554-27.326 7.894-1.214h8.806l5.465.304 1.518 3.643.819 7.916c1.346 1.173 2.692.465 4.039-.325zM493.66 379.31l10.735.322 9.125-.107h4.83l.644 1.288-.322 1.288s-.859.107-1.395.107h-2.04l-3.328.645-1.932 1.288-.322.751-.644 3.865L503 429.12l-.43 5.796.215 4.831 1.717 3.543 5.797 3.65 8.266.643 6.763-1.61 4.08-3.542 3.434-4.294 2.577-6.656 2.04-11.164 2.468-15.35 1.396-7.515c.071-3.655.035-3.853.107-5.904l.215-3.757-.108-2.362-.214-2.04-1.503-.644h-3.113l-1.718-.536-.322-1.503.107-1.181 1.61-.215 6.549.108 7.621.107 3.758.107.107 1.825-.43 1.074c-1.18-.119-2.361-.06-3.542.107-2.236.573-2.256 2.919-3.22 4.509l-3.113 13.633-5.797 32.419-4.83 11.594c-3.187 3.712-6.764 5.474-10.52 6.333-4.295 1.08-8.589 1.6-12.883.966-4.545-.482-8.184-2.323-11.594-4.508-2.332-2.052-3.994-5.223-5.475-8.695.248-8.243.723-16.41 1.825-24.368l4.187-27.588c.628-2.671.194-4.128-1.18-4.509l-5.476-.322-.107-1.503zM565.75 379.16c-1.078.777-1.753 1.762-1.221 3.344l6.218 1.822-8.566 59.344c-.074.51.081 1.127-.226 1.54-.282.382-.525.23-1.296.602-1.6.77-4.28 2.122-5.692 3.23-.468.369.336 1.824.92 1.936 10.657 2.045 24.3.083 24.76.526l.433-2.499-7.89-1.672c-1.013-.214-2.075-1.793-1.823-2.893 2.266-9.874 4.144-29.286 6.218-29.588l3.495 1.503c1.88 1.019 2.309 1.753 2.724 1.672 0 0 6.563 25.094 16.4 31.88 3.73 2.574 9.202 2.94 13.507 1.522.918-.303 2.308-1.02 2.141-1.973-.191-1.093-2.06-.863-3.08-1.296l-6.951-2.95-14.41-29.455c19.88-10.106 20.593-26.953 5.298-35.374l-30.959-1.221zm14.897 72.344-.019.075c.043-.034.042-.053.019-.075zm5.861-68.549c1.207.02 2.434.142 3.231.17 2.19.074 4.442.07 6.219 1.352 2.038 1.47 3.022 3.768 3.494 6.237.485 2.539.019 5.197-.451 7.74-.579 3.131-1.056 6.51-2.893 9.11-1.501 2.125-3.802 3.734-6.218 4.697-2.129.848-4.551.906-6.838.77-1.556-.092-4.69.482-4.546-1.07 1.032-11.225 4.247-24.774 4.095-27.485-.075-1.327 1.896-1.553 3.907-1.521z"/><path fill-opacity=".314" stroke="#000" stroke-width="1.914" d="m593.97 66.453-11.515-6.66-12.014 5.71 2.775-13.01-9.143-9.66 13.23-1.381 6.364-11.682 5.401 12.156 13.076 2.441-9.892 8.894z" transform="matrix(.53895 0 0 .52918 187.55 105.67)"/><path fill-opacity=".314" stroke="#000" stroke-width="1.914" d="m593.97 66.453-11.515-6.66-12.014 5.71 2.775-13.01-9.143-9.66 13.23-1.381 6.364-11.682 5.401 12.156 13.076 2.441-9.892 8.894z" transform="matrix(.53895 0 0 .52918 213.52 123.26)"/><path fill-opacity=".314" stroke="#000" stroke-width="1.914" d="m593.97 66.453-11.515-6.66-12.014 5.71 2.775-13.01-9.143-9.66 13.23-1.381 6.364-11.682 5.401 12.156 13.076 2.441-9.892 8.894z" transform="matrix(.53895 0 0 .52918 316.8 494.8)"/><path fill-opacity=".314" stroke="#000" stroke-width="1.914" d="m593.97 66.453-11.515-6.66-12.014 5.71 2.775-13.01-9.143-9.66 13.23-1.381 6.364-11.682 5.401 12.156 13.076 2.441-9.892 8.894z" transform="matrix(.53895 0 0 .52918 290.6 527)"/><path fill-opacity=".314" stroke="#000" stroke-width="1.914" d="m593.97 66.453-11.515-6.66-12.014 5.71 2.775-13.01-9.143-9.66 13.23-1.381 6.364-11.682 5.401 12.156 13.076 2.441-9.892 8.894z" transform="matrix(.53895 0 0 .52918 266.56 556.2)"/><path fill-opacity=".314" stroke="#000" stroke-width="1.914" d="m593.97 66.453-11.515-6.66-12.014 5.71 2.775-13.01-9.143-9.66 13.23-1.381 6.364-11.682 5.401 12.156 13.076 2.441-9.892 8.894z" transform="matrix(.53895 0 0 .52918 239.51 578.96)"/><path fill-opacity=".314" stroke="#000" stroke-width="1.914" d="m593.97 66.453-11.515-6.66-12.014 5.71 2.775-13.01-9.143-9.66 13.23-1.381 6.364-11.682 5.401 12.156 13.076 2.441-9.892 8.894z" transform="matrix(.53895 0 0 .52918 213.74 599.57)"/><path fill-opacity=".314" stroke="#000" stroke-width="1.914" d="m593.97 66.453-11.515-6.66-12.014 5.71 2.775-13.01-9.143-9.66 13.23-1.381 6.364-11.682 5.401 12.156 13.076 2.441-9.892 8.894z" transform="matrix(.53895 0 0 .52918 187.55 615.03)"/><rect width="3.643" height="17.914" x="500.77" y="93.759" fill-opacity=".314" stroke="#000" stroke-width="1.022" rx="1.522"/><rect width="3.643" height="17.914" x="525.97" y="108.49" fill-opacity=".314" stroke="#000" stroke-width="1.022" rx="1.522"/><rect width="3.643" height="17.914" x="551.78" y="123.06" fill-opacity=".314" stroke="#000" stroke-width="1.022" rx="1.522"/><rect width="3.643" height="17.914" x="578.8" y="144.31" fill-opacity=".314" stroke="#000" stroke-width="1.022" rx="1.522"/><rect width="3.643" height="24.721" x="604.3" y="169.21" fill-opacity=".314" stroke="#000" stroke-width="1.022" rx="1.522"/><rect width="3.643" height="29.933" x="631.02" y="199.88" fill-opacity=".314" stroke="#000" stroke-width="1.022" rx="1.522"/><rect width="3.643" height="93.709" x="499.25" y="150.69" fill-opacity=".314" stroke="#000" stroke-width="1.022" rx="1.522"/><rect width="3.643" height="23.51" x="526.57" y="164.35" fill-opacity=".314" stroke="#000" stroke-width="1.022" rx="1.522"/><rect width="3.643" height="17.914" x="499.55" y="657.13" fill-opacity=".314" stroke="#000" stroke-width="1.022" rx="1.522"/><rect width="3.643" height="17.914" x="527.18" y="643.17" fill-opacity=".314" stroke="#000" stroke-width="1.022" rx="1.522"/><rect width="3.643" height="24.477" x="551.78" y="621.91" fill-opacity=".314" stroke="#000" stroke-width="1.022" rx="1.522"/><rect width="3.643" height="26.64" x="579.1" y="598.53" fill-opacity=".314" stroke="#000" stroke-width="1.022" rx="1.522"/><rect width="3.643" height="27.508" x="603.09" y="570.3" fill-opacity=".314" stroke="#000" stroke-width="1.022" rx="1.522"/><rect width="3.643" height="29.977" x="629.81" y="537.2" fill-opacity=".314" stroke="#000" stroke-width="1.022" rx="1.522"/><rect width="3.643" height="94.05" x="500.16" y="521.41" fill-opacity=".314" stroke="#000" stroke-width="1.022" rx="1.522" ry="1.202"/><rect width="3.643" height="54.649" x="526.88" y="548.13" fill-opacity=".314" stroke="#000" stroke-width="1.022" rx="1.522"/><rect width="3.643" height="61.936" x="550.56" y="522.93" fill-opacity=".314" stroke="#000" stroke-width="1.022" rx="1.522"/><rect width="3.643" height="38.598" x="579.1" y="522.93" fill-opacity=".314" stroke="#000" stroke-width="1.022" rx="1.522"/></g></svg>