<svg xmlns="http://www.w3.org/2000/svg" viewBox="0 0 401.5 396.4"><defs><linearGradient id="a" x1="975.08" x2="1363.1" y1="-65.966" y2="-65.966" gradientTransform="matrix(.9998 -.25269 .25265 .99961 -819.19 901.75)" gradientUnits="userSpaceOnUse"><stop offset="0" stop-color="#bd9542"/><stop offset="1" stop-color="#d0ae52" stop-opacity=".778"/></linearGradient><linearGradient id="b" x1="141.41" x2="527.13" y1="540.39" y2="540.39" gradientUnits="userSpaceOnUse"><stop offset="0" stop-color="#d0c27b"/><stop offset="1" stop-color="#d0c27b" stop-opacity=".778"/></linearGradient><linearGradient id="c" x1="-224.48" x2="1012.4" y1="129.08" y2="129.08" gradientTransform="matrix(.12265 0 0 .18714 288 598.48)" gradientUnits="userSpaceOnUse"><stop offset="0" stop-color="#e6e6e6"/><stop offset="1" stop-color="#ccc" stop-opacity=".746"/></linearGradient></defs><g transform="translate(-133.84 -343.79)"><g stroke="#000" stroke-width="1.034"><path fill="url(#a)" d="M180.68 657.54s-24.221-5.563-40.995-67.722c-16.482-61.078 4.135-82.411 4.135-82.411 3.07-1.796 3.028-.977 4.087-7.225.384-4.654.437-2.312-.97-7.487 0 0-11.374-23.084 27.654-74.298 38.35-50.324 67.036-47.932 67.036-47.932 3.293 1.345 2.566 1.711 8.171-1.246 3.93-2.525 2.253-1.113 5.37-5.48 0 0 11.048-24.311 75.442-24.55 63.274-.235 79.172 22.75 79.172 22.75 1.05 3.398.262 3.165 6.104 5.62 4.445 1.434 2.157.931 7.518.747 0 0 25.113-5.853 66.083 43.815 40.258 48.804 31.443 76.16 31.443 76.16-2.05 2.906-2.313 2.31-.94 6.714 1.126 2.732.226.756 3.775 4.777 0 0 20.605 15.724 8.074 78.878-12.313 62.056-38.913 72.63-38.913 72.63-3.547.264-3.079-.404-6.778 4.742-2.39 4.012-1.536 1.985-2.38 7.281 0 0 .147 24.997-56.666 55.311-55.825 29.787-81.204 14.706-81.204 14.706-2.454-2.573-1.473-2.55-7.807-2.35-4.639.548-2.514.094-7.229 2.651 0 0-20.019 16.546-78.66-10.048-57.623-26.132-61.89-54.382-61.89-54.382.552-3.512 1.088-2.902-3.079-7.676-3.36-3.242-1.588-1.947-6.554-3.974z" transform="matrix(.96996 0 0 .96469 10.05 22.06)"/><path fill="url(#b)" d="M187.19 653.72s-23.146-5.316-39.176-64.717c-15.751-58.368 3.951-78.755 3.951-78.755 2.934-1.716 2.894-.934 3.907-6.904.366-4.448.417-2.21-.928-7.155 0 0-10.868-22.06 26.428-71.002 36.648-48.091 64.062-45.806 64.062-45.806 3.146 1.285 2.451 1.635 7.808-1.19 3.755-2.414 2.153-1.065 5.13-5.237 0 0 10.56-23.233 72.097-23.462 60.466-.225 75.66 21.74 75.66 21.74 1.003 3.247.25 3.025 5.833 5.371 4.248 1.37 2.061.89 7.184.714 0 0 23.999-5.593 63.151 41.87 38.472 46.639 30.048 72.783 30.048 72.783-1.96 2.776-2.21 2.206-.899 6.415 1.076 2.61.217.723 3.608 4.565 0 0 19.691 15.026 7.716 75.378-11.767 59.302-37.186 69.407-37.186 69.407-3.39.254-2.942-.385-6.477 4.533-2.285 3.833-1.468 1.897-2.275 6.958 0 0 .14 23.888-54.151 52.857-53.348 28.465-77.601 14.053-77.601 14.053-2.345-2.46-1.408-2.437-7.462-2.245-4.432.522-2.401.088-6.907 2.532 0 0-19.131 15.812-75.171-9.602-55.065-24.972-59.144-51.97-59.144-51.97.528-3.356 1.04-2.773-2.942-7.335-3.212-3.098-1.517-1.861-6.263-3.798z" transform="matrix(.96996 0 0 .96469 10.05 22.06)"/></g><path fill-opacity=".129" stroke="#000" stroke-width=".9" d="m286.72 469.12-6.104.292.648-2.969-2.148-2.2 3.116-.316.123-.227-.156-.202c-1.615-2.08-3.215-4.229-5.248-5.914-1.444-.846 6.487 2.082 10.167 2.752zM190.85 536.75c2.698.071 5.255-1.222 7.894-1.78 1.125-.238 2.264-.407 3.383-.668.835-.194 1.624-.659 2.481-.668 1.24-.013 2.458.435 3.61.89.562.224 1.054 1.19 1.578.89.585-.334.028-1.335 0-2.002-.038-.892-.776-1.961-.226-2.67.512-.659 1.693-.158 2.481-.446.98-.357 2.324-.599 2.707-1.557.288-.72.677-2.226-.677-2.226s-3.282.18-4.736-.445c-.83-.356-1.767-.925-2.03-1.78-.519-1.687 1.773-3.404 1.353-5.118-.45-1.838-3.09-2.485-3.834-4.228-.438-1.028.09-2.267-.226-3.338-.263-.893-.872-1.649-1.353-2.448-.638-1.062-1.974-1.882-2.03-3.116-.079-1.756 1.579-4.45 2.481-4.673.902-.222 2.212-.905 2.03-1.78-.287-1.379-2.634-1.305-4.06-1.335-.547-.012-1.1.707-1.579.445-.478-.263-.576-1.032-.45-1.558.28-1.175 2.676-1.478 2.48-2.67-.124-.754-1.257-1.065-2.03-1.113-.808-.05-1.598.423-2.255.89-1.039.739-1.695 1.896-2.481 2.893-.397.504-1.152.92-1.128 1.558.022.579 1.155.756 1.128 1.335-.043.943-1.45 1.252-2.03 2.003-.368.475-1.108.995-.902 1.557.218.596 1.278.305 1.804.668.568.392 1.22.887 1.354 1.558.137.69-.563 1.308-.677 2.002-.06.367-.198.798 0 1.113.265.423 1.183.2 1.353.668.25.687-1.457 1.518-.902 2.003.985.86 2.116-1.657 3.383-2.003.363-.1.835-.232 1.128 0 .54.428.375 1.323.451 2.003.074.663 0 1.112 0 2.002 0 .89-.115 2.084 0 3.116.076.68.592 1.333.451 2.003-.208.987-.963 1.874-1.804 2.448-.706.48-1.666.407-2.481.667-.612.195-1.55.086-1.805.668-.388.885 1.318 1.724 1.128 2.67-.186.926-1.146 1.642-2.03 2.003-.903.369-2.36-.782-2.932 0-.278.38.059 1.07.451 1.335 1.243.838 3.014-.379 4.511-.222 1.16.12 2.672-.023 3.383.89.367.47.097 1.194 0 1.78-.076.463-.087 1.034-.45 1.335-1.573 1.302-4.242.012-6.09.89-1.39.661-3.745 1.636-3.384 3.116.128.525 1.032.43 1.579.445z"/><path fill-opacity=".129" stroke="#000" stroke-width=".9" d="M177.95 525.43c-.844-1.263-.212-3.411.902-4.45 1.159-1.082 3.214-.2 4.737-.668.642-.198 1.696-.236 1.804-.89.085-.518-.652-.879-1.128-1.113-.95-.47-2.552.418-3.157-.445-.789-1.125-.18-3.15.902-4.006.704-.557 1.89-.377 2.706 0 .532.246.559 1.193 1.128 1.335.785.196 1.802-.228 2.256-.89.59-.86-.745-2.38 0-3.115.69-.682 1.977-.207 2.932 0 1.051.228 2.352.44 2.932 1.335.608.937.495 2.338 0 3.338-.377.76-1.653.798-2.03 1.558-.562 1.132.042 2.522 0 3.783-.038 1.114.505 2.487-.226 3.338-.849.988-2.546.639-3.834.89-1.867.364-3.736.936-5.639.89-1.459-.035-3.481.312-4.285-.89zM208.28 581.15c-.504.018-.983.33-1.353.668-.322.293-.68.68-.677 1.112.006.7.603 1.31 1.128 1.78.87.782 2.041 1.925 3.157 1.558.798-.262.806-1.459 1.128-2.225.182-.433.649-.909.451-1.335-.575-1.24-2.453-1.608-3.834-1.558zM232.29 576.46c.798-.712.522-2.064.677-3.115.14-.958.565-1.986.225-2.893-.11-.296-.382-.548-.676-.668-.834-.34-1.956-.494-2.707 0-.813.535-.968 1.719-1.128 2.67-.184 1.1-.34 2.373.226 3.338.271.463.826.764 1.353.89.662.16 1.525.229 2.03-.222zM232.74 580.22c.05.472-.743.664-.902 1.113-.274.77.1 1.638 0 2.448-.076.607-.451.89-.451 1.78s.142 1.746-.451 2.225c-.582.47-1.504 0-2.256 0-.526 0-1.579 1.113-1.579 0s-.034-1.929 0-2.893c.038-1.04-.023-2.103.226-3.115.27-1.098.494-2.369 1.353-3.116.41-.357 1.043-.554 1.579-.445 1.046.214 2.369.955 2.481 2.003zM253.64 591.2c.985 1.024-.047 2.828-.226 4.228-.095.75.103 1.703-.45 2.225-.715.675-1.944.456-2.933.445-1.298-.014-2.582-.33-3.834-.667-1.24-.334-2.67-.47-3.609-1.335-.664-.612-.886-1.584-1.127-2.448-.181-.648-.514-1.394-.226-2.003.229-.485.677-.89 1.353-.89.677 0-1.127-.445 2.707 0 3.834.445 2.85.37 4.285.445 1.352.07 3.129-.969 4.06 0zM287.76 597.8c-.033 1.522-1.743 2.731-3.158 3.338-1.172.503-2.556 0-3.834 0-1.203 0-2.707 1.113-3.609 0-.902-1.113-2.318-1.269-2.03-2.225.333-1.104 2.248-.623 3.384-.89 1.42-.334 3.157-.446 4.285-.89 1.128-.446 2.427-1.262 3.609-.89.66.207 1.368.873 1.353 1.557zM287.26 607.9c-.033 1.522-1.743 2.731-3.158 3.338-1.172.503-2.556 0-3.834 0-1.203 0-2.707 1.113-3.609 0-.902-1.113-2.318-1.269-2.03-2.225.333-1.104 2.248-.623 3.384-.89 1.42-.334 3.157-.446 4.285-.89 1.128-.446 2.427-1.262 3.609-.89.66.207 1.368.873 1.353 1.557zM247.17 600.34c-.504.018-.983.33-1.353.668-.322.293-.68.68-.677 1.112.006.7.603 1.31 1.128 1.78.87.782 2.041 1.926 3.157 1.558.798-.262.806-1.459 1.128-2.225.182-.433.649-.909.451-1.335-.575-1.24-2.453-1.608-3.834-1.558zM254.41 505.13c-.711 1.136-.361 2.719 0 4.006.117.416.24 1.074.677 1.112.796.07 1.233-1.069 1.578-1.78.561-1.155.723-2.503.677-3.783-.01-.306.056-.762-.225-.89-.917-.416-2.177.488-2.707 1.335zM235.65 515.54c-.412.887-.232 2.188.451 2.893.265.273.76.332 1.128.222.509-.152.924-.628 1.127-1.112.26-.617.224-1.373 0-2.003-.159-.448-.427-1.033-.902-1.113-.699-.117-1.508.477-1.804 1.113zM240.19 515.54c-.412.887-.232 2.188.451 2.893.265.273.76.332 1.128.222.509-.152.924-.628 1.127-1.112.26-.617.224-1.373 0-2.003-.159-.448-.427-1.033-.902-1.113-.699-.117-1.508.477-1.804 1.113zM175.36 603.94c-.65-2.189-1.964-4.377 4.546-6.566 5.759-.337 9.38.512 9.091 3.535-1.337 2.532-2.411 3.723-4.04 4.546-5.374-.505-6.62-1.01-9.597-1.515z"/><path fill-opacity=".129" stroke="#000" stroke-width=".9" d="M287.49 705.46c45.49 20.236 209.86 6.723 219.46-161.37 4.476-78.391-64.337-190.85-220.97-165.41l.505 70.711.213.062c.156-2.303-17.43-4.337-17.246-2.035-.365-.932-1.71-1.5-1.68-2.5.013-.462.653-.686.844-1.108.26-.575.765-1.36.369-1.853-.252-.314-.668-.387-1.115-.356-.448.032-.927.168-1.32.267-.872.22-1.63.723-2.37 1.254l.172.033-2.329 2.022.41 3.01-2.714-1.52-1.214.557c-.904.69-1.805 1.379-2.73 2.04-1.145.816-2.438 1.449-3.469 2.402-2.513 2.326-4.55 5.13-6.47 7.954-.934 1.374-2.016 2.742-2.435 4.344-.211.807.39 1.76 0 2.5-.351.667-1.692.564-1.87 1.295-.123.508.747.92.747 1.383 0 .463.377 1.572.377 1.942 0 .37-1.17.143-1.5.558-.155.195-.11.49-.091.737.035.446.643.937.369 1.294-.47.613-1.653-.369-2.337 0-1.27.685-1.369 2.553-2.345 3.609-1.2 1.297-2.833 2.129-4.215 3.236-2.066 1.655-5.146 2.635-6.092 5.089-.236.61.628 1.387.278 1.942-.208.33-.865.07-1.123.364-.582.662-.39 1.716-.467 2.589-.067.739-.532 1.7 0 2.225.55.543 1.847-.598 2.337 0 .18.22-.104.56-.18.833-.132.47-.216.97-.476 1.384-.117.184-.302.318-.468.46-.235.203-.686.257-.746.56-.07.35.266.708.558.921.312.229.919-.046 1.131.276.399.603-.406 1.408-.377 2.127.03.732-.088 1.766.558 2.128.877.494 2.068-.283 2.91-.833.372-.242.562-.68.845-1.02.31-.37.585-.773.935-1.108.767-.732 1.837-1.137 2.525-1.942.596-.695.391-2.445 1.312-2.403.644.03.533 1.16.755 1.756.18.485.189 1.043.467 1.48.34.536 1.045.772 1.402 1.295.973 1.424 1.264 3.2 1.878 4.806.318.831.601 1.675.935 2.5.441 1.09 1.223 2.59 1.41 3.236.188.648.99 1.083 1.214 1.756.283.851.098 2.316.098 2.686 0 .37.104.657.37.736.417.125.865-.306 1.131-.647.573-.733.316-1.855.746-2.678.204-.39.526-.713.845-1.02.51-.49 1.282-.716 1.689-1.294.355-.503.464-1.15.558-1.755.222-1.432.054-2.898 0-4.345-.032-.835-.53-1.735-.189-2.5.224-.503.889-.663 1.312-1.02.453-.381.863-.811 1.312-1.197.336-.288.728-.514 1.033-.833.477-.5 1.008-1.015 1.222-1.667.144-.439.305-1.034 0-1.383-.144-.166-.526.079-.656-.098-.111-.15.064-.366.09-.55.035-.247.11-.495.09-.744-.017-.223-.01-.5-.18-.647-.497-.432-1.414.084-1.968-.275-.552-.358-.8-1.058-1.033-1.667a4.3 4.3 0 0 1-.279-1.57c.007-.63.293-1.228.37-1.853.085-.702-.076-1.433.097-2.12.176-.695.685-1.269.935-1.941.168-.45.195-.946.377-1.392.241-.589.586-1.133.935-1.666.424-.646.974-1.203 1.402-1.845.278-.416.569-.832.755-1.295.2-.5.15-1.08.377-1.57.177-.38.483-.69.746-1.019.386-.48 1.03-.807 1.222-1.391a1.427 1.427 0 0 0-.098-1.109c-.077-.134-.294-.145-.378-.275-.255-.397-.342-.917-.278-1.383.056-.413.342-.764.565-1.117.437-.69 1.133-1.213 1.501-1.942.203-.4.185-.884.369-1.294.119-.265.34-.475.467-.736.33-.678.16-1.66.755-2.128.443-.349 1.134-.072 1.689-.186.308-.064.602-.37.902-.275.942.294 1.276 1.495 1.812 2.314.577.88 1.286 1.748 1.5 2.775.152.726-.02 1.494-.188 2.217-.39 1.673-1.176 3.234-1.878 4.806-.507 1.135-.965 2.312-1.68 3.333-.68.968-1.939 1.519-2.436 2.589-.707 1.522-.845 3.34-.566 4.992.41 2.422 1.222 5.157 3.19 6.659 1.056.806 2.653 1.103 3.936.736 1.23-.352 1.747-1.877 2.804-2.59 1.316-.885 2.76-1.683 4.314-2.03.791-.177 1.63-.106 2.435 0 1.412.186 3.042.195 4.125 1.108.466.394.625 1.067.754 1.66.131.603.313 1.317 0 1.852-.94 1.604-3.108 2.16-4.879 2.775-.775.269-1.617.297-2.435.372-1.868.172-4.496-1.3-5.625.178-.311.406.143 1.027.377 1.48.443.861 1.545 1.318 1.878 2.226.297.811-.188 1.664 0 2.589.187.924 1.058.673 1.5 1.108.883.87 2.805 1.852 2.247 2.953-.252.497-1.141.128-1.69 0-.677-.158-1.201-.725-1.869-.922-1.026-.303-2.12-.393-3.19-.372-1.2.023-2.755-.323-3.558.558-.795.871-.29 2.343-.19 3.511.12 1.386.275 2.841.936 4.07.642 1.195 2.451 1.656 2.812 2.961.152.55-.127 1.154-.377 1.667-.518 1.065-1.357 1.976-2.247 2.767-.772.687-1.6 1.488-2.624 1.667-1.388.241-2.735-.684-4.124-.923-2.046-.35-4.11-.871-6.183-.744-2.57.157-6.745 1.853-7.495 1.853s-3.186.922-3.936.922-1.675.883-2.443.558c-1.468-.62-1.873-2.595-2.436-4.07-.47-1.232-.86-2.57-.746-3.883.091-1.05.82-1.95 1.124-2.961.326-1.089.904-2.2.746-3.325-.127-.902-.49-1.992-1.312-2.403-.788-.394-1.918-.16-2.624.364-1.096.813-1.542 2.359-1.681 3.705-.117 1.13.526 2.211.746 3.326.29 1.473.283 3.014.754 4.441.562 1.703 2.903 3.076 2.436 4.806-.174.645-1.228.621-1.69 1.109-.688.726-.647 2.06-1.5 2.589-.742.46-1.748.155-2.624.186-.563.02-1.141.128-1.69 0-1.085-.254-2.266-2.317-2.992-1.48-.699.804 2.041 1.542 1.87 2.588-.137.827-1.373.988-2.059 1.48-1.374.989-2.63 2.163-4.124 2.962-.871.465-2.13.933-3.543 1.392-2.446.97-4.003 2.252-7.503 2.799a.43.43 0 0 1-.098.049c-1.07.417-2.843.95-3.854 1.488-1.265.674-2.24 1.838-3.559 2.403-.529.227-1.12.464-1.69.372-1.076-.172-1.752-1.378-2.803-1.666-.664-.182-1.385-.095-2.067 0-.45.062-.962.085-1.312.372-.644.528-1.175 1.392-1.123 2.217.027.442.447.777.746 1.108.71.786 1.615 1.376 2.444 2.039 1.105.885 2.438 1.527 3.37 2.589.329.375.541.841.746 1.295.563 1.246 1.141 2.529 1.312 3.883.1.797-.18 1.663-.18 2.403s-.049 2.021-.378 2.961c-.475 1.359-1.332 2.58-2.246 3.698-.861 1.053-1.686 2.393-3.002 2.775-.671.195-1.396-.17-2.066-.372-1.042-.315-1.988-.88-2.993-1.295-1.241-.513-2.474-1.051-3.747-1.48-.861-.29-1.747-.501-2.624-.737-1.684-.45-3.332-1.124-5.068-1.294-1.12-.11-2.254.048-3.37.186-.633.078-1.597-.2-1.878.364-.431.866 1.283 1.625 1.312 2.59.028.937-.536 1.85-1.123 2.588-.579.727-1.777.867-2.247 1.667-.253.43-.082.994-.189 1.48-.222 1.01-.352 2.102-.935 2.962-.27.4-.74.624-1.123.922-.737.574-1.735.895-2.255 1.667-.854 1.269-.826 2.939-1.123 4.433-.085.428-.122.864-.189 1.295-.174 1.113-.412 2.216-.558 3.333-.087.674-.485 1.418-.188 2.031.874 1.804 4.684 2.586 5.06 3.325.374.74 1.73 1.91 2.812 2.59.569.356 1.222.586 1.878.744 1.28.307 2.619.31 3.936.372 1.684.08 3.373-.022 5.059 0 2.25.03 4.586.793 6.748.178 1.08-.307 1.817-1.317 2.805-1.845.836-.447 1.814-.615 2.624-1.108.907-.553 1.506-1.854 2.443-2.04.937-.184.173-1.475.18-2.216.01-.989-.407-1.998-.18-2.961.228-.967.935-1.763 1.493-2.59.567-.841.998-1.882 1.878-2.402.65-.386 1.31-.003 2.246-.372.937-.37 1.957-1.307 3.002-1.845.843-.434 1.74-.762 2.624-1.109.679-.266 1.66-.139 2.058-.744.477-.726-.242-1.726-.18-2.589.062-.88-.11-2.002.557-2.589.984-.864 2.618-.342 3.936-.364 1.002-.017 2.007.301 3.001.178 1.823-.226 3.73-.639 5.248-1.659.735-.494 1.072-1.406 1.69-2.039.98-1.006 1.805-2.444 3.18-2.775 1.003-.24 2.368-.058 3.002.745.652.825-.404 2.172 0 3.139.203.485.748.745 1.123 1.116l1.124 1.109c.562.553 1.172 1.063 1.689 1.658.554.639.984 1.372 1.5 2.04.486.626.88 1.348 1.501 1.844.652.52 1.601.59 2.247 1.117.788.643 1.05 1.799 1.87 2.403.699.514 1.635.598 2.443.922.441.177.918.294 1.312.558.365.244.609.63.935.922.658.589 1.324 1.175 2.058 1.667 1.065.713 2.333 1.104 3.379 1.845.754.534 1.683 1.014 2.058 1.853.226.505.068 1.11 0 1.658-.094.759-.395 1.478-.558 2.225-.146.673-.824 1.502-.377 2.031.24.284.749 0 1.123 0 .938 0 .948-.533 1.312-.922.743-.793 1.486-1.715 1.69-2.775.141-.737-.03-1.551-.378-2.217-.242-.465-.898-.636-1.123-1.109-.293-.618-.566-1.467-.189-2.039.216-.326.732-.424 1.124-.372.447.06.7.593 1.123.745 1.124.402 2.626 1.1 3.567.372.348-.269.38-.906.18-1.295-.703-1.379-2.697-1.573-4.116-2.225-1.095-.503-2.43-.555-3.378-1.294-.95-.742-1.06-2.276-2.058-2.953-1.325-.9-3.288-.34-4.69-1.117-1.231-.68-2.327-1.726-2.994-2.953-.602-1.108-.115-2.61-.754-3.697-.04-.068.101-.578-.034-1.266-.85-.867-.736-.557-1.552-1.016-.539-.632-1.043-1.583-1.12-1.693-.607-.866-1.493-.524-1.419-1.576.055-.771.787-1.34 1.124-2.039.493-1.021.32-2.57 1.312-3.139.871-.5 2.048.048 3 .372.69.235 1.216.809 1.879 1.109.898.406 2.045.308 2.812.922.255 2.407.075 3.04 1.526 2.193.352.76.667 1.552 1.098 2.249.424.685.716 1.484 1.312 2.03.676.62 1.65.82 2.436 1.295 1.683 1.018 3.287 2.162 4.87 3.326 1.284.943 3.235 1.465 3.748 2.96.247.722-.594 1.457-.558 2.218.054 1.11.734 2.103 1.124 3.147.3.805.584 1.618.935 2.403.394.883.763 1.79 1.312 2.589.844 1.23 2.813 2.594 3 3.333.188.74-.49.86-.376 1.295.221.843 1.538 1.04 1.877 1.845.288.682-.286 1.534 0 2.217.405.967 1.247 1.875 2.247 2.225 1.124.393 2.513.193 3.559-.373.703-.38 1.194-1.122 1.5-1.852.216-.514.158-1.104.19-1.66.041-.74.21-1.512 0-2.224-.229-.77-.963-1.306-1.313-2.03-.424-.881-.57-1.87-.935-2.776-.33-.82-1.039-1.524-1.131-2.403-.086-.818-.202-2.081.566-2.403.67-.281 1.151 1.177 1.877 1.108.748-.07 1.06-1.064 1.681-1.48.926-.62 2.152-.763 3.002-1.48.408-.345.42-1.141.934-1.295.512-.154 2.278.084 2.059-.57z"/><path fill-opacity=".314" stroke="#000" stroke-width="3.23" d="m593.97 66.453-11.515-6.66-12.014 5.71 2.775-13.01-9.143-9.66 13.23-1.381 6.364-11.682 5.401 12.156 13.076 2.441-9.892 8.894z" transform="matrix(.28309 0 0 .27425 35.282 451.67)"/><path fill-opacity=".314" stroke="#000" stroke-width="3.23" d="m593.97 66.453-11.515-6.66-12.014 5.71 2.775-13.01-9.143-9.66 13.23-1.381 6.364-11.682 5.401 12.156 13.076 2.441-9.892 8.894z" transform="matrix(.28309 0 0 .27425 49.925 431.67)"/><path fill-opacity=".314" stroke="#000" stroke-width="3.23" d="m593.97 66.453-11.515-6.66-12.014 5.71 2.775-13.01-9.143-9.66 13.23-1.381 6.364-11.682 5.401 12.156 13.076 2.441-9.892 8.894z" transform="matrix(.28309 0 0 .27425 63.497 420.24)"/><path fill-opacity=".314" stroke="#000" stroke-width="3.23" d="m593.97 66.453-11.515-6.66-12.014 5.71 2.775-13.01-9.143-9.66 13.23-1.381 6.364-11.682 5.401 12.156 13.076 2.441-9.892 8.894z" transform="matrix(.28309 0 0 .27425 77.425 407.02)"/><path fill-opacity=".314" stroke="#000" stroke-width="3.23" d="m593.97 66.453-11.515-6.66-12.014 5.71 2.775-13.01-9.143-9.66 13.23-1.381 6.364-11.682 5.401 12.156 13.076 2.441-9.892 8.894z" transform="matrix(.28309 0 0 .27425 91.354 398.81)"/><path fill-opacity=".314" stroke="#000" stroke-width="3.23" d="m593.97 66.453-11.515-6.66-12.014 5.71 2.775-13.01-9.143-9.66 13.23-1.381 6.364-11.682 5.401 12.156 13.076 2.441-9.892 8.894z" transform="matrix(.28309 0 0 .27425 105.64 392.74)"/><path fill-opacity=".314" stroke="#000" stroke-width="3.23" d="m593.97 66.453-11.515-6.66-12.014 5.71 2.775-13.01-9.143-9.66 13.23-1.381 6.364-11.682 5.401 12.156 13.076 2.441-9.892 8.894z" transform="matrix(.28309 0 0 .27425 35.282 596.67)"/><path fill-opacity=".314" stroke="#000" stroke-width="3.23" d="m593.97 66.453-11.515-6.66-12.014 5.71 2.775-13.01-9.143-9.66 13.23-1.381 6.364-11.682 5.401 12.156 13.076 2.441-9.892 8.894z" transform="matrix(.28309 0 0 .27425 49.925 615.95)"/><path fill-opacity=".314" stroke="#000" stroke-width="3.23" d="m593.97 66.453-11.515-6.66-12.014 5.71 2.775-13.01-9.143-9.66 13.23-1.381 6.364-11.682 5.401 12.156 13.076 2.441-9.892 8.894z" transform="matrix(.28309 0 0 .27425 62.068 631.31)"/><path fill-opacity=".314" stroke="#000" stroke-width="3.23" d="m593.97 66.453-11.515-6.66-12.014 5.71 2.775-13.01-9.143-9.66 13.23-1.381 6.364-11.682 5.401 12.156 13.076 2.441-9.892 8.894z" transform="matrix(.28309 0 0 .27425 77.425 644.52)"/><path fill-opacity=".314" stroke="#000" stroke-width="3.23" d="m593.97 66.453-11.515-6.66-12.014 5.71 2.775-13.01-9.143-9.66 13.23-1.381 6.364-11.682 5.401 12.156 13.076 2.441-9.892 8.894z" transform="matrix(.28309 0 0 .27425 92.425 655.6)"/><path fill-opacity=".314" stroke="#000" stroke-width="3.23" d="m593.97 66.453-11.515-6.66-12.014 5.71 2.775-13.01-9.143-9.66 13.23-1.381 6.364-11.682 5.401 12.156 13.076 2.441-9.892 8.894z" transform="matrix(.28309 0 0 .27425 105.64 662.74)"/><rect width="1.914" height="61.78" x="268.33" y="600.94" fill-opacity=".314" stroke="#000" stroke-width=".9" rx=".799"/><rect width="1.914" height="54.28" x="254.4" y="599.87" fill-opacity=".314" stroke="#000" stroke-width=".9" rx=".799"/><rect width="1.914" height="45.708" x="240.83" y="599.87" fill-opacity=".314" stroke="#000" stroke-width=".9" rx=".799"/><rect width="1.914" height="32.494" x="226.9" y="599.51" fill-opacity=".314" stroke="#000" stroke-width=".9" rx=".799"/><rect width="1.914" height="17.137" x="212.97" y="599.87" fill-opacity=".314" stroke="#000" stroke-width=".9" rx=".799"/><rect width="1.914" height="28.208" x="199.4" y="619.51" fill-opacity=".314" stroke="#000" stroke-width=".9" rx=".799"/><rect width="1.914" height="24.28" x="213.33" y="638.08" fill-opacity=".314" stroke="#000" stroke-width=".9" rx=".799"/><rect width="1.914" height="21.423" x="226.9" y="652.37" fill-opacity=".314" stroke="#000" stroke-width=".9" rx=".799"/><rect width="1.914" height="15.708" x="241.9" y="666.29" fill-opacity=".314" stroke="#000" stroke-width=".9" rx=".799"/><rect width="1.914" height="15.351" x="255.47" y="676.29" fill-opacity=".314" stroke="#000" stroke-width=".9" rx=".799"/><rect width="1.914" height="12.851" x="269.04" y="684.15" fill-opacity=".314" stroke="#000" stroke-width=".9" rx=".799"/><rect width="1.914" height="36.601" x="226.93" y="441.88" fill-opacity=".314" stroke="#000" stroke-width=".9" rx=".799"/><rect width="1.914" height="24.994" x="213.86" y="453.62" fill-opacity=".314" stroke="#000" stroke-width=".9" rx=".799"/><rect width="1.914" height="8.387" x="199.76" y="470.76" fill-opacity=".314" stroke="#000" stroke-width=".9" rx=".799"/><rect width="1.914" height="15.351" x="199.94" y="436.83" fill-opacity=".314" stroke="#000" stroke-width=".9" rx=".799"/><rect width="1.914" height="12.672" x="214.04" y="418.97" fill-opacity=".314" stroke="#000" stroke-width=".9" rx=".799"/><rect width="1.914" height="12.672" x="227.08" y="409.06" fill-opacity=".314" stroke="#000" stroke-width=".9" rx=".799"/><rect width="1.914" height="12.672" x="241.9" y="396.92" fill-opacity=".314" stroke="#000" stroke-width=".9" rx=".799"/><rect width="1.914" height="11.422" x="254.76" y="389.6" fill-opacity=".314" stroke="#000" stroke-width=".9" rx=".799"/><rect width="1.914" height="10.53" x="269.94" y="384.24" fill-opacity=".314" stroke="#000" stroke-width=".9" rx=".799"/><rect width="1.914" height="24.458" x="268.86" y="415.31" fill-opacity=".314" stroke="#000" stroke-width=".9" rx=".799"/><rect width="1.914" height="19.28" x="255.11" y="421.03" fill-opacity=".314" stroke="#000" stroke-width=".9" rx=".799"/><rect width="1.914" height="24.637" x="242.26" y="430.31" fill-opacity=".314" stroke="#000" stroke-width=".9" rx=".799"/><path fill-opacity=".314" stroke="#000" stroke-width=".9" d="M425.33 604.93c8.025-.374 25.266-8.437 33.775-19.518 11.18-14.558 21.511-29.49 26.557-47.493 4.92-17.551 9.471-30.643 4.466-55.775-1.373-6.9-5.734-22.183-24.3-24.495-15.098-1.88-26.42 7.777-32.964 12.18-6.204 4.175-22.977 19.267-30.87 42.768-4.303 12.814-6.431 20.86-6.927 26.176l-2.124 22.753c-.158 1.699-.241 3.615-.461 6.304l-7.569 12.753c-2.52 3.364-2.871 6.143-18.435 6.314-15.234-.337-29.828-.674-45.962-1.01-2.06-.67 1.314-2.18 2.02-3.157 0 0 32.003-20.726 43.942-33.966 14.978-16.611 34.557-35.224 33.082-55.558-1.132-15.617-11.117-34.002-32.83-35.103-26.212-1.329-46.972 29.547-46.972 29.547-1.101 1.473-1.925 5.769 3.536 2.778 0 0 21.891-15.465 36.113-14.268 15.065 1.268 18.042 18.402 17.93 23.36-.45 19.975-17.156 41.998-31.946 55.432-16.277 14.786-48.109 39.9-48.109 39.9-1.942 1.568-4.424 4.828-1.136 6.062l84.727-.632c4.357.402 6.412-1.5 7.07-4.798l5.71-17.13c3.145 13.713 11.491 27.52 31.676 26.578zm31.452-140.22a4.863 4.863 0 0 1 1.63.24c18.656 6.281 9.929 47.636 4.466 70.563-5.364 22.512-22.317 63.065-35.158 59.87-18.467-4.593-10.322-49.063-4.497-72.61 5.163-20.864 22.258-57.904 33.558-58.063z"/><path fill="url(#c)" d="M412.05 626.24a10.435 10.435 0 0 0-1.184 4.001c-.071 1.34.039 2.563.293 3.669.447-2.514.746-5.073.891-7.67z"/><path fill-opacity=".314" stroke="#000" stroke-width=".9" d="M423.52 620.44c-5.418.002-9.685 4.024-10.139 9.799-.315 6.79 3.368 10.668 7.485 10.74 4.539-.046 8.08-2.522 9.714-9.603-.294-.138 1.304-9.28-7.06-10.936zm-1.216 1.158c.315-.01.641.008.98.06 5.27 2.566 4.455 4.728 4.41 9.356-.81 4.06-2.395 9.27-6.944 8.5 0 0-6.005-.268-4.681-9.763 1.2-5.093 3.186-8.058 6.235-8.153z"/><path fill-opacity=".129" stroke="#000" stroke-width=".9" d="m355.32 622.07-1.433.075-.083.026c-.454.142 1.38-.105 1.516-.046v-.055z"/><path fill-opacity=".314" stroke="#000" stroke-width=".9" d="m367.27 624.81-.015-2.412.035-1.755c.005-.292-14.151-.144-14.151-.144s-.485.384-.537.65a.9.9 0 0 0 .268.814c.244.216.984.244.984.244l1.52-.081s-.349 10.629-2.325 15.537a2.533 2.533 0 0 1-.626.894c-.225.21-.527.339-.805.489-.55.297-1.83.243-1.699.813.179.771 1.728.124 2.594.163 1.042.046 3.13.08 3.13.08h3.04l3.489.164 2.415-.163 1.61-.976s.311-.919.447-1.383c.133-.458.418-.912.357-1.383-.038-.3-.163-.654-.447-.813-.152-.086-.396-.1-.537 0-.601.431-.103 1.458-.536 2.033-.266.354-1.163.732-1.163.732l-1.162.489-2.505.325h-3.488l-.715-.325-.716-.814.358-1.87.984-5.207.894-.325h4.293l.358.325v2.196l.626.57.626-.57-.179-3.09 1.163-2.278-.447-.732h-.358l-.805 1.22-.626.732-.805.325-2.325.244h-1.342l-.626-.162 1.342-7.321 2.325-.326h2.593l1.61.082.447.976.242 2.12c.396.315.793.125 1.19-.087zM372.01 620.88l3.162.086 2.688-.028h1.423l.19.345-.095.345s-.253.029-.412.029h-.6l-.98.172-.57.345-.095.201-.19 1.036-1.77 10.813-.126 1.553.063 1.294.506.949 1.707.978 2.435.172 1.992-.431 1.202-.949 1.011-1.15.76-1.784.6-2.99.727-4.113.411-2.013c.022-.98.011-1.032.032-1.582l.063-1.006-.031-.633-.064-.547-.442-.172h-.917l-.506-.144-.095-.403.032-.316.474-.057 1.929.028 2.245.029 1.107.029.031.489-.126.287a4.764 4.764 0 0 0-1.044.029c-.659.153-.664.782-.948 1.208l-.917 3.652-1.708 8.685-1.423 3.106c-.938.995-1.992 1.467-3.099 1.697-1.264.29-2.53.429-3.794.26-1.339-.13-2.41-.623-3.415-1.209-.687-.55-1.176-1.4-1.613-2.33.073-2.208.213-4.396.538-6.528l1.233-7.39c.185-.716.057-1.107-.348-1.209l-1.612-.086-.032-.403zM395.77 620.84c-.318.208-.516.472-.36.896l1.832.488-2.523 15.899c-.022.137.024.302-.067.413-.083.102-.154.061-.382.16-.471.207-1.26.57-1.676.866-.138.099.099.489.27.519 3.14.548 7.159.022 7.294.14l.127-.669-2.324-.448c-.298-.057-.61-.48-.537-.775.668-2.645 1.221-7.846 1.832-7.926l1.03.402c.553.273.68.47.802.448 0 0 1.933 6.723 4.83 8.54 1.1.69 2.711.788 3.979.409.27-.082.68-.274.63-.529-.056-.293-.606-.231-.907-.347l-2.047-.79-4.244-7.892c5.856-2.707 6.065-7.22 1.56-9.477l-9.119-.327zm4.388 19.381-.005.02c.013-.009.012-.014.005-.02zm1.727-18.365c.355.005.716.038.951.045.645.02 1.309.02 1.832.363.6.394.89 1.01 1.03 1.67.142.68.004 1.393-.134 2.074-.17.84-.31 1.744-.852 2.441-.442.57-1.12 1-1.831 1.258-.627.227-1.34.243-2.015.207-.458-.025-1.38.129-1.339-.287.304-3.007 1.251-6.637 1.207-7.363-.022-.356.558-.417 1.15-.408zM336.18 645.73c.415 2.497 2.688 2.09 2.857 0l2.857-10.179c2.16-5.124-1.226-4.73-2.678-2.5-21.097-2.252-29.002.776-31.964 2.857-9.896 6.952-12.168 14.27-11.964 21.786.407 15.032 12.719 18.64 18.393 19.821 3.927.819 10.553.768 15.893-.357 2.11-.445 3.432-1.386 4.821-3.036 2.704-3.21 4.821-11.964 4.821-11.964-.726-1.605-1.837-1.29-3.035-.535-2.6 5.799-6.538 11.894-11.786 11.964 0 0-16.433 1.166-18.393-15-1.62-13.361 9.078-22.502 19.107-23.393 11.323-1.007 11.25 6.07 11.25 6.07zM366.63 653.01l-.024-3.587.055-2.61c.008-.433-22.147-.213-22.147-.213s-.758.57-.84.967c-.085.415.071.916.42 1.21.381.32 1.54.363 1.54.363l2.38-.121s-.547 15.804-3.64 23.102c-.21.493-.554.955-.98 1.33-.353.312-.826.503-1.26.726-.86.442-2.866.362-2.66 1.21.28 1.146 2.705.184 4.06.241 1.632.069 4.9.121 4.9.121h4.758l5.46.242 3.779-.242 2.52-1.451s.488-1.366.7-2.056c.208-.681.654-1.357.56-2.057-.061-.447-.257-.972-.7-1.21-.239-.126-.62-.149-.84 0-.943.643-.163 2.17-.84 3.025-.417.526-1.82 1.088-1.82 1.088l-1.82.726-3.92.484h-5.458l-1.12-.484-1.12-1.21.56-2.781 1.54-7.741 1.4-.484h6.719l.56.484v3.266l.98.846.98-.846-.28-4.597 1.819-3.386-.7-1.089h-.56l-1.26 1.815-.98 1.088-1.26.484-3.639.363h-2.1l-.98-.242 2.1-10.886 3.64-.484h4.06l2.519.121.7 1.451.377 3.154c.62.467 1.242.185 1.862-.13zM367.43 673.77l2.679-.179c.773-.08 1.547.986 2.321-1.785l5.714-17.68c.898-3.975-2.172-4.344-6.071-4.285v-2.857h10.893l10.893 21.607 3.036-14.821c1.157-3.847-.41-2.951-1.429-3.75h-3.929v-2.679l15-.178-.178 2.678c-1.483.332-3.232-.936-4.286 1.965l-4.821 20.357 1.785 2.678c1.045 1.326 1.605 2.41-.178 2.322l-6.607.178-11.786-21.607-4.107 14.821c-1.737 3.781.681 2.923 2.5 2.857l4.821.179v2.857l-16.429.357zM409.4 676.45v-2.321l4.643-1.072c1.098.403 1.682-1.246 2.321-2.678l5.536-18.571c1.922-4.424-2.267-2.991-4.286-3.036-2.72 1.39-5.406 3.227-6.25 6.964-3.115 1.17-2.796-.111-2.678-1.25l2.143-5.893c.788-.915.687-2.275 3.214-2.321l23.57.178c1.878-.042 2.196 1.605 1.74 3.398l-.846 4.817c-1.78 2.862-2.53 1.086-3.393-.179l.536-3.036c-.055-3.046-6.395-3.672-7.679-.535l-5.536 20.179c-1.046 2.42 1.61 1.754 3.215 1.964 2.18 1.31 2.736 2.62 3.035 3.929z"/></g></svg>