<svg xmlns="http://www.w3.org/2000/svg" xmlns:xlink="http://www.w3.org/1999/xlink" viewBox="0 0 386.52 383.57"><defs><linearGradient id="a"><stop offset="0" stop-color="#e6e6e6"/><stop offset="1" stop-color="#ccc" stop-opacity=".746"/></linearGradient><linearGradient xlink:href="#a" id="b" x1="-225.11" x2="980.7" y1="472.53" y2="472.53" gradientUnits="userSpaceOnUse"/><linearGradient xlink:href="#a" id="c" x1="-177.48" x2="946.05" y1="459.51" y2="459.51" gradientUnits="userSpaceOnUse"/><linearGradient id="d" x1="-224.48" x2="1012.4" y1="129.08" y2="129.08" gradientUnits="userSpaceOnUse"><stop offset="0" stop-color="#d0c27b"/><stop offset="1" stop-color="#d0c27b" stop-opacity=".778"/></linearGradient><linearGradient xlink:href="#a" id="e" x1="-224.48" x2="1012.4" y1="129.08" y2="129.08" gradientTransform="matrix(.21872 0 0 .36201 394.43 674.13)" gradientUnits="userSpaceOnUse"/></defs><g transform="translate(-286.53 -529.02)"><path fill="url(#b)" stroke="#000" stroke-width="5.75" d="M977.83 472.53c0 324.69-268.64 587.91-600.03 587.91s-600.03-263.22-600.03-587.91S46.41-115.38 377.8-115.38s600.03 263.22 600.03 587.91z" transform="matrix(.31224 0 0 .31617 361.82 571.41)"/><path fill="url(#c)" stroke="#000" stroke-width=".666" d="M945.71 459.51c0 8.679-251.36 15.714-561.43 15.714s-561.43-7.035-561.43-15.714 251.36-15.714 561.43-15.714 561.43 7.035 561.43 15.714z" transform="matrix(.31804 0 0 11.292 358.88 -4469)"/><path fill="url(#d)" stroke="#000" stroke-width="2.136" d="M1012.2 129.08c0 205.3-276.78 371.74-618.21 371.74s-618.21-166.43-618.21-371.74c0-205.3 276.78-371.74 618.21-371.74S1012.2-76.23 1012.2 129.08z" transform="matrix(.21872 0 0 .36201 394.43 674.13)"/><path fill="url(#e)" d="M615.64 727.83c-1.141 2.318-1.877 4.919-2.112 7.74-.127 2.59.07 4.958.523 7.097a134.423 134.423 0 0 0 1.589-14.837z"/><path fill-opacity=".314" stroke="#000" stroke-width=".601" d="M634.26 716.62c-11.078.004-19.805 7.785-20.732 18.956-.644 13.135 6.887 20.637 15.305 20.776 9.282-.09 16.523-4.88 19.864-18.576-.601-.267 2.666-17.951-14.436-21.156zm-2.487 2.24c.645-.02 1.312.015 2.004.116 10.776 4.964 9.11 9.147 9.019 18.099-1.657 7.852-4.898 17.932-14.2 16.444 0 0-12.28-.52-9.572-18.888 2.453-9.851 6.515-15.587 12.749-15.772z"/><path fill-opacity=".129" stroke="#000" stroke-width=".601" d="M496.88 715.53c2.698.071 5.255-1.222 7.894-1.78 1.125-.238 2.264-.407 3.383-.668.835-.194 1.624-.659 2.481-.668 1.24-.013 2.458.435 3.61.89.562.224 1.054 1.19 1.578.89.585-.334.028-1.335 0-2.002-.038-.892-.776-1.961-.226-2.67.512-.659 1.693-.158 2.481-.446.98-.357 2.324-.599 2.707-1.557.288-.72.677-2.226-.677-2.226s-3.282.18-4.736-.445c-.83-.356-1.767-.925-2.03-1.78-.519-1.687 1.773-3.404 1.353-5.118-.45-1.838-3.09-2.485-3.834-4.228-.438-1.028.09-2.267-.226-3.338-.263-.893-.872-1.649-1.353-2.448-.638-1.062-1.974-1.882-2.03-3.116-.079-1.756 1.579-4.45 2.481-4.673.902-.222 2.212-.905 2.03-1.78-.287-1.379-2.634-1.305-4.06-1.335-.547-.012-1.1.707-1.579.445-.478-.263-.576-1.032-.45-1.558.28-1.175 2.676-1.478 2.48-2.67-.124-.754-1.257-1.065-2.03-1.113-.808-.05-1.598.423-2.255.89-1.039.739-1.695 1.896-2.481 2.893-.397.504-1.152.92-1.128 1.558.022.579 1.155.756 1.128 1.335-.043.943-1.45 1.252-2.03 2.003-.368.475-1.108.995-.902 1.557.218.596 1.278.305 1.804.668.568.392 1.22.887 1.354 1.558.137.69-.563 1.308-.677 2.002-.06.367-.198.798 0 1.113.265.423 1.183.2 1.353.668.25.687-1.457 1.518-.902 2.003.985.86 2.116-1.657 3.383-2.003.363-.1.835-.232 1.128 0 .54.428.375 1.323.451 2.003.074.663 0 1.112 0 2.002 0 .89-.115 2.084 0 3.116.076.68.592 1.333.451 2.003-.208.987-.963 1.874-1.804 2.448-.706.48-1.666.407-2.481.667-.612.195-1.55.086-1.805.668-.388.885 1.318 1.724 1.128 2.67-.186.926-1.146 1.642-2.03 2.003-.903.369-2.36-.782-2.932 0-.278.38.059 1.07.451 1.335 1.243.838 3.014-.379 4.511-.222 1.16.12 2.672-.023 3.383.89.367.47.097 1.194 0 1.78-.076.463-.087 1.034-.45 1.335-1.573 1.302-4.242.012-6.09.89-1.39.661-3.745 1.636-3.384 3.116.128.525 1.032.43 1.579.445z"/><path fill-opacity=".129" stroke="#000" stroke-width=".601" d="M585.19 604.83c-.538.038-1.115.202-1.589.321-1.049.264-1.96.87-2.851 1.51l.207.038-2.803 2.434.494 3.622-3.266-1.83-1.46.671c-1.09.83-2.173 1.66-3.287 2.454-1.378.983-2.934 1.744-4.174 2.891-3.024 2.799-5.476 6.173-7.785 9.57-1.125 1.655-2.427 3.3-2.931 5.229-.254.97.469 2.118 0 3.008-.423.802-2.037.679-2.25 1.558-.148.611.898 1.108.898 1.665 0 .556.454 1.891.454 2.336 0 .445-1.409.173-1.806.672-.186.234-.132.59-.108.886.042.538.774 1.128.444 1.558-.566.737-1.99-.444-2.813 0-1.529.824-1.647 3.072-2.822 4.342-1.444 1.561-3.409 2.562-5.072 3.894-2.486 1.991-6.192 3.172-7.332 6.124-.283.735.757 1.669.336 2.337-.25.397-1.041.084-1.352.438-.7.796-.468 2.064-.562 3.115-.08.89-.64 2.047 0 2.678.662.654 2.222-.72 2.812 0 .218.265-.125.673-.217 1.002-.158.565-.259 1.168-.573 1.665-.14.222-.362.383-.562.555-.283.244-.826.308-.898.672-.083.423.32.854.671 1.11.376.274 1.106-.055 1.362.33.48.727-.49 1.696-.454 2.561.036.881-.106 2.125.67 2.56 1.057.595 2.49-.34 3.504-1.002.446-.291.676-.82 1.016-1.227.373-.446.704-.931 1.125-1.333.923-.882 2.21-1.369 3.04-2.337.715-.836.47-2.943 1.578-2.892.775.036.641 1.395.908 2.113.217.584.227 1.255.562 1.782.41.644 1.257.927 1.688 1.558 1.17 1.712 1.52 3.85 2.26 5.783.382 1 .723 2.015 1.124 3.008.531 1.312 1.472 3.116 1.698 3.894.225.78 1.19 1.303 1.46 2.113.341 1.024.118 2.787.118 3.232 0 .445.125.791.445.886.502.15 1.04-.369 1.361-.779.69-.882.38-2.232.898-3.222.246-.47.633-.858 1.017-1.227.614-.59 1.543-.862 2.032-1.558.427-.606.558-1.383.671-2.112.267-1.723.066-3.487 0-5.228-.038-1.005-.637-2.088-.227-3.009.27-.605 1.07-.797 1.58-1.226.544-.46 1.037-.977 1.578-1.441.404-.347.876-.619 1.243-1.003.574-.6 1.213-1.22 1.47-2.006.174-.528.368-1.244 0-1.665-.173-.198-.632.096-.789-.116-.134-.18.077-.441.109-.662.042-.298.13-.596.108-.896-.02-.269-.012-.601-.217-.779-.598-.52-1.702.1-2.368-.331-.664-.43-.963-1.272-1.243-2.006a5.173 5.173 0 0 1-.336-1.888c.008-.758.352-1.478.444-2.23.103-.845-.09-1.725.119-2.55.211-.837.823-1.528 1.124-2.337.203-.543.235-1.139.454-1.675.29-.708.704-1.364 1.125-2.005.51-.777 1.172-1.448 1.688-2.22.334-.5.684-1.001.908-1.558.241-.602.18-1.3.453-1.889.213-.458.581-.831.898-1.226.465-.58 1.24-.972 1.47-1.675.14-.425.103-.945-.118-1.334-.092-.162-.353-.174-.454-.33-.307-.479-.412-1.105-.335-1.666.067-.496.412-.918.68-1.343.526-.831 1.363-1.46 1.807-2.337.244-.482.222-1.064.444-1.558.143-.318.409-.571.562-.885.397-.815.191-1.998.908-2.561.533-.42 1.365-.087 2.033-.224.37-.076.724-.444 1.085-.33 1.133.353 1.535 1.799 2.18 2.783.695 1.06 1.549 2.104 1.807 3.34.182.874-.025 1.798-.227 2.667-.47 2.014-1.416 3.893-2.26 5.784-.61 1.366-1.162 2.782-2.023 4.01-.817 1.166-2.332 1.828-2.93 3.116-.852 1.832-1.017 4.02-.682 6.007.492 2.914 1.47 6.206 3.839 8.013 1.271.97 3.193 1.328 4.736.886 1.48-.424 2.103-2.26 3.375-3.116 1.584-1.066 3.32-2.026 5.19-2.443.953-.213 1.963-.128 2.931 0 1.7.224 3.66.234 4.964 1.333.561.474.753 1.283.907 1.996.158.727.377 1.586 0 2.23-1.13 1.93-3.74 2.6-5.87 3.34-.933.323-1.947.357-2.932.447-2.247.207-5.41-1.564-6.769.214-.374.49.173 1.236.454 1.782.534 1.035 1.86 1.585 2.26 2.677.358.977-.226 2.003 0 3.116.225 1.112 1.274.81 1.806 1.334 1.062 1.046 3.374 2.228 2.703 3.553-.303.598-1.373.154-2.032 0-.816-.19-1.447-.873-2.25-1.11-1.235-.364-2.55-.473-3.839-.448-1.445.029-3.315-.388-4.282.672-.957 1.048-.349 2.82-.227 4.226.144 1.667.33 3.418 1.125 4.897.773 1.438 2.95 1.993 3.384 3.563.183.66-.153 1.388-.454 2.006-.623 1.282-1.633 2.377-2.703 3.33-.93.826-1.925 1.79-3.158 2.005-1.67.29-3.292-.823-4.963-1.11-2.462-.422-4.947-1.049-7.44-.896-3.094.19-8.118 2.23-9.02 2.23-.902 0-3.834 1.11-4.736 1.11-.902 0-2.016 1.063-2.94.671-1.767-.746-2.254-3.123-2.931-4.897-.567-1.483-1.035-3.093-.898-4.673.11-1.264.986-2.347 1.352-3.563.393-1.31 1.088-2.649.897-4.002-.152-1.084-.588-2.397-1.578-2.891-.949-.474-2.309-.192-3.158.438-1.319.979-1.856 2.839-2.023 4.459-.14 1.36.634 2.66.898 4.001.35 1.774.341 3.628.908 5.345.676 2.05 3.493 3.7 2.93 5.783-.209.776-1.476.748-2.032 1.334-.828.874-.78 2.479-1.806 3.116-.893.554-2.103.186-3.157.224-.678.024-1.374.154-2.033 0-1.307-.305-2.728-2.788-3.602-1.782-.84.968 2.457 1.857 2.25 3.116-.164.995-1.65 1.188-2.477 1.781-1.654 1.189-3.164 2.602-4.963 3.564-1.048.56-2.562 1.122-4.263 1.674 6.172.002 12.221.074 12.216.35l-.06 3.398.03 4.664c-.707.41-1.414.783-2.121.175l-.434-4.108-.8-1.89-2.871-.155h-4.628l-4.144.633-2.388 14.156 1.115.321h2.388l4.154-.477 1.43-.623 1.116-1.421 1.44-2.356h.632l.8 1.411-2.073 4.41.316 5.978-1.115 1.1-1.115-1.1v-4.254l-.642-.623h-7.647l-1.599.623-1.756 10.077-.632 3.621 1.273 1.568 1.273.633h6.227l4.46-.633 2.072-.944s1.597-.728 2.072-1.412c.772-1.113-.116-3.099.957-3.933.25-.195.686-.166.957 0 .506.308.73.985.8 1.567.107.91-.404 1.792-.642 2.677-.24.899-.79 2.678-.79 2.678l-2.87 1.889-4.313.311-6.216-.311h-5.428s-3.716-.067-5.575-.156c-1.543-.074-4.309 1.17-4.628-.321-.235-1.102 2.049-.992 3.03-1.568.494-.29 1.038-.539 1.44-.944a4.928 4.928 0 0 0 1.115-1.733c3.453-9.303 4.12-29.11 4.145-29.908a.516.516 0 0 1-.119.058c-1.286.503-3.42 1.143-4.637 1.792-1.522.81-2.696 2.21-4.283 2.891-.637.273-1.347.558-2.033.448-1.296-.208-2.11-1.659-3.374-2.006-.8-.219-1.666-.114-2.487 0-.542.076-1.158.103-1.579.448-.775.636-1.413 1.675-1.352 2.668.033.532.538.935.898 1.334.854.945 1.944 1.655 2.94 2.453 1.331 1.065 2.935 1.837 4.056 3.115.397.452.652 1.013.898 1.558.678 1.5 1.374 3.044 1.58 4.673.12.96-.218 2.002-.218 2.892 0 .89-.058 2.432-.454 3.563-.572 1.635-1.603 3.104-2.704 4.45-1.036 1.266-2.028 2.88-3.611 3.339-.808.235-1.681-.205-2.487-.448-1.253-.378-2.393-1.058-3.601-1.558-1.494-.617-2.978-1.265-4.51-1.781-1.036-.35-2.102-.603-3.158-.886-2.026-.543-4.008-1.354-6.098-1.558-1.347-.132-2.712.057-4.055.224-.762.094-1.922-.242-2.26.438-.519 1.042 1.544 1.955 1.579 3.115.034 1.13-.645 2.227-1.352 3.116-.696.875-2.138 1.043-2.704 2.006-.304.517-.098 1.196-.227 1.781-.267 1.216-.424 2.53-1.125 3.564-.326.48-.892.75-1.352 1.11-.887.69-2.088 1.076-2.713 2.005-1.028 1.527-.994 3.536-1.352 5.335-.103.515-.146 1.04-.227 1.558-.21 1.34-.496 2.667-.671 4.011-.105.811-.585 1.706-.227 2.444 1.052 2.17 5.637 3.111 6.088 4.001.451.89 2.083 2.299 3.385 3.116.685.43 1.471.706 2.26.895 1.54.37 3.152.374 4.736.448 2.027.096 4.06-.026 6.089 0 2.707.036 5.519.954 8.12.214 1.3-.369 2.186-1.584 3.375-2.22 1.007-.537 2.184-.74 3.158-1.333 1.092-.666 1.813-2.231 2.94-2.454 1.128-.222.209-1.775.218-2.667.012-1.19-.49-2.404-.217-3.563.274-1.164 1.125-2.121 1.795-3.116.684-1.013 1.202-2.266 2.26-2.891.784-.464 1.576-.003 2.704-.448 1.128-.445 2.354-1.573 3.611-2.22 1.016-.523 2.094-.917 3.158-1.334.817-.32 1.998-.168 2.477-.896.574-.873-.291-2.077-.217-3.115.076-1.06-.133-2.41.67-3.116 1.185-1.04 3.152-.412 4.737-.438 1.206-.02 2.415.363 3.612.214 2.193-.271 4.488-.768 6.315-1.995.885-.595 1.29-1.693 2.033-2.454 1.181-1.21 2.174-2.942 3.829-3.34 1.206-.289 2.848-.07 3.611.897.785.993-.486 2.613 0 3.777.244.584.9.897 1.352 1.344.45.445.9.89 1.352 1.333.677.667 1.411 1.28 2.033 1.996.666.768 1.184 1.65 1.806 2.454.583.754 1.058 1.622 1.805 2.22.785.626 1.927.708 2.704 1.343.949.775 1.263 2.165 2.25 2.892.841.619 1.968.72 2.94 1.11.531.213 1.105.354 1.58.671.438.294.731.759 1.124 1.11.792.708 1.593 1.414 2.477 2.006 1.281.858 2.807 1.328 4.065 2.22.908.643 2.026 1.22 2.477 2.23.273.608.082 1.334 0 1.995-.112.912-.475 1.778-.67 2.677-.177.81-.992 1.808-.455 2.444.289.342.902 0 1.352 0 1.128 0 1.14-.642 1.58-1.11.893-.953 1.787-2.064 2.032-3.34.17-.885-.036-1.865-.454-2.667-.292-.559-1.082-.764-1.352-1.334-.353-.743-.682-1.765-.227-2.453.26-.393.88-.51 1.352-.448.538.071.842.713 1.352.896 1.352.484 3.16 1.323 4.292.448.418-.324.456-1.09.217-1.558-.846-1.66-3.247-1.893-4.953-2.678-1.318-.605-2.926-.667-4.066-1.557-1.142-.892-1.276-2.739-2.477-3.554-1.594-1.082-3.956-.41-5.644-1.343-1.48-.82-2.8-2.078-3.602-3.554-.724-1.333-.138-3.14-.907-4.45-.048-.08-.093-.158-.148-.233-1.512.224-3.018.278-4.53.058-2.387-.25-4.297-1.204-6.088-2.336-1.225-1.064-2.104-2.699-2.882-4.498.13-4.272.379-8.513.958-12.637l2.2-14.292c.33-1.384.1-2.14-.622-2.337l-2.871-.165-.06-.78.74-.67 5.635.165 4.796-.05h2.536l.335.663-.167.672s-.449.048-.73.048h-1.076l-1.747.341-1.016.662-.168.39-.335 2.005-3.158 20.922-.227 2.999.109 2.502.907 1.84 3.04 1.889 1.263.097a3.197 3.197 0 0 1-.306-.37c-.732-1.043-1.442-2.298-1.352-3.563.066-.929.946-1.613 1.352-2.453.593-1.23.386-3.093 1.579-3.778 1.048-.602 2.464.058 3.611.448.83.282 1.462.973 2.26 1.334 1.08.489 2.462.37 3.385 1.11.29.233.543.5.77.788l.63-1.626 1.076-5.783 1.293-7.954.74-3.894c.038-1.895.012-1.994.05-3.057l.118-1.948-.06-1.226-.108-1.061-.79-.331h-1.637l-.898-.283-.178-.779.06-.603.848-.117 3.434.058 4.006.059 1.974.048.059.945-.227.564a7.864 7.864 0 0 0-1.865.05c-1.175.296-1.18 1.512-1.688 2.336l-1.638 7.068-3.039 16.804-1.095 2.58c.424.914.803 1.867 1.322 2.707.51.824.862 1.786 1.579 2.443.813.746 1.985.986 2.93 1.558 2.027 1.225 3.957 2.601 5.862 4.001 1.545 1.136 3.893 1.764 4.51 3.564.297.868-.716 1.752-.671 2.667.064 1.337.883 2.531 1.352 3.787.36.97.702 1.947 1.124 2.892.475 1.062.92 2.154 1.58 3.115 1.015 1.482 3.385 3.121 3.61 4.012.226.89-.59 1.034-.453 1.557.267 1.015 1.852 1.252 2.26 2.22.345.821-.344 1.846 0 2.668.487 1.164 1.5 2.256 2.703 2.677 1.353.474 3.024.233 4.283-.448.846-.457 1.437-1.35 1.806-2.23.26-.618.189-1.327.227-1.995.05-.891.253-1.82 0-2.677-.274-.928-1.158-1.572-1.58-2.444-.51-1.06-.685-2.25-1.124-3.34-.397-.987-1.25-1.834-1.362-2.891-.103-.984-.242-2.505.681-2.892.808-.338 1.386 1.416 2.26 1.334.9-.084 1.275-1.28 2.023-1.781 1.113-.746 2.589-.919 3.611-1.782.491-.415.507-1.372 1.125-1.558.616-.185 1.222.406 1.806.672.703.32 1.278.94 2.033 1.11 1.32.298 2.851.387 4.055-.224.855-.434 1.043-1.643 1.806-2.22 1.043-.788 2.796-.541 3.612-1.558.523-.651.734-1.669.454-2.453-.727-2.033-4.054-2.265-4.964-4.225-.752-1.62-.112-3.567 0-5.345.1-1.596.026-3.292-.079-5.014-1.099-2.894-1.655-6.348-1.46-10.32.854-10.286 8.32-17.697 18.147-18.81-.332-5.556-1.113-11.087-1.954-16.59-1.015-6.645-2.11-13.3-3.829-19.803-.719-2.724-1.76-5.356-2.703-8.013-1.511-4.252-2.922-8.55-4.737-12.686-.618-1.408-1.33-2.768-2.052-4.128l-2.891 1.334.789-3.573-2.595-2.648 2.131-.214c-1.206-2.656-2.287-5.37-3.73-7.906a84.905 84.905 0 0 0-3.039-4.926l.128.954-3.266-1.83-3.394 1.567.78-3.573-2.586-2.648 3.75-.38.148-.272-.188-.244c-1.943-2.503-3.868-5.089-6.315-7.117-1.021-.845-2.098-1.956-3.207-3.076l.246 1.83-3.266-1.82-3.404 1.567.79-3.573-2.586-2.648 1.648-.166a4.141 4.141 0 0 0-1.707-.068c.492-.772 1.147-1.352 2.013-1.285 1.514.117.673-.43.79-.779.235-.711-.073-1.521-.346-2.22-.44-1.122-2.059-1.805-2.023-3.008.017-.556.787-.826 1.016-1.334.313-.692.921-1.636.444-2.23-.303-.377-.803-.466-1.342-.428z"/><path fill-opacity=".129" stroke="#000" stroke-width=".601" d="M631.77 718.86c-5.346.159-9.088 4.403-11.595 11.819.49.009.981.029 1.43-.02 1.422-.152 2.882.064 4.283-.214 1.958-.388 4.47-.406 5.635-2.005 1.89-2.595.579-6.318.276-9.58h-.03zM514.49 719.76l-2.556.146c-.047.016-.103.033-.148.049-.808.275 2.461-.203 2.704-.088v-.107zM480.64 701.95c-.844-1.263-.212-3.411.902-4.45 1.159-1.082 3.214-.2 4.737-.668.642-.198 1.696-.236 1.804-.89.085-.518-.652-.879-1.128-1.113-.95-.47-2.552.418-3.157-.445-.789-1.125-.18-3.15.902-4.006.704-.557 1.89-.377 2.706 0 .532.246.559 1.193 1.128 1.335.785.196 1.802-.228 2.256-.89.59-.86-.745-2.38 0-3.115.69-.682 1.977-.207 2.932 0 1.051.228 2.352.44 2.932 1.335.608.937.495 2.338 0 3.338-.377.76-1.653.798-2.03 1.558-.562 1.132.042 2.522 0 3.783-.038 1.114.505 2.487-.226 3.338-.849.988-2.546.639-3.834.89-1.867.364-3.736.936-5.639.89-1.459-.035-3.481.312-4.285-.89zM514.92 774.05c-.504.018-.983.33-1.353.668-.322.293-.68.68-.677 1.112.006.7.603 1.31 1.128 1.78.87.782 2.041 1.925 3.157 1.558.798-.262.806-1.459 1.128-2.225.182-.433.649-.909.451-1.335-.575-1.24-2.453-1.608-3.834-1.558zM542.44 766.26c.798-.712.522-2.064.677-3.115.14-.958.565-1.986.225-2.893-.11-.296-.382-.548-.676-.668-.834-.34-1.956-.494-2.707 0-.813.535-.968 1.719-1.128 2.67-.184 1.1-.34 2.373.226 3.338.271.463.826.764 1.353.89.662.16 1.525.229 2.03-.222zM544.02 771.83c.05.472-.743.664-.902 1.113-.274.77.1 1.638 0 2.448-.076.607-.451.89-.451 1.78s.142 1.746-.451 2.225c-.582.47-1.504 0-2.256 0-.526 0-1.579 1.113-1.579 0s-.034-1.929 0-2.893c.038-1.04-.023-2.103.226-3.115.27-1.098.494-2.369 1.353-3.116.41-.357 1.043-.554 1.579-.445 1.046.214 2.369.955 2.481 2.003zM567.47 785.63c.985 1.024-.047 2.828-.226 4.228-.095.75.103 1.703-.45 2.225-.715.675-1.944.456-2.933.445-1.298-.014-2.582-.33-3.834-.667-1.24-.334-2.67-.47-3.609-1.335-.664-.612-.886-1.584-1.127-2.448-.181-.648-.514-1.394-.226-2.003.229-.485.677-.89 1.353-.89.677 0-1.127-.445 2.707 0 3.834.445 2.85.37 4.285.445 1.352.07 3.129-.969 4.06 0zM622.28 777.39c-.033 1.522-1.743 2.731-3.158 3.338-1.172.503-2.556 0-3.834 0-1.203 0-2.707 1.113-3.609 0-.902-1.113-2.318-1.269-2.03-2.225.333-1.104 2.248-.623 3.384-.89 1.42-.334 3.157-.446 4.285-.89 1.128-.446 2.427-1.262 3.609-.89.66.207 1.368.873 1.353 1.557zM569.73 680.14c-.711 1.136-.361 2.719 0 4.006.117.416.24 1.074.677 1.112.796.07 1.233-1.069 1.578-1.78.561-1.155.723-2.503.677-3.783-.01-.306.056-.762-.225-.89-.917-.416-2.177.488-2.707 1.335zM551.69 692.16c-.307.326 0 .89 0 1.335 0 .52-.29 1.124 0 1.558.315.472 1.021.796 1.579.667.675-.155 1.08-.928 1.353-1.557.297-.686.752-1.691.226-2.226-.736-.746-2.439-.539-3.158.223zM546.72 693.27c-.412.887-.232 2.188.451 2.893.265.273.76.332 1.128.222.509-.152.924-.628 1.127-1.112.26-.617.224-1.373 0-2.003-.159-.448-.427-1.033-.902-1.113-.699-.117-1.508.477-1.804 1.113z"/><path fill-opacity=".325" stroke="#000" stroke-width="3.668" d="m593.97 66.453-11.515-6.66-12.014 5.71 2.775-13.01-9.143-9.66 13.23-1.381 6.364-11.682 5.401 12.156 13.076 2.441-9.892 8.894z" transform="matrix(.28309 0 0 .27425 410.49 594.53)"/><path fill-opacity=".314" stroke="#000" stroke-width="3.668" d="m593.97 66.453-11.515-6.66-12.014 5.71 2.775-13.01-9.143-9.66 13.23-1.381 6.364-11.682 5.401 12.156 13.076 2.441-9.892 8.894z" transform="matrix(.28309 0 0 .27425 425.01 604.6)"/><path fill-opacity=".314" stroke="#000" stroke-width="3.668" d="m593.97 66.453-11.515-6.66-12.014 5.71 2.775-13.01-9.143-9.66 13.23-1.381 6.364-11.682 5.401 12.156 13.076 2.441-9.892 8.894z" transform="matrix(.28309 0 0 .27425 439.04 620.33)"/><path fill-opacity=".314" stroke="#000" stroke-width="3.668" d="m593.97 66.453-11.515-6.66-12.014 5.71 2.775-13.01-9.143-9.66 13.23-1.381 6.364-11.682 5.401 12.156 13.076 2.441-9.892 8.894z" transform="matrix(.28309 0 0 .27425 452.02 638.91)"/><path fill-opacity=".314" stroke="#000" stroke-width=".601" d="m535.8 725.07-.027-4.667.062-3.395c.01-.564-25.234-.278-25.234-.278s-.863.743-.957 1.259c-.097.54.082 1.191.479 1.574.434.417 1.754.472 1.754.472l2.712-.158s-.623 20.561-4.147 30.055a4.924 4.924 0 0 1-1.116 1.731c-.403.406-.941.654-1.436.944-.981.576-3.266.472-3.03 1.574.319 1.492 3.082.24 4.625.315 1.86.09 5.582.157 5.582.157h5.423l6.22.315 4.306-.315 2.87-1.888s.557-1.777.798-2.675c.237-.886.745-1.765.638-2.675-.07-.583-.292-1.265-.798-1.574-.271-.165-.706-.195-.957 0-1.073.835-.184 2.821-.957 3.934-.475.684-2.073 1.416-2.073 1.416l-2.073.944-4.466.63h-6.22l-1.276-.63-1.276-1.573.638-3.62 1.755-10.07 1.595-.63h7.655l.638.63v4.248l1.116 1.102 1.117-1.102-.32-5.98 2.074-4.405-.797-1.416h-.638l-1.436 2.36-1.116 1.416-1.436.63-4.146.472h-2.392l-1.117-.315 2.392-14.162 4.147-.63h4.625l2.87.158.798 1.888.43 4.102c.708.609 1.415.241 2.122-.168zM544.24 717.47l5.639.167 4.793-.056h2.537l.338.668-.169.668s-.45.055-.733.055h-1.071l-1.748.334-1.015.668-.17.389-.338 2.003-3.157 20.918-.226 3.004.113 2.503.902 1.836 3.045 1.892 4.342.334 3.552-.835 2.143-1.836 1.804-2.225 1.354-3.45 1.071-5.785 1.297-7.956.733-3.894c.038-1.895.019-1.997.056-3.06l.113-1.947-.056-1.224-.113-1.057-.79-.334h-1.635l-.902-.278-.169-.779.056-.612.846-.111 3.44.055 4.003.056 1.974.056.056.945-.225.557a7.832 7.832 0 0 0-1.861.055c-1.175.297-1.185 1.513-1.692 2.337l-1.635 7.065-3.045 16.801-2.537 6.009c-1.674 1.924-3.553 2.837-5.526 3.282-2.256.56-4.511.829-6.767.5-2.387-.249-4.298-1.203-6.09-2.336-1.225-1.063-2.097-2.707-2.875-4.506.13-4.272.38-8.505.958-12.629l2.2-14.298c.33-1.384.102-2.14-.62-2.337l-2.876-.167-.057-.778zM582.11 717.4c-.566.402-.92.913-.641 1.733l3.266.944-4.5 30.755c-.039.265.043.584-.118.799-.149.197-.276.12-.681.311-.84.399-2.249 1.1-2.99 1.675-.246.19.176.945.483 1.003 5.598 1.06 12.764.043 13.006.272l.227-1.295-4.144-.866c-.532-.111-1.09-.93-.957-1.5 1.19-5.117 2.176-15.177 3.266-15.333l1.835.778c.988.528 1.213.909 1.431.867 0 0 3.448 13.005 8.615 16.522 1.96 1.334 4.834 1.523 7.095.789.482-.157 1.212-.53 1.124-1.023-.1-.566-1.081-.447-1.618-.672l-3.65-1.528-7.57-15.266c10.444-5.237 10.817-13.968 2.783-18.333l-16.27-.64zm7.825 37.493-.01.039c.023-.018.022-.028.01-.039zm3.079-35.526c.634.01 1.278.074 1.697.088 1.15.038 2.333.036 3.266.7 1.07.763 1.588 1.954 1.836 3.233.255 1.316.01 2.693-.237 4.011-.304 1.623-.555 3.374-1.52 4.722-.788 1.101-1.997 1.935-3.266 2.434-1.118.44-2.39.47-3.592.4-.817-.049-2.463.249-2.388-.556.542-5.817 2.231-12.839 2.151-14.244-.039-.688.997-.805 2.053-.788z"/><path fill-opacity=".314" stroke="#000" stroke-width="3.668" d="m593.97 66.453-11.515-6.66-12.014 5.71 2.775-13.01-9.143-9.66 13.23-1.381 6.364-11.682 5.401 12.156 13.076 2.441-9.892 8.894z" transform="matrix(.28309 0 0 .27425 383.45 575.66)"/><path fill-opacity=".314" stroke="#000" stroke-width="3.668" d="m593.97 66.453-11.515-6.66-12.014 5.71 2.775-13.01-9.143-9.66 13.23-1.381 6.364-11.682 5.401 12.156 13.076 2.441-9.892 8.894z" transform="matrix(.28309 0 0 .27425 397.1 584.77)"/><path fill-opacity=".314" stroke="#000" stroke-width="3.668" d="m593.97 66.453-11.515-6.66-12.014 5.71 2.775-13.01-9.143-9.66 13.23-1.381 6.364-11.682 5.401 12.156 13.076 2.441-9.892 8.894z" transform="matrix(.28309 0 0 .27425 451.34 777.33)"/><path fill-opacity=".314" stroke="#000" stroke-width="3.668" d="m593.97 66.453-11.515-6.66-12.014 5.71 2.775-13.01-9.143-9.66 13.23-1.381 6.364-11.682 5.401 12.156 13.076 2.441-9.892 8.894z" transform="matrix(.28309 0 0 .27425 437.58 794.02)"/><path fill-opacity=".314" stroke="#000" stroke-width="3.668" d="m593.97 66.453-11.515-6.66-12.014 5.71 2.775-13.01-9.143-9.66 13.23-1.381 6.364-11.682 5.401 12.156 13.076 2.441-9.892 8.894z" transform="matrix(.28309 0 0 .27425 424.95 809.15)"/><path fill-opacity=".314" stroke="#000" stroke-width="3.668" d="m593.97 66.453-11.515-6.66-12.014 5.71 2.775-13.01-9.143-9.66 13.23-1.381 6.364-11.682 5.401 12.156 13.076 2.441-9.892 8.894z" transform="matrix(.28309 0 0 .27425 410.74 820.94)"/><path fill-opacity=".314" stroke="#000" stroke-width="3.668" d="m593.97 66.453-11.515-6.66-12.014 5.71 2.775-13.01-9.143-9.66 13.23-1.381 6.364-11.682 5.401 12.156 13.076 2.441-9.892 8.894z" transform="matrix(.28309 0 0 .27425 397.21 831.62)"/><path fill-opacity=".314" stroke="#000" stroke-width="3.668" d="m593.97 66.453-11.515-6.66-12.014 5.71 2.775-13.01-9.143-9.66 13.23-1.381 6.364-11.682 5.401 12.156 13.076 2.441-9.892 8.894z" transform="matrix(.28309 0 0 .27425 383.45 839.64)"/><rect width="1.914" height="9.284" x="547.98" y="569.49" fill-opacity=".314" stroke="#000" stroke-width="1.022" rx=".799"/><rect width="1.914" height="9.284" x="561.21" y="577.12" fill-opacity=".314" stroke="#000" stroke-width="1.022" rx=".799"/><rect width="1.914" height="9.284" x="574.77" y="584.67" fill-opacity=".314" stroke="#000" stroke-width="1.022" rx=".799"/><rect width="1.914" height="9.284" x="588.96" y="595.69" fill-opacity=".314" stroke="#000" stroke-width="1.022" rx=".799"/><rect width="1.914" height="12.812" x="602.36" y="608.59" fill-opacity=".314" stroke="#000" stroke-width="1.022" rx=".799"/><rect width="1.914" height="15.513" x="616.4" y="624.48" fill-opacity=".314" stroke="#000" stroke-width="1.022" rx=".799"/><rect width="1.914" height="48.565" x="547.18" y="598.99" fill-opacity=".314" stroke="#000" stroke-width="1.022" rx=".799"/><rect width="1.914" height="12.184" x="561.53" y="606.07" fill-opacity=".314" stroke="#000" stroke-width="1.022" rx=".799"/><rect width="1.914" height="9.284" x="547.34" y="861.46" fill-opacity=".314" stroke="#000" stroke-width="1.022" rx=".799"/><rect width="1.914" height="9.284" x="561.85" y="854.22" fill-opacity=".314" stroke="#000" stroke-width="1.022" rx=".799"/><rect width="1.914" height="12.685" x="574.77" y="843.2" fill-opacity=".314" stroke="#000" stroke-width="1.022" rx=".799"/><rect width="1.914" height="13.807" x="589.12" y="831.09" fill-opacity=".314" stroke="#000" stroke-width="1.022" rx=".799"/><rect width="1.914" height="14.256" x="601.72" y="816.45" fill-opacity=".314" stroke="#000" stroke-width="1.022" rx=".799"/><rect width="1.914" height="15.536" x="615.76" y="799.3" fill-opacity=".314" stroke="#000" stroke-width="1.022" rx=".799"/><rect width="1.914" height="48.742" x="547.66" y="791.12" fill-opacity=".314" stroke="#000" stroke-width="1.022" rx=".799" ry=".623"/><rect width="1.914" height="28.322" x="561.69" y="804.97" fill-opacity=".314" stroke="#000" stroke-width="1.022" rx=".799"/><rect width="1.914" height="32.099" x="574.13" y="791.91" fill-opacity=".314" stroke="#000" stroke-width="1.022" rx=".799"/><rect width="1.914" height="20.003" x="589.12" y="791.91" fill-opacity=".314" stroke="#000" stroke-width="1.022" rx=".799"/><path fill-opacity=".314" stroke="#000" d="M335.3 777.07c31.459-22.61 57.117-47.408 82.518-72.987 7.584-7.637 18.993-18.933 21.472-42.511 1.21-11.516-3.406-27.733-20.26-29.041-23.81-1.847-35.503 17.228-43.355 22.439-2.923 1.177-7.01.396-7.518-4.329-2.613 1.306 17.397-27.889 32.143-35.714 11.452-6.077 29.411-7.495 38.571-5 16.373 4.46 30.931 16.633 30 41.429-1.072 28.562-12.609 39.578-25.714 55-17.428 20.508-63.57 55.714-63.57 55.714h55s5.437.44 13.57-5c4.395-2.939 9.286-12.857 9.286-12.857l7.143 2.857-16.43 40-108.57.714z"/></g></svg>