<svg xmlns="http://www.w3.org/2000/svg" viewBox="0 0 398.1 391.77"><defs><linearGradient id="a" x1="215.51" x2="622.89" y1="1047.3" y2="1047.3" gradientTransform="matrix(.95277 0 0 .95011 -54.702 -451.64)" gradientUnits="userSpaceOnUse"><stop offset="0" stop-color="#eabd61"/><stop offset="1" stop-color="#eecd73" stop-opacity=".778"/></linearGradient><linearGradient id="b" x1="-224.48" x2="1012.4" y1="129.08" y2="129.08" gradientUnits="userSpaceOnUse"><stop offset="0" stop-color="#d0c27b"/><stop offset="1" stop-color="#d0c27b" stop-opacity=".778"/></linearGradient><linearGradient id="c" x1="-224.48" x2="1012.4" y1="129.08" y2="129.08" gradientTransform="matrix(.12265 0 0 .18714 293.96 605.46)" gradientUnits="userSpaceOnUse"><stop offset="0" stop-color="#e6e6e6"/><stop offset="1" stop-color="#ccc" stop-opacity=".746"/></linearGradient></defs><g transform="translate(-145.66 -347.57)"><path fill="url(#a)" stroke="#000" stroke-width=".9" d="M365.65 356.52s-3.366-3.205-7.701-3.482c-4.335-.277-6.89 2.367-6.89 2.367s-2.945 3.787-7.289 3.845c-4.343.06-7.437-3.7-7.437-3.7-4.938-4.154-8.572.8-8.572.8s-1.004 2.958-5.32 3.446c-4.316.489-6.84-2.288-6.84-2.288s-4.036-2.147-8.305-1.346c-4.269.8-6.08 4.042-6.08 4.042s-2.662 3.434-6.858 4.554c-4.197 1.12-7.26-.703-7.26-.703s-4.3-1.505-8.405-.086c-4.105 1.418-5.4 4.937-5.4 4.937s-2.1 3.691-6.043 5.508c-3.943 1.817-7.32.445-7.32.445s-4.555-.874-8.36 1.216c-3.805 2.09-4.542 5.677-4.542 5.677s-1.503 4.024-5.144 6.387c-3.64 2.363-7.158 1.52-7.158 1.52s-4.583-.15-8.052 2.46c-3.468 2.608-3.654 6.304-3.654 6.304s-.86 4.258-4.125 7.115-6.815 2.581-6.815 2.581-4.634.527-7.616 3.676c-2.983 3.15-2.6 6.776-2.6 6.776s-.228 4.266-2.971 7.625c-2.744 3.358-6.363 3.618-6.363 3.618s-4.435 1.239-6.935 4.782c-2.5 3.542-1.559 7.105-1.559 7.105s.473 4.303-1.754 8.022c-2.226 3.72-5.716 4.53-5.716 4.53s-4.142 1.901-6.1 5.768c-1.959 3.867-.434 7.293-.434 7.293s1.073 4.107-.487 8.15-4.937 5.405-4.937 5.405-3.878 2.547-5.135 6.694c-1.256 4.146.735 7.226.735 7.226s1.747 3.916.815 8.147c-.932 4.232-4.03 6.093-4.03 6.093s-3.388 3.11-4.002 7.4c-.614 4.288 1.849 7.036 1.849 7.036s2.367 3.609 2.093 7.932-3.032 6.637-3.032 6.637-2.843 3.595-2.791 7.926c.052 4.332 2.917 6.672 2.917 6.672s2.906 3.203 3.298 7.518c.393 4.314-1.97 7.018-1.97 7.018s-2.237 3.982-1.52 8.254c.716 4.273 3.93 6.143 3.93 6.143s3.392 2.72 4.437 6.924c1.045 4.205-.832 7.222-.832 7.222s-1.58 4.264-.224 8.38c1.354 4.115 4.877 5.458 4.877 5.458s3.681 2.145 5.444 6.104c1.764 3.958.346 7.301.346 7.301s-.925 4.524 1.12 8.346c2.044 3.822 5.64 4.6 5.64 4.6s4.031 1.542 6.353 5.203c2.323 3.66 1.447 7.149 1.447 7.149s-.18 4.556 2.402 8.04c2.58 3.485 6.305 3.692 6.305 3.692s4.27.896 7.1 4.184c2.828 3.287 2.532 6.805 2.532 6.805s.497 4.607 3.622 7.616c3.125 3.009 6.775 2.658 6.775 2.658s4.293.253 7.63 3.026c3.338 2.773 3.566 6.376 3.566 6.376s1.205 4.416 4.728 6.95c3.523 2.535 7.115 1.627 7.115 1.627s4.33-.433 8.032 1.833 4.482 5.738 4.482 5.738 1.857 4.146 5.708 6.15c3.851 2.004 7.312.518 7.312.518s4.14-1.022 8.171.595c4.03 1.617 5.347 5 5.347 5s2.491 3.895 6.627 5.22c4.136 1.325 7.259-.605 7.259-.605s3.963-1.67 8.186-.654c4.224 1.015 6.027 4.142 6.027 4.142s3.049 3.442 7.335 4.143c4.287.702 7.093-1.69 7.093-1.69s3.672-2.272 8-1.898c4.328.374 6.58 3.184 6.58 3.184s3.53 2.934 7.874 2.99c4.343.058 6.76-2.726 6.76-2.726s3.293-2.787 7.629-3.059c4.335-.272 6.982 2.176 6.982 2.176s3.928 2.381 8.232 1.794c4.304-.588 6.28-3.702 6.28-3.702s2.835-3.26 7.08-4.175c4.247-.915 7.228 1.1 7.228 1.1s4.23 1.737 8.398.518c4.169-1.218 5.65-4.617 5.65-4.617s2.312-3.68 6.377-5.205c4.066-1.526 7.292-.014 7.292-.014s4.426 1.075 8.372-.736c3.947-1.81 4.887-5.448 4.887-5.448s1.726-3.895 5.478-6.078c3.752-2.183 7.24-1.146 7.24-1.146s4.607.42 8.194-2.024c3.587-2.443 3.97-6.093 3.97-6.093s1.096-4.169 4.495-6.867c3.398-2.699 6.971-2.206 6.971-2.206s4.559-.31 7.76-3.239c3.2-2.928 3.012-6.644 3.012-6.644s.44-4.33 3.417-7.484c2.978-3.154 6.516-3.236 6.516-3.236s4.538-.982 7.208-4.4c2.67-3.416 1.932-7 1.932-7s-.206-4.282 2.201-7.888 5.972-4.22 5.972-4.22 4.27-1.675 6.414-5.443c2.145-3.767.845-7.232.845-7.232s-.907-4.245.948-8.162c1.853-3.918 5.222-5.073 5.222-5.073s3.924-2.306 5.488-6.347c1.564-4.041-.315-7.307-.315-7.307s-1.49-3.983-.343-8.161c1.146-4.179 4.363-5.873 4.363-5.873s3.595-2.925 4.425-7.177c.83-4.252-1.465-7.117-1.465-7.117s-2.135-3.718-1.64-8.021c.496-4.304 3.392-6.47 3.392-6.47s3.066-3.438 3.24-7.766c.173-4.328-2.55-6.813-2.55-6.813s-2.697-3.347-2.87-7.675c-.173-4.329 2.347-6.91 2.347-6.91s2.484-3.865 1.989-8.169c-.495-4.304-3.573-6.34-3.573-6.34s-3.205-2.896-4.035-7.148c-.83-4.252 1.248-7.182 1.248-7.182s1.82-4.186.674-8.364c-1.147-4.179-4.538-5.714-4.538-5.714s-3.654-2.364-5.116-6.443c-1.463-4.08.09-7.265.09-7.265s1.207-4.5-.649-8.417-5.382-4.881-5.382-4.881-3.897-1.762-6.04-5.53c-2.144-3.768-1.072-7.227-1.072-7.227s.456-4.576-1.951-8.182c-2.407-3.606-6.073-4.025-6.073-4.025s-4.186-1.126-6.853-4.546c-2.668-3.419-2.153-6.96-2.153-6.96s-.271-4.54-3.173-7.764c-2.9-3.224-6.648-3.058-6.648-3.058s-4.232-.503-7.433-3.432c-3.2-2.929-3.235-6.562-3.235-6.562s-.952-4.52-4.351-7.216c-3.4-2.697-7.008-1.988-7.008-1.988s-4.315.181-7.903-2.26c-3.588-2.442-4.167-5.997-4.167-5.997s-1.635-4.261-5.385-6.448c-3.75-2.187-7.25-.922-7.25-.922s-4.274.853-8.175-1.053c-3.902-1.904-5.017-5.269-5.017-5.269s-2.277-4.062-6.342-5.588c-4.066-1.526-7.271.226-7.271.226s-4.023 1.426-8.192.209c-4.17-1.216-5.812-4.453-5.812-4.453s-2.863-3.632-7.11-4.545c-4.246-.913-7.163 1.315-7.163 1.315s-3.774 2.046-8.078 1.458c-4.304-.588-6.404-3.59-6.404-3.59"/><path fill="url(#b)" stroke="#000" stroke-width="2.397" d="M1012.2 129.08c0 205.3-276.78 371.74-618.21 371.74s-618.21-166.43-618.21-371.74c0-205.3 276.78-371.74 618.21-371.74S1012.2-76.23 1012.2 129.08z" transform="matrix(.29306 0 0 .48102 229.51 481.96)"/><path fill-opacity=".129" stroke="#000" stroke-width=".9" d="m296.72 470.55-6.104.292.648-2.969-2.148-2.2 3.116-.316.123-.227-.156-.202c-1.615-2.08-3.215-4.229-5.248-5.914-1.444-.846 6.487 2.082 10.167 2.752zM200.85 538.17c2.698.071 5.255-1.222 7.894-1.78 1.125-.238 2.264-.407 3.383-.668.835-.194 1.624-.659 2.481-.668 1.24-.013 2.458.435 3.61.89.562.224 1.054 1.19 1.578.89.585-.334.028-1.335 0-2.002-.038-.892-.776-1.961-.226-2.67.512-.659 1.693-.158 2.481-.446.98-.357 2.324-.599 2.707-1.557.288-.72.677-2.226-.677-2.226s-3.282.18-4.736-.445c-.83-.356-1.767-.925-2.03-1.78-.519-1.687 1.773-3.404 1.353-5.118-.45-1.838-3.09-2.485-3.834-4.228-.438-1.028.09-2.267-.226-3.338-.263-.893-.872-1.649-1.353-2.448-.638-1.062-1.974-1.882-2.03-3.116-.079-1.756 1.579-4.45 2.481-4.673.902-.222 2.212-.905 2.03-1.78-.287-1.379-2.634-1.305-4.06-1.335-.547-.012-1.1.707-1.579.445-.478-.263-.576-1.032-.45-1.558.28-1.175 2.676-1.478 2.48-2.67-.124-.754-1.257-1.065-2.03-1.113-.808-.05-1.598.423-2.255.89-1.039.739-1.695 1.896-2.481 2.893-.397.504-1.152.92-1.128 1.558.022.579 1.155.756 1.128 1.335-.043.943-1.45 1.252-2.03 2.003-.368.475-1.108.995-.902 1.557.218.596 1.278.305 1.804.668.568.392 1.22.887 1.354 1.558.137.69-.563 1.308-.677 2.002-.06.367-.198.798 0 1.113.265.423 1.183.2 1.353.668.25.687-1.457 1.518-.902 2.003.985.86 2.116-1.657 3.383-2.003.363-.1.835-.232 1.128 0 .54.428.375 1.323.451 2.003.074.663 0 1.112 0 2.002 0 .89-.115 2.084 0 3.116.076.68.592 1.333.451 2.003-.208.987-.963 1.874-1.804 2.448-.706.48-1.666.407-2.481.667-.612.195-1.55.086-1.805.668-.388.885 1.318 1.724 1.128 2.67-.186.926-1.146 1.642-2.03 2.003-.903.369-2.36-.782-2.932 0-.278.38.059 1.07.451 1.335 1.243.838 3.014-.379 4.511-.222 1.16.12 2.672-.023 3.383.89.367.47.097 1.194 0 1.78-.076.463-.087 1.034-.45 1.335-1.573 1.302-4.242.012-6.09.89-1.39.661-3.745 1.636-3.384 3.116.128.525 1.032.43 1.579.445z"/><path fill-opacity=".129" stroke="#000" stroke-width=".9" d="M187.95 526.85c-.844-1.263-.212-3.411.902-4.45 1.159-1.082 3.214-.2 4.737-.668.642-.198 1.696-.236 1.804-.89.085-.518-.652-.879-1.128-1.113-.95-.47-2.552.418-3.157-.445-.789-1.125-.18-3.15.902-4.006.704-.557 1.89-.377 2.706 0 .532.246.559 1.193 1.128 1.335.785.196 1.802-.228 2.256-.89.59-.86-.745-2.38 0-3.115.69-.682 1.977-.207 2.932 0 1.051.228 2.352.44 2.932 1.335.608.937.495 2.338 0 3.338-.377.76-1.653.798-2.03 1.558-.562 1.132.042 2.522 0 3.783-.038 1.114.505 2.487-.226 3.338-.849.988-2.546.639-3.834.89-1.867.364-3.736.936-5.639.89-1.459-.035-3.481.312-4.285-.89zM218.28 582.57c-.504.018-.983.33-1.353.668-.322.293-.68.68-.677 1.112.006.7.603 1.31 1.128 1.78.87.782 2.041 1.926 3.157 1.558.798-.262.806-1.459 1.128-2.225.182-.433.649-.909.451-1.335-.575-1.24-2.453-1.608-3.834-1.558zM242.29 577.88c.798-.712.522-2.064.677-3.115.14-.958.565-1.986.225-2.893-.11-.296-.382-.548-.676-.668-.834-.34-1.956-.494-2.707 0-.813.535-.968 1.719-1.128 2.67-.184 1.1-.34 2.373.226 3.338.271.463.826.764 1.353.89.662.16 1.525.229 2.03-.222zM242.74 581.65c.05.472-.743.664-.902 1.113-.274.77.1 1.638 0 2.448-.076.607-.451.89-.451 1.78s.142 1.746-.451 2.225c-.582.47-1.504 0-2.256 0-.526 0-1.579 1.113-1.579 0s-.034-1.929 0-2.893c.038-1.04-.023-2.103.226-3.115.27-1.098.494-2.369 1.353-3.116.41-.357 1.043-.554 1.579-.445 1.046.214 2.369.955 2.481 2.003zM263.64 592.62c.985 1.024-.047 2.828-.226 4.228-.095.75.103 1.703-.45 2.225-.715.675-1.944.456-2.933.445-1.298-.014-2.582-.33-3.834-.667-1.24-.334-2.67-.47-3.609-1.335-.664-.612-.886-1.584-1.127-2.448-.181-.648-.514-1.394-.226-2.003.229-.485.677-.89 1.353-.89.677 0-1.127-.445 2.707 0 3.834.445 2.85.37 4.285.445 1.352.07 3.129-.969 4.06 0zM297.76 599.23c-.033 1.522-1.743 2.731-3.158 3.338-1.172.503-2.556 0-3.834 0-1.203 0-2.707 1.113-3.609 0-.902-1.113-2.318-1.269-2.03-2.225.333-1.104 2.248-.623 3.384-.89 1.42-.334 3.157-.445 4.285-.89 1.128-.446 2.427-1.262 3.609-.89.66.207 1.368.873 1.353 1.557zM297.26 609.33c-.033 1.522-1.743 2.731-3.158 3.338-1.172.503-2.556 0-3.834 0-1.203 0-2.707 1.113-3.609 0-.902-1.113-2.318-1.269-2.03-2.225.333-1.104 2.248-.623 3.384-.89 1.42-.334 3.157-.445 4.285-.89 1.128-.446 2.427-1.262 3.609-.89.66.207 1.368.873 1.353 1.557zM257.17 601.77c-.504.018-.983.33-1.353.668-.322.293-.68.68-.677 1.112.006.7.603 1.31 1.128 1.78.87.782 2.041 1.925 3.157 1.558.798-.262.806-1.459 1.128-2.225.182-.433.649-.909.451-1.335-.575-1.24-2.453-1.608-3.834-1.558zM264.41 506.55c-.711 1.136-.361 2.719 0 4.006.117.416.24 1.074.677 1.112.796.07 1.233-1.069 1.578-1.78.561-1.155.723-2.503.677-3.783-.01-.306.056-.762-.225-.89-.917-.416-2.177.488-2.707 1.335zM245.65 516.97c-.412.887-.232 2.188.451 2.893.265.273.76.332 1.128.222.509-.152.924-.628 1.127-1.112.26-.617.224-1.373 0-2.003-.159-.448-.427-1.033-.902-1.113-.699-.117-1.508.477-1.804 1.113zM250.19 516.97c-.412.887-.232 2.188.451 2.893.265.273.76.332 1.128.222.509-.152.924-.628 1.127-1.112.26-.617.224-1.373 0-2.003-.159-.448-.427-1.033-.902-1.113-.699-.117-1.508.477-1.804 1.113zM185.36 605.37c-.65-2.189-1.964-4.377 4.546-6.566 5.759-.337 9.38.512 9.091 3.535-1.337 2.532-2.411 3.723-4.04 4.546-5.374-.505-6.62-1.01-9.597-1.515z"/><path fill-opacity=".129" stroke="#000" stroke-width=".9" d="M297.49 706.89c45.49 20.236 209.86 6.723 219.46-161.37 4.47-78.39-64.34-190.85-220.98-165.41l.505 70.711.213.062c.156-2.303-17.43-4.337-17.246-2.035-.365-.932-1.71-1.5-1.68-2.5.013-.462.653-.686.844-1.108.26-.575.765-1.36.369-1.853-.252-.314-.668-.387-1.115-.356-.448.032-.927.168-1.32.267-.872.22-1.63.723-2.37 1.254l.172.033-2.329 2.022.41 3.01-2.714-1.52-1.214.557c-.904.69-1.805 1.379-2.73 2.04-1.145.816-2.438 1.449-3.469 2.402-2.513 2.326-4.55 5.13-6.47 7.954-.934 1.374-2.016 2.742-2.435 4.344-.211.807.39 1.76 0 2.5-.351.667-1.692.564-1.87 1.295-.123.508.747.92.747 1.383 0 .463.377 1.572.377 1.942 0 .37-1.17.143-1.5.558-.155.195-.11.49-.091.737.035.446.643.937.369 1.294-.47.613-1.653-.369-2.337 0-1.27.685-1.369 2.553-2.345 3.609-1.2 1.297-2.833 2.129-4.215 3.236-2.066 1.655-5.146 2.635-6.092 5.089-.236.61.628 1.387.278 1.942-.208.33-.865.07-1.123.364-.582.662-.39 1.716-.467 2.589-.067.739-.532 1.7 0 2.225.55.543 1.847-.598 2.337 0 .18.22-.104.56-.18.833-.132.47-.216.97-.476 1.384-.117.184-.302.318-.468.46-.235.203-.686.257-.746.56-.07.35.266.708.558.921.312.229.919-.046 1.131.276.399.603-.406 1.408-.377 2.127.03.732-.088 1.766.558 2.128.877.494 2.068-.283 2.91-.833.372-.242.562-.68.845-1.02.31-.37.585-.773.935-1.108.767-.732 1.837-1.137 2.525-1.942.596-.695.391-2.445 1.312-2.403.644.03.533 1.16.755 1.756.18.485.189 1.043.467 1.48.34.536 1.045.772 1.402 1.295.973 1.424 1.264 3.2 1.878 4.806.318.831.601 1.675.935 2.5.441 1.09 1.223 2.59 1.41 3.236.188.648.99 1.083 1.214 1.756.283.851.098 2.316.098 2.686 0 .37.104.657.37.736.417.125.865-.306 1.131-.647.573-.733.316-1.855.746-2.678.204-.39.526-.713.845-1.02.51-.49 1.282-.716 1.689-1.294.355-.503.464-1.15.558-1.755.222-1.432.054-2.898 0-4.345-.032-.835-.53-1.735-.189-2.5.224-.503.889-.663 1.312-1.02.453-.381.863-.811 1.312-1.197.336-.288.728-.514 1.033-.833.477-.5 1.008-1.015 1.222-1.667.144-.439.305-1.034 0-1.383-.144-.166-.526.079-.656-.098-.111-.15.064-.366.09-.55.035-.247.11-.495.09-.744-.017-.223-.01-.5-.18-.647-.497-.432-1.414.084-1.968-.275-.552-.358-.8-1.058-1.033-1.667a4.3 4.3 0 0 1-.279-1.57c.007-.63.293-1.228.37-1.853.085-.702-.076-1.433.097-2.12.176-.695.685-1.269.935-1.941.168-.45.195-.946.377-1.392.241-.589.586-1.133.935-1.666.424-.646.974-1.203 1.402-1.845.278-.416.569-.832.755-1.295.2-.5.15-1.08.377-1.57.177-.38.483-.69.746-1.019.386-.48 1.03-.807 1.222-1.391a1.427 1.427 0 0 0-.098-1.109c-.077-.134-.294-.144-.378-.275-.255-.397-.342-.917-.278-1.383.056-.413.342-.764.565-1.117.437-.69 1.133-1.213 1.501-1.942.203-.4.185-.884.369-1.294.119-.265.34-.475.467-.736.33-.678.16-1.66.755-2.128.443-.349 1.134-.072 1.689-.186.308-.064.602-.37.902-.275.942.294 1.276 1.495 1.812 2.314.577.88 1.286 1.748 1.5 2.775.152.726-.02 1.494-.188 2.217-.39 1.673-1.176 3.234-1.878 4.806-.507 1.135-.965 2.312-1.68 3.333-.68.968-1.939 1.519-2.436 2.589-.707 1.522-.845 3.34-.566 4.992.41 2.422 1.222 5.157 3.19 6.659 1.056.806 2.653 1.103 3.936.736 1.23-.352 1.747-1.877 2.804-2.59 1.316-.885 2.76-1.683 4.314-2.03.791-.177 1.63-.106 2.435 0 1.412.186 3.042.195 4.125 1.108.466.394.625 1.067.754 1.66.131.603.313 1.317 0 1.852-.94 1.604-3.108 2.16-4.879 2.775-.775.269-1.617.297-2.435.372-1.868.172-4.496-1.3-5.625.178-.311.406.143 1.027.377 1.48.443.861 1.545 1.318 1.878 2.226.297.811-.188 1.664 0 2.589.187.924 1.058.673 1.5 1.108.883.87 2.805 1.852 2.247 2.953-.252.497-1.141.128-1.69 0-.677-.158-1.201-.725-1.869-.922-1.026-.303-2.12-.393-3.19-.372-1.2.023-2.755-.323-3.558.558-.795.871-.29 2.343-.19 3.511.12 1.386.275 2.841.936 4.07.642 1.195 2.451 1.656 2.812 2.961.152.55-.127 1.154-.377 1.667-.518 1.065-1.357 1.976-2.247 2.767-.772.687-1.6 1.488-2.624 1.667-1.388.241-2.735-.684-4.124-.923-2.046-.35-4.11-.871-6.183-.744-2.57.157-6.745 1.853-7.495 1.853s-3.186.922-3.936.922-1.675.883-2.443.558c-1.468-.62-1.873-2.595-2.436-4.07-.47-1.232-.86-2.57-.746-3.883.091-1.05.82-1.95 1.124-2.961.326-1.089.904-2.2.746-3.325-.127-.902-.49-1.992-1.312-2.403-.788-.394-1.918-.16-2.624.364-1.096.813-1.542 2.359-1.681 3.705-.117 1.13.526 2.211.746 3.326.29 1.473.283 3.014.754 4.441.562 1.703 2.903 3.076 2.436 4.806-.174.645-1.228.621-1.69 1.109-.688.726-.647 2.06-1.5 2.589-.742.46-1.748.155-2.624.186-.563.02-1.141.128-1.69 0-1.085-.254-2.266-2.317-2.992-1.48-.699.804 2.041 1.542 1.87 2.588-.137.827-1.373.988-2.059 1.48-1.374.989-2.63 2.163-4.124 2.962-.871.465-2.13.933-3.543 1.392-2.446.97-4.003 2.252-7.503 2.799a.43.43 0 0 1-.098.049c-1.07.417-2.843.95-3.854 1.488-1.265.674-2.24 1.838-3.559 2.403-.529.227-1.12.464-1.69.372-1.076-.172-1.752-1.378-2.803-1.666-.664-.182-1.385-.095-2.067 0-.45.062-.962.085-1.312.372-.644.528-1.175 1.392-1.123 2.217.027.442.447.777.746 1.108.71.786 1.615 1.376 2.444 2.039 1.105.885 2.438 1.527 3.37 2.589.329.375.541.841.746 1.295.563 1.246 1.141 2.529 1.312 3.883.1.797-.18 1.663-.18 2.403s-.049 2.021-.378 2.961c-.475 1.359-1.332 2.58-2.246 3.698-.861 1.053-1.686 2.393-3.002 2.775-.671.195-1.396-.17-2.066-.372-1.042-.315-1.988-.88-2.993-1.295-1.241-.513-2.474-1.051-3.747-1.48-.861-.29-1.747-.501-2.624-.737-1.684-.45-3.332-1.124-5.068-1.294-1.12-.11-2.254.048-3.37.186-.633.078-1.597-.2-1.878.364-.431.866 1.283 1.625 1.312 2.59.028.937-.536 1.85-1.123 2.588-.579.727-1.777.867-2.247 1.667-.253.43-.082.994-.189 1.48-.222 1.01-.352 2.102-.935 2.962-.27.4-.74.624-1.123.922-.737.574-1.735.895-2.255 1.667-.854 1.269-.826 2.939-1.123 4.433-.085.428-.122.864-.189 1.295-.174 1.113-.412 2.216-.558 3.333-.087.674-.485 1.418-.188 2.031.874 1.804 4.684 2.586 5.06 3.325.374.74 1.73 1.91 2.812 2.59.569.356 1.222.586 1.878.744 1.28.307 2.619.31 3.936.372 1.684.08 3.373-.022 5.059 0 2.25.03 4.586.793 6.748.178 1.08-.307 1.817-1.317 2.805-1.845.836-.447 1.814-.615 2.624-1.108.907-.553 1.506-1.854 2.443-2.04.937-.184.173-1.475.18-2.216.01-.989-.407-1.998-.18-2.961.228-.967.935-1.763 1.493-2.59.567-.841.998-1.882 1.878-2.402.65-.386 1.31-.003 2.246-.372.937-.37 1.957-1.307 3.002-1.845.843-.434 1.74-.762 2.624-1.109.679-.266 1.66-.139 2.058-.744.477-.726-.242-1.726-.18-2.589.062-.88-.11-2.002.557-2.589.984-.864 2.618-.342 3.936-.364 1.002-.017 2.007.301 3.001.178 1.823-.226 3.73-.639 5.248-1.659.735-.494 1.072-1.406 1.69-2.039.98-1.006 1.805-2.444 3.18-2.775 1.003-.24 2.368-.058 3.002.745.652.825-.404 2.172 0 3.139.203.485.748.745 1.123 1.116l1.124 1.109c.562.553 1.172 1.063 1.689 1.658.554.639.984 1.372 1.5 2.04.486.626.88 1.348 1.501 1.844.652.52 1.601.59 2.247 1.117.788.643 1.05 1.799 1.87 2.403.699.514 1.635.598 2.443.922.441.177.918.294 1.312.558.365.244.609.63.935.922.658.589 1.324 1.175 2.058 1.667 1.065.713 2.333 1.104 3.379 1.845.754.534 1.683 1.014 2.058 1.853.226.505.068 1.11 0 1.658-.094.759-.395 1.478-.558 2.225-.146.673-.824 1.502-.377 2.031.24.284.749 0 1.123 0 .938 0 .948-.533 1.312-.922.743-.793 1.486-1.715 1.69-2.775.141-.737-.03-1.551-.378-2.217-.242-.465-.898-.636-1.123-1.109-.293-.618-.566-1.467-.189-2.039.216-.326.732-.424 1.124-.372.447.06.7.593 1.123.745 1.124.402 2.626 1.1 3.567.372.348-.269.38-.906.18-1.295-.703-1.379-2.697-1.573-4.116-2.225-1.095-.503-2.43-.555-3.378-1.294-.95-.742-1.06-2.276-2.058-2.953-1.325-.9-3.288-.34-4.69-1.117-1.231-.68-2.327-1.726-2.994-2.953-.602-1.108-.115-2.61-.754-3.697-.04-.068.101-.578-.034-1.266-.85-.867-.736-.557-1.552-1.016-.539-.632-1.043-1.583-1.12-1.693-.607-.866-1.493-.524-1.419-1.576.055-.771.787-1.34 1.124-2.039.493-1.021.32-2.57 1.312-3.139.871-.5 2.048.048 3 .372.69.235 1.216.809 1.879 1.109.898.406 2.045.308 2.812.922.255 2.407.075 3.04 1.526 2.193.352.76.667 1.552 1.098 2.249.424.685.716 1.484 1.312 2.03.676.62 1.65.82 2.436 1.295 1.683 1.018 3.287 2.162 4.87 3.326 1.284.943 3.235 1.465 3.748 2.96.247.722-.594 1.457-.558 2.218.054 1.11.734 2.103 1.124 3.147.3.805.584 1.618.935 2.403.394.883.763 1.79 1.312 2.589.844 1.23 2.813 2.594 3 3.333.188.74-.49.86-.376 1.295.221.843 1.538 1.04 1.877 1.845.288.682-.286 1.534 0 2.217.405.967 1.247 1.875 2.247 2.225 1.124.393 2.513.193 3.559-.373.703-.38 1.194-1.122 1.5-1.852.216-.514.158-1.104.19-1.66.041-.74.21-1.512 0-2.224-.229-.77-.963-1.306-1.313-2.03-.424-.881-.57-1.87-.935-2.776-.33-.82-1.039-1.524-1.131-2.403-.086-.818-.202-2.081.566-2.403.67-.281 1.151 1.177 1.877 1.108.748-.07 1.06-1.064 1.681-1.48.926-.62 2.152-.763 3.002-1.48.408-.345.42-1.141.934-1.295.512-.154 2.278.084 2.059-.57z"/><path fill-opacity=".314" stroke="#000" stroke-width="3.23" d="m593.97 66.453-11.515-6.66-12.014 5.71 2.775-13.01-9.143-9.66 13.23-1.381 6.364-11.682 5.401 12.156 13.076 2.441-9.892 8.894z" transform="matrix(.28309 0 0 .27425 45.282 453.1)"/><path fill-opacity=".314" stroke="#000" stroke-width="3.23" d="m593.97 66.453-11.515-6.66-12.014 5.71 2.775-13.01-9.143-9.66 13.23-1.381 6.364-11.682 5.401 12.156 13.076 2.441-9.892 8.894z" transform="matrix(.28309 0 0 .27425 59.925 433.1)"/><path fill-opacity=".314" stroke="#000" stroke-width="3.23" d="m593.97 66.453-11.515-6.66-12.014 5.71 2.775-13.01-9.143-9.66 13.23-1.381 6.364-11.682 5.401 12.156 13.076 2.441-9.892 8.894z" transform="matrix(.28309 0 0 .27425 73.497 421.67)"/><path fill-opacity=".314" stroke="#000" stroke-width="3.23" d="m593.97 66.453-11.515-6.66-12.014 5.71 2.775-13.01-9.143-9.66 13.23-1.381 6.364-11.682 5.401 12.156 13.076 2.441-9.892 8.894z" transform="matrix(.28309 0 0 .27425 87.425 408.45)"/><path fill-opacity=".314" stroke="#000" stroke-width="3.23" d="m593.97 66.453-11.515-6.66-12.014 5.71 2.775-13.01-9.143-9.66 13.23-1.381 6.364-11.682 5.401 12.156 13.076 2.441-9.892 8.894z" transform="matrix(.28309 0 0 .27425 101.35 400.24)"/><path fill-opacity=".314" stroke="#000" stroke-width="3.23" d="m593.97 66.453-11.515-6.66-12.014 5.71 2.775-13.01-9.143-9.66 13.23-1.381 6.364-11.682 5.401 12.156 13.076 2.441-9.892 8.894z" transform="matrix(.28309 0 0 .27425 115.64 394.17)"/><path fill-opacity=".314" stroke="#000" stroke-width="3.23" d="m593.97 66.453-11.515-6.66-12.014 5.71 2.775-13.01-9.143-9.66 13.23-1.381 6.364-11.682 5.401 12.156 13.076 2.441-9.892 8.894z" transform="matrix(.28309 0 0 .27425 45.282 598.1)"/><path fill-opacity=".314" stroke="#000" stroke-width="3.23" d="m593.97 66.453-11.515-6.66-12.014 5.71 2.775-13.01-9.143-9.66 13.23-1.381 6.364-11.682 5.401 12.156 13.076 2.441-9.892 8.894z" transform="matrix(.28309 0 0 .27425 59.925 617.38)"/><path fill-opacity=".314" stroke="#000" stroke-width="3.23" d="m593.97 66.453-11.515-6.66-12.014 5.71 2.775-13.01-9.143-9.66 13.23-1.381 6.364-11.682 5.401 12.156 13.076 2.441-9.892 8.894z" transform="matrix(.28309 0 0 .27425 72.068 632.74)"/><path fill-opacity=".314" stroke="#000" stroke-width="3.23" d="m593.97 66.453-11.515-6.66-12.014 5.71 2.775-13.01-9.143-9.66 13.23-1.381 6.364-11.682 5.401 12.156 13.076 2.441-9.892 8.894z" transform="matrix(.28309 0 0 .27425 87.425 645.95)"/><path fill-opacity=".314" stroke="#000" stroke-width="3.23" d="m593.97 66.453-11.515-6.66-12.014 5.71 2.775-13.01-9.143-9.66 13.23-1.381 6.364-11.682 5.401 12.156 13.076 2.441-9.892 8.894z" transform="matrix(.28309 0 0 .27425 102.43 657.02)"/><path fill-opacity=".314" stroke="#000" stroke-width="3.23" d="m593.97 66.453-11.515-6.66-12.014 5.71 2.775-13.01-9.143-9.66 13.23-1.381 6.364-11.682 5.401 12.156 13.076 2.441-9.892 8.894z" transform="matrix(.28309 0 0 .27425 115.64 664.17)"/><rect width="1.914" height="61.78" x="278.33" y="602.37" fill-opacity=".314" stroke="#000" stroke-width=".9" rx=".799"/><rect width="1.914" height="54.28" x="264.4" y="601.29" fill-opacity=".314" stroke="#000" stroke-width=".9" rx=".799"/><rect width="1.914" height="45.708" x="250.83" y="601.29" fill-opacity=".314" stroke="#000" stroke-width=".9" rx=".799"/><rect width="1.914" height="32.494" x="236.9" y="600.94" fill-opacity=".314" stroke="#000" stroke-width=".9" rx=".799"/><rect width="1.914" height="17.137" x="222.97" y="601.29" fill-opacity=".314" stroke="#000" stroke-width=".9" rx=".799"/><rect width="1.914" height="28.208" x="209.4" y="620.94" fill-opacity=".314" stroke="#000" stroke-width=".9" rx=".799"/><rect width="1.914" height="24.28" x="223.33" y="639.51" fill-opacity=".314" stroke="#000" stroke-width=".9" rx=".799"/><rect width="1.914" height="21.423" x="236.9" y="653.79" fill-opacity=".314" stroke="#000" stroke-width=".9" rx=".799"/><rect width="1.914" height="15.708" x="251.9" y="667.72" fill-opacity=".314" stroke="#000" stroke-width=".9" rx=".799"/><rect width="1.914" height="15.351" x="265.47" y="677.72" fill-opacity=".314" stroke="#000" stroke-width=".9" rx=".799"/><rect width="1.914" height="12.851" x="279.04" y="685.58" fill-opacity=".314" stroke="#000" stroke-width=".9" rx=".799"/><rect width="1.914" height="36.601" x="236.93" y="443.3" fill-opacity=".314" stroke="#000" stroke-width=".9" rx=".799"/><rect width="1.914" height="24.994" x="223.86" y="455.04" fill-opacity=".314" stroke="#000" stroke-width=".9" rx=".799"/><rect width="1.914" height="8.387" x="209.76" y="472.19" fill-opacity=".314" stroke="#000" stroke-width=".9" rx=".799"/><rect width="1.914" height="15.351" x="209.94" y="438.26" fill-opacity=".314" stroke="#000" stroke-width=".9" rx=".799"/><rect width="1.914" height="12.672" x="224.04" y="420.4" fill-opacity=".314" stroke="#000" stroke-width=".9" rx=".799"/><rect width="1.914" height="12.672" x="237.08" y="410.49" fill-opacity=".314" stroke="#000" stroke-width=".9" rx=".799"/><rect width="1.914" height="12.672" x="251.9" y="398.35" fill-opacity=".314" stroke="#000" stroke-width=".9" rx=".799"/><rect width="1.914" height="11.422" x="264.76" y="391.03" fill-opacity=".314" stroke="#000" stroke-width=".9" rx=".799"/><rect width="1.914" height="10.53" x="279.94" y="385.67" fill-opacity=".314" stroke="#000" stroke-width=".9" rx=".799"/><rect width="1.914" height="24.458" x="278.86" y="416.74" fill-opacity=".314" stroke="#000" stroke-width=".9" rx=".799"/><rect width="1.914" height="19.28" x="265.11" y="422.45" fill-opacity=".314" stroke="#000" stroke-width=".9" rx=".799"/><rect width="1.914" height="24.637" x="252.26" y="431.74" fill-opacity=".314" stroke="#000" stroke-width=".9" rx=".799"/><path fill-opacity=".314" stroke="#000" stroke-width=".9" d="m407.5 456.66-5.719 8.563c-2.039 3.51-4.863 3.817-7.844 3.562l-46.78-1.78-26.438 76.438 2.5 2.125c19.304-7.595 52.64-14.742 52.844 26.094.06 11.913-16.457 38.872-31.78 38.219-6.236-.266-14.573-5.54-15.345-11.438-1.137-8.685-1.237-21.952-18.594-18.562-7.27 1.42-13.61 10.355-7.843 22.5 2.564 5.4 13.532 10.374 21.438 13.188 5.995 2.134 12.573 3.125 18.906 2.5 11.764-1.161 26.447-6.078 33.594-11.406 4.116-3.069 19.015-16.315 22.125-32.875l2.875-.344c.374 15.083.883 41.81 30 44.281 5.232.445 29.217-10.266 37.5-20 12.334-14.495 22.275-30.6 27.5-49.28 5.094-18.213 9.807-31.798 4.625-57.876-1.423-7.159-7.706-21.629-18.22-24.28-15.275-3.854-30.221 2.877-36.405 8.218-5.163 4.459-27.202 22.77-35.375 47.156-4.456 13.296-7.4 22.908-8.563 32.844h-2.844c1.778-11.759-7.965-20.3-16.812-26.438-12.053-8.361-27.592-9.353-43.906-5.687l13.562-34.656 51.781.718 11.438-27.875zm59.031 15.812a5.034 5.034 0 0 1 1.688.25c19.318 6.517 10.282 49.428 4.625 73.219-5.555 23.36-23.11 65.439-36.406 62.125-19.123-4.767-10.69-50.911-4.657-75.344 5.346-21.651 23.05-60.085 34.75-60.25z"/><path fill="url(#c)" d="M418 633.22a10.435 10.435 0 0 0-1.184 4.001c-.071 1.34.039 2.563.293 3.669.447-2.514.746-5.073.891-7.67z"/><path fill-opacity=".314" stroke="#000" stroke-width=".9" d="M429.48 627.43c-5.418.002-9.685 4.024-10.139 9.799-.315 6.79 3.368 10.668 7.485 10.74 4.539-.047 8.08-2.523 9.714-9.603-.294-.138 1.304-9.28-7.06-10.936zm-1.216 1.158c.315-.01.641.008.98.06 5.27 2.566 4.455 4.728 4.41 9.356-.81 4.06-2.395 9.27-6.944 8.5 0 0-6.005-.268-4.681-9.763 1.2-5.093 3.186-8.058 6.235-8.153z"/><path fill-opacity=".129" stroke="#000" stroke-width=".9" d="m361.28 629.05-1.433.075-.083.026c-.454.142 1.38-.105 1.516-.046v-.055z"/><path fill-opacity=".314" stroke="#000" stroke-width=".9" d="m373.23 631.8-.015-2.412.035-1.755c.005-.292-14.151-.144-14.151-.144s-.485.384-.537.65a.9.9 0 0 0 .268.814c.244.216.984.244.984.244l1.52-.081s-.349 10.629-2.325 15.537a2.533 2.533 0 0 1-.626.894c-.225.21-.527.339-.805.489-.55.297-1.83.243-1.699.813.179.771 1.728.124 2.594.163 1.042.046 3.13.08 3.13.08h3.04l3.489.164 2.415-.163 1.61-.976s.311-.919.447-1.383c.133-.458.418-.912.357-1.383-.038-.3-.163-.654-.447-.813-.152-.086-.396-.1-.537 0-.601.431-.103 1.458-.536 2.033-.266.354-1.163.732-1.163.732l-1.162.489-2.505.325h-3.488l-.715-.325-.716-.814.358-1.87.984-5.207.894-.325h4.293l.358.325v2.196l.626.57.626-.57-.179-3.09 1.163-2.278-.447-.732h-.358l-.805 1.22-.626.732-.805.325-2.325.244h-1.342l-.626-.162 1.342-7.321 2.325-.326h2.593l1.61.082.447.976.242 2.12c.396.315.793.125 1.19-.087zM377.97 627.87l3.162.086 2.688-.028h1.423l.19.345-.095.345s-.253.029-.412.029h-.6l-.98.172-.57.345-.095.201-.19 1.036-1.77 10.813-.126 1.553.063 1.294.506.949 1.707.978 2.435.172 1.992-.431 1.202-.949 1.011-1.15.76-1.784.6-2.99.727-4.113.411-2.013c.022-.98.011-1.032.032-1.582l.063-1.006-.031-.633-.064-.547-.442-.172h-.917l-.506-.144-.095-.403.032-.316.474-.057 1.929.028 2.245.029 1.107.029.031.489-.126.287a4.764 4.764 0 0 0-1.044.029c-.659.153-.664.782-.948 1.208l-.917 3.652-1.708 8.685-1.423 3.106c-.938.995-1.992 1.467-3.099 1.697-1.264.29-2.53.429-3.794.26-1.339-.13-2.41-.623-3.415-1.209-.687-.55-1.176-1.4-1.613-2.33.073-2.208.213-4.396.538-6.528l1.233-7.39c.185-.716.057-1.107-.348-1.209l-1.612-.086-.032-.403zM401.73 627.83c-.318.208-.516.472-.36.896l1.832.488-2.523 15.899c-.022.137.024.302-.067.413-.083.102-.154.061-.382.16-.471.207-1.26.57-1.676.866-.138.099.099.489.27.519 3.14.548 7.159.022 7.294.14l.127-.669-2.324-.448c-.298-.057-.61-.48-.537-.775.668-2.645 1.221-7.846 1.832-7.926l1.03.402c.553.273.68.47.802.448 0 0 1.933 6.723 4.83 8.54 1.1.69 2.711.788 3.979.409.27-.082.68-.274.63-.529-.056-.293-.606-.231-.907-.347l-2.047-.79-4.244-7.892c5.856-2.707 6.065-7.22 1.56-9.477l-9.119-.327zm4.388 19.381-.005.02c.013-.009.012-.014.005-.02zm1.727-18.365c.355.005.716.038.951.045.645.02 1.309.02 1.832.363.6.394.89 1.01 1.03 1.67.142.68.004 1.393-.134 2.074-.17.84-.31 1.744-.852 2.441-.442.57-1.12 1-1.831 1.258-.627.227-1.34.243-2.015.207-.458-.025-1.38.129-1.339-.287.304-3.007 1.251-6.637 1.207-7.363-.022-.356.558-.417 1.15-.408zM342.14 652.72c.415 2.497 2.688 2.09 2.857 0l2.857-10.179c2.16-5.124-1.226-4.73-2.678-2.5-21.097-2.252-29.002.776-31.964 2.857-9.896 6.952-12.168 14.27-11.964 21.786.407 15.032 12.719 18.64 18.393 19.821 3.926.819 10.553.768 15.893-.357 2.11-.445 3.432-1.386 4.821-3.036 2.704-3.21 4.821-11.964 4.821-11.964-.726-1.605-1.837-1.29-3.035-.535-2.6 5.799-6.538 11.894-11.786 11.964 0 0-16.433 1.166-18.393-15-1.62-13.361 9.078-22.502 19.107-23.393 11.323-1.007 11.25 6.07 11.25 6.07zM372.59 660l-.024-3.587.055-2.61c.008-.433-22.147-.213-22.147-.213s-.758.57-.84.967c-.085.415.071.916.42 1.21.381.32 1.54.363 1.54.363l2.38-.121s-.547 15.804-3.64 23.102c-.21.493-.554.955-.98 1.33-.353.312-.826.503-1.26.726-.86.442-2.866.362-2.66 1.21.28 1.146 2.705.184 4.06.241 1.632.069 4.9.121 4.9.121h4.758l5.46.242 3.779-.242 2.52-1.451s.488-1.366.7-2.056c.208-.681.654-1.357.56-2.057-.061-.447-.257-.972-.7-1.21-.239-.126-.62-.149-.84 0-.943.643-.163 2.17-.84 3.025-.417.526-1.82 1.088-1.82 1.088l-1.82.726-3.92.484h-5.458l-1.12-.484-1.12-1.21.56-2.781 1.54-7.741 1.4-.484h6.719l.56.484v3.266l.98.846.98-.846-.28-4.597 1.819-3.386-.7-1.089h-.56l-1.26 1.815-.98 1.088-1.26.484-3.639.363h-2.1l-.98-.242 2.1-10.886 3.64-.484h4.06l2.519.121.7 1.451.377 3.154c.62.467 1.242.185 1.862-.13zM373.39 680.76l2.679-.179c.773-.08 1.547.986 2.321-1.785l5.714-17.68c.898-3.975-2.172-4.344-6.071-4.285v-2.857h10.893l10.893 21.607 3.036-14.821c1.157-3.847-.41-2.951-1.429-3.75h-3.929v-2.679l15-.178-.178 2.678c-1.483.332-3.232-.936-4.286 1.965l-4.81 20.37 1.79 2.68c1.045 1.326 1.605 2.41-.178 2.321l-6.608.179-11.786-21.607-4.107 14.82c-1.736 3.782.682 2.924 2.5 2.858l4.822.178v2.858l-16.43.357zM415.36 683.43v-2.321l4.64-1.07c1.098.402 1.683-1.246 2.321-2.679l5.536-18.571c1.922-4.424-2.267-2.99-4.286-3.036-2.72 1.39-5.406 3.227-6.25 6.965-3.115 1.17-2.796-.112-2.678-1.25l2.143-5.893c.788-.916.687-2.276 3.214-2.322l23.571.179c1.877-.043 2.196 1.604 1.74 3.398l-.847 4.816c-1.78 2.863-2.53 1.086-3.393-.178l.536-3.036c-.055-3.047-6.395-3.673-7.679-.536l-5.536 20.18c-1.046 2.419 1.61 1.754 3.215 1.963 2.18 1.31 2.736 2.62 3.035 3.93z"/></g></svg>