<svg xmlns="http://www.w3.org/2000/svg" viewBox="0 0 954.45 954.48"><defs><linearGradient id="a" x1="50.543" x2="1018" y1="532.89" y2="532.89" gradientUnits="userSpaceOnUse"><stop offset="0" stop-color="#d47440"/><stop offset=".016" stop-color="#d27341"/><stop offset=".031" stop-color="#dd7d48"/><stop offset=".063" stop-color="#f27733"/><stop offset=".125" stop-color="#df6e2f"/><stop offset=".25" stop-color="#e8996e"/><stop offset=".5" stop-color="#dd5c10"/><stop offset=".75" stop-color="#db6c2a"/><stop offset="1" stop-color="#de9260"/></linearGradient><linearGradient id="b" x1="115.04" x2="971.33" y1="289.7" y2="713.62" gradientUnits="userSpaceOnUse"><stop offset="0" stop-color="#ff8c4e"/><stop offset=".016" stop-color="#ff8c4e"/><stop offset=".031" stop-color="#ff8643"/><stop offset=".063" stop-color="#ff8e50"/><stop offset=".125" stop-color="#ff7325"/><stop offset=".25" stop-color="#ffac7e"/><stop offset=".5" stop-color="#ff6f1b"/><stop offset=".75" stop-color="#ff8e4a"/><stop offset="1" stop-color="#ffae7a"/></linearGradient></defs><path fill="url(#a)" stroke="#000" stroke-width="3.045" d="M1017.1 532.89c0 266.67-216.18 482.86-482.86 482.86-266.67 0-482.86-216.18-482.86-482.86 0-266.67 216.18-482.86 482.86-482.86 266.67 0 482.86 216.18 482.86 482.86z" transform="translate(-49.17 -47.78) scale(.98523)"/><path fill="url(#b)" stroke="#000" stroke-width="1.772" d="M1017.1 532.89c0 266.67-216.18 482.86-482.86 482.86-266.67 0-482.86-216.18-482.86-482.86 0-266.67 216.18-482.86 482.86-482.86 266.67 0 482.86 216.18 482.86 482.86z" transform="matrix(.90845 0 0 .9055 -8.14 -6.72)"/><g fill="none" stroke="#000" stroke-width="2"><path d="M-88.404-46.314v10.49h-4.52c-.725-2.09-1.34-3.502-1.846-4.239a5.96 5.96 0 0 0-1.815-1.748c-.704-.429-1.902-.643-3.595-.643h-7.192v15.834h4.355c.967 0 1.726-.138 2.276-.413.55-.275 1.006-.731 1.369-1.369s.709-1.627 1.039-2.969h3.727v13.393h-3.727c-.308-1.275-.649-2.248-1.023-2.919-.374-.67-.819-1.149-1.336-1.435-.517-.286-1.292-.429-2.325-.429h-4.355v17.615h7.159c.77 0 1.418-.05 1.946-.148.528-.1 1-.27 1.418-.511.418-.242.82-.572 1.204-.99a8.738 8.738 0 0 0 1.023-1.353c.297-.483.61-1.121.94-1.913.33-.792.693-1.88 1.089-3.266h4.519l-.627 12.04h-32.426v-2.177c.814-.22 1.457-.456 1.93-.709a2.446 2.446 0 0 0 1.055-1.056c.231-.45.38-1.022.446-1.715.066-.693.099-1.567.099-2.622v-28.435c0-1.034-.028-1.903-.083-2.606-.055-.704-.198-1.276-.429-1.716a2.672 2.672 0 0 0-1.055-1.072c-.473-.275-1.127-.522-1.963-.742v-2.177zM-53.009-38.035c0-1.65-.072-2.798-.214-3.447-.143-.649-.424-1.171-.842-1.567-.417-.396-1.231-.759-2.44-1.089v-2.177h14.513v2.177c-.791.22-1.418.457-1.88.71a2.57 2.57 0 0 0-1.056 1.055c-.242.451-.395 1.023-.461 1.715a28.52 28.52 0 0 0-.1 2.623v20.617c0 2.727-.22 5.009-.66 6.845-.439 1.836-1.12 3.38-2.044 4.634-.924 1.254-2.073 2.266-3.448 3.035s-2.919 1.32-4.634 1.65c-1.716.33-3.64.494-5.773.494-3.123 0-5.762-.324-7.917-.973-2.155-.648-3.909-1.627-5.261-2.936s-2.354-2.897-3.002-4.766c-.649-1.87-.973-4.278-.973-7.224v-21.343a34.37 34.37 0 0 0-.083-2.606c-.055-.704-.198-1.276-.429-1.716a2.672 2.672 0 0 0-1.055-1.072c-.473-.275-1.127-.522-1.963-.742v-2.177h17.318v2.177c-.902.242-1.567.5-1.996.775a2.83 2.83 0 0 0-.973 1.006c-.22.396-.374.913-.462 1.55-.088.638-.132 1.573-.132 2.805v21.772c0 1.737.11 3.32.33 4.75.22 1.43.622 2.655 1.204 3.678s1.391 1.809 2.425 2.358c1.034.55 2.364.825 3.991.825 2.244 0 3.915-.45 5.015-1.352 1.1-.902 1.874-2.161 2.325-3.777.45-1.617.676-4.03.676-7.241zM-19.098-1.287h-17.318v-2.177c.814-.22 1.457-.456 1.93-.71a2.446 2.446 0 0 0 1.055-1.055c.231-.45.38-1.023.446-1.715.066-.693.099-1.567.099-2.623v-28.435a34.37 34.37 0 0 0-.083-2.606c-.055-.703-.198-1.275-.429-1.715a2.672 2.672 0 0 0-1.055-1.072c-.473-.275-1.127-.522-1.963-.742v-2.178h19.232c2.595 0 4.8.182 6.614.545 1.814.363 3.403.918 4.767 1.666A9.925 9.925 0 0 1-2.9-41.78c.791.935 1.401 2.024 1.83 3.266.43 1.243.644 2.688.644 4.338 0 2.155-.38 4.002-1.138 5.542-.76 1.54-1.782 2.82-3.068 3.843s-3.008 1.984-5.163 2.886v.33c1.628.704 2.975 1.644 4.041 2.82 1.067 1.177 2.029 2.667 2.887 4.47L-.79-9.798c.923 2.002 1.841 3.503 2.754 4.503s1.996 1.611 3.25 1.831v2.177h-12.7c-1.276-1.76-2.717-4.376-4.322-7.85l-2.573-5.642c-.77-1.67-1.43-2.858-1.98-3.562-.549-.704-1.115-1.188-1.698-1.452-.583-.263-1.479-.395-2.688-.395h-1.914v10.622c0 1.649.077 2.803.231 3.463.154.66.451 1.188.89 1.584.44.396 1.254.747 2.442 1.055zm-3.563-41.102v18.341h3.266c1.76 0 3.21-.236 4.354-.71 1.144-.472 2.051-1.132 2.722-1.978.67-.847 1.132-1.842 1.385-2.986.253-1.143.38-2.397.38-3.76 0-2.99-.704-5.234-2.112-6.73-1.407-1.495-3.496-2.243-6.267-2.243-1.891 0-3.134.022-3.728.066zM28.074-.76c-6.466 0-11.32-1.89-14.564-5.673-3.244-3.782-4.866-9.445-4.866-16.988 0-4.948.786-9.176 2.359-12.684 1.572-3.508 3.887-6.174 6.944-8 3.057-1.825 6.696-2.737 10.919-2.737 6.575 0 11.513 1.886 14.81 5.657 3.3 3.772 4.949 9.374 4.949 16.807 0 4.156-.49 7.725-1.468 10.704-.979 2.98-2.37 5.426-4.173 7.34s-3.964 3.32-6.482 4.222c-2.518.902-5.328 1.353-8.428 1.353zm-8.94-23.552c0 6.641.797 11.584 2.392 14.828 1.594 3.244 4.03 4.865 7.306 4.865 1.694 0 3.134-.456 4.322-1.369 1.187-.912 2.15-2.188 2.886-3.826.737-1.638 1.264-3.58 1.583-5.822.32-2.243.479-4.706.479-7.39 0-4.376-.347-8.043-1.04-11-.692-2.958-1.737-5.19-3.133-6.697-1.397-1.506-3.183-2.26-5.36-2.26-3.19 0-5.559 1.524-7.11 4.57-1.55 3.045-2.325 7.746-2.325 14.101z" transform="matrix(1.0893 0 -.19541 .91798 659.37 174.871)"/></g><path fill="none" stroke="#000" stroke-width="2" d="M-73.273 13.859v18.184h-7.834c-1.258-3.621-2.325-6.07-3.202-7.348-.877-1.277-1.925-2.287-3.145-3.03-1.22-.744-3.297-1.115-6.233-1.115h-12.466v27.447h7.548c1.678 0 2.993-.239 3.946-.715.953-.477 1.744-1.268 2.373-2.373.629-1.106 1.23-2.821 1.8-5.146h6.462v23.216h-6.461c-.534-2.211-1.125-3.898-1.773-5.061-.648-1.163-1.42-1.992-2.315-2.487-.896-.496-2.24-.744-4.032-.744h-7.548v30.535h12.408c1.335 0 2.459-.085 3.374-.257a7.7 7.7 0 0 0 2.459-.886c.724-.42 1.42-.991 2.087-1.716a15.153 15.153 0 0 0 1.773-2.344c.514-.839 1.057-1.944 1.63-3.317.571-1.372 1.2-3.259 1.886-5.66h7.834l-1.086 20.87h-56.21v-3.774c1.411-.38 2.526-.79 3.346-1.229.82-.438 1.43-1.048 1.83-1.83.4-.781.657-1.772.771-2.973.115-1.201.172-2.716.172-4.546V28.27c0-1.792-.048-3.297-.143-4.517-.095-1.22-.343-2.211-.743-2.974-.4-.762-1.01-1.382-1.83-1.858-.82-.477-1.954-.905-3.402-1.287V13.86z" transform="matrix(1.0497 0 -.15038 .95261 659.37 174.871)"/><path fill="none" stroke="#000" stroke-width="2" d="M7.453 13.944v3.797c-1.534.499-4.184.377-5.99 1.266-.63.31-1.17.805-1.61 1.38-.442.576-.777 1.449-1.007 2.618-.23 1.17-.346 2.963-.345 5.38v64.09h-14.613l-25.89-44.76c-3.49-6.06-6.06-10.815-7.71-14.267h-.518c.384 8.246.576 16.953.576 26.12v18.525c0 2.876.143 4.89.431 6.04.288 1.151.806 2.062 1.554 2.733.747.672 2.157 1.276 4.228 1.813v3.797h-21.747v-3.797c1.42-.384 2.541-.806 3.366-1.266.824-.46 1.438-1.084 1.84-1.87.404-.786.662-1.774.778-2.963.115-1.189.172-2.685.172-4.487V28.327c0-2.877-.125-4.862-.374-5.955-.25-1.093-.767-2.004-1.553-2.733-.787-.728-7.285-1.361-9.318-1.898l-.592-3.797h28.981l20.367 35.383c1.266 2.224 2.915 5.235 4.948 9.032a217.73 217.73 0 0 1 5.408 10.76h.92c-.421-9.168-.632-19.178-.632-30.033v-10.7c0-2.494-.096-4.297-.288-5.409-.192-1.112-.489-1.956-.892-2.531-.402-.576-.99-1.144-1.61-1.439-3.25-1.542-8.531-.805-10.103-1.265l-.465-3.797z" transform="matrix(1.0562 0 -.15231 .9468 659.37 174.871)"/><path fill="none" stroke="#000" stroke-width="2" d="m-123.14-24.96-2.779 43.219h-6.334c-1.515-7.132-7.675-28.151-10.957-31.528-3.282-3.376-7.573-5.065-12.875-5.065-9.972 0-21.55 4.859-28.306 13.933-6.336 8.512-9.36 21.66-9.064 34.774.376 16.623 4.065 36.305 13.625 50.565 3.41 5.086 8.783 7.88 13.513 9.371 7.496 2.364 15.242 1.718 21.64-1.27 4.418-2.066 7.874-6.354 10.584-11.054 3.138-5.441 4.937-13.59 6.199-19.207l6.925 4.504-2.17 34.827c-6.942 1.641-13.284 2.84-19.028 3.598-5.743.757-16.024 2.655-24.407.42-6.924-1.847-14.14-5.531-20.357-11.154-6.72-6.074-12.852-14.263-17.023-23.225-6.01-12.914-9.69-27.652-10.225-41.22-.35-8.853 1.479-17.386 4.654-24.272 4.708-10.21 12.102-18.184 20.496-23.43 9.488-5.932 19.818-8.237 32.377-8.237 6.374 0 12.149.347 17.325 1.041 5.175.695 10.571 1.83 16.189 3.409z" transform="matrix(1.1466 0 -.20567 .87218 656.182 174.724)"/><path fill="none" stroke="#000" stroke-width="2" d="M27.481 87.76v-3.603c1.529-.255 2.739-.592 3.63-1.01.893-.42 1.557-1.01 1.994-1.775.436-.764.71-1.738.819-2.921.109-1.183.163-2.648.163-4.395V19.62h-4.422c-2.184 0-3.858.255-5.023.764-1.165.51-2.175 1.31-3.03 2.402-.856 1.092-1.593 2.558-2.212 4.396a64.196 64.196 0 0 0-1.528 5.214h-7.48V13.233h64.262v19.164h-7.48c-.69-2.474-1.236-4.294-1.636-5.46-.401-1.163-.847-2.155-1.338-2.974-.492-.82-1.01-1.502-1.556-2.048s-1.13-.982-1.747-1.31c-.62-.328-1.393-.573-2.321-.737s-2.138-.246-3.631-.246h-3.932v54.435c0 1.929.055 3.394.164 4.395.11 1.001.31 1.81.6 2.43.292.618.647 1.119 1.066 1.501.418.382 1 .728 1.747 1.037.746.31 1.756.556 3.03.738v3.603z" transform="matrix(1.0023 0 -.1798 .99768 659.37 174.871)"/><path d="M80.594 61.103a3.921 3.921 0 0 0-2.625 1.094l-181.44 171.59c-.25.236-.372.495-.531.75-67.143 30.595-113.81 98.215-113.81 176.75 0 100.61 76.59 183.36 174.69 193.22 6.473.65 13.042 1 19.688 1 4.641 0 9.252-.18 13.812-.5 1.433-.1 2.857-.213 4.28-.344 98.86-9.12 176.28-92.222 176.28-193.38 0-34.012-8.778-65.98-24.155-93.781l38.219-36.156c1.49-1.409 1.709-3.753.312-5.219l-1.75-1.812c-1.393-1.463-3.754-1.383-5.25.031l-36.562 34.594c-6.873-11.051-14.834-21.329-23.719-30.75l55.188-52.188c1.49-1.409 1.71-3.754.313-5.219l-1.75-1.844c-1.394-1.462-3.755-1.382-5.25.032l-55.312 52.312a195.053 195.053 0 0 0-30.47-23.906l72.47-68.531c1.49-1.409 1.709-3.754.312-5.22l-1.75-1.812c-1.393-1.462-3.754-1.383-5.25.031L72.16 242.19a193.52 193.52 0 0 0-36.219-15.812l94.063-88.969c1.483-1.401 1.703-3.729.313-5.187l-1.75-1.844c-1.394-1.462-3.755-1.383-5.25.031L25.19 223.252c-10.355-2.665-21.028-4.431-31.97-5.343a200.053 200.053 0 0 0-10.187-.625l124.47-117.7c1.49-1.409 1.71-3.754.313-5.22l-1.75-1.812c-1.394-1.462-3.755-1.383-5.25.031l-131.84 124.69a191.955 191.955 0 0 0-31.656 3.875c-1.061.22-2.133.451-3.188.688-.187.042-.375.082-.562.125-.711.16-1.417.332-2.125.5-1.145.274-2.27.55-3.406.844-.032.008-.062.023-.094.03-1.182.307-2.358.642-3.531.97-1.797.499-3.6.982-5.375 1.53L84.66 69.216c1.489-1.407 1.663-3.736.281-5.187l-1.719-1.843c-.706-.741-1.686-1.079-2.625-1.063zm.063 2c.445-.008.844.143 1.124.438l1.72 1.843c.591.621.559 1.64-.22 2.375l-168.62 159.47-.03.031a193.122 193.122 0 0 0-13.75 5.188L79.34 63.628a1.955 1.955 0 0 1 1.312-.531zm22.812 30.344c.44-.008.867.164 1.157.469l1.75 1.812c.577.606.527 1.671-.25 2.406l-125.97 119.13c-1.24-.023-2.473-.062-3.72-.062-1.538 0-3.063.027-4.593.062l130.34-123.25c.386-.365.841-.554 1.281-.562zm22.5 37.844c.44-.008.867.164 1.157.469l1.75 1.844c.584.613.535 1.632-.25 2.375l-94.97 89.812a192.85 192.85 0 0 0-6.343-1.813l97.375-92.125c.386-.365.84-.554 1.281-.562zm23.22 41.438c.44-.008.866.164 1.156.469l1.75 1.812c.577.606.528 1.67-.25 2.406l-73 69.031a193.118 193.118 0 0 0-5.063-3.062l74.125-70.094c.386-.365.841-.554 1.281-.563zm-172.75 46.25c1.244 0 2.48.039 3.718.062a1 1 0 0 0 .47.125 192.752 192.752 0 0 1 41.25 5.344c-3.61.916-9.4 2.462-12.97 3.875-8.325 3.296-16.372 7.399-23.906 12.25a136.74 136.74 0 0 0-15.406 11.562c-9.963-11.496-19.754-21.708-20.125-22.094.463-1.369.781-2.5.781-2.5.175-.642-.467-1.356-1.125-1.25-.385.062-.72.37-.812.75 0 0-.356 1.432-.969 3.094s-1.542 3.574-2.312 4.313c-.974.932-2.674 1.287-4.407 1.687-2.9.67-6.1.456-9.375.313s-6.652-.193-9.843 1.093c-2.023.816-3.435 2.365-4.75 3.813s-2.536 2.782-4 3.469c-.807.378-2.02.378-3.375.375-1.356-.003-2.943.02-4.188 1.125-.845.75-1.182 1.808-1.344 2.812-.161 1.005-.172 2.027-.187 2.969-.016.942-.052 1.784-.219 2.344-.167.56-.309.788-.75.937-4.029 1.365-12.473.966-19.719.125s-13.406-2.062-13.406-2.062c-.515-.098-1.058.297-1.156.812-.098.516.266 1.058.781 1.156 0 0 6.195 1.243 13.531 2.094 5.282.613 11.083 1.034 15.75.625.26 1.823 1.972 13.406 4.438 19.531l.062.157c-7.24 4.564-14.271 9.482-21 14.75-8.385 6.564-15.968 14.092-23.312 21.719-5.592 5.806-10.811 11.957-15.781 18.28-5.381 6.848-10.774 13.812-15.25 21.376-2.743 4.635-5.224 9.417-7.531 14.28-10.902-13.984-21.312-30.03-21.312-30.03-.017-.044-.04-.084-.063-.125 1.613-3.912 3.33-7.786 5.188-11.562.221-.45.431-.896.656-1.344.283-.565.587-1.127.875-1.688 19.778-38.446 52.161-69.364 91.688-87.312a1 1 0 0 0 .375-.281 1 1 0 0 0 0-.031 191.263 191.263 0 0 1 17.781-6.969 1 1 0 0 0 .438-.031c16.996-5.666 35.042-9.007 53.78-9.688a1 1 0 0 0 .407-.125c2.198-.074 4.409-.125 6.625-.125zm192.75.875c.44-.008.866.164 1.156.469l1.75 1.844c.577.605.528 1.67-.25 2.406l-55.375 52.375a195.008 195.008 0 0 0-4.031-4.094l55.469-52.438c.385-.365.84-.554 1.28-.563zm-143.69 5.5a1 1 0 0 0 .125 0 190.13 190.13 0 0 1 7.78 2.219 1 1 0 0 0 .094.062c.062.074.108.166.188.219 0 0 1.553 1.148 3.594 2.844 1.024 2.613 2.843 7.399 3.344 10.219.342 1.928.639 3.888.875 5.844a294.374 294.374 0 0 0-24.032.125c-13.616.632-37.128 4.096-44.75 5.25a133.286 133.286 0 0 1 13.344-9.813c7.417-4.776 15.384-8.812 23.594-12.062 5.007-1.982 15.938-4.594 15.938-4.594l-.094-.312zm13.75 4.437c4.863 1.658 12.456 4.426 22.625 9.407 7.302 3.576 15.044 8.376 21.75 12.938-6.34-1.3-17.37-3.46-24.25-4.157-3.096-.313-6.209-.542-9.313-.75.084-.25.157-.503.188-.78.261-2.37-.7-4.802-2.125-7.095-1.427-2.292-3.382-4.496-5.344-6.437-1.275-1.26-2.377-2.146-3.531-3.125zm-90.531 2.407c1.443 1.514 9.53 10.055 18.468 20.312-9.15-1.076-18.221-3.716-27.624-4.72-7.045-.75-18.037-1.153-25.5-1.374 1.674-.94 2.915-2.36 4.093-3.656 1.305-1.436 2.515-2.714 4-3.313 2.717-1.095 5.773-1.078 9-.937 3.228.14 6.6.42 9.906-.344 1.677-.387 3.791-.731 5.344-2.219.996-.953 1.732-2.35 2.313-3.75zm91.843 1.375c.274.26.539.51.813.78 1.893 1.873 3.765 3.979 5.062 6.063s1.998 4.136 1.813 5.813a1.964 1.964 0 0 1-.281.844 274.967 274.967 0 0 0-4.438-.22c-.247-2.114-.57-4.209-.937-6.28-.355-2-1.195-4.644-2.031-7zm-134.38 14.625h.032s22.218.43 33.125 1.593c7.916.845 15.775 2.925 23.812 4.188-6.937 1.394-17.448 3.643-24 5.812-7.275 2.41-14.332 5.555-21.062 9.188a261.273 261.273 0 0 0-13.47 7.813c-2.186-5.585-3.918-16.774-4.218-18.781a17.373 17.373 0 0 0 2.812-.688c1.086-.368 1.753-1.315 2.032-2.25.278-.935.296-1.904.312-2.875.016-.971.033-1.92.156-2.688.09-.562.253-.992.47-1.312zm121.75.375c4.59-.049 9.193.046 13.781.218a79.5 79.5 0 0 1 .157 1.782 10.83 10.83 0 0 0-.719.437c-1.018.669-1.94 1.58-2.344 2.844-.794 2.488-1.047 5.448-.469 8.25.387 1.873 1.194 3.684 2.47 5.156a77.68 77.68 0 0 1-.5 2.219c-5.365-2.94-10.864-5.645-16.563-7.875-11.339-4.436-23.335-7.334-35.406-8.813-1.548-.19-3.089-.248-4.625-.25 10.601-1.467 24.731-3.234 33.812-3.656 3.468-.16 6.93-.275 10.406-.312zm15.812.28c.531.025 1.064.068 1.594.095-.307.146-.61.291-.937.437-.193.086-.396.194-.594.281-.023-.271-.037-.54-.062-.812zm5.032.282c3.479.219 6.943.494 10.406.844 9.418.953 27.78 4.898 28.688 5.094 2.252 1.6 4.338 3.146 6.156 4.53 16.764 12.77 31.328 28.982 43.03 46.407.028.04.068.084.095.125-.174 1-2.09 11.87-5.594 25.125-1.486 5.62-3.269 11.597-5.281 17.344-6.105-9.506-12.712-18.721-20.156-27.25-6.859-7.858-14.586-14.937-22.437-21.719-7.407-6.398-15.086-12.561-23.312-17.938a505.042 505.042 0 0 0-7.094-4.563c-.477-1.17-1.149-2.298-1.938-3.343-1.994-2.641-4.754-4.851-7.28-6.344a7.12 7.12 0 0 1-1.095-.813c.116-.595.24-1.187.344-1.78.747-4.294.867-8.677.625-13.032.419-.196.836-.395 1.281-.594 1.086-.483 2.182-.998 3.125-1.718a6.61 6.61 0 0 0 .438-.375zm-6.782 3.75c.165 3.921.006 7.82-.656 11.625-.003.02.004.043 0 .063a10.438 10.438 0 0 1-1.031-2.875c-.496-2.403-.284-5.09.406-7.25.193-.603.632-1.095 1.281-1.563zm-58.406 1.688c1.519-.007 3.018.037 4.5.218 11.917 1.46 23.77 4.319 34.939 8.688 5.762 2.255 11.33 4.99 16.78 8-1.707 6.339-4.298 12.467-8.124 17.594-6.527 8.744-15.045 16.379-24.563 22-.87-1.877-1.721-3.764-2.625-5.625.591.039 1.18.081 1.843.094 1.924.035 3.885-.054 5.532-.563.823-.254 1.574-.614 2.187-1.156a3.588 3.588 0 0 0 1.188-2.188c.408-3.008-.777-5.35-2.688-6.843s-4.434-2.26-6.969-2.688a36.743 36.743 0 0 0-8.25-.437c-.201-.365-.39-.73-.593-1.094.015-.18.019-.32.03-.594.072-1.633.079-3.562-1.093-4.906-1.047-1.202-2.341-2.122-3.781-2.813a246.835 246.835 0 0 0-6.438-10.094c-3.377-5.007-8.354-11.178-13.53-17.25 3.954.087 7.86-.326 11.655-.343zm-14.188.468c5.52 6.426 10.888 13.034 14.406 18.25a242.84 242.84 0 0 1 5.094 7.907 18.797 18.797 0 0 0-5.437-.47 19.059 19.059 0 0 0-4.344.75c-6.317 1.9-12.729 8.57-17.75 14.72-4.566 5.593-7.557 10.287-8.125 11.188-.56-.228-1.72-.73-3.813-1.281-2.54-.67-5.535-1.284-7.812-.22-2.52 1.18-3.87 3.683-4.75 6.188-.072-.031-.147-.061-.219-.093-3.007-1.341-5.87-3.036-8.594-4.97 3.178-5.628 6.547-11.144 10.25-16.405 8.013-11.385 17.04-22.14 27.031-31.812a137.637 137.637 0 0 1 4.063-3.75zm-3.5.438c-.664.618-1.317 1.245-1.968 1.875-10.093 9.771-19.173 20.648-27.25 32.125-3.703 5.261-7.083 10.725-10.25 16.312-3.548-2.706-6.848-5.796-9.813-9.094-4.718-5.248-8.413-11.519-11.219-18.062a254.15 254.15 0 0 1 13.625-7.906c6.64-3.584 13.601-6.664 20.75-9.031 7.037-2.33 19.518-4.915 26.125-6.219zm76.625 13.312c.178.123.342.263.532.375 2.278 1.345 4.815 3.408 6.594 5.719a237.013 237.013 0 0 0-7.532-4.406c.139-.565.28-1.123.407-1.688zm-.937 3.687a258.665 258.665 0 0 1 10.062 6.032c.398 1.238.485 2.479.156 3.656-.491 1.759-1.554 2.87-3.156 3.75-1.602.88-3.736 1.465-6.031 1.969-3.015.66-6.339 1.188-9.25 2.343 3.896-5.243 6.478-11.422 8.219-17.75zm139.38 2.75c.44-.008.866.165 1.156.47l1.75 1.812c.578.606.528 1.67-.25 2.406l-38.094 36.03a194.05 194.05 0 0 0-2.969-5.03l37.125-35.125c.386-.365.841-.555 1.282-.563zm-277.31 4.5c2.868 6.605 6.678 12.95 11.5 18.312 3.094 3.442 6.537 6.696 10.281 9.532-2.958 5.31-5.737 10.72-8.469 16.125-.377.746-.75 1.5-1.125 2.25-1.024.42-2.01.978-2.906 1.656-2.025 1.532-3.653 3.613-4.313 5.937-.326 1.149-.124 2.3.282 3.282.26.63.602 1.213.968 1.78-1.42 3.296-2.745 6.65-3.875 10.063-1.323 4-2.596 8.022-3.812 12.062-1.298.142-2.556.482-3.781 1.125-2.86 1.5-4.177 4.448-5.344 7.219-1.167 2.77-2.231 5.424-4.156 6.906-3.078 2.37-8.149 2.565-13.062 3.031-2.457.233-4.886.565-7 1.375s-3.963 2.171-5 4.406c-1.025 2.21-1.128 4.19-.625 5.875.502 1.685 1.544 3.042 2.687 4.25 2.287 2.417 4.848 4.37 5.313 6.781.44 2.282-.132 4.86-.375 7.563-.062.687-.309 1.474-.594 2.312-13.441-7.72-25.837-17.515-37.062-28.156-3.603-3.415-7.734-8.222-11.844-13.406a177.117 177.117 0 0 1 7.906-15c4.39-7.419 9.718-14.284 15.094-21.125 4.94-6.285 10.124-12.41 15.656-18.156 7.322-7.603 14.862-15.03 23.125-21.5a253.834 253.834 0 0 1 20.531-14.5zm150.34.25a551.211 551.211 0 0 1 5.281 3.407c8.118 5.305 15.724 11.416 23.094 17.78 7.822 6.757 15.458 13.755 22.22 21.5 7.694 8.817 14.55 18.412 20.843 28.313-2.77 7.55-5.958 14.524-9.469 19.375-17.466 24.135-44.41 41.81-72.063 53.219a128.444 128.444 0 0 1-5.125 1.968 451.138 451.138 0 0 0-6.03-35.53c-4.456-21.047-10.203-41.95-18.25-61.939a372.171 372.171 0 0 0-5.907-13.844c.934-.044 1.92-.029 2.937 0 2.578.074 5.372.17 7.72-1.406 3.31-2.224 4.821-5.89 6.218-9.437s2.695-7.012 5.125-9.219c2.786-2.53 7.766-3.313 12.469-4.344 2.351-.515 4.643-1.101 6.562-2.156 1.92-1.055 3.48-2.657 4.125-4.969a7.675 7.675 0 0 0 .25-2.719zm-70.469 2.782c2.407-.115 4.902.27 7.031 1.156 1.413 2.346 2.815 4.703 4.156 7.094-.096.917-.25 1.593-.25 1.593-.12.615.472 1.258 1.094 1.188 0 0 .317-.037.656-.063a293.213 293.213 0 0 1 4.875 9.344c-1.011-.146-1.906-.281-1.906-.281a1.036 1.036 0 0 0-1.156.688s-2.045 6.366-5.469 13.062c-.198.387-.417.768-.625 1.156-.48.92-.793 1.49-1.281 2.312-3.215 5.436-7.265 10.307-11.344 11.344-1.61.41-4.635-.94-7.094-2.625s-4.375-3.531-4.375-3.531c-.602-.603-1.857.07-1.687.906 0 0 .417 2.286.468 4.906.052 2.621-.43 5.512-1.437 6.532-.45.455-1.004.646-1.813.687-.808.042-1.815-.116-2.875-.281s-2.166-.342-3.28-.313c-1.116.03-2.29.304-3.22 1.125-1.533 1.353-2.655 3.325-3.218 5.438s-.555 4.406.5 6.281c.72 1.283 1.958 1.939 3.25 2.25 1.291.311 2.692.344 4.03.375s2.616.084 3.626.313c1.01.228 1.701.595 2.125 1.28 1.332 2.158 1.546 5 .969 7.907-.578 2.908-1.967 5.824-3.594 8-.78 1.042-2.101 1.556-3.75 2.031s-3.55.88-5.125 2.063c-3.004 2.253-4.6 5.597-6.906 7.78-5.838 5.528-13.791 9.101-19.5 15.47-1.485 1.656-2.194 3.763-2.97 5.594-.775 1.83-1.563 3.307-2.937 4.03-.905.478-2.374.086-4.094-.437-.86-.261-1.749-.52-2.687-.593-.939-.073-1.984.094-2.844.75-1.061.81-1.555 1.975-1.75 3.156-.195 1.18-.145 2.415-.094 3.594s.1 2.3-.03 3.218c-.132.918-.392 1.592-.938 2.063-1.224 1.055-3.04.96-5.282.656-2.241-.303-4.778-.852-6.812.156-1.467.728-2.282 2.503-3.063 3.844a7.028 7.028 0 0 1-.937 1c-.368.302-1.055.522-1.625.532-.705.011-1.429-.23-2.031-.594-.631-.382-1.05-1.073-1.531-1.594-.696-.751-1.417-1.622-2.25-2.375-1.411-1.109-2.282-1.403-3.563-1.688-1.71-.38-3.81-.089-5.25.032-1.023.085-1.956.11-2.687-.032-.732-.142-1.238-.391-1.657-.937-.344-.45-.471-.894-.468-1.5.003-.606.219-1.45.406-2.156.188-.714.507-1.387.719-2.094.312-1.04.713-2.058.812-3.156.225-2.501.893-5.245.344-8.094-.665-3.452-3.71-5.56-5.813-7.781-1.05-1.111-1.886-2.22-2.25-3.438-.363-1.218-.304-2.6.563-4.469.798-1.719 2.084-2.72 3.875-3.406 1.79-.686 4.06-.99 6.469-1.219 4.816-.457 10.263-.52 14.094-3.468 2.524-1.944 3.631-4.99 4.78-7.72 1.15-2.728 2.295-5.078 4.407-6.187.703-.369 1.456-.584 2.219-.75a9.23 9.23 0 0 1 2.156-.218c2.284.051 4.395.462 6.781 1 4.157.937 8.558 2.07 12.625.375 9.7-4.045 17.082-13.171 21.625-22.438 1.21-2.47 1.697-6.153 1.969-9.282a76.85 76.85 0 0 0 .281-5.687c.022-.459-.304-.922-.75-1.031-.446-.11-.963.146-1.156.562 0 0-.957 1.815-2.344 3.688-1.386 1.872-3.276 3.667-4.5 3.875-.758.128-1.814-.063-2.687-.5-.874-.438-1.522-1.099-1.75-1.75-.208-.594-.175-1.136.062-1.781.237-.646.702-1.361 1.25-2.125 1.096-1.529 2.574-3.167 3-5.282.276-1.367.07-2.68-.094-3.843s-.265-2.193-.03-3.063c.05-.192.1-.4.155-.594l.625-1.906c.818-2.273 1.961-4.365 3.72-5.187 1.27-.595 4.087-.285 6.468.343 2.381.629 4.344 1.47 4.344 1.47.432.17.975-.011 1.219-.407 0 0 3.476-5.619 8.406-11.656 4.93-6.038 11.415-12.44 16.812-14.062 1.182-.356 2.473-.562 3.812-.625zm14.906 10.875c1.861-.04 4.345.022 6.812.437 2.354.397 4.616 1.126 6.094 2.281 1.479 1.156 2.265 2.59 1.938 5-.054.4-.214.69-.531.97s-.828.52-1.47.718c-1.282.396-3.096.534-4.906.5a39.208 39.208 0 0 1-2.937-.188c-1.618-3.266-3.264-6.514-5-9.718zm26.156 6.562c-.33.818-.652 1.633-.969 2.438-1.382 3.51-2.807 6.722-5.5 8.53-1.685 1.133-3.971 1.137-6.531 1.063-.79-.022-1.617-.07-2.437-.062a86.708 86.708 0 0 0 15.438-11.97zm-24.938 4.656c.368.068 1.271.252 2.531.407a325.448 325.448 0 0 1 3.219 6.812 77.39 77.39 0 0 1-8.281 4c-.836.343-1.698.636-2.563.906 3.027-6.008 4.75-11.088 5.094-12.125zm139.06 3.75c6.8 10.924 17.982 32.985 22.5 49.625 5.345 19.684 7.57 39.59 7.406 55.406v.032c-.013.003-.012-.002-.031 0-.26.03-.95-.083-1.75-.282s-1.733-.459-2.656-.625c-.923-.166-1.865-.263-2.781.063-1.334.474-2.301 1.366-3.157 2.219-.855.852-1.616 1.682-2.437 2.156-.337.194-1.06.322-1.875.437-1.285-7.21-3.211-14.31-5.313-21.28-2.19-7.265-4.772-14.446-7.906-21.376a200.514 200.514 0 0 0-13.062-24.25c2.242-6.257 4.189-12.826 5.813-18.969a345.343 345.343 0 0 0 5.25-23.156zm-211.63.157c2.762 1.948 5.674 3.69 8.75 5.062.145.065.292.124.438.188-.085.299-.173.589-.25.875-.369 1.365-.197 2.66-.032 3.843s.307 2.254.125 3.157c-.274 1.358-1.488 2.902-2.656 4.53-.584.815-1.151 1.646-1.5 2.595-.349.948-.471 2.046-.094 3.125.463 1.32 1.565 2.266 2.781 2.875 1.217.609 2.604.908 3.907.687 2.416-.41 4.29-2.642 5.78-4.656.261-.352.21-.351.438-.688-.038.81-.007.819-.093 1.813-.264 3.034-.839 6.608-1.782 8.531-4.394 8.963-11.525 17.732-20.562 21.5-3.275 1.366-7.259.473-11.438-.469-2.17-.49-4.4-.98-6.593-1.062a465.856 465.856 0 0 1 3.593-11.375c.973-2.94 2.107-5.82 3.313-8.688.846 1.276 1.48 2.434 1.406 3.5-.11 1.604-1.424 3.154-2.937 4.844s-3.249 3.597-3.125 6.156c.058 1.205.492 2.452 1.187 3.532.695 1.079 1.68 2.014 3 2.312 2.52.569 4.652-.82 6.469-2.344 1.817-1.523 3.536-3.256 5.187-4.03.607-.286 1.693-.396 2.813-.595.56-.1 1.131-.25 1.687-.53.557-.282 1.099-.75 1.407-1.407.527-1.126.512-2.311.218-3.375s-.858-2.018-1.437-2.969c-1.158-1.902-2.424-3.75-2.625-5.312-.191-1.483.317-3.231.781-5.094s.888-3.91.031-5.906c-.896-2.09-2.871-4.209-5.437-4.25a9.069 9.069 0 0 0-1.406.093c.104-.207.207-.417.312-.625 2.693-5.326 5.448-10.628 8.344-15.844zm79.437 5.718a366.493 366.493 0 0 1 6.125 14.344c7.991 19.847 13.718 40.627 18.156 61.594 2.506 11.838 4.492 23.791 6.031 35.812-13.86 4.794-28.58 7.35-43.438 8.47-1.272-3.083-2.132-6.908-2.094-10.5.04-3.643 1.01-7.004 3.22-9.25 1.272-1.296 2.995-1.701 5.187-1.626s4.743.697 7.312 1.281c2.57.585 5.156 1.139 7.531 1.094s4.663-.814 6.094-2.906c.57-.832.62-1.823.407-2.688-.214-.864-.645-1.653-1.125-2.437-.962-1.568-2.146-3.138-2.5-4.313-.343-1.133-.116-2.957-.125-4.75-.005-.896-.08-1.791-.407-2.656a3.92 3.92 0 0 0-1.937-2.156c-.95-.464-1.99-.449-2.875-.187-.886.26-1.675.72-2.438 1.218-1.525.996-2.984 2.075-4.156 2.282-1.803.317-3.95-.183-6.187-.594s-4.626-.732-6.844.437c-2.566 1.353-4.512 4.53-6 7.344-1.268 2.396-1.833 3.937-2.063 4.531l-7.437-1.593c-.729-.167-1.447.732-1.125 1.406 0 0 2.373 5.054 4.437 10.406 1.032 2.676 1.98 5.426 2.531 7.594.276 1.083.463 2.048.5 2.718.028.503-.08.8-.093.875-.007-.008-.364.237-.969.407-.637.178-1.522.361-2.531.5-2.018.277-4.584.422-7.156.468-2.573.046-5.15-.01-7.157-.218-1.003-.105-1.875-.249-2.5-.407-.533-.134-.822-.297-.875-.312.009-.068-.113-.42-.093-.938.026-.69.148-1.661.375-2.78.453-2.24 1.267-5.087 2.125-7.876 1.715-5.578 3.656-10.906 3.656-10.906.278-.775-.77-1.622-1.469-1.187 0 0-.818.554-1.844 1.062s-2.304.882-2.75.813c-2.17-.338-4.451-2.291-5.437-4.375-1.042-2.203-.68-5.24.156-7.844.46-1.434 1.752-2.701 3.125-4.094s2.842-2.936 3.219-5.125c.32-1.865-.596-3.441-1.313-4.812s-1.217-2.503-.968-3.438c.28-1.053 1.191-1.868 2.437-2.75 1.246-.882 2.771-1.77 3.75-3.281 1.973-3.047 2.408-6.792 3.063-10.188.654-3.396 1.486-6.353 3.78-8.125.492-.38 1.456-.307 2.75-.125.648.091 1.337.196 2.063.156.727-.04 1.544-.274 2.188-.844 2.272-2.01 2.524-4.974 2.625-7.78.1-2.808.088-5.56 1.125-7.5 1.835-3.435 5.656-5.779 8.593-9.157 4.312-4.958 6.583-11.547 11.594-14.438.53-.305 1.122-.513 1.75-.656zm-7.281 2.844c-2.904 3.48-4.862 7.795-7.594 10.938-2.651 3.05-6.634 5.454-8.813 9.531-1.388 2.598-1.277 5.625-1.375 8.344-.097 2.72-.387 4.976-1.968 6.375-.228.202-.486.32-.938.344-.451.025-1.047-.066-1.687-.156-1.282-.18-2.898-.513-4.25.531-2.946 2.275-3.86 5.828-4.532 9.312-.671 3.485-1.155 6.99-2.78 9.5-.64.987-1.904 1.82-3.22 2.75-1.315.932-2.734 2.02-3.218 3.844-.491 1.848.398 3.485 1.125 4.875s1.292 2.59 1.125 3.563c-.25 1.447-1.342 2.697-2.688 4.062s-2.926 2.797-3.594 4.875c-.914 2.847-1.469 6.371-.062 9.344 1.268 2.681 3.9 4.997 6.937 5.469 1.327.206 2.582-.336 3.688-.875-.6 1.668-1.528 4.15-2.875 8.531-.868 2.823-1.679 5.734-2.156 8.094-.24 1.18-.404 2.216-.438 3.094-.033.878-.086 1.616.563 2.312.526.565 1.132.742 1.906.938.774.195 1.717.327 2.781.437 2.128.221 4.77.297 7.406.25 2.636-.047 5.272-.207 7.406-.5 1.068-.146 2.006-.314 2.782-.531.776-.218 1.386-.399 1.906-.938.655-.68.675-1.515.625-2.406-.05-.89-.269-1.938-.563-3.094-.588-2.312-1.577-5.097-2.625-7.812-1.74-4.512-3.084-7.425-3.687-8.75l6.312 1.375c.467.105.989-.177 1.157-.625 0 0 .892-2.41 2.312-5.094s3.478-5.599 5.188-6.5c1.543-.813 3.41-.645 5.562-.25s4.491 1.013 6.875.594c1.938-.341 3.499-1.644 4.906-2.563.704-.46 1.355-.837 1.907-1 .55-.162.969-.166 1.437.063.526.257.751.57.938 1.062s.277 1.209.28 2c.01 1.584-.32 3.492.22 5.282.534 1.77 1.813 3.355 2.687 4.78.437.713.782 1.371.906 1.876.125.504.092.777-.125 1.094-1.024 1.497-2.459 1.993-4.468 2.03-2.01.039-4.473-.48-7.032-1.062s-5.229-1.195-7.718-1.281c-2.49-.086-4.913.413-6.688 2.219-2.698 2.745-3.739 6.649-3.781 10.625-.04 3.672.77 7.432 2 10.625-9.022.598-18.067.713-27 .469-23.253-.635-46.873-4.41-68.812-12.22.303-.52.604-.916 1-1.093 1.534-.688 3.69-.344 6-.031 2.309.312 4.9.577 6.875-1.125 1.008-.87 1.423-2.088 1.594-3.282.17-1.193.113-2.42.062-3.593s-.083-2.273.063-3.157c.146-.883.43-1.502 1-1.937.396-.302.832-.362 1.468-.313.636.05 1.406.244 2.25.5 1.69.514 3.704 1.277 5.594.282 2.056-1.084 3.062-3.08 3.875-5 .814-1.92 1.49-3.832 2.594-5.063 5.33-5.946 13.234-9.5 19.406-15.344 2.673-2.53 4.237-5.763 6.719-7.625 1.104-.829 2.744-1.221 4.469-1.719 1.725-.497 3.616-1.139 4.843-2.78 1.817-2.43 3.263-5.572 3.907-8.813.643-3.241.47-6.609-1.22-9.344-.771-1.25-2.038-1.892-3.343-2.188-1.305-.295-2.696-.313-4.031-.343-1.335-.031-2.643-.076-3.625-.313-.982-.237-1.575-.58-1.969-1.281-.707-1.257-.81-3.031-.344-4.781s1.495-3.444 2.656-4.47c.483-.425 1.095-.602 1.938-.624.843-.022 1.84.146 2.906.312s2.176.338 3.281.282c1.106-.057 2.281-.396 3.157-1.282 1.89-1.913 2.055-5.166 2-7.968-.03-1.495-.161-1.817-.282-2.782.837.729 1.208 1.132 2.75 2.188 2.616 1.79 5.793 3.642 8.688 2.906 5.62-1.428 10.098-7.602 13.5-13.844a35.168 35.168 0 0 0 4.594-1.531c.459-.189.918-.396 1.375-.594zm-79.437 9.813c1.325.021 2.987 1.545 3.625 3.03.559 1.304.32 2.869-.125 4.657-.446 1.789-1.08 3.735-.813 5.813.301 2.332 1.816 4.302 2.906 6.093.546.896.983 1.725 1.188 2.47.205.743.212 1.347-.094 2-.101.216-.234.334-.5.468s-.68.26-1.156.344c-.953.169-2.17.214-3.312.75-2.172 1.02-3.904 2.895-5.594 4.312s-3.151 2.267-4.75 1.906c-.627-.141-1.252-.663-1.75-1.437s-.837-1.773-.875-2.563c-.077-1.58 1.098-3.017 2.594-4.687s3.295-3.5 3.468-6.031c.161-2.342-1.313-4.213-2.468-5.875-.563-.726-.998-1.438-1.282-2.063a5.82 5.82 0 0 1-.125-.281c-.296-.716-.367-1.304-.187-1.938.506-1.781 1.863-3.596 3.594-4.906.942-.7 1.831-1.385 2.906-1.75.87-.294 1.94-.325 2.75-.312zm-19.312 7.469c-1.912.211-3.443 1.683-4.5 3.375-1.208 1.933-1.942 4.288-2.063 6.28-.107 1.764.272 3.874 1.125 5.688.853 1.815 2.305 3.435 4.375 3.563 2.224.137 3.972-1.436 5.125-3.281 1.154-1.846 1.843-4.072 2-5.97.148-1.78-.156-3.949-.937-5.843s-2.167-3.64-4.281-3.813a4.412 4.412 0 0 0-.844 0zm.219 2c.156-.02.31-.013.468 0 1.075.088 1.96 1.026 2.594 2.562.634 1.536.898 3.529.781 4.938-.126 1.526-.77 3.544-1.718 5.062-.95 1.518-2.077 2.418-3.282 2.344-1.051-.065-2-.977-2.687-2.438s-1.02-3.36-.938-4.719c.097-1.587.75-3.71 1.75-5.312.876-1.401 1.933-2.305 3.032-2.438zm-103 3.78c1.34 2.07 10.847 16.616 21.312 29.939a227.764 227.764 0 0 0-5.125 12.03h-.032c-11.1 29.334-13.837 51.472-12.03 80.25.239 3.772.622 7.538 1.093 11.282-6.456-8.193-13.188-17.812-13.188-17.812a1.013 1.013 0 0 0-.375-.344 190.728 190.728 0 0 1-2.187-10.406 192.602 192.602 0 0 1-1.47-9.563 193.751 193.751 0 0 1-1.53-24.469c0-25.052 4.81-48.964 13.53-70.906zm329.06 12.75c4.517 7.29 8.594 14.88 12.125 22.689 3.09 6.832 5.642 13.928 7.812 21.125 2.086 6.919 3.985 13.894 5.25 20.969-.57.095-1.136.224-1.656.531-.635.375-1.14 1.258-1.031 2.125 1.21 9.733 4.144 16.991 3.03 25.125-.571 4.178-.906 9.722-2.062 14.219-.578 2.248-1.349 4.222-2.406 5.594-1.057 1.372-2.311 2.185-4.094 2.312-2.076.149-3.713-.472-5.125-1.531-1.41-1.059-2.567-2.592-3.468-4.156-1.36-2.36-1.309-5.202-1-8.344s.891-6.517.218-9.781c-.474-2.302-1.996-5.085-4.093-7.469-2.097-2.384-4.816-4.4-7.844-4.625-5.507-.41-8.15 3.495-8.875 4.75-.724.014-15.488.268-23.094.719-2.5.148-3.866 1.455-5.344 2.469s-3.185 1.922-6.969 1.937c-3.23.012-5.35-1.044-7.437-2.125s-4.228-2.25-7-1.781c-2.68.452-5.753 1.983-6.813 4.812-.62 1.657-.677 3.613-.25 5.438s1.353 3.561 2.906 4.594c1.913 1.27 4.066 1.556 6.22 1.312 2.152-.243 4.35-.998 6.5-1.812 4.3-1.628 8.501-3.484 11.624-2.907 2.75.509 4.949 2.634 6.25 5.313s1.621 5.867.813 8.156c-1.525 4.317-5.92 9.012-11.406 12.531-5.488 3.52-12.031 5.883-17.688 5.875-8.634-.012-14.53-2.541-19.22-6.344a496.459 496.459 0 0 0-.593-13.969 503.752 503.752 0 0 0-3.031-33.312c1.888-.679 3.769-1.39 5.625-2.156 27.902-11.512 55.17-29.356 72.938-53.906 3.462-4.784 6.523-11.3 9.187-18.375zm-306.38 18.939c3.941 4.928 7.876 9.466 11.406 12.812 11.404 10.81 24.044 20.752 37.78 28.594-.067.2-.123.39-.187.593-.276.883-.495 1.787-.5 2.72-.005.931.238 1.918.875 2.75.744.97 1.782 1.48 2.844 1.687 1.062.206 2.167.153 3.25.062 2.166-.181 4.295-.457 5.687.094 1.26.499 2.443 1.9 3.75 3.312.739.798 1.58 1.608 2.563 2.157-.095.727-.191 1.46-.281 2.187-.065.521-.127 1.041-.188 1.563-7.387.23-13.552 2.472-19.969 4.468-6.638 2.065-15.527 3.16-20.094 8.47-6.16 7.16-6.76 18.572-4.25 27.437 1.126 3.976 4.001 6.846 6.969 9.5s6.05 5.115 7.906 8.156c2.69 4.406 3.64 10.272 4.969 15.906 1.328 5.634 3.094 11.125 7.812 14.562 3.665 2.67 8.114 2.79 12.531 2.5 2.115-.138 4.247-.346 6.313-.468.108.695.2 1.4.312 2.093a425.066 425.066 0 0 0 2.813 15.562c-16.298-5.902-31.672-14.699-46.094-24.406-13.651-9.188-25.828-20.632-37.125-32.688-1.255-1.339-2.683-3.047-4.156-4.843-.66-4.783-1.196-9.573-1.5-14.375-1.794-28.591.884-50.282 11.906-79.406a225.73 225.73 0 0 1 4.656-11zm132.44 12.125c-.868.03-1.784.253-2.72.562-1.87.619-3.893 1.684-5.937 2.969-4.088 2.57-8.249 5.986-11 8.344-1.3 1.114-1.41 2.762-1.531 4.094-.121 1.332-.288 2.387-.812 2.906-.297.294-1.002.421-2 .5-1 .078-2.314.136-3.22 1.219-.974 1.164-.72 2.577-.593 3.656.127 1.078.126 1.799-.156 2.125-.452.523-1.233.837-2.313.969s-2.38.06-3.687.03-2.61-.041-3.781.282c-1.172.323-2.29 1.208-2.563 2.594-.513 2.605.915 5.042 3.094 6.687s5.16 2.64 8.25 2.594c3.763-.056 6.307-1.913 8.344-3.406 1.018-.747 1.92-1.399 2.78-1.781.861-.383 1.66-.52 2.657-.282.864.207 1.587.89 2.281 2 .694 1.11 1.274 2.594 1.906 4.032.633 1.437 1.279 2.836 2.25 3.906.972 1.07 2.506 1.754 4.157 1.312.993-.265 1.689-.976 2.28-1.75.593-.773 1.109-1.686 1.72-2.625 1.221-1.877 2.748-3.892 5.625-5.312.707-.35 1.28-.933 1.5-1.625.22-.692.134-1.387-.063-2.063-.394-1.351-1.265-2.734-2.25-4.218-1.969-2.97-4.334-6.367-4.437-8.563-.167-3.556.456-7.298 2.687-10.062.919-1.138 1.51-2.74 1.656-4.344.074-.802.025-1.596-.218-2.344-.244-.747-.709-1.465-1.47-1.875-.74-.4-1.57-.56-2.437-.53zm.03 2.03c.602-.022 1.083.06 1.438.25.242.131.403.327.532.72s.18.96.125 1.562c-.11 1.203-.657 2.584-1.22 3.281-2.664 3.303-3.305 7.558-3.124 11.406.156 3.326 2.828 6.665 4.75 9.563.96 1.449 1.74 2.795 2 3.687.13.447.144.746.093.907s-.125.268-.468.437c-3.308 1.633-5.151 4.055-6.438 6.031-.643.988-1.152 1.852-1.625 2.47-.472.616-.85.932-1.219 1.03-1.001.268-1.47.002-2.125-.718-.654-.721-1.289-1.973-1.906-3.375-.617-1.403-1.232-2.954-2.062-4.282-.83-1.328-1.946-2.496-3.531-2.875-1.44-.344-2.761-.103-3.907.407-1.145.51-2.142 1.256-3.156 2-2.027 1.486-4.047 2.953-7.187 3-2.63.039-5.252-.845-7.032-2.188-1.779-1.343-2.645-3.028-2.312-4.719.132-.673.377-.825 1.125-1.03.748-.207 1.909-.249 3.187-.22 1.279.03 2.677.1 4-.062 1.324-.162 2.642-.56 3.563-1.625.995-1.151.752-2.574.625-3.656-.127-1.082-.122-1.824.156-2.157.256-.306.866-.454 1.844-.53.978-.077 2.292-.083 3.281-1.063 1.207-1.195 1.255-2.81 1.375-4.125.12-1.316.295-2.28.844-2.75 2.72-2.33 6.822-5.72 10.75-8.188 1.964-1.234 3.884-2.247 5.5-2.781a7.745 7.745 0 0 1 2.125-.406zm209.91 28.376c.301.004.674.055 1.063.125.779.14 1.647.382 2.5.594.79.195 1.545.364 2.313.312a193.769 193.769 0 0 1-1.625 21.188c-.176.1-.32.255-.406.438 0 0-4.619 8.502-10.281 17.78.106-11.17-.188-22.42-1.782-33.53-.09-.629-.18-1.249-.28-1.875.858-.1 1.733-.26 2.53-.72 1.178-.678 2.06-1.623 2.875-2.437.816-.813 1.566-1.482 2.406-1.78.16-.057.388-.1.688-.095zm-10.5 5.281c.103.633.222 1.272.313 1.906.63 4.387 1.039 8.812 1.313 13.25-.758-4.664-1.991-9.374-2.656-14.719-.027-.21-.089-.048.093-.156.144-.085.502-.195.938-.281zm-218 2.5c-.345-.009-.702.003-1.062.031-.719.056-1.46.203-2.156.438-1.392.47-2.767 1.397-3 3-.243 1.675.854 3.06 2.125 3.969 1.272.909 2.791 1.48 4.188 1.593 1.2.098 2.548-.187 3.718-.78s2.249-1.564 2.407-3c.16-1.465-.714-2.691-1.75-3.532-1.037-.841-2.284-1.418-3.47-1.625a6.8 6.8 0 0 0-1-.094zm-.905 2.031a6.766 6.766 0 0 1 1.562.063c.781.136 1.826.59 2.563 1.187.736.598 1.088 1.23 1.03 1.75-.054.494-.525 1.023-1.343 1.438-.818.415-1.89.622-2.625.562-.93-.075-2.273-.542-3.219-1.218-.946-.677-1.404-1.428-1.312-2.063.081-.563.635-1.061 1.656-1.406a6.865 6.865 0 0 1 1.687-.313zm-38.844.438c22.254 7.962 46.187 11.795 69.719 12.438 9.246.252 18.637.153 28-.5 1.237 1.93 3.357 3.626 5.28 5.031.97.708 1.091.71 1.845 1.188-4.746.434-46.327 4.163-68.312.937-7.09-1.04-13.854-4.325-20.75-7.406-6.7-2.994-13.53-5.79-20.906-5.969.051-.438.102-.875.156-1.312.073-.593.142-1.19.219-1.782.212.021.43.041.656.032 1.153-.05 2.093-.436 2.781-1 .601-.493.99-1.083 1.313-1.657zm142.56 3.406a505.38 505.38 0 0 1 2.968 32.719c.234 4.02.397 8.034.532 12.062-3.783-3.638-6.79-8.162-9.844-12.75-.734-1.102-.722-2.804-.688-4.719.035-1.915.09-4.101-1.406-5.75-1.368-1.507-3.35-2.82-5.469-3.562-2.118-.742-4.466-.92-6.406.218-4.157 2.438-5.957 8.409-3.156 13.72 7.386 14 10.385 25.508 23.062 33.811 1.29.846 2.69 1.392 4.156 1.72a531.58 531.58 0 0 1-1.844 38.687c-.193 2.287-.458 4.86-.78 7.563a12.618 12.618 0 0 0-2.345 2.281c-12.397 3.715-25.05 6.396-37.78 7.812-22.217 2.472-44.993.896-67.22-3.312-.044-2.129.004-4.32 0-6.5-.01-5.274-.399-10.582-4-14.531-3.705-4.064-8.909-5.703-14.344-6.563-5.434-.859-11.178-.945-16.156-1.812-1.665-.29-3.382-.356-5.094-.313-1.478-9.87-2.547-19.797-2.968-29.75-.801-18.914-1.184-37.968.843-56.719 6.975.122 13.617 2.807 20.344 5.813 6.856 3.064 13.78 6.462 21.281 7.562 23.892 3.506 71.72-1.156 71.72-1.156.807-.118 1.072-1.419.374-1.844 0 0-1.99-1.114-4.187-2.718-1.446-1.056-2.944-2.363-4-3.594 14.463-1.16 28.813-3.717 42.406-8.375zm-149.91 4.344c-2.022 18.847-1.675 37.91-.875 56.78.422 9.976 1.495 19.89 2.968 29.75-2.068.137-4.131.37-6.125.5-4.29.282-8.19.104-11.25-2.124-4.082-2.974-5.727-7.909-7.03-13.438-1.304-5.53-2.205-11.581-5.188-16.47-2.111-3.458-5.373-6.023-8.282-8.624-2.908-2.602-5.425-5.212-6.375-8.563-2.362-8.34-1.689-19.168 3.813-25.562 3.776-4.389 12.289-5.697 19.188-7.843 6.395-1.99 12.259-4.136 19.156-4.407zm234.16 1.281c.306-.011.636.007.968.031 2.213.165 4.581 1.791 6.47 3.938 1.887 2.146 3.262 4.804 3.624 6.562.569 2.758.067 5.924-.25 9.156-.317 3.233-.428 6.594 1.281 9.563.988 1.715 2.28 3.459 4 4.75s3.902 2.12 6.47 1.937a7.153 7.153 0 0 0 3.624-1.28c-1.466 2.046-2.891 3.915-4.219 5.468-15.248 17.839-32.543 34.683-52.75 46.406-15.66 9.086-32.478 16.722-49.875 22.344 1.876-1.092 4.078-1.866 6.407-2.625 3.977-1.296 8.25-2.514 11.312-5.594 5.568-5.601 6.724-13.92 10.5-20 1.067-1.72 2.753-3.29 4.343-5 1.59-1.71 3.12-3.6 3.625-6.062.4-1.95.529-4.234.157-6.406s-1.282-4.288-3.094-5.594c-2.211-1.594-5.055-1.792-8.125-1.438-3.07.354-6.445 1.293-9.844 2.156-4.588 1.166-9.194 2.189-13.094 1.813.043-5.536-.02-11.061-.156-16.594 4.808 3.486 10.9 5.77 19.156 5.781 6.206.01 13.03-2.5 18.78-6.187 5.75-3.688 10.453-8.56 12.22-13.562 1.047-2.966.6-6.584-.907-9.688s-4.158-5.722-7.687-6.375c-4.105-.759-8.513 1.377-12.72 2.969-2.102.796-4.152 1.479-5.999 1.687-1.847.21-3.452-.033-4.906-1-.98-.65-1.72-1.913-2.063-3.375-.342-1.461-.259-3.058.188-4.25.66-1.762 3.126-3.167 5.281-3.53 2.09-.354 3.617.442 5.719 1.53 2.102 1.089 4.686 2.39 8.375 2.375 4.131-.015 6.456-1.157 8.094-2.28 1.637-1.124 2.47-2.015 4.343-2.126 7.682-.455 23.563-.75 23.563-.75.382-.003.752-.245.907-.594 0 0 1.691-3.985 6.28-4.156zm44.906 8.188c-2.366 14.705-6.377 28.86-11.875 42.25.603-6.333 1.553-17.081 1.875-25.312a409.375 409.375 0 0 0 10-16.938zm-11.938 3.562c.052 3.135.06 6.273.03 9.406-.01 1.021-.05 2.224-.093 3.406-.923 1.471-1.871 2.94-2.812 4.375.281-.777.534-1.569.75-2.406 1.232-4.793 1.542-10.407 2.093-14.438.016-.115.017-.229.032-.344zm-134.34 2.031c.803-.002 1.677.159 2.562.469 1.77.62 3.514 1.808 4.625 3.031.867.955.94 2.496.906 4.375s-.183 4.05 1.032 5.875c3.416 5.133 6.858 10.342 11.594 14.406.165 5.945.23 11.893.187 17.844-1.1-.277-2.131-.703-3.062-1.312-12.09-7.918-14.916-18.895-22.406-33.094-2.35-4.455-.73-9.224 2.406-11.062.62-.364 1.353-.53 2.156-.532zm-229.31 13.188c2.976 4.159 8.065 11.1 12.78 16.875.234 1.659.494 3.317.75 4.969 1.006 6.486 2.172 12.978 3.782 19.375.269 1.07.675 2.41 1.094 3.781a190.983 190.983 0 0 1-18.406-45zm363.41 1.594c-.64 11.809-2.188 26.969-2.188 26.969-.056.205-.045.427.031.625-15.608 34.742-41.23 64.011-73.188 84.125-1.42.894-2.836 1.767-4.28 2.625-.033.02-.062.043-.095.063l-.156.093c-1.427.844-2.893 1.661-4.344 2.469-1.503.837-3.003 1.64-4.53 2.438-1.29.673-2.601 1.324-3.907 1.968-.242.12-.476.257-.719.375-.239.116-.48.229-.719.344a191.14 191.14 0 0 1-3.968 1.875c-.085.039-.165.087-.25.125-.817.37-1.647.704-2.47 1.063-.612.266-1.227.552-1.843.812-.064.027-.123.067-.188.094-1.375.58-2.765 1.108-4.156 1.656-.23.091-.457.191-.687.281a189.68 189.68 0 0 1-3.688 1.406c-.397.146-.789.295-1.187.438-1.08.387-2.161.757-3.25 1.125-.01.003-.022-.003-.031 0-2.205.745-4.449 1.427-6.688 2.094.583-3.068 5.614-29.731 8.25-50.344 18.069-5.708 35.531-13.59 51.75-23 20.498-11.893 37.921-28.911 53.25-46.844 2.87-3.357 6.107-8.012 9.25-12.875zm-348.16 18.25c.733.849 1.455 1.66 2.125 2.375 11.355 12.118 23.637 23.658 37.469 32.969 14.835 9.986 30.74 19.078 47.688 25.062 1.73 8.43 3.715 16.81 6.03 25.094 2.13 7.613 6.855 20.432 8.407 24.594-39.425-15.125-72.601-42.837-94.594-78.219.098-.227.142-.484.062-.719 0 0-2.332-6.88-3.187-10.28-1.586-6.306-2.749-12.73-3.75-19.189-.087-.561-.165-1.125-.25-1.687zm262.16 11.219c1.923-.017 3.52.324 4.718 1.188 1.236.89 1.965 2.461 2.282 4.312.317 1.85.198 3.925-.157 5.656-.384 1.876-1.607 3.493-3.125 5.125s-3.294 3.24-4.562 5.281c-4.09 6.587-5.275 14.684-10.22 19.656-2.58 2.596-6.518 3.786-10.53 5.094-2.073.676-4.18 1.393-6.094 2.406.242-2.125.468-4.177.625-6.03a532.805 532.805 0 0 0 1.844-38.563c4.317.397 9.1-.757 13.625-1.906 3.418-.868 6.72-1.766 9.562-2.094.71-.082 1.39-.12 2.032-.125zm-176.47 29.125c1.54-.028 3.027.036 4.437.281 5.201.906 10.944 1.015 16.187 1.844 5.243.83 9.932 2.335 13.188 5.906 3.047 3.342 3.46 8.018 3.469 13.188.004 1.99-.057 4.046-.031 6.094a314.998 314.998 0 0 1-27.875-6.844c-2.044-.6-4.078-1.274-6.094-1.969a416.504 416.504 0 0 1-3-16.625c-.1-.622-.184-1.251-.281-1.875zm3.78 20.812c1.672.56 3.341 1.097 5.032 1.594a316.27 316.27 0 0 0 28.531 6.969c.129 2.567.445 5.116 1.312 7.5 1.743 4.787 5.5 8.272 7.22 12.406 1.177 2.83 1.156 7.38 1.468 11.438.156 2.028.413 3.954 1.031 5.562.619 1.608 1.737 2.96 3.47 3.406 3.917 1.01 5.323 3.906 6.718 6.97.687 1.509 1.338 3.033 2.312 4.312-14.688-1.834-28.878-5.3-42.344-10.25-.267-.711-6.544-17.422-8.968-26.094-2.198-7.86-4.11-15.813-5.782-23.812zm142.37 3.938c-2.782 21.344-8.208 49.666-8.343 50.375-1.533.436-3.046.85-4.594 1.25.064-.186.112-.37.156-.563.343-1.47.312-3.184.22-5-.186-3.631-.561-7.676.374-10.031 1.125-2.834 4.364-4.99 5.906-8.562 1.986-4.6 2.014-9.777 2.313-14.656.289-4.72.822-9.14 3.25-12.594l.719-.22zm-3.53 1.062c-1.785 3.552-2.192 7.605-2.438 11.625-.303 4.948-.388 9.875-2.156 13.969-1.216 2.816-4.495 4.992-5.938 8.625-1.261 3.179-.68 7.378-.5 10.906.09 1.764.097 3.353-.156 4.438-.253 1.084-.578 1.529-1.344 1.718-7.913 1.96-18.462 3.668-27.25 4.532-1.025.094-2.032.202-3.062.28-.113.01-.232.024-.344.032-.726.054-1.459.08-2.187.125-.828.048-1.678.1-2.438.125-9.032.294-17.649.232-28-.594-.501-.047-1-.074-1.5-.125-.125-.012-.25-.018-.375-.031-1.081-.214-1.771-.795-2.437-1.656-.77-.994-1.417-2.413-2.125-3.969-1.417-3.112-3.31-6.815-8.032-8.031-1.03-.266-1.641-.963-2.125-2.219-.483-1.256-.724-3.008-.875-4.969-.301-3.92-.175-8.577-1.625-12.062-1.945-4.678-5.665-8.164-7.187-12.344-.716-1.967-1.017-4.132-1.156-6.406 22.234 4.171 45.043 5.731 67.344 3.25 12.096-1.346 24.116-3.814 35.906-7.219zM103.81 10.884a1 1 0 0 0-.219.031 1 1 0 0 0-.718.688l-4.97 14.28-15.187-.03a1 1 0 0 0-.594 1.78l12.062 9.188-4.719 14.375a1 1 0 0 0 1.5 1.156l12.47-8.687 12.25 8.969a1 1 0 0 0 1.53-1.094l-4.343-14.5 12.28-8.875a1 1 0 0 0 .094-.063 1 1 0 0 0 .063-.03 1 1 0 0 0 .187-.126l11.312-9.125c1.598-1.291 1.995-3.653.719-5.219a1 1 0 0 0-.031 0l-.156-.187a3.497 3.497 0 0 0-2.5-1.25 3.903 3.903 0 0 0-2.688.875l-13.938 11.28a4.06 4.06 0 0 0-1.312 1.876l-7.47-.156-4.655-14.438a1 1 0 0 0-.97-.72zm30.562 3.281c.111-.013.231-.007.344 0 .432.026.832.21 1.094.531l.156.188c.531.652.423 1.705-.406 2.375l-11.031 8.906-5.157-.094c.056-.056.03-.136.094-.187l13.938-11.281c.315-.255.635-.398.969-.438zm-30.562.875 3.938 12.281a1 1 0 0 0 .937.688l12.906.281-10.469 7.531a1 1 0 0 0-.406 1.094l3.75 12.344-10.438-7.594a1 1 0 0 0-1.156 0l-10.594 7.313 4.03-12.22a1 1 0 0 0-.343-1.093L85.684 27.82l12.906.063a1 1 0 0 0 .969-.657l4.25-12.188zM127.53 47.415a1 1 0 0 0-.906.688l-5 14.311-15.156-.062a1 1 0 0 0-.594 1.813l12.062 9.156-4.719 14.406a1 1 0 0 0 1.5 1.125l12.47-8.656 12.25 8.968a1 1 0 0 0 1.53-1.125l-4.343-14.5 12.28-8.843a1 1 0 0 0-.562-1.813l-15.156-.344-4.656-14.406a1 1 0 0 0-1-.718zm0 4.156 3.969 12.281a1 1 0 0 0 .906.688l12.906.28-10.469 7.532a1 1 0 0 0-.375 1.094l3.719 12.312-10.406-7.594a1 1 0 0 0-1.156 0l-10.594 7.344 4.03-12.25a1 1 0 0 0-.343-1.094l-10.28-7.812 12.905.062a1 1 0 0 0 .969-.687l4.219-12.156zM154.75 85.29a1 1 0 0 0-.781.656l-5 14.313-15.188-.03a1 1 0 0 0-.594 1.78l12.094 9.156-4.75 14.406a1 1 0 0 0 1.531 1.125l12.47-8.625 12.218 8.938a1 1 0 0 0 1.563-1.094l-4.375-14.5 12.28-8.875a1 1 0 0 0-.562-1.812l-15.156-.344-4.656-14.406a1 1 0 0 0-1.094-.688zm.094 4.156 3.969 12.25a1 1 0 0 0 .937.688l12.875.281-10.438 7.531a1 1 0 0 0-.375 1.094l3.719 12.312-10.406-7.563a1 1 0 0 0-1.156-.03l-10.594 7.343 4-12.219a1 1 0 0 0-.344-1.125l-10.22-7.781 12.845.031a1 1 0 0 0 .969-.656l4.218-12.156zM176.28 124.92a1 1 0 0 0-.906.688l-5 14.311-15.156-.062a1 1 0 0 0-.594 1.813l12.062 9.156-4.719 14.406a1 1 0 0 0 1.5 1.125l12.47-8.656 12.25 8.968a1 1 0 0 0 1.53-1.125l-4.343-14.5 12.28-8.844a1 1 0 0 0-.562-1.812l-15.156-.344-4.656-14.406a1 1 0 0 0-1-.719zm0 4.156 3.969 12.281a1 1 0 0 0 .906.688l12.906.281-10.469 7.531a1 1 0 0 0-.375 1.094l3.719 12.312-10.406-7.594a1 1 0 0 0-1.156 0l-10.594 7.344 4.03-12.25a1 1 0 0 0-.343-1.094l-10.28-7.812 12.905.062a1 1 0 0 0 .969-.687l4.219-12.156zM195.22 176.17a1 1 0 0 0-.906.688l-5 14.311-15.156-.062a1 1 0 0 0-.625 1.813l12.094 9.156-4.75 14.406a1 1 0 0 0 1.53 1.125l12.47-8.625 12.25 8.937a1 1 0 0 0 1.531-1.125l-4.375-14.469 12.312-8.875a1 1 0 0 0-.562-1.812l-15.188-.344-4.625-14.406a1 1 0 0 0-1-.719zm0 4.156 3.938 12.281a1 1 0 0 0 .937.688l12.875.281-10.438 7.531a1 1 0 0 0-.375 1.094l3.719 12.344-10.406-7.625a1 1 0 0 0-1.156 0l-10.594 7.344 4.03-12.25a1 1 0 0 0-.343-1.094l-10.281-7.813 12.906.063a1 1 0 0 0 .938-.688l4.25-12.156zM204.59 229.04a1 1 0 0 0-.813.656l-4.968 14.312-15.188-.031a1 1 0 0 0-.625 1.781l12.094 9.156-4.75 14.406a1 1 0 0 0 1.53 1.125l12.47-8.625 12.25 8.938a1 1 0 0 0 1.531-1.094l-4.375-14.5 12.312-8.875a1 1 0 0 0-.562-1.812l-15.188-.344-4.625-14.406a1 1 0 0 0-1.094-.688zm.094 4.125 3.937 12.281a1 1 0 0 0 .938.688l12.875.28-10.437 7.532a1 1 0 0 0-.375 1.094l3.75 12.344-10.438-7.594a1 1 0 0 0-1.156-.031l-10.594 7.344 4.03-12.22a1 1 0 0 0-.343-1.124l-10.25-7.782 12.875.032a1 1 0 0 0 .937-.657l4.25-12.188zM146.34 49.924a4.332 4.332 0 0 0-.634 6.098 4.372 4.372 0 0 0 6.122.636l5.492-4.44a4.332 4.332 0 0 0 .634-6.098 4.372 4.372 0 0 0-6.122-.636l-5.492 4.44zm1.263 1.55 5.492-4.44a2.324 2.324 0 0 1 3.304.343 2.302 2.302 0 0 1-.342 3.29l-5.492 4.441c-1.026.83-2.47.68-3.304-.343s-.683-2.461.342-3.29zM171.07 82.694a4.332 4.332 0 0 0-.634 6.098 4.372 4.372 0 0 0 6.122.637l2.503-2.024a4.332 4.332 0 0 0 .634-6.098 4.372 4.372 0 0 0-6.122-.637l-2.503 2.024zm1.263 1.55 2.503-2.023c1.026-.83 2.47-.68 3.304.343s.683 2.461-.342 3.29l-2.503 2.024c-1.026.83-2.47.68-3.304-.343s-.683-2.461.342-3.29zM195.71 126.43c-1.86 1.504-2.17 4.263-.658 6.118 1.511 1.854 4.305 2.145 6.166.64l2.503-2.023c1.86-1.504 2.125-4.268.614-6.122a4.372 4.372 0 0 0-6.122-.637l-2.503 2.024zm1.263 1.55 2.503-2.023c1.026-.83 2.47-.68 3.304.343s.703 2.485-.323 3.315l-2.503 2.023a2.377 2.377 0 0 1-3.347-.348c-.833-1.022-.66-2.48.366-3.31zM213.38 173.74c-1.86 1.504-2.15 4.287-.638 6.142s4.285 2.12 6.146.617l2.503-2.024c1.86-1.504 2.145-4.243.634-6.098s-4.282-2.165-6.142-.66l-2.503 2.023zm1.263 1.55 2.503-2.023c1.026-.83 2.49-.655 3.323.367s.684 2.461-.342 3.29l-2.503 2.024c-1.026.83-2.494.7-3.327-.323a2.355 2.355 0 0 1 .346-3.335zM223.92 232.13c-1.86 1.504-2.15 4.287-.638 6.142s4.285 2.12 6.146.617l2.503-2.024a4.332 4.332 0 0 0 .634-6.098c-1.512-1.855-4.282-2.165-6.142-.66l-2.503 2.023zm1.263 1.55 2.503-2.023c1.026-.83 2.49-.655 3.323.367a2.302 2.302 0 0 1-.342 3.29l-2.503 2.024c-1.026.83-2.494.7-3.327-.323s-.68-2.505.346-3.335zM201.03 306.1c-1.658.087-3.065 1.378-3.375 3.125l-4.75 26.75c-.299 1.681.502 3.342 1.938 4.031-.084-.04.088.037.125.063s-.042-.002.125.062v-.031c.503.242 1.08.438 1.718.438h5.531l-1.437 8.062a1 1 0 0 0-.031 0c-.278 1.562.399 3.105 1.656 3.875v.031c.016.011.046-.01.063 0 .63.412 1.38.657 2.187.656l14.594-.03c2.011-.004 3.76-1.504 3.75-3.47V348.6c-.01-1.969-1.78-3.44-3.781-3.438h-9.688l.813-4.656h3.094c2.01-.003 3.76-1.503 3.75-3.469v-1.062c-.01-1.969-1.767-3.471-3.782-3.469h-1.625l1.625-9.25c.35-1.966-.837-3.963-2.75-4.312h-.03l-1.032-.188a1 1 0 0 0-.031 0c-1.928-.335-3.711 1.115-4.063 3.094l-1.875 10.688h-2.062l3.875-21.906c.348-1.961-.845-3.925-2.75-4.281h-.031l-1-.188a1 1 0 0 0-.032-.031 3.187 3.187 0 0 0-.718-.031zm.125 2c.086-.005.182.014.281.031v-.031l1 .188a1 1 0 0 0 .031.03c.762.133 1.28.895 1.094 1.938l-4.094 23.094a1 1 0 0 0 1 1.188h4.125a1 1 0 0 0 1-.813l2.032-11.5c.182-1.026.965-1.58 1.718-1.469h.032l1.03.188a1 1 0 0 0 .032 0c.761.132 1.28.894 1.094 1.937l-1.844 10.438a1 1 0 0 0 1 1.188h2.844c1.052-.001 1.777.706 1.781 1.469v1.062c.004.765-.695 1.468-1.75 1.469h-3.937a1 1 0 0 0-1 .813l-1.188 6.656a1 1 0 0 0 1 1.187h10.906c1.066 0 1.778.676 1.781 1.438v1.062c.004.765-.695 1.468-1.75 1.469l-14.594.031c-.437 0-.83-.144-1.125-.344a1 1 0 0 0-.062-.03c-.511-.295-.867-.982-.719-1.813h-.031l1.656-9.25a1 1 0 0 0-.969-1.188h-6.718c-.335 0-.613-.067-.907-.219a1 1 0 0 0-.125-.062c.223.086.212.069-.062-.063-.567-.271-.968-.97-.813-1.843l4.75-26.75c.16-.895.85-1.466 1.5-1.5zM-446.92 526.98a1 1 0 0 0-.781.656l-5 14.312-15.188-.03a1 1 0 0 0-.594 1.78l12.094 9.156-4.75 14.406a1 1 0 0 0 1.531 1.125l12.47-8.625 12.218 8.938a1 1 0 0 0 1.563-1.094l-4.375-14.5 12.28-8.875a1 1 0 0 0-.562-1.812l-15.156-.344-4.656-14.406a1 1 0 0 0-1.094-.688zm.094 4.156 3.969 12.25a1 1 0 0 0 .937.688l12.875.281-10.438 7.531a1 1 0 0 0-.375 1.094l3.719 12.312-10.406-7.563a1 1 0 0 0-1.156-.03l-10.594 7.343 4-12.219a1 1 0 0 0-.344-1.125l-10.22-7.781 12.845.031a1 1 0 0 0 .969-.656l4.218-12.156zM-413.71 556.78a1 1 0 0 0-.781.656l-5 14.312-15.188-.031a1 1 0 0 0-.594 1.781l12.094 9.156-4.75 14.406a1 1 0 0 0 1.531 1.125l12.47-8.625 12.218 8.938a1 1 0 0 0 1.563-1.094l-4.375-14.5 12.28-8.875a1 1 0 0 0-.562-1.812l-15.156-.344-4.656-14.406a1 1 0 0 0-1.094-.688zm.094 4.156 3.969 12.25a1 1 0 0 0 .937.688l12.875.28-10.438 7.532a1 1 0 0 0-.375 1.094l3.719 12.312-10.406-7.563a1 1 0 0 0-1.156-.03l-10.594 7.343 4-12.219a1 1 0 0 0-.344-1.125l-10.22-7.781 12.845.031a1 1 0 0 0 .969-.656l4.218-12.156zM-376.97 583.93a1 1 0 0 0-.781.656l-5 14.312-15.188-.031a1 1 0 0 0-.594 1.781l12.094 9.156-4.75 14.406a1 1 0 0 0 1.531 1.125l12.47-8.625 12.218 8.938a1 1 0 0 0 1.563-1.094l-4.375-14.5 12.28-8.875a1 1 0 0 0-.562-1.812l-15.156-.344-4.656-14.406a1 1 0 0 0-1.094-.688zm.094 4.156 3.968 12.25a1 1 0 0 0 .938.688l12.875.28-10.438 7.532a1 1 0 0 0-.375 1.094l3.719 12.312-10.406-7.563a1 1 0 0 0-1.156-.03l-10.594 7.343 4-12.219a1 1 0 0 0-.344-1.125l-10.22-7.781 12.845.031a1 1 0 0 0 .969-.656l4.218-12.156zM-337.32 607.41a1 1 0 0 0-.781.656l-5 14.312-15.188-.031a1 1 0 0 0-.594 1.781l12.094 9.156-4.75 14.406a1 1 0 0 0 1.531 1.125l12.47-8.625 12.218 8.938a1 1 0 0 0 1.563-1.094l-4.375-14.5 12.28-8.875a1 1 0 0 0-.562-1.812l-15.156-.344-4.656-14.406a1 1 0 0 0-1.094-.688zm.094 4.156 3.969 12.25a1 1 0 0 0 .937.688l12.875.28-10.438 7.532a1 1 0 0 0-.375 1.094l3.719 12.312-10.406-7.563a1 1 0 0 0-1.156-.03l-10.594 7.343 4-12.219a1 1 0 0 0-.344-1.125l-10.22-7.781 12.845.031a1 1 0 0 0 .969-.656l4.218-12.156zM-289.34 626.98a1 1 0 0 0-.781.656l-5 14.312-15.188-.03a1 1 0 0 0-.594 1.78l12.094 9.156-4.75 14.406a1 1 0 0 0 1.531 1.125l12.47-8.625 12.218 8.938a1 1 0 0 0 1.563-1.094l-4.375-14.5 12.28-8.875a1 1 0 0 0-.562-1.812l-15.156-.344-4.656-14.406a1 1 0 0 0-1.094-.688zm.094 4.156 3.969 12.25a1 1 0 0 0 .937.688l12.875.281-10.438 7.531a1 1 0 0 0-.375 1.094l3.719 12.312-10.406-7.563a1 1 0 0 0-1.156-.03l-10.594 7.343 4-12.219a1 1 0 0 0-.344-1.125l-10.22-7.781 12.845.031a1 1 0 0 0 .969-.656l4.218-12.156zM-232.14 640.75a1 1 0 0 0-.781.656l-5 14.312-15.188-.03a1 1 0 0 0-.594 1.78l12.094 9.156-4.75 14.406a1 1 0 0 0 1.531 1.125l12.47-8.625 12.218 8.938a1 1 0 0 0 1.563-1.094l-4.375-14.5 12.28-8.875a1 1 0 0 0-.562-1.812l-15.156-.344-4.656-14.406a1 1 0 0 0-1.094-.688zm.094 4.156 3.969 12.25a1 1 0 0 0 .937.688l12.875.28-10.438 7.532a1 1 0 0 0-.375 1.094l3.719 12.312-10.406-7.563a1 1 0 0 0-1.156-.03l-10.594 7.343 4-12.219a1 1 0 0 0-.344-1.125l-10.22-7.781 12.845.031a1 1 0 0 0 .969-.656l4.218-12.156zM-421.79 525.74c-1.938 1.833-2.017 4.904-.177 6.835s4.923 2.01 6.86.178l91.183-86.232c1.937-1.833 2.017-4.904.177-6.835s-4.923-2.01-6.861-.178l-91.182 86.232zm1.38 1.448 91.182-86.232c1.158-1.095 2.928-1.05 4.028.104s1.053 2.918-.104 4.013l-91.182 86.232c-1.158 1.095-2.929 1.049-4.028-.105s-1.054-2.917.104-4.012zM-393.78 554.27c-1.938 1.833-1.996 4.927-.156 6.857a4.877 4.877 0 0 0 6.861.178l116.34-110.02c1.938-1.832 2.018-4.904.178-6.834s-4.945-2.033-6.883-.201l-116.34 110.02zm1.38 1.448 116.34-110.02c1.158-1.095 2.95-1.026 4.05.127s1.053 2.918-.105 4.012l-116.34 110.02c-1.157 1.095-2.928 1.05-4.028-.104s-1.075-2.94.083-4.035z" style="block-progression:tb;color:#000;text-transform:none;text-indent:0" transform="translate(659.37 186.3)"/><path d="M-358.93 578.51c-1.938 1.833-2.017 4.904-.177 6.835s4.923 2.01 6.86.178l134.1-126.81c1.938-1.833 2.018-4.904.178-6.835s-4.923-2.01-6.861-.178l-134.09 126.81zm1.38 1.448 134.09-126.81a2.828 2.828 0 0 1 4.028.104 2.802 2.802 0 0 1-.104 4.013l-134.09 126.81a2.828 2.828 0 0 1-4.028-.105 2.802 2.802 0 0 1 .104-4.012zM-318.27 604.01c-1.938 1.833-2.017 4.904-.177 6.835s4.945 2.033 6.882.2l109.85-103.88c1.938-1.832 1.996-4.926.156-6.857a4.877 4.877 0 0 0-6.861-.178l-109.85 103.88zm1.38 1.448 109.85-103.88a2.828 2.828 0 0 1 4.028.104c1.1 1.154 1.075 2.94-.083 4.035l-109.85 103.88c-1.158 1.095-2.95 1.027-4.05-.127s-1.053-2.917.105-4.012zM-271.05 624.48c-1.938 1.833-2.017 4.904-.177 6.835s4.923 2.01 6.86.178l90.775-85.846c1.937-1.833 2.017-4.904.177-6.835s-4.923-2.01-6.861-.178l-90.774 85.846zm1.38 1.448 90.774-85.846c1.158-1.095 2.928-1.05 4.028.104s1.053 2.918-.104 4.013l-90.774 85.846c-1.158 1.095-2.929 1.049-4.028-.105s-1.054-2.917.104-4.012zM-212.46 639.39c-1.938 1.833-2.017 4.904-.177 6.835s4.923 2.01 6.86.178l70-66.2c1.937-1.832 2.017-4.903.177-6.834s-4.923-2.01-6.861-.178l-69.999 66.199zm1.38 1.448 69.999-66.2c1.158-1.094 2.928-1.048 4.028.105s1.053 2.918-.104 4.013l-70 66.199a2.828 2.828 0 0 1-4.027-.105 2.802 2.802 0 0 1 .104-4.012zM-265.24 685.61c-1.938 1.833-2.017 4.904-.177 6.835s4.923 2.01 6.86.178l2.18-2.062c1.938-1.832 2.018-4.904.178-6.834s-4.924-2.01-6.861-.178l-2.18 2.061zm1.38 1.448 2.18-2.061c1.157-1.095 2.928-1.05 4.028.104s1.053 2.918-.105 4.013l-2.18 2.06a2.828 2.828 0 0 1-4.027-.104 2.802 2.802 0 0 1 .104-4.012zM-322.82 670.94c-1.938 1.833-2.017 4.904-.177 6.835s4.923 2.01 6.86.178l2.158-2.04c1.937-1.833 2.017-4.904.177-6.835s-4.923-2.01-6.861-.178l-2.157 2.04zm1.38 1.448 2.157-2.04c1.158-1.095 2.928-1.049 4.028.104s1.053 2.918-.104 4.013l-2.157 2.04a2.828 2.828 0 0 1-4.028-.105 2.802 2.802 0 0 1 .104-4.012zM-369.53 651.5c-1.938 1.833-2.017 4.904-.177 6.835s4.923 2.01 6.86.178l2.158-2.04c1.937-1.833 2.017-4.904.177-6.835s-4.923-2.01-6.861-.178l-2.157 2.04zm1.38 1.448 2.157-2.04c1.158-1.095 2.928-1.049 4.028.104s1.053 2.918-.104 4.013l-2.157 2.04c-1.158 1.095-2.929 1.049-4.028-.105s-1.054-2.917.104-4.012zM-410.94 624.73c-1.938 1.833-2.017 4.904-.177 6.835s4.923 2.01 6.86.178l2.158-2.04c1.937-1.833 2.017-4.904.177-6.835s-4.923-2.01-6.861-.178l-2.157 2.04zm1.38 1.448 2.157-2.04c1.158-1.095 2.928-1.049 4.028.104s1.053 2.918-.104 4.013l-2.157 2.04c-1.158 1.095-2.929 1.049-4.028-.105s-1.054-2.917.104-4.012zM-444.29 599.75c-1.938 1.833-2.017 4.904-.177 6.835s4.923 2.01 6.86.178l2.18-2.062c1.938-1.832 2.018-4.904.178-6.834s-4.924-2.01-6.861-.178l-2.18 2.061zm1.38 1.448 2.18-2.061a2.828 2.828 0 0 1 4.028.104 2.802 2.802 0 0 1-.105 4.013l-2.18 2.06c-1.157 1.096-2.928 1.05-4.027-.104s-1.054-2.917.104-4.012zM-473.07 573.72c-1.938 1.833-2.017 4.904-.177 6.835s4.923 2.01 6.86.178l2.158-2.04c1.937-1.833 2.017-4.904.177-6.835s-4.923-2.01-6.861-.178l-2.157 2.04zm1.38 1.448 2.157-2.04c1.158-1.095 2.928-1.049 4.028.104s1.053 2.918-.104 4.013l-2.157 2.04a2.828 2.828 0 0 1-4.028-.105 2.802 2.802 0 0 1 .104-4.012z" style="block-progression:tb;color:#000;text-transform:none;text-indent:0" transform="translate(659.37 186.3)"/><path fill-opacity=".314" d="M829.754 597.243c0 107.123-87.157 193.968-194.672 193.968S440.41 704.37 440.41 597.243c0-107.122 87.157-193.967 194.672-193.967s194.672 86.84 194.672 193.967z"/><path fill-opacity=".314" d="M738.005 248.795c3.697-1.366 6.567 2.665 5.556 5.808l-169.2 159.86-17.173 6.566zM761.12 279.175c3.697-1.366 6.567 2.664 5.556 5.808l-126.27 119.45h-11.617zM783.61 317.12c3.697-1.366 6.567 2.664 5.556 5.808l-95.712 89.904-8.586-2.272zM806.97 358.41c3.697-1.366 6.567 2.664 5.556 5.808l-73.994 69.448-7.071-3.788zM826.92 405.51c3.697-1.366 6.567 2.664 5.556 5.808l-56.821 53.538-5.303-5.555zM838.66 460.68c3.697-1.366 6.567 2.664 5.556 5.808l-39.65 37.376-3.787-6.818zM742.664 212.048l15.357.179 5.536-14.643 4.821 14.82 15.18.358-12.323 9.285 4.286 14.464-12.68-8.571-12.678 8.75 4.643-14.821zM765.79 249.766l15.357.179 5.536-14.643 4.821 14.82 15.18.358-12.323 9.285 4.286 14.464-12.68-8.571-12.678 8.75 4.643-14.821zM793.82 286.89l15.357.179 5.536-14.643 4.821 14.82 15.18.358-12.323 9.285 4.286 14.464-12.68-8.571-12.678 8.75 4.643-14.821zM815.04 327.3l15.357.179 5.536-14.643 4.821 14.82 15.18.358-12.323 9.285 4.286 14.464-12.68-8.571-12.678 8.75 4.643-14.821zM833.98 378.06l15.357.179 5.536-14.643 4.821 14.82 15.18.358-12.323 9.285 4.286 14.464-12.68-8.571-12.678 8.75 4.643-14.821zM843.57 430.33l15.357.179 5.536-14.643 4.821 14.82 15.18.358-12.323 9.285 4.286 14.464-12.68-8.571-12.678 8.75 4.643-14.821zM192.28 728.33l15.357.179 5.536-14.643 4.821 14.82 15.18.358-12.323 9.285 4.286 14.464-12.68-8.571-12.678 8.75 4.643-14.821zM225.87 758.63l15.357.179 5.536-14.643 4.821 14.82 15.18.358-12.323 9.285 4.286 14.464-12.68-8.571-12.678 8.75 4.643-14.821zM262.23 785.4l15.357.179 5.536-14.643 4.821 14.82 15.18.358-12.323 9.285 4.286 14.464-12.68-8.571-12.678 8.75 4.643-14.821zM301.88 809.64l15.357.179 5.536-14.643 4.821 14.82 15.18.358-12.323 9.285 4.286 14.464-12.68-8.571-12.678 8.75 4.643-14.821zM349.86 828.58l15.357.179 5.536-14.643 4.821 14.82 15.18.358-12.323 9.285 4.286 14.464-12.68-8.571-12.678 8.75 4.643-14.821zM406.68 843.23l15.357.179 5.536-14.643 4.821 14.82 15.18.358-12.323 9.285 4.286 14.464-12.68-8.571-12.678 8.75 4.643-14.821zM330.2 625.61c3.697-1.366 6.567 2.664 5.556 5.808l-92.05 86.873c-6.69 3.144-7.342-3.416-5.556-5.682zM383.2 630.6c3.697-1.366 6.567 2.664 5.556 5.808l-117.18 110.74c-6.69 3.144-7.342-3.416-5.556-5.682zM435.47 638c3.697-1.366 6.567 2.664 5.556 5.808l-134.73 127.58c-6.69 3.144-7.342-3.416-5.556-5.682zM452.7 686.03c3.697-1.366 6.567 2.664 5.556 5.808l-111.24 104.8c-6.69 3.144-7.342-3.416-5.556-5.682zM480.8 724.42c3.697-1.366 6.567 2.665 5.556 5.808l-92.05 86.873c-6.69 3.144-7.342-3.416-5.556-5.682zM518.68 759.27c3.697-1.366 6.567 2.664 5.556 5.808l-71.09 66.923c-6.689 3.144-7.34-3.416-5.555-5.682zM397.99 869.84c3.76-1.682 6.693 2.98 5.303 5.24l-3.463 3.416c-5.616 2.954-7.152-3.48-5.366-5.745zM340.09 855.21c3.76-1.681 6.693 2.98 5.303 5.24l-3.463 3.416c-5.616 2.954-7.152-3.48-5.366-5.745zM293.31 835.93c3.76-1.681 6.693 2.98 5.303 5.24l-3.463 3.416c-5.616 2.954-7.152-3.48-5.366-5.745zM252.23 808.78c3.76-1.681 6.693 2.98 5.303 5.24l-3.463 3.416c-5.616 2.954-7.152-3.48-5.366-5.745zM219.02 784.14c3.76-1.681 6.693 2.98 5.303 5.24l-3.463 3.416c-5.616 2.954-7.152-3.48-5.366-5.745zM190.09 757.71c3.76-1.681 6.693 2.98 5.303 5.24l-3.463 3.416c-5.616 2.954-7.152-3.48-5.366-5.745zM886.52 416.28c3.76-1.681 6.693 2.98 5.303 5.24l-3.463 3.416c-5.616 2.954-7.152-3.48-5.366-5.745zM875.81 358.07c3.76-1.681 6.693 2.98 5.303 5.24l-3.463 3.416c-5.616 2.954-7.152-3.48-5.366-5.745zM858.31 310.57c3.76-1.681 6.693 2.98 5.303 5.24l-3.463 3.416c-5.616 2.954-7.152-3.48-5.366-5.745zM834.02 266.642c3.76-1.681 6.693 2.98 5.303 5.24l-3.463 3.416c-5.616 2.954-7.152-3.48-5.366-5.745zM811.88 231.999c3.76-1.681 6.693 2.98 5.303 5.24l-6.32 5.202c-5.616 2.954-7.152-3.48-5.366-5.745z"/><path fill-opacity=".314" d="M792.06 200.124c3.76-1.681 5.265 1.73 3.875 3.99l-11.677 9.399c-4.992-.172-9.117.716-6.26-2.085zM500.89 190.353l7.77-.253 10.714-37.143c-17.81-2.48-34.308-4.889-48.306-3.193-42.112 5.1-65.656 29.05-66.736 53.324-.52 11.667.861 27.409 8.716 40.019 7.636 12.259 21.473 21.559 39.898 21.28 14.282.462 27.788-2.183 41.43-4.286l10-30-6.43-3.572c-7.61 15.866-21.01 27.532-42.69 28.658-31.781-2.88-28.93-29.449-29.156-42.944-.26-15.462 8.098-37.07 28.276-47.143 7.365-2.675 10.617-6.265 29.286-6.428 7.673 1.567 12.506 3.285 13.406 10.628 2.199 6.826 3.05 15.07 3.824 21.053zM535.97 134.395l.416-2.064 35.697.044-1.768 9.344-5.14.058c-.932-4.769-3.138-5.99-5.72-5.614h-8.585l-3.03 14.142h5.302c3.333.224 4.166-2.175 5.273-4.13l3.819-.163-2.452 12.405h-4.114c.15-2.077-.535-3.69-2.526-4.577h-6.06l-3.64 16.088 10.458-.178c4.72-1.715 5.179-4.74 7.072-7.324l5.05.105-2.971 11.08-35.414.18.252-2.021c2.7-.206 3.722-1.67 4.546-3.283l6.566-30.81c.355-2.05-1.017-2.891-3.03-3.283zM577.677 134.386l.625-2.143 18.661.179-.446 1.696c-3.012.853-4.308 2.422-4.465 4.464l-5.268 24.821c-.425 3.932 1.171 6.59 5.536 7.143 5.729.727 10.611-2.223 11.34-6.16l5.713-27.054c.172-2.331-1.522-2.53-2.946-3.036l.536-2.054 15.893.09-.447 1.875c-2.366.455-4.644 1.03-4.91 4.285l-5.625 25.714c-2.32 4.318-5.777 7.198-10 8.661-3.062.48-4.495 1.164-9.286 1.429-11.354.105-13.018-2.707-14.821-3.929-2.738-4.529-1.792-5.987-1.875-8.304l5-25.446c.028-1.844-1.945-1.686-3.214-2.232zM628.651 132.168l-.344 2.219c1.358.514 2.908.805 3.125 2.687l-6.531 31.156c-.432 2.005-2.093 3.132-4.906 3.47l-.344 2.062 19.281.093.25-2.25c-3.4-.719-2.984-1.946-2.937-3.125l2.406-12.125 3.656.25c1.34.024 2.692.384 4.031 3.688.761 4.933 3.036 9.26 4.906 13.75l13.844-.281.813-2.157c-1.146-.265-2.868-.795-3.813-1.968-1.14-1.417-1.485-3.655-2.625-6.313-.56-4.161-3.332-6.34-5.968-8.656 3.2-.18 11.785-4.889 12.344-11.625.405-4.886-.277-8.225-9.844-10.438l-27.344-.438zm20.812 3.813c3.783.77 6.15 2.984 5.188 8.5-2.996 8.835-8.63 8.164-11.156 8.562l-4.125-.25 3.5-16.719 6.593-.094zM699.369 131.606c-16.744 1.105-22.316 9.64-25.625 19.938-5.333 22.868 11.963 22.828 17.5 22.656 9.01-.938 21.246-2.456 25.531-21.25 3.073-14.375-2.177-20.241-17.406-21.344zm.281 3.844c9.497 1.28 6.609 12.056 5.97 18.844-5.616 17.774-11.329 15.793-14.72 16.156-7.028-.626-8.595-7.617-5.625-19.906 2.595-7.454 5.054-15.062 14.375-15.094zM520.36 191.775l.49-3.744 59.317.168-2.483 17.13-8.258.016c-1.497-8.65-5.041-11.493-9.189-10.81l-15.313-.089-4.154 26.19 9.324-.446c5.354.406 6.692-3.945 8.471-7.492l6.671.06-3.402 21.969-7.058.268c.24-3.767-1.573-6.514-4.771-8.123H539.82l-5.045 29.185 17.875.033c7.582-3.11 8.676-9.045 11.718-13.732l7.668.279-4.239 19.923-58.684.234.406-3.664c4.473-.418 7.121-3.41 7.303-5.956l8.675-55.354c.57-3.72-.652-4.977-3.887-5.688zM582.32 187.868l.09 3.393 8.839 1.964c.872 1.124 2.523.912 1.875 4.643l-9.018 55.982c-1.337 1.68-.686 3.451-6.875 4.91l-.536 3.483 22.59.268.267-3.75c-5.995-1.405-4.683-3.42-5.357-5.268l7.143-46.696 26.875 55.536 15.536.268 10.625-65.089c1.534-6.539 6.172-5.002 9.911-5.804l.536-3.661-33.304.178-.09 3.572 7.5.446c3.066.244 5.907.778 5 6.16l-6.16 41.876-.49.114c-6.609-15.917-15.79-34.406-24.422-52.347zM663.928 207.065l3.482-19.108 64.107.358-2.947 18.57-7.678.09c-.307-10.8-3.906-12.38-8.215-12.59l-5.983.09-10.268 58.125c-.6 5.953 2.91 5.605 5.715 6.34l-.536 3.75-30.446-.269.446-3.392c6.828-1.364 6.997-4.008 7.858-6.518l10.269-58.035-5.625-.09c-7.15.462-9.76 7.065-13.036 12.769zM858.21 495.46c2.077-2.378 4.046-2.764 5.619.568l-4.42 23.802 4.61.126 2.21-11.869c1.1-2.564 4.191-2.727 5.365.38l-1.515 11.616 3.978-.063c2.418 1.496 1.55 4.758-.695 5.367l-4.672.505-.884 6.25 11.112.316c2.47.127 4.434 5.262-.505 6.06h-14.9c-2.752-.974-2.627-2.62-2.083-4.419l1.326-8.46h-6.314c-1.895-.522-3.534-1.285-2.778-4.293z"/><path fill-opacity=".314" stroke="#000" stroke-width="2" d="M185.72 184.47c3.384-9.888 6.738-15.144 22.857-14.285l107.14 5.714c34.639.722 45.768-12.866 59.286-25l20.714 12.857-36.071 85-146.79-4.286-37.857 91.071c10.673-13.384 44.513-11.547 50-11.429 23.594.508 124.08 29.826 124.29 123.93.096 43.273-21.139 89.135-52.857 118.57-33.563 31.15-83.497 46.077-129.29 46.43-29.439.225-60.583-10.18-83.571-28.572-12.436-9.949-24.259-27.317-25.357-40.357-1.431-16.995 1.339-37.572 20-44.286 21.204-7.628 30.387-2.884 44.286 10 10.878 10.084 11.682 26.648 16.786 44.643 4.101 14.46 17.113 26.581 32.143 26.43 40.473-.41 75.106-33.143 90.714-80.715 10.316-31.44 7.045-72.42-23.571-96.429-20.914-16.4-52.294-17.557-78.571-13.57-12.423 1.884-33.571 17.142-33.571 17.142l-14.286-7.857z"/></svg>