<svg xmlns="http://www.w3.org/2000/svg" xml:space="preserve" style="enable-background:new 0 0 504.123 504.123" viewBox="0 0 504.123 504.123"><path d="m486.006 355.446 18.117-10.24c-1.182-6.695-2.757-13.391-5.12-20.086h-20.874l-11.422-20.086 10.634-18.117c-4.332-5.12-9.058-10.24-14.572-14.572l-18.117 10.24-20.086-11.815v-20.874c-.394 0-.788-.394-1.575-.394-5.908-1.969-12.209-3.938-18.511-5.12l-10.634 18.117h-23.237l-10.24-18.117c-6.695 1.182-13.391 2.757-20.086 5.12v20.874l-20.086 11.422-18.117-10.634c-5.12 4.332-10.24 9.058-14.572 14.572l10.24 18.117-11.815 20.086h-20.874c-2.363 6.695-4.332 12.997-5.514 19.692l18.117 10.634v23.237l-18.117 10.24c1.182 6.695 2.757 13.391 5.12 20.086h20.874l11.422 20.086-10.634 18.117c4.332 5.12 9.058 10.24 14.572 14.572l18.117-10.24 20.086 11.815v20.874c.394 0 .788.394 1.575.394 5.908 1.969 12.209 3.938 18.511 5.12l10.634-18.117h23.237l10.24 18.117c6.695-1.182 13.391-2.757 20.086-5.12v-20.874l20.086-11.422 18.117 10.634c5.12-4.332 10.24-9.058 14.572-14.572l-10.24-18.117 11.815-20.086h20.874c2.363-6.695 4.332-12.997 5.514-19.692l-18.117-10.634v-23.237zm-103.975 79.557c-37.809 0-68.923-30.72-68.923-68.529s30.72-68.923 68.923-68.923c37.809 0 68.923 30.72 68.923 68.529s-31.114 68.923-68.923 68.923z" style="fill:#415f6f"/><path d="M274.905 240.049c0-7.483-.394-15.36-1.575-22.843l-22.449-4.726-8.271-24.418 15.36-17.329c-3.545-6.695-7.877-12.997-12.603-18.905l-22.055 7.483-19.298-16.935 4.726-22.843c-6.695-3.938-13.391-7.483-20.48-10.24l-14.966 17.329-25.206-5.12-7.483-22.055c-7.483 0-15.36.394-22.843 1.575l-4.726 22.449-24.418 8.271-17.329-15.36c-6.695 3.545-12.997 7.877-18.905 12.603l7.483 22.055-16.935 19.298-22.843-4.726c-3.938 6.695-7.483 13.391-10.24 20.48l17.329 15.36-5.12 25.206L0 233.748c0 7.483.394 15.36 1.575 22.843l22.843 4.726 8.271 24.418-15.36 17.329c3.545 6.695 7.877 12.997 12.603 18.905l22.055-7.483 19.298 16.935-5.12 22.843c6.695 3.938 13.391 7.483 20.48 10.24l15.36-17.329 25.206 5.12 7.483 22.055c7.483 0 15.36-.394 22.843-1.575l4.726-22.449 24.418-8.271 17.329 15.36c6.695-3.545 12.997-7.877 18.905-12.603l-7.483-22.055 16.935-19.298 22.843 4.726c3.938-6.695 7.483-13.391 10.24-20.48l-17.329-15.36 5.12-25.206 21.664-7.09zm-137.453 72.862c-42.142 0-76.406-34.265-76.406-76.406s34.265-76.406 76.406-76.406 76.406 34.265 76.406 76.406-34.264 76.406-76.406 76.406z" style="fill:#26a6d1"/><path d="m456.862 125.046 16.542-6.695a136.746 136.746 0 0 0-2.363-17.723l-17.723-2.363-7.483-18.511 11.028-14.178a95.107 95.107 0 0 0-10.634-14.178l-16.542 6.695-15.754-12.209 2.363-17.723-1.182-.788c-5.12-2.363-10.24-4.726-15.36-6.302l-11.028 14.178-19.692-2.757-6.695-16.935c-5.908.394-11.815.788-17.723 1.969l-2.363 17.723-18.905 7.877-14.178-11.028a95.107 95.107 0 0 0-14.178 10.634l6.695 16.542-12.209 15.754-17.723-2.363c-2.757 5.12-5.12 10.634-7.089 16.542l14.178 11.028-2.757 19.692-16.542 6.695a136.746 136.746 0 0 0 2.363 17.723l17.723 2.363 7.483 18.511-11.028 14.178a95.107 95.107 0 0 0 10.634 14.178l16.542-6.695 15.754 12.209-2.363 17.723 1.182.788c5.12 2.363 10.24 4.726 15.36 6.302l11.028-14.178 19.692 2.757 6.695 16.542c5.908-.394 11.815-.788 17.723-2.363l2.363-17.723 18.511-7.483 14.178 11.028a95.107 95.107 0 0 0 14.178-10.634l-6.695-16.542 12.209-15.754 17.723 2.363c2.757-5.12 5.12-10.634 7.089-16.542l-14.178-11.028 3.151-19.299zm-90.191 58.289c-33.871 0-61.046-27.175-61.046-61.046s27.175-61.046 61.046-61.046 61.046 27.175 61.046 61.046-27.175 61.046-61.046 61.046z" style="fill:#638090"/></svg>