<svg xmlns="http://www.w3.org/2000/svg" xmlns:xlink="http://www.w3.org/1999/xlink" viewBox="0 0 48 48"><defs><linearGradient id="a"><stop offset="0" stop-color="#7ed249"/><stop offset="1" stop-color="#286325"/></linearGradient><linearGradient xlink:href="#a" id="g" x1="9.743" x2="28" y1="21.116" y2="27.769" gradientUnits="userSpaceOnUse"/><linearGradient xlink:href="#a" id="e" x1="8.284" x2="22.379" y1="22.608" y2="36" gradientUnits="userSpaceOnUse"/><linearGradient xlink:href="#a" id="d" x1="20.211" x2="37" y1="19.608" y2="29.667" gradientUnits="userSpaceOnUse"/><linearGradient id="b"><stop offset="0" stop-color="#9a5723"/><stop offset="1" stop-color="#db9762"/></linearGradient><linearGradient xlink:href="#b" id="i" x1="20" x2="28" y1="4.782" y2="12.408" gradientUnits="userSpaceOnUse"/><linearGradient xlink:href="#b" id="j" x1="10.611" x2="41.444" y1="16.084" y2="19.097" gradientUnits="userSpaceOnUse"/><linearGradient xlink:href="#b" id="f" x1="34.008" x2="28.644" y1="13.107" y2=".476" gradientUnits="userSpaceOnUse"/><linearGradient xlink:href="#a" id="k" x1="39.967" x2="13.732" y1="13.133" y2="22.72" gradientUnits="userSpaceOnUse"/><linearGradient id="l" x1="20.062" x2="28" y1="12.842" y2="15.487" gradientUnits="userSpaceOnUse"><stop offset="0" stop-color="#a20000"/><stop offset="1" stop-color="#d40000"/></linearGradient><linearGradient xlink:href="#a" id="m" x1="20.844" x2="20.844" y1="21.432" y2="23.789" gradientTransform="translate(.59)" gradientUnits="userSpaceOnUse"/><linearGradient xlink:href="#a" id="o" x1="20.844" x2="20.844" y1="21.432" y2="23.789" gradientTransform="translate(-6.063 2.442)" gradientUnits="userSpaceOnUse"/><linearGradient xlink:href="#a" id="p" x1="20.844" x2="20.844" y1="21.432" y2="23.789" gradientTransform="translate(-7.495 7.916)" gradientUnits="userSpaceOnUse"/><linearGradient xlink:href="#a" id="q" x1="20.844" x2="20.844" y1="21.432" y2="23.789" gradientTransform="translate(-3.79 11.284)" gradientUnits="userSpaceOnUse"/><linearGradient xlink:href="#a" id="r" x1="20.844" x2="20.844" y1="21.432" y2="23.789" gradientTransform="translate(1.263 6.316)" gradientUnits="userSpaceOnUse"/><linearGradient xlink:href="#a" id="s" x1="20.844" x2="20.844" y1="21.432" y2="23.789" gradientTransform="translate(1.347 15.326)" gradientUnits="userSpaceOnUse"/><linearGradient xlink:href="#a" id="z" x1="20.844" x2="20.844" y1="21.432" y2="23.789" gradientTransform="scale(-1 1) rotate(29.303 -14.532 -71.899)" gradientUnits="userSpaceOnUse"/><linearGradient xlink:href="#a" id="t" x1="20.844" x2="20.844" y1="21.432" y2="23.789" gradientTransform="matrix(-1 0 0 1 56.341 -1.516)" gradientUnits="userSpaceOnUse"/><linearGradient xlink:href="#a" id="u" x1="20.844" x2="20.844" y1="21.432" y2="23.789" gradientTransform="matrix(-1 0 0 1 56.088 3.705)" gradientUnits="userSpaceOnUse"/><linearGradient xlink:href="#a" id="v" x1="20.844" x2="20.844" y1="21.432" y2="23.789" gradientTransform="matrix(-1 0 0 1 58.193 6.737)" gradientUnits="userSpaceOnUse"/><linearGradient xlink:href="#a" id="w" x1="20.844" x2="20.844" y1="21.432" y2="23.789" gradientTransform="matrix(-1 0 0 1 48.256 12.126)" gradientUnits="userSpaceOnUse"/><linearGradient xlink:href="#a" id="x" x1="20.844" x2="20.844" y1="21.432" y2="23.789" gradientTransform="matrix(-1 0 0 1 47.835 2.695)" gradientUnits="userSpaceOnUse"/><linearGradient xlink:href="#a" id="y" x1="20.844" x2="20.844" y1="21.432" y2="23.789" gradientTransform="matrix(-1 0 0 1 48.004 -1.768)" gradientUnits="userSpaceOnUse"/><linearGradient xlink:href="#a" id="A" x1="20.844" x2="20.844" y1="21.432" y2="23.789" gradientTransform="rotate(29.303 7.05 23.153)" gradientUnits="userSpaceOnUse"/><filter id="n" width="1.313" height="1.27" x="-.157" y="-.135"><feGaussianBlur stdDeviation=".185"/></filter><filter id="D" width="1.387" height="1.298" x="-.193" y="-.149"><feGaussianBlur stdDeviation=".185"/></filter><filter id="B" width="1.479" height="1.322" x="-.239" y="-.161"><feGaussianBlur stdDeviation=".267"/></filter><filter id="C" width="1.186" height="1.342" x="-.093" y="-.171"><feGaussianBlur stdDeviation=".267"/></filter><filter id="c" width="1.23" height="1.758" x="-.115" y="-.379"><feGaussianBlur stdDeviation=".864"/></filter><radialGradient xlink:href="#b" id="h" cx="16.589" cy="8.88" r="16" gradientTransform="matrix(1.8855 .41055 -.13845 .63579 -13.461 .596)" gradientUnits="userSpaceOnUse"/></defs><path fill-opacity=".769" fill-rule="evenodd" d="M35.368 42.232a9.01 2.737 0 1 1-18.021 0 9.01 2.737 0 1 1 18.021 0z" filter="url(#c)" transform="matrix(.52804 0 0 .63077 11.05 15.593)"/><path fill="url(#d)" d="M25 28h5s2 0 2-1-2-6 0-7 4 0 4 2 1 6 1 8-2.764 3-5 3c-3 0-8 1-8 1l1-6z" style="color:#000"/><path fill="url(#e)" d="M25 30h-5s-2 0-2-1 2-5 0-6-4 0-4 2-1 5-1 7 2.764 3 5 3c3 0 8 1 8 1l-1-6z" style="color:#000"/><path fill="url(#f)" fill-rule="evenodd" d="M41 16.442c0 2.21-11 1-17 1s-15 1.21-15-1c0-.688-.763-2.167 0-3 1-2 6.738-5 15-5 7.102 0 17 3 17 6-.372.149-.131 1.452 0 2z"/><path fill="url(#g)" d="M21.074 42.168c1.1.642.503-28.248.926-29.168.836-1.817 4.498.032 5 4 .482 3.807 2.479 24.914 1.842 25.168-.972 1.252-5.83 2.269-7.768 0z" style="color:#000"/><path fill="url(#h)" fill-rule="evenodd" d="M41 16.442c0 2.21-11 2-17 2s-15 .21-15-2 3-6 15-6c10 0 17 3.79 17 6z"/><path fill="url(#i)" d="M20 13.442s0-6 2-8 5 1 5 3 1 6 1 6-1.747 2.916-8-1z" style="color:#000"/><path fill="url(#j)" fill-rule="evenodd" d="M40.94 16.799c0 2.21-10.94 2.298-16.94 2.298s-15-.446-15-2.655c0-.688-.823-1.81-.06-2.643.286 2.072 6.798 2.643 15.06 2.643 7.103 0 15.536.68 17-2 0 0 .465.345-.06 2.357z"/><path fill="url(#k)" d="M41 14.438c-.134.246-.18.338-.425.53l-.7 2.157-1-1.313c-.324.1-.654.208-1.032.282l-1.032 2.188-1.406-1.906c-.392.029-.77.076-1.187.093l-1.594 2.125c-.382-.566-.87-1.543-1.312-2.062-.503 0-1.017-.026-1.532-.031-.04.044-.084.072-.125.125-.437.554-.68 1.533-1.062 2.125l-1.625-2.282c-.546-.008-1.084-.026-1.625-.03l-2.156 2.374-1.5-2.406c-.346-.005-.694.008-1.031 0-.744.673-1.492 1.64-2.25 2.219-.262-.273-.512-1.083-.75-1.375-.388-.506-.62-.846-.75-1.031-.41-.028-.834-.029-1.22-.063h-.03c-.706.617-1.411 1.417-2.094 1.969-.662-.691-1.216-1.724-1.781-2.563-.419-.1-.792-.19-1.125-.312l-1.594 1.468c.08.222.27.41.531.594l1.438-1.47c.433.953 1.094 1.731 1.781 2.5.444.081.883.186 1.375.25.012-.017-.004.004.031-.03.07-.07.16-.146.281-.25.544-.486 1.228-1.38 1.813-1.813.41.631.805 1.67 1.281 2.25.059.065.127.103.188.156.377.024.745.076 1.125.094.766-.654 1.507-1.656 2.25-2.25l1.5 2.313c.418.004.853.03 1.25.03l2.375-2.312 1.53 2.282c.483-.007.88.01 1.376 0 .445-.778.947-1.797 1.375-2.438.38.805.865 1.571 1.406 2.313.004.004.028-.005.031 0 .419-.02.81-.037 1.22-.063l1.655-2.187 1.407 1.906c.368-.046.757-.071 1.093-.125l1.094-2.094 1.281 1.5c.406-.157.705-.331.907-.531l.47-1.437c.18-1.206-.125-1.468-.125-1.468z" style="block-progression:tb;color:#000;text-transform:none;text-indent:0"/><path fill="url(#l)" d="m20.543 10.198-.231.152c-.14.88-.21 1.193-.25 1.838l.156 1.375c.382.233.746.441 1.094.625l.594-1.47.312 1.907c.401.18.774.353 1.125.469l.813-2.25.656 2.594c.424.055.798.06 1.125.03l.469-2.937 1.469 2 .03.032c.06-.073.095-.125.095-.125s-.214-.956-.438-2.032L26.5 11l-.875.22-.343 2.062-.563-2.25-.937-.063L23 13.093l-.375-2.281-.968-.094-.594 1.438-.219-1.875-.3-.084z" style="block-progression:tb;color:#000;text-transform:none;text-indent:0"/><path fill="url(#m)" d="m20.211 21.432 1.768 2.358c.89-.157.722-.752.506-1.305l-2.274-1.053z" style="color:#000"/><path fill="#fff" fill-opacity=".696" d="M16.971 22.872c-1.977.835-2.085 2.086-2.74 3.216-.417-.3.572-3.82 2.74-3.216z" filter="url(#n)" style="color:#000"/><path fill="url(#o)" d="m13.558 23.874 1.768 2.358c.89-.157.722-.752.506-1.305l-2.274-1.053z" style="color:#000"/><path fill="url(#p)" d="m12.126 29.347 1.768 2.358c.891-.157.722-.751.506-1.305l-2.273-1.053z" style="color:#000"/><path fill="url(#q)" d="m15.832 32.716 1.768 2.358c.89-.157.721-.751.505-1.305l-2.273-1.053z" style="color:#000"/><path fill="url(#r)" d="m20.884 27.747 1.768 2.358c.89-.157.722-.752.506-1.305l-2.274-1.053z" style="color:#000"/><path fill="url(#s)" d="m20.968 36.758 1.768 2.358c.89-.157.722-.752.506-1.305l-2.274-1.053z" style="color:#000"/><path fill="url(#t)" d="m36.72 19.916-1.768 2.358c-.891-.157-.722-.752-.506-1.306l2.273-1.053z" style="color:#000"/><path fill="url(#u)" d="m36.467 25.137-1.768 2.358c-.89-.157-.722-.752-.506-1.305l2.274-1.053z" style="color:#000"/><path fill="url(#v)" d="m38.572 28.168-1.768 2.358c-.89-.157-.722-.752-.506-1.305l2.274-1.053z" style="color:#000"/><path fill="url(#w)" d="m28.635 33.558-1.768 2.358c-.89-.157-.722-.752-.506-1.305l2.274-1.053z" style="color:#000"/><path fill="url(#x)" d="m28.214 24.126-1.768 2.358c-.89-.157-.721-.751-.505-1.305l2.273-1.053z" style="color:#000"/><path fill="url(#y)" d="m28.383 19.663-1.768 2.358c-.891-.157-.722-.751-.506-1.305l2.273-1.053z" style="color:#000"/><path fill="url(#z)" d="m30.428 26.205-.388 2.922c-.853.298-.997-.303-1.08-.891l1.468-2.031z" style="color:#000"/><path fill="url(#A)" d="m18.855 27.805.388 2.922c.853.298.997-.303 1.08-.891l-1.468-2.031z" style="color:#000"/><path fill="#fff" fill-opacity=".781" d="M20.901 9.057c.741-1.286.93-2.415 2.68-3.99-.904 0-2.525.834-2.68 3.99z" filter="url(#B)" style="color:#000"/><path fill="#fff" fill-opacity=".781" d="M10.242 15.25c1.372-1.367 3.03-2.698 6.907-3.751 0 0-6.55.774-6.907 3.751z" filter="url(#C)" style="color:#000"/><path fill="#fff" fill-opacity=".696" d="M33.584 19.954c-1.954.573-1.983 1.787-2.084 2.977 0 0-1.191-2.977 2.084-2.977z" filter="url(#D)" style="color:#000"/></svg>