<svg xmlns="http://www.w3.org/2000/svg" width="202.988" height="303.687"><defs><linearGradient id="a" x1="27.388" x2="27.388" y1="60.417" y2="27.907" gradientUnits="userSpaceOnUse"><stop offset="0" stop-color="#434443"/><stop offset=".995" stop-color="#1A1919"/><stop offset="1" stop-color="#1A1919"/></linearGradient><linearGradient id="b" x1="27.388" x2="27.388" y1="42.264" y2="57.702" gradientUnits="userSpaceOnUse"><stop offset="0" stop-color="#FFF79E"/><stop offset="1" stop-color="#DABC36"/></linearGradient><linearGradient id="c" x1="27.388" x2="27.388" y1="60.418" y2="27.907" gradientUnits="userSpaceOnUse"><stop offset="0" stop-color="#434443"/><stop offset=".995" stop-color="#1A1919"/><stop offset="1" stop-color="#1A1919"/></linearGradient><linearGradient id="d" x1="17.827" x2="36.949" y1="50.983" y2="50.983" gradientUnits="userSpaceOnUse"><stop offset="0" stop-color="#FFF79E"/><stop offset="1" stop-color="#DABC36"/></linearGradient><linearGradient id="e" x1="36.949" x2="17.827" y1="53.312" y2="53.312" gradientUnits="userSpaceOnUse"><stop offset="0" stop-color="#FFF79E"/><stop offset="1" stop-color="#DABC36"/></linearGradient><linearGradient id="f" x1="49.329" x2="49.329" y1="60.417" y2="27.907" gradientUnits="userSpaceOnUse"><stop offset="0" stop-color="#434443"/><stop offset=".995" stop-color="#1A1919"/><stop offset="1" stop-color="#1A1919"/></linearGradient><linearGradient id="g" x1="49.329" x2="49.329" y1="42.264" y2="57.702" gradientUnits="userSpaceOnUse"><stop offset="0" stop-color="#FFF79E"/><stop offset="1" stop-color="#DABC36"/></linearGradient><linearGradient id="h" x1="49.329" x2="49.329" y1="60.418" y2="27.907" gradientUnits="userSpaceOnUse"><stop offset="0" stop-color="#434443"/><stop offset=".995" stop-color="#1A1919"/><stop offset="1" stop-color="#1A1919"/></linearGradient><linearGradient id="i" x1="39.769" x2="58.89" y1="50.983" y2="50.983" gradientUnits="userSpaceOnUse"><stop offset="0" stop-color="#FFF79E"/><stop offset="1" stop-color="#DABC36"/></linearGradient><linearGradient id="j" x1="58.89" x2="39.769" y1="53.312" y2="53.312" gradientUnits="userSpaceOnUse"><stop offset="0" stop-color="#FFF79E"/><stop offset="1" stop-color="#DABC36"/></linearGradient><linearGradient id="k" x1="137.094" x2="137.094" y1="60.418" y2="27.907" gradientUnits="userSpaceOnUse"><stop offset="0" stop-color="#6A0B2E"/><stop offset="1" stop-color="#A51735"/></linearGradient><linearGradient id="l" x1="127.533" x2="146.654" y1="33.688" y2="33.688" gradientUnits="userSpaceOnUse"><stop offset="0" stop-color="#DFB953"/><stop offset=".006" stop-color="#DFB953"/><stop offset=".506" stop-color="#FFF79E"/><stop offset="1" stop-color="#DABC36"/></linearGradient><linearGradient id="m" x1="127.533" x2="146.654" y1="54.237" y2="54.237" gradientUnits="userSpaceOnUse"><stop offset="0" stop-color="#DFB953"/><stop offset=".006" stop-color="#DFB953"/><stop offset=".506" stop-color="#FFF79E"/><stop offset="1" stop-color="#DABC36"/></linearGradient><linearGradient id="n" x1="115.153" x2="115.153" y1="60.418" y2="27.907" gradientUnits="userSpaceOnUse"><stop offset="0" stop-color="#6A0B2E"/><stop offset="1" stop-color="#A51735"/></linearGradient><linearGradient id="o" x1="105.591" x2="124.712" y1="33.688" y2="33.688" gradientUnits="userSpaceOnUse"><stop offset="0" stop-color="#DFB953"/><stop offset=".006" stop-color="#DFB953"/><stop offset=".506" stop-color="#FFF79E"/><stop offset="1" stop-color="#DABC36"/></linearGradient><linearGradient id="p" x1="105.591" x2="124.712" y1="54.237" y2="54.237" gradientUnits="userSpaceOnUse"><stop offset="0" stop-color="#DFB953"/><stop offset=".006" stop-color="#DFB953"/><stop offset=".506" stop-color="#FFF79E"/><stop offset="1" stop-color="#DABC36"/></linearGradient><linearGradient id="q" x1="149.474" x2="168.595" y1="33.688" y2="33.688" gradientUnits="userSpaceOnUse"><stop offset="0" stop-color="#DFB953"/><stop offset=".006" stop-color="#DFB953"/><stop offset=".506" stop-color="#FFF79E"/><stop offset="1" stop-color="#DABC36"/></linearGradient><linearGradient id="r" x1="149.474" x2="168.595" y1="54.237" y2="54.237" gradientUnits="userSpaceOnUse"><stop offset="0" stop-color="#DFB953"/><stop offset=".006" stop-color="#DFB953"/><stop offset=".506" stop-color="#FFF79E"/><stop offset="1" stop-color="#DABC36"/></linearGradient><linearGradient id="s" x1="71.285" x2="71.285" y1="83.495" y2="116.006" gradientUnits="userSpaceOnUse"><stop offset="0" stop-color="#FFF101"/><stop offset="1" stop-color="#A6C93A"/></linearGradient><linearGradient id="t" x1="93.226" x2="93.226" y1="83.495" y2="116.006" gradientUnits="userSpaceOnUse"><stop offset="0" stop-color="#FFF101"/><stop offset="1" stop-color="#A6C93A"/></linearGradient><linearGradient id="u" x1="144.892" x2="144.892" y1="109.502" y2="83.494" gradientUnits="userSpaceOnUse"><stop offset="0" stop-color="#005799"/><stop offset="1" stop-color="#00A3DA"/></linearGradient><linearGradient id="v" x1="142.8" x2="142.8" y1="115.127" y2="83.495" gradientUnits="userSpaceOnUse"><stop offset="0" stop-color="#005799"/><stop offset="1" stop-color="#00A3DA"/></linearGradient><linearGradient id="w" x1="135.02" x2="135.02" y1="116.005" y2="83.494" gradientUnits="userSpaceOnUse"><stop offset="0" stop-color="#005799"/><stop offset="1" stop-color="#00A3DA"/></linearGradient><linearGradient id="x" x1="122.951" x2="122.951" y1="109.502" y2="83.494" gradientUnits="userSpaceOnUse"><stop offset="0" stop-color="#005799"/><stop offset="1" stop-color="#00A3DA"/></linearGradient><linearGradient id="y" x1="120.858" x2="120.858" y1="115.127" y2="83.495" gradientUnits="userSpaceOnUse"><stop offset="0" stop-color="#005799"/><stop offset="1" stop-color="#00A3DA"/></linearGradient><linearGradient id="z" x1="113.079" x2="113.079" y1="116.005" y2="83.494" gradientUnits="userSpaceOnUse"><stop offset="0" stop-color="#005799"/><stop offset="1" stop-color="#00A3DA"/></linearGradient><linearGradient id="A" x1="159.035" x2="159.035" y1="116.005" y2="83.494" gradientUnits="userSpaceOnUse"><stop offset="0" stop-color="#80CDE8"/><stop offset=".995" stop-color="#FFFFFE"/><stop offset="1" stop-color="#FFFFFE"/></linearGradient><linearGradient id="B" x1="153.251" x2="154.821" y1="95.849" y2="95.849" gradientUnits="userSpaceOnUse"><stop offset="0" stop-color="#80CDE8"/><stop offset=".995" stop-color="#FFFFFE"/><stop offset="1" stop-color="#FFFFFE"/></linearGradient><linearGradient id="C" x1="156.738" x2="158.859" y1="98.193" y2="98.193" gradientUnits="userSpaceOnUse"><stop offset="0" stop-color="#80CDE8"/><stop offset=".995" stop-color="#FFFFFE"/><stop offset="1" stop-color="#FFFFFE"/></linearGradient><linearGradient id="D" x1="151.175" x2="153.296" y1="102.068" y2="102.068" gradientUnits="userSpaceOnUse"><stop offset="0" stop-color="#80CDE8"/><stop offset=".995" stop-color="#FFFFFE"/><stop offset="1" stop-color="#FFFFFE"/></linearGradient><linearGradient id="E" x1="160.216" x2="162.804" y1="111.698" y2="111.698" gradientUnits="userSpaceOnUse"><stop offset="0" stop-color="#80CDE8"/><stop offset=".995" stop-color="#FFFFFE"/><stop offset="1" stop-color="#FFFFFE"/></linearGradient><linearGradient id="F" x1="163.175" x2="165.296" y1="106.193" y2="106.193" gradientUnits="userSpaceOnUse"><stop offset="0" stop-color="#80CDE8"/><stop offset=".995" stop-color="#FFFFFE"/><stop offset="1" stop-color="#FFFFFE"/></linearGradient><linearGradient id="G" x1="164.54" x2="165.856" y1="92.832" y2="92.832" gradientUnits="userSpaceOnUse"><stop offset="0" stop-color="#80CDE8"/><stop offset=".995" stop-color="#FFFFFE"/><stop offset="1" stop-color="#FFFFFE"/></linearGradient><linearGradient id="H" x1="165.624" x2="166.474" y1="89.827" y2="89.827" gradientUnits="userSpaceOnUse"><stop offset="0" stop-color="#80CDE8"/><stop offset=".995" stop-color="#FFFFFE"/><stop offset="1" stop-color="#FFFFFE"/></linearGradient><linearGradient id="I" x1="161.656" x2="162.844" y1="90.12" y2="90.12" gradientUnits="userSpaceOnUse"><stop offset="0" stop-color="#80CDE8"/><stop offset=".995" stop-color="#FFFFFE"/><stop offset="1" stop-color="#FFFFFE"/></linearGradient><linearGradient id="J" x1="24.149" x2="24.149" y1="173.85" y2="135.294" gradientUnits="userSpaceOnUse"><stop offset="0" stop-color="#6B1416"/><stop offset=".435" stop-color="#9D1E24"/><stop offset="1" stop-color="#9D1E24"/></linearGradient><linearGradient id="K" x1="46.09" x2="46.09" y1="173.85" y2="135.294" gradientUnits="userSpaceOnUse"><stop offset="0" stop-color="#6B1416"/><stop offset=".435" stop-color="#9D1E24"/><stop offset="1" stop-color="#9D1E24"/></linearGradient><linearGradient id="L" x1="68.031" x2="68.031" y1="173.85" y2="135.294" gradientUnits="userSpaceOnUse"><stop offset="0" stop-color="#6B1416"/><stop offset=".435" stop-color="#9D1E24"/><stop offset="1" stop-color="#9D1E24"/></linearGradient><linearGradient id="M" x1="115.153" x2="115.153" y1="171.594" y2="139.082" gradientUnits="userSpaceOnUse"><stop offset="0" stop-color="#3F0939"/><stop offset="1" stop-color="#892B7D"/></linearGradient><linearGradient id="N" x1="137.094" x2="137.094" y1="171.594" y2="139.082" gradientUnits="userSpaceOnUse"><stop offset="0" stop-color="#41A74A"/><stop offset=".005" stop-color="#41A74A"/><stop offset=".542" stop-color="#B6D038"/><stop offset="1" stop-color="#00A549"/></linearGradient><linearGradient id="P" x1="143.073" x2="141.026" y1="154.444" y2="148.179" gradientUnits="userSpaceOnUse"><stop offset="0" stop-color="#41A74A"/><stop offset=".005" stop-color="#41A74A"/><stop offset="1" stop-color="#00A549"/></linearGradient><linearGradient id="Q" x1="142.872" x2="141.256" y1="153.627" y2="148.68" gradientUnits="userSpaceOnUse"><stop offset="0" stop-color="#BACC3C"/><stop offset=".005" stop-color="#BACC3C"/><stop offset="1" stop-color="#00A549"/></linearGradient><linearGradient id="R" x1="135.986" x2="136.529" y1="161.478" y2="154.909" gradientUnits="userSpaceOnUse"><stop offset="0" stop-color="#41A74A"/><stop offset=".005" stop-color="#41A74A"/><stop offset="1" stop-color="#00A549"/></linearGradient><linearGradient id="S" x1="135.992" x2="136.421" y1="160.636" y2="155.45" gradientUnits="userSpaceOnUse"><stop offset="0" stop-color="#BACC3C"/><stop offset=".005" stop-color="#BACC3C"/><stop offset="1" stop-color="#00A549"/></linearGradient><linearGradient id="T" x1="141.44" x2="141.44" y1="166.62" y2="161.345" gradientUnits="userSpaceOnUse"><stop offset="0" stop-color="#41A74A"/><stop offset=".005" stop-color="#41A74A"/><stop offset="1" stop-color="#00A549"/></linearGradient><linearGradient id="U" x1="141.491" x2="141.491" y1="165.949" y2="161.783" gradientUnits="userSpaceOnUse"><stop offset="0" stop-color="#BACC3C"/><stop offset=".005" stop-color="#BACC3C"/><stop offset="1" stop-color="#00A549"/></linearGradient><linearGradient id="V" x1="159.034" x2="159.034" y1="171.594" y2="139.082" gradientUnits="userSpaceOnUse"><stop offset="0" stop-color="#41A74A"/><stop offset=".005" stop-color="#41A74A"/><stop offset=".542" stop-color="#B6D038"/><stop offset="1" stop-color="#00A549"/></linearGradient><linearGradient id="X" x1="165.013" x2="162.966" y1="154.444" y2="148.179" gradientUnits="userSpaceOnUse"><stop offset="0" stop-color="#41A74A"/><stop offset=".005" stop-color="#41A74A"/><stop offset="1" stop-color="#00A549"/></linearGradient><linearGradient id="Y" x1="164.813" x2="163.197" y1="153.628" y2="148.681" gradientUnits="userSpaceOnUse"><stop offset="0" stop-color="#BACC3C"/><stop offset=".005" stop-color="#BACC3C"/><stop offset="1" stop-color="#00A549"/></linearGradient><linearGradient id="Z" x1="157.927" x2="158.47" y1="161.478" y2="154.909" gradientUnits="userSpaceOnUse"><stop offset="0" stop-color="#41A74A"/><stop offset=".005" stop-color="#41A74A"/><stop offset="1" stop-color="#00A549"/></linearGradient><linearGradient id="aa" x1="157.933" x2="158.362" y1="160.636" y2="155.45" gradientUnits="userSpaceOnUse"><stop offset="0" stop-color="#BACC3C"/><stop offset=".005" stop-color="#BACC3C"/><stop offset="1" stop-color="#00A549"/></linearGradient><linearGradient id="ab" x1="163.381" x2="163.381" y1="166.62" y2="161.345" gradientUnits="userSpaceOnUse"><stop offset="0" stop-color="#41A74A"/><stop offset=".005" stop-color="#41A74A"/><stop offset="1" stop-color="#00A549"/></linearGradient><linearGradient id="ac" x1="163.431" x2="163.431" y1="165.949" y2="161.783" gradientUnits="userSpaceOnUse"><stop offset="0" stop-color="#BACC3C"/><stop offset=".005" stop-color="#BACC3C"/><stop offset="1" stop-color="#00A549"/></linearGradient><linearGradient id="ad" x1="93.211" x2="93.211" y1="171.594" y2="139.082" gradientUnits="userSpaceOnUse"><stop offset="0" stop-color="#3F0939"/><stop offset="1" stop-color="#892B7D"/></linearGradient><linearGradient id="ae" x1="47.762" x2="47.762" y1="239.75" y2="199.084" gradientUnits="userSpaceOnUse"><stop offset="0" stop-color="#FFFFFE"/><stop offset=".5" stop-color="#FFFFFE"/><stop offset="1" stop-color="#95D3EA"/></linearGradient><linearGradient id="ag" x1="46.748" x2="46.748" y1="240.012" y2="215.09" gradientUnits="userSpaceOnUse"><stop offset="0" stop-color="#E6EA96"/><stop offset="1" stop-color="#6FB744"/></linearGradient><linearGradient id="ah" x1="61.572" x2="61.572" y1="233.619" y2="207.822" gradientUnits="userSpaceOnUse"><stop offset="0" stop-color="#E6EA96"/><stop offset="1" stop-color="#6FB744"/></linearGradient><linearGradient id="aj" x1="47.59" x2="47.59" y1="242.15" y2="227.982" gradientUnits="userSpaceOnUse"><stop offset="0" stop-color="#E6EA96"/><stop offset="1" stop-color="#6FB744"/></linearGradient><linearGradient id="ak" x1="23.866" x2="23.866" y1="236.223" y2="223.061" gradientUnits="userSpaceOnUse"><stop offset="0" stop-color="#6A0B2E"/><stop offset="1" stop-color="#A51735"/></linearGradient><linearGradient id="al" x1="19.581" x2="28.152" y1="224.83" y2="224.83" gradientUnits="userSpaceOnUse"><stop offset="0" stop-color="#DFB953"/><stop offset=".006" stop-color="#DFB953"/><stop offset=".506" stop-color="#FFF79E"/><stop offset="1" stop-color="#DABC36"/></linearGradient><linearGradient id="am" x1="19.581" x2="28.152" y1="234.452" y2="234.452" gradientUnits="userSpaceOnUse"><stop offset="0" stop-color="#DFB953"/><stop offset=".006" stop-color="#DFB953"/><stop offset=".506" stop-color="#FFF79E"/><stop offset="1" stop-color="#DABC36"/></linearGradient><linearGradient id="an" x1="29.509" x2="38.082" y1="224.83" y2="224.83" gradientUnits="userSpaceOnUse"><stop offset="0" stop-color="#DFB953"/><stop offset=".006" stop-color="#DFB953"/><stop offset=".506" stop-color="#FFF79E"/><stop offset="1" stop-color="#DABC36"/></linearGradient><linearGradient id="ao" x1="29.509" x2="38.082" y1="234.452" y2="234.452" gradientUnits="userSpaceOnUse"><stop offset="0" stop-color="#DFB953"/><stop offset=".006" stop-color="#DFB953"/><stop offset=".506" stop-color="#FFF79E"/><stop offset="1" stop-color="#DABC36"/></linearGradient><clipPath id="O"><path d="M127.533 138.769v28.369c0 2.287 4.279 4.143 9.56 4.143 5.279 0 9.563-1.856 9.563-4.143v-28.369z"/></clipPath><clipPath id="W"><path d="M149.472 138.769v28.369c0 2.287 4.281 4.143 9.563 4.143 5.277 0 9.56-1.856 9.56-4.143v-28.369z"/></clipPath><clipPath id="af"><path d="M43.269 214.777c11.993 2.328 27.19 16.152 36.551 24.66H15.679v-3.521c1.468-2.249 3.333-4.193 5.172-6.133 5.166-5.166 12.629-13.203 21.527-14.926z"/></clipPath><clipPath id="ai"><path d="M46.527 227.669c11.251.108 22.403 2.086 33.318 4.694v7.074H15.679v-6.009c9.851-3.772 20.324-5.569 30.848-5.759z"/></clipPath></defs><path fill="#FFFFFE" d="M.175 20.438h172.5v283.249H.175z"/><path fill="#FFFFFE" d="M35.988 41.5 6.487 62.427h166.175L202.07 41.5H35.988"/><path fill="none" stroke="#00A3DA" stroke-linecap="round" stroke-linejoin="round" stroke-width=".75" d="M35.988 41.5 6.487 62.427h166.175L202.07 41.5z"/><path fill="#00A3DA" d="M6.137 62.427h166.351v7H6.137z"/><path fill="none" stroke="#B4B5B4" stroke-width=".75" d="M2.487 69.191h170.001v5.687H2.487z"/><path fill="#FFFFFE" d="M35.988 97.088 6.487 118.015h166.175l29.289-20.927H35.988"/><path fill="none" stroke="#00A3DA" stroke-linecap="round" stroke-linejoin="round" stroke-width=".75" d="M35.988 97.088 6.487 118.015h166.175l29.289-20.927z"/><path fill="#00A3DA" d="M6.138 118.015h166.35v7H6.138z"/><path fill="none" stroke="#B4B5B4" stroke-width=".75" d="M2.487 124.779h170.001v5.687H2.487z"/><path fill="#FFFFFE" d="M35.988 152.675 6.487 173.602h166.175l28.933-20.927H35.988"/><path fill="none" stroke="#00A3DA" stroke-linecap="round" stroke-linejoin="round" stroke-width=".75" d="M35.988 152.675 6.487 173.602h166.175l28.933-20.927z"/><path fill="#00A3DA" d="M6.138 173.602h166.453v7.054H6.138z"/><path fill="none" stroke="#B4B5B4" stroke-width=".75" d="M2.487 180.418h170.001v5.731H2.487z"/><path fill="#D8232A" d="M30.48 0 .154 20.438h172.508L202.988 0H30.48"/><path fill="#BA2229" d="m172.488 20.438.187 283.249 30.313-34.254V0l-30.5 20.438"/><path fill="#D8232A" d="M.175 186.535h172.5v117.152H.175z"/><path fill="#4D4E4C" d="M15.654 261.949H155.82v28.801H15.654z"/><path fill="#777776" d="M15.654 261.949H155.82v20.678H15.654z"/><path fill="#4D4E4C" d="M94.515 198.771h23.973v18.016H94.515z"/><path fill="#777776" d="M94.515 198.771h23.973v11.623H94.515z"/><path fill="#343534" d="M94.515 210.394h23.973v1.065H94.515z"/><path fill="#777776" d="M124.488 198.771v16.666a4 4 0 0 0 4 4h23a4 4 0 0 0 4-4v-16.666h-31"/><path fill="#777776" d="M156.724 202.019a4.483 4.483 0 1 1-8.967 0 4.483 4.483 0 0 1 8.967 0"/><path fill="none" stroke="#777776" stroke-width="2" d="M156.724 202.019a4.483 4.483 0 1 1-8.967 0 4.483 4.483 0 0 1 8.967 0z"/><path fill="#777776" d="M148.509 201.304h7.733v1.061h-7.733z"/><path fill="none" stroke="#777776" stroke-width="2" d="M148.509 202.365h7.733v-1.061h-7.733z"/><path fill="#B4B5B4" d="M156.724 202.019a4.483 4.483 0 1 1-8.967 0 4.483 4.483 0 0 1 8.967 0"/><path fill="#343534" d="M148.509 201.304h7.733v1.061h-7.733z"/><path fill="#636463" d="M142.57 209.136a7.625 7.625 0 1 1-7.623-7.625 7.625 7.625 0 0 1 7.623 7.625"/><path fill="#4D4E4C" d="M135.488 202.203c2.503 0 4.633 1.238 6.031 3.093-1.328-2.279-3.706-3.847-6.533-3.847a7.664 7.664 0 0 0-7.664 7.664c0 1.728.58 3.318 1.547 4.601a7.595 7.595 0 0 1-1.045-3.847 7.664 7.664 0 0 1 7.664-7.664"/><path fill="#7B4019" d="m140.783 207.544-7.299 1.395a2.223 2.223 0 0 0-.78-.605 2.26 2.26 0 0 0-3.001 1.105 2.26 2.26 0 1 0 4.105 1.896c.031-.066.043-.134.065-.202l.021-.003 7.42-2.462s.164-.12.24-.329c.205-.853-.771-.795-.771-.795"/><path fill="#EC952D" d="m140.558 207.16-7.299 1.393a2.22 2.22 0 0 0-.78-.604 2.262 2.262 0 0 0-1.898 4.105 2.26 2.26 0 0 0 3.002-1.105c.032-.066.043-.134.066-.201l.02-.002 7.42-2.463s.164-.12.241-.328c.205-.855-.772-.795-.772-.795"/><path fill="none" stroke="#B4B5B4" stroke-width=".75" d="M.375 186.21V20.438"/><path fill="url(#a)" d="M36.949 45.892V27.594H17.827v24.572c1.228-1.097 3.288-2.347 6.393-2.482 4.588-.2 10.635-1.86 12.729-3.792z"/><path fill="url(#b)" d="M27.388 57.389c5.281 0 9.561-2.015 9.561-4.5V41.951c-2.094 2.098-8.141 3.902-12.729 4.118-3.105.147-5.165 1.505-6.393 2.696v4.124c0 2.485 4.28 4.5 9.561 4.5z"/><path fill="url(#c)" d="M27.388 60.105c5.281 0 9.561-1.855 9.561-4.143v-10.07c-2.094 1.932-8.141 3.592-12.729 3.792-3.105.135-5.165 1.385-6.393 2.482v3.796c0 2.288 4.28 4.143 9.561 4.143z"/><path fill="#1A1919" d="M27.388 60.105c5.281 0 9.561-1.855 9.561-4.143v-10.07c-2.094 1.932-8.141 3.592-12.729 3.792-3.105.135-5.165 1.385-6.393 2.482v3.796c0 2.288 4.28 4.143 9.561 4.143"/><path fill="url(#d)" d="M27.388 58.389c5.281 0 9.561-2.015 9.561-4.5V42.951c-2.094 2.098-8.141 3.902-12.729 4.118-3.105.147-5.165 1.505-6.393 2.696v4.124c0 2.485 4.28 4.5 9.561 4.5z"/><path fill="url(#e)" d="M27.388 60.105c5.281 0 9.561-1.855 9.561-4.143v-10.07c-2.094 1.932-8.141 3.592-12.729 3.792-3.105.135-5.165 1.385-6.393 2.482v3.796c0 2.288 4.28 4.143 9.561 4.143z"/><path fill="#B4B5B4" d="M36.949 27.414c0 1.967-4.28 3.562-9.561 3.562s-9.561-1.595-9.561-3.562c0-1.969 4.28-3.563 9.561-3.563s9.561 1.594 9.561 3.563"/><path fill="url(#f)" d="M58.89 45.892V27.594H39.769v24.572c1.227-1.097 3.287-2.347 6.393-2.482 4.587-.2 10.634-1.86 12.728-3.792z"/><path fill="url(#g)" d="M49.33 57.389c5.281 0 9.56-2.015 9.56-4.5V41.951c-2.094 2.098-8.141 3.902-12.728 4.118-3.106.147-5.166 1.505-6.393 2.696v4.124c0 2.485 4.279 4.5 9.561 4.5z"/><path fill="url(#h)" d="M49.33 60.105c5.281 0 9.56-1.855 9.56-4.143v-10.07c-2.094 1.932-8.141 3.592-12.728 3.792-3.106.135-5.166 1.385-6.393 2.482v3.796c0 2.288 4.279 4.143 9.561 4.143z"/><path fill="#1A1919" d="M49.33 60.105c5.281 0 9.56-1.855 9.56-4.143v-10.07c-2.094 1.932-8.141 3.592-12.728 3.792-3.106.135-5.166 1.385-6.393 2.482v3.796c0 2.288 4.279 4.143 9.561 4.143"/><path fill="url(#i)" d="M49.33 58.389c5.281 0 9.56-2.015 9.56-4.5V42.951c-2.094 2.098-8.141 3.902-12.728 4.118-3.106.147-5.166 1.505-6.393 2.696v4.124c0 2.485 4.279 4.5 9.561 4.5z"/><path fill="url(#j)" d="M49.33 60.105c5.281 0 9.56-1.855 9.56-4.143v-10.07c-2.094 1.932-8.141 3.592-12.728 3.792-3.106.135-5.166 1.385-6.393 2.482v3.796c0 2.288 4.279 4.143 9.561 4.143z"/><path fill="#B4B5B4" d="M58.89 27.414c0 1.967-4.281 3.562-9.56 3.562-5.282 0-9.561-1.595-9.561-3.562 0-1.969 4.279-3.563 9.561-3.563 5.279 0 9.56 1.594 9.56 3.563"/><path fill="#51181A" d="M61.71 27.594v28.368c0 2.288 4.28 4.143 9.561 4.143 5.279 0 9.56-1.855 9.56-4.143V27.594H61.71"/><path fill="#B4B5B4" d="M80.831 27.414c0 1.967-4.281 3.562-9.56 3.562-5.281 0-9.561-1.595-9.561-3.562 0-1.969 4.28-3.563 9.561-3.563 5.279 0 9.56 1.594 9.56 3.563"/><path fill="#6E2B17" d="M71.271 55.089c-5.281 0-9.561-1.526-9.561-3.408v1.478c0 1.882 4.28 3.408 9.561 3.408 5.279 0 9.56-1.526 9.56-3.408v-1.478c0 1.882-4.281 3.408-9.56 3.408"/><path fill="#9D3D21" d="M71.271 53.615c-5.281 0-9.561-1.526-9.561-3.408v1.478c0 1.882 4.28 3.408 9.561 3.408 5.279 0 9.56-1.526 9.56-3.408v-1.478c0 1.882-4.281 3.408-9.56 3.408"/><path fill="#9B6E35" d="M75.753 49.279c-.671 1.147-1.943 1.65-2.841 1.123-.895-.525-1.078-1.88-.407-3.027.672-1.144 1.944-1.648 2.842-1.121.897.526 1.078 1.88.406 3.025"/><path fill="#E1C284" d="M75.136 46.478s-.889.852-1.346 1.79c-.456.938-.701 1.89-.701 1.89l2.047-3.68"/><path fill="#9B6E35" d="M70.789 42.023c1.037 2.027.589 4.327-.996 5.137-1.587.809-3.711-.176-4.747-2.203-1.035-2.026-.587-4.326.997-5.135 1.585-.81 3.71.176 4.746 2.201"/><path fill="#E1C284" d="M66.175 40.332s.41 2.069 1.344 3.593a19.14 19.14 0 0 0 2.082 2.752l-3.426-6.345"/><path fill="#9B6E35" d="M77.98 37.383c-.592.987-1.697 1.411-2.469.948-.771-.463-.918-1.638-.326-2.625.592-.985 1.695-1.41 2.467-.946.773.463.92 1.637.328 2.623"/><path fill="#E1C284" d="M77.468 34.952s-.777.731-1.179 1.538c-.405.808-.624 1.631-.624 1.631l1.803-3.169"/><path fill="#51181A" d="M83.65 27.594v28.368c0 2.288 4.281 4.143 9.56 4.143 5.282 0 9.563-1.855 9.563-4.143V27.594H83.65"/><path fill="#B4B5B4" d="M102.773 27.414c0 1.967-4.281 3.562-9.563 3.562-5.279 0-9.56-1.595-9.56-3.562 0-1.969 4.281-3.563 9.56-3.563 5.282 0 9.563 1.594 9.563 3.563"/><path fill="#6E2B17" d="M93.21 55.089c-5.281 0-9.56-1.526-9.56-3.408v1.478c0 1.882 4.279 3.408 9.56 3.408 5.28 0 9.563-1.526 9.563-3.408v-1.478c0 1.882-4.283 3.408-9.563 3.408"/><path fill="#9D3D21" d="M93.21 53.615c-5.281 0-9.56-1.526-9.56-3.408v1.478c0 1.882 4.279 3.408 9.56 3.408 5.28 0 9.563-1.526 9.563-3.408v-1.478c0 1.882-4.283 3.408-9.563 3.408"/><path fill="#9B6E35" d="M97.695 49.279c-.672 1.147-1.944 1.65-2.842 1.123-.894-.525-1.078-1.88-.406-3.027.672-1.144 1.943-1.648 2.842-1.121.896.526 1.078 1.88.406 3.025"/><path fill="#E1C284" d="M97.078 46.478s-.889.852-1.346 1.79c-.457.938-.701 1.89-.701 1.89l2.047-3.68"/><path fill="#9B6E35" d="M92.73 42.023c1.037 2.027.59 4.327-.996 5.137-1.586.809-3.711-.176-4.746-2.203-1.035-2.026-.588-4.326.996-5.135 1.586-.81 3.711.176 4.746 2.201"/><path fill="#E1C284" d="M88.117 40.332s.41 2.069 1.343 3.593c.932 1.525 2.083 2.752 2.083 2.752l-3.426-6.345"/><path fill="#9B6E35" d="M99.921 37.383c-.591.987-1.697 1.411-2.468.948-.772-.463-.918-1.638-.327-2.625.592-.985 1.696-1.41 2.467-.946.774.463.92 1.637.328 2.623"/><path fill="#E1C284" d="M99.41 34.952s-.778.731-1.18 1.538c-.404.808-.623 1.631-.623 1.631l1.803-3.169"/><path fill="url(#k)" d="M127.533 27.594v28.368c0 2.288 4.279 4.143 9.56 4.143 5.281 0 9.563-1.855 9.563-4.143V27.594z"/><path fill="#B4B5B4" d="M146.656 27.414c0 1.967-4.282 3.562-9.563 3.562-5.281 0-9.56-1.595-9.56-3.562 0-1.969 4.279-3.563 9.56-3.563 5.281 0 9.563 1.594 9.563 3.563"/><path fill="url(#l)" d="M137.093 34.34c-5.281 0-9.56-1.526-9.56-3.408v1.478c0 1.882 4.279 3.408 9.56 3.408 5.279 0 9.561-1.526 9.561-3.408v-1.478c0 1.882-4.282 3.408-9.561 3.408z"/><path fill="url(#m)" d="M137.093 54.889c-5.281 0-9.56-1.526-9.56-3.408v1.478c0 1.882 4.279 3.408 9.56 3.408 5.279 0 9.561-1.526 9.561-3.408v-1.478c0 1.882-4.282 3.408-9.561 3.408z"/><path fill="#A31249" d="M131.072 38.253v11.601c.582.188 4.541.867 6.015.867 1.473 0 5.623-.727 6.278-.952V38.214h-.143c-1.703.565-3.826.905-6.135.905-2.257 0-4.334-.324-6.015-.866"/><path fill="url(#n)" d="M105.591 27.594v28.368c0 2.288 4.28 4.143 9.561 4.143s9.562-1.855 9.562-4.143V27.594z"/><path fill="#B4B5B4" d="M124.714 27.414c0 1.967-4.281 3.562-9.562 3.562s-9.561-1.595-9.561-3.562c0-1.969 4.28-3.563 9.561-3.563s9.562 1.594 9.562 3.563"/><path fill="url(#o)" d="M115.152 34.34c-5.281 0-9.561-1.526-9.561-3.408v1.478c0 1.882 4.28 3.408 9.561 3.408 5.279 0 9.56-1.526 9.56-3.408v-1.478c0 1.882-4.281 3.408-9.56 3.408z"/><path fill="url(#p)" d="M115.152 54.889c-5.281 0-9.561-1.526-9.561-3.408v1.478c0 1.882 4.28 3.408 9.561 3.408 5.279 0 9.56-1.526 9.56-3.408v-1.478c0 1.882-4.281 3.408-9.56 3.408z"/><path fill="#A31249" d="M109.13 38.253v11.601c.582.188 4.541.867 6.016.867 1.473 0 5.623-.727 6.277-.952V38.214h-.142c-1.703.565-3.826.905-6.135.905-2.258 0-4.334-.324-6.016-.866"/><path fill="#191B51" d="M149.474 27.594v28.368c0 2.288 4.279 4.143 9.561 4.143 5.279 0 9.56-1.855 9.56-4.143V27.594h-19.121"/><path fill="url(#q)" d="M159.035 34.34c-5.282 0-9.561-1.526-9.561-3.408v1.478c0 1.882 4.279 3.408 9.561 3.408 5.279 0 9.56-1.526 9.56-3.408v-1.478c0 1.882-4.281 3.408-9.56 3.408z"/><path fill="url(#r)" d="M159.035 54.889c-5.282 0-9.561-1.526-9.561-3.408v1.478c0 1.882 4.279 3.408 9.561 3.408 5.279 0 9.56-1.526 9.56-3.408v-1.478c0 1.882-4.281 3.408-9.56 3.408z"/><path fill="#B4B5B4" d="M168.595 27.414c0 1.967-4.281 3.562-9.56 3.562-5.282 0-9.561-1.595-9.561-3.562 0-1.969 4.279-3.563 9.561-3.563 5.279 0 9.56 1.594 9.56 3.563"/><path fill="#005698" d="M153.035 38.253v11.601c.584.188 4.541.867 6.015.867 1.475 0 5.625-.727 6.28-.952V38.214h-.145c-1.701.565-3.824.905-6.135.905-2.258 0-4.334-.324-6.015-.866"/><path fill="#FFF101" d="M61.71 83.182v28.368c0 .079.018.156.028.234V83.182h-.028"/><path fill="url(#s)" d="M61.738 83.182v28.602c.146 1.141 1.353 2.156 3.207 2.866.927.356 2.014.634 3.209.813.978.146 2.023.229 3.117.229l.092-.002a20.87 20.87 0 0 0 3.207-.256v-.003c1.21-.192 2.302-.483 3.23-.853v-.009c1.86-.756 3.031-1.827 3.031-3.019V83.182z"/><path fill="#00A349" d="M73.222 94.678c-.951-2.861-3.31-4.73-5.603-4.637-.491-.264-.965-.764-1.237-.899-.279-.141-.877.227-1.015.507-.121.242-.012.835-.139 1.322-1.652 1.397-2.279 4.134-1.383 6.826.916 2.756 3.141 4.591 5.354 4.637.275.308.484.679.677.775.282.14.979.078 1.12-.202.107-.216.179-.696.324-1.137 2.031-1.229 2.886-4.237 1.902-7.192"/><path fill="none" stroke="#00A349" stroke-width=".25" d="M73.222 94.678c-.951-2.861-3.31-4.73-5.603-4.637-.491-.264-.965-.764-1.237-.899-.279-.141-.877.227-1.015.507-.121.242-.012.835-.139 1.322-1.652 1.397-2.279 4.134-1.383 6.826.916 2.756 3.141 4.591 5.354 4.637.275.308.484.679.677.775.282.14.979.078 1.12-.202.107-.216.179-.696.324-1.137 2.031-1.229 2.886-4.237 1.902-7.192z"/><path fill="#91C33F" d="M73.347 94.297c-.953-2.861-3.31-4.73-5.605-4.637-.491-.263-.963-.764-1.235-.899-.279-.141-.877.227-1.017.507-.121.242-.012.836-.139 1.322-1.652 1.397-2.277 4.135-1.383 6.826.916 2.756 3.143 4.591 5.354 4.638.277.307.486.678.677.774.282.14.981.078 1.12-.202.107-.216.181-.696.326-1.137 2.031-1.228 2.885-4.236 1.902-7.192"/><path fill="#EB8B2D" d="M77.951 110.377c1.464-1.655 1.785-3.839.882-5.261-.013-.407.131-.892.118-1.114-.014-.229-.467-.473-.696-.458-.199.01-.535.299-.89.396-1.494-.535-3.461.074-4.84 1.631-1.414 1.595-1.76 3.681-.977 5.102-.093.288-.252.558-.244.716.016.23.313.649.541.635.178-.011.508-.141.842-.211 1.525.837 3.748.275 5.264-1.436"/><path fill="#FFF101" d="M77.902 109.98c1.465-1.656 1.785-3.84.881-5.261-.012-.408.131-.893.119-1.115-.014-.229-.467-.472-.696-.458-.199.011-.535.299-.89.397-1.494-.535-3.463.073-4.842 1.631-1.412 1.595-1.758 3.681-.975 5.101-.093.289-.253.559-.244.717.016.229.311.649.539.635.178-.011.508-.141.842-.211 1.528.837 3.75.274 5.266-1.436M64.556 93.941s-.051 2.522.987 4.46c1.035 1.938 2.755 2.656 2.755 2.656l.635.168s-1.738-1.237-2.74-3.108c-1.049-1.958-1.637-4.176-1.637-4.176"/><path fill="#EB8B2D" d="M73.71 111.056s1.662-.097 2.879-.922c1.217-.825 1.594-2.064 1.594-2.064l.076-.452s-.719 1.278-1.892 2.076c-1.229.835-2.657 1.362-2.657 1.362"/><path fill="#B4B5B4" d="M80.831 83.001c0 1.968-4.281 3.563-9.56 3.563-5.281 0-9.561-1.595-9.561-3.563 0-1.968 4.28-3.562 9.561-3.562 5.279 0 9.56 1.594 9.56 3.562"/><path fill="#FFF101" d="M83.652 83.182v28.368c0 .079.017.156.027.234V83.182h-.027"/><path fill="url(#t)" d="M83.679 83.182v28.602c.147 1.141 1.354 2.156 3.207 2.866.928.356 2.014.634 3.209.813.979.146 2.024.229 3.117.229l.092-.002a20.87 20.87 0 0 0 3.207-.256v-.003c1.21-.192 2.303-.483 3.231-.853v-.009c1.859-.756 3.031-1.827 3.031-3.019V83.182z"/><path fill="#00A349" d="M95.164 94.678c-.952-2.861-3.311-4.73-5.604-4.637-.49-.264-.965-.764-1.236-.899-.28-.141-.877.227-1.016.507-.121.242-.012.835-.139 1.322-1.652 1.397-2.279 4.134-1.382 6.826.916 2.756 3.14 4.591 5.353 4.637.275.308.484.679.678.775.281.14.978.078 1.119-.202.107-.216.18-.696.324-1.137 2.032-1.229 2.887-4.237 1.903-7.192"/><path fill="none" stroke="#00A349" stroke-width=".25" d="M95.164 94.678c-.952-2.861-3.311-4.73-5.604-4.637-.49-.264-.965-.764-1.236-.899-.28-.141-.877.227-1.016.507-.121.242-.012.835-.139 1.322-1.652 1.397-2.279 4.134-1.382 6.826.916 2.756 3.14 4.591 5.353 4.637.275.308.484.679.678.775.281.14.978.078 1.119-.202.107-.216.18-.696.324-1.137 2.032-1.229 2.887-4.237 1.903-7.192z"/><path fill="#91C33F" d="M95.289 94.297c-.954-2.861-3.311-4.73-5.606-4.637-.49-.263-.963-.764-1.234-.899-.28-.141-.877.227-1.018.507-.121.242-.012.836-.138 1.322-1.653 1.397-2.278 4.135-1.383 6.826.916 2.756 3.142 4.591 5.353 4.638.277.307.486.678.678.774.281.14.98.078 1.119-.202.107-.216.182-.696.326-1.137 2.031-1.228 2.885-4.236 1.903-7.192"/><path fill="#EB8B2D" d="M99.892 110.377c1.465-1.655 1.785-3.839.883-5.261-.014-.407.131-.892.117-1.114-.014-.229-.467-.473-.695-.458-.199.01-.535.299-.891.396-1.494-.535-3.461.074-4.84 1.631-1.414 1.595-1.759 3.681-.976 5.102-.094.288-.252.558-.244.716.015.23.312.649.541.635.177-.011.507-.141.841-.211 1.526.837 3.748.275 5.264-1.436"/><path fill="#FFF101" d="M99.843 109.98c1.465-1.656 1.785-3.84.881-5.261-.012-.408.131-.893.119-1.115-.013-.229-.467-.472-.695-.458-.199.011-.535.299-.891.397-1.494-.535-3.463.073-4.842 1.631-1.412 1.595-1.757 3.681-.974 5.101-.094.289-.254.559-.244.717.015.229.31.649.539.635.178-.011.508-.141.842-.211 1.527.837 3.75.274 5.265-1.436M86.497 93.941s-.05 2.522.987 4.46c1.035 1.938 2.756 2.656 2.756 2.656l.634.168s-1.738-1.237-2.74-3.108c-1.049-1.958-1.637-4.176-1.637-4.176"/><path fill="#EB8B2D" d="M95.652 111.056s1.662-.097 2.879-.922c1.216-.825 1.593-2.064 1.593-2.064l.077-.452s-.719 1.278-1.893 2.076c-1.228.835-2.656 1.362-2.656 1.362"/><path fill="#B4B5B4" d="M102.773 83.001c0 1.968-4.281 3.563-9.563 3.563-5.279 0-9.56-1.595-9.56-3.563 0-1.968 4.281-3.562 9.56-3.562 5.282 0 9.563 1.594 9.563 3.562"/><path fill="#FFFFFE" d="M127.533 83.182v28.368c0 2.287 4.279 4.142 9.56 4.142 5.281 0 9.563-1.855 9.563-4.142V83.182h-19.123"/><path fill="url(#u)" d="M146.105 83.182c-1.391 2.191-2.977 5.515-2.977 9.264 0 6.667 2.803 9.07 3.442 15.737.031.34.058.674.086 1.006V83.182z"/><path fill="url(#v)" d="M141.779 92.446c0-3.749 1.586-7.073 2.976-9.264h-3.23c-.779 2.472-1.725 6.646-1.33 11.589.203 2.564.621 4.159 1.101 5.413.412 1.072.869 1.901 1.285 2.854.614 1.408 1.135 3.103 1.264 6.344.084 2.134-.291 3.931-.877 5.432 1.031-.35 1.901-.786 2.529-1.288a62.81 62.81 0 0 0-.277-5.343c-.639-6.667-3.441-9.07-3.441-15.737z"/><path fill="url(#w)" d="M141.915 104.992c-.009-.04-.015-.08-.027-.121-.004-.015-.012-.031-.016-.046a13.255 13.255 0 0 0-.669-1.865c-.411-1.004-.887-2.028-1.37-3.087-.431-1.207-.8-2.742-.988-5.102-.394-4.943.551-9.117 1.33-11.589h-12.642v28.368c0 2.288 4.279 4.142 9.56 4.142.342 0 .678-.011 1.01-.026.33-.016.643-.055.963-.084.65-1.194 1.445-3.013 1.613-5.019.293-3.513.125-6.5.125-6.5s1.024 2.129 1.024 5.934c0 2.206-.491 4.112-.905 5.329.17-.032.356-.053.52-.09.685-1.582 1.144-3.515 1.053-5.854-.049-1.227-.145-2.472-.426-3.742-.049-.227-.1-.442-.155-.648z"/><path fill="#B4B5B4" d="M146.656 83.001c0 1.968-4.284 3.563-9.563 3.563-5.281 0-9.56-1.595-9.56-3.563 0-1.968 4.279-3.562 9.56-3.562 5.279 0 9.563 1.594 9.563 3.562"/><path fill="#FFFFFE" d="M105.591 83.182v28.368c0 2.287 4.28 4.142 9.561 4.142s9.56-1.855 9.56-4.142V83.182h-19.121"/><path fill="url(#x)" d="M124.164 83.182c-1.391 2.191-2.977 5.515-2.977 9.264 0 6.667 2.803 9.07 3.441 15.737.032.34.059.674.086 1.006V83.182z"/><path fill="url(#y)" d="M119.837 92.446c0-3.749 1.586-7.073 2.977-9.264h-3.231c-.779 2.472-1.724 6.646-1.33 11.589.203 2.564.621 4.159 1.102 5.413.412 1.072.869 1.901 1.285 2.854.613 1.408 1.135 3.103 1.264 6.344.084 2.134-.291 3.931-.877 5.432 1.031-.35 1.9-.786 2.529-1.288a63.226 63.226 0 0 0-.277-5.343c-.639-6.667-3.442-9.07-3.442-15.737z"/><path fill="url(#z)" d="M119.974 104.992c-.01-.04-.016-.08-.027-.121-.004-.015-.012-.031-.016-.046a13.251 13.251 0 0 0-.67-1.865c-.41-1.004-.887-2.028-1.369-3.087-.432-1.207-.801-2.742-.988-5.102-.395-4.943.551-9.117 1.33-11.589h-12.643v28.368c0 2.288 4.28 4.142 9.561 4.142.342 0 .678-.011 1.01-.026.33-.016.642-.055.962-.084.651-1.194 1.446-3.013 1.614-5.019.293-3.513.125-6.5.125-6.5s1.023 2.129 1.023 5.934c0 2.206-.49 4.112-.904 5.329.17-.032.355-.053.519-.09.686-1.582 1.145-3.515 1.053-5.854-.049-1.227-.144-2.472-.426-3.742a12.672 12.672 0 0 0-.154-.648z"/><path fill="#B4B5B4" d="M124.714 83.001c0 1.968-4.281 3.563-9.562 3.563s-9.561-1.595-9.561-3.563c0-1.968 4.28-3.562 9.561-3.562s9.562 1.594 9.562 3.562"/><path fill="#EFA92C" d="M27.388 111.22c-5.281 0-9.561-1.526-9.561-3.407v3.637c0 2.288 4.28 4.142 9.561 4.142s9.561-1.854 9.561-4.142v-3.637c0 1.881-4.282 3.407-9.561 3.407"/><path fill="#E3672A" d="M17.827 83.182v23.253c0 1.881 4.28 3.407 9.561 3.407 5.279 0 9.561-1.526 9.561-3.407V83.182H17.827"/><path fill="#FFF101" d="M27.388 109.842c-5.281 0-9.561-1.526-9.561-3.407v1.478c0 1.881 4.28 3.407 9.561 3.407 5.279 0 9.561-1.526 9.561-3.407v-1.478c0 1.881-4.282 3.407-9.561 3.407M33.115 98.951a5.996 5.996 0 1 1-11.992 0 5.996 5.996 0 0 1 11.992 0"/><path fill="#009949" d="M25.572 98.099a.976.976 0 0 1-1.95 0 .974.974 0 0 1 1.95 0M30.615 98.099a.974.974 0 1 1-1.948.002.974.974 0 0 1 1.948-.002M24.97 101.877c-.404-.304-.504-.634-.504-.634h5.17s-.072.695-1.648 1.072c-1.576.378-2.672-.178-3.018-.438M26.675 95.087s.438-3.219 2.156-3.219H30.8s-.062 1.531-.875 2.344c-.812.812-3.25.875-3.25.875"/><path fill="#B4B5B4" d="M36.949 83.001c0 1.968-4.28 3.563-9.561 3.563s-9.561-1.595-9.561-3.563c0-1.968 4.28-3.562 9.561-3.562s9.561 1.594 9.561 3.562"/><path fill="#EFA92C" d="M49.33 111.22c-5.282 0-9.561-1.526-9.561-3.407v3.637c0 2.288 4.279 4.142 9.561 4.142 5.281 0 9.56-1.854 9.56-4.142v-3.637c0 1.881-4.281 3.407-9.56 3.407"/><path fill="#E3672A" d="M39.769 83.182v23.253c0 1.881 4.279 3.407 9.561 3.407 5.279 0 9.56-1.526 9.56-3.407V83.182H39.769"/><path fill="#FFF101" d="M49.33 109.842c-5.282 0-9.561-1.526-9.561-3.407v1.478c0 1.881 4.279 3.407 9.561 3.407 5.279 0 9.56-1.526 9.56-3.407v-1.478c0 1.881-4.281 3.407-9.56 3.407M55.056 98.951a5.995 5.995 0 1 1-11.992 0 5.996 5.996 0 1 1 11.992 0"/><path fill="#009949" d="M47.513 98.099a.975.975 0 1 1-1.95 0 .975.975 0 0 1 1.95 0M52.556 98.099a.973.973 0 1 1-1.946.004.973.973 0 0 1 1.946-.004M46.912 101.877c-.405-.304-.504-.634-.504-.634h5.17s-.073.695-1.649 1.072c-1.576.378-2.672-.178-3.017-.438M48.617 95.087s.437-3.219 2.156-3.219h1.969s-.063 1.531-.875 2.344c-.813.812-3.25.875-3.25.875"/><path fill="#B4B5B4" d="M58.89 83.001c0 1.968-4.281 3.563-9.56 3.563-5.282 0-9.561-1.595-9.561-3.563 0-1.968 4.279-3.562 9.561-3.562 5.279 0 9.56 1.594 9.56 3.562"/><path fill="url(#A)" d="M149.474 83.182v28.368c0 2.288 4.279 4.142 9.561 4.142 5.279 0 9.56-1.854 9.56-4.142V83.182z"/><path fill="none" stroke="#B4B5B4" stroke-width=".75" d="M149.474 83.182v28.368c0 2.288 4.279 4.142 9.561 4.142 5.279 0 9.56-1.854 9.56-4.142V83.182z"/><path fill="#B4B5B4" d="M168.984 83.001c0 1.968-4.445 3.563-9.928 3.563-5.482 0-9.926-1.595-9.926-3.563 0-1.968 4.444-3.562 9.926-3.562 5.483 0 9.928 1.594 9.928 3.562"/><path fill="#FFFFFE" d="M155.425 95.625a1.155 1.155 0 1 1-2.31.001 1.155 1.155 0 0 1 2.31-.001"/><path fill="url(#B)" d="M153.367 95.687c0-.536.433-.97.966-.97.178 0 .344.053.489.138a.956.956 0 0 0-.606-.219.967.967 0 0 0-.488 1.801.964.964 0 0 1-.361-.75z"/><path fill="#FFFFFE" d="M159.675 98a1.562 1.562 0 1 1-3.125.001 1.562 1.562 0 0 1 3.125-.001"/><path fill="url(#C)" d="M156.894 98.083c0-.723.584-1.31 1.305-1.31.242 0 .466.071.66.186a1.293 1.293 0 0 0-.817-.296 1.307 1.307 0 0 0-.66 2.434 1.305 1.305 0 0 1-.488-1.014z"/><path fill="#FFFFFE" d="M154.113 101.875a1.563 1.563 0 1 1-3.125 0 1.563 1.563 0 0 1 3.125 0"/><path fill="url(#D)" d="M151.331 101.958c0-.723.584-1.31 1.305-1.31.242 0 .467.071.66.186a1.29 1.29 0 0 0-.816-.296 1.308 1.308 0 0 0-.66 2.434 1.306 1.306 0 0 1-.489-1.014z"/><path fill="#FFFFFE" d="M163.8 111.531a1.906 1.906 0 1 1-3.813.001 1.906 1.906 0 0 1 3.813-.001"/><path fill="url(#E)" d="M160.408 111.632c0-.882.713-1.597 1.591-1.597.295 0 .569.086.805.226a1.58 1.58 0 0 0-.996-.361 1.596 1.596 0 0 0-.805 2.969 1.586 1.586 0 0 1-.595-1.237z"/><path fill="#FFFFFE" d="M166.113 106a1.563 1.563 0 1 1-3.125 0 1.563 1.563 0 0 1 3.125 0"/><path fill="url(#F)" d="M163.331 106.083c0-.723.584-1.31 1.305-1.31.242 0 .467.071.66.186a1.29 1.29 0 0 0-.816-.296 1.308 1.308 0 0 0-.66 2.434 1.306 1.306 0 0 1-.489-1.014z"/><path fill="#FFFFFE" d="M166.363 92.594a.97.97 0 1 1-1.938 0 .97.97 0 0 1 1.938 0"/><path fill="url(#G)" d="M164.638 92.645a.807.807 0 0 1 1.219-.697.809.809 0 0 0-.508-.183.809.809 0 0 0-.408 1.508.803.803 0 0 1-.303-.628z"/><path fill="#FFFFFE" d="M166.8 89.563a.625.625 0 1 1-1.25 0 .625.625 0 0 1 1.25 0"/><path fill="url(#H)" d="M165.687 89.596a.519.519 0 0 1 .787-.45.524.524 0 0 0-.328-.119.524.524 0 0 0-.264.974.524.524 0 0 1-.195-.405z"/><path fill="#FFFFFE" d="M163.3 89.875a.875.875 0 1 1-1.75 0 .875.875 0 0 1 1.75 0"/><path fill="url(#I)" d="M161.744 89.921a.726.726 0 0 1 1.099-.629.726.726 0 0 0-.459-.166.731.731 0 0 0-.367 1.363.727.727 0 0 1-.273-.568z"/><path fill="#D8232A" d="M19.359 159.212c.597-6.923 1.713-7.599 1.832-12.331.043-1.754-.549-5.333-1.072-8.112h-2.292v28.369c0 1.004.824 1.924 2.195 2.641-.488-2.567-1.017-6.455-.663-10.567M26.031 138.769c-.033 2.428-.322 6.098-1.42 9.462-1.789 5.491-2.147 7.759-1.908 13.368.152 3.608 3.359 7.403 5.634 9.66 4.836-.207 8.612-1.972 8.612-4.121v-28.369H26.031"/><path fill="#FFFFFE" d="M20.076 159.212c.597-6.923 2.211-9.701 2.627-12.771.398-2.947-.153-5.635-.85-7.672h-1.734c.523 2.779 1.115 6.358 1.072 8.112-.119 4.732-1.235 5.408-1.832 12.331-.354 4.112.175 8 .663 10.567.244.127.509.246.786.359-.505-2.553-1.103-6.623-.732-10.926"/><path fill="url(#J)" d="M22.703 161.599c-.239-5.609.119-7.877 1.908-13.368 1.098-3.364 1.387-7.034 1.42-9.462h-4.178c.697 2.037 1.248 4.725.85 7.672-.416 3.07-2.03 5.848-2.627 12.771-.371 4.303.227 8.373.732 10.926 1.715.706 4.027 1.143 6.58 1.143.084 0 .164-.005.248-.006.235-.002.471-.006.701-.016-2.275-2.257-5.482-6.052-5.634-9.66z"/><path fill="#B4B5B4" d="M36.949 138.589c0 1.967-4.28 3.563-9.561 3.563s-9.561-1.596-9.561-3.563c0-1.968 4.28-3.562 9.561-3.562s9.561 1.594 9.561 3.562"/><path fill="#D8232A" d="M41.3 159.212c.598-6.923 1.713-7.599 1.832-12.331.043-1.754-.548-5.333-1.072-8.112h-2.291v28.369c0 1.004.824 1.924 2.195 2.641-.488-2.567-1.017-6.455-.664-10.567M47.972 138.769c-.033 2.428-.322 6.098-1.42 9.462-1.789 5.491-2.146 7.759-1.908 13.368.152 3.608 3.359 7.403 5.635 9.66 4.836-.207 8.611-1.972 8.611-4.121v-28.369H47.972"/><path fill="#FFFFFE" d="M42.017 159.212c.598-6.923 2.211-9.701 2.627-12.771.398-2.947-.152-5.635-.85-7.672H42.06c.524 2.779 1.115 6.358 1.072 8.112-.119 4.732-1.234 5.408-1.832 12.331-.353 4.112.176 8 .664 10.567.242.127.508.246.786.359-.506-2.553-1.104-6.623-.733-10.926"/><path fill="url(#K)" d="M44.644 161.599c-.238-5.609.119-7.877 1.908-13.368 1.098-3.364 1.387-7.034 1.42-9.462h-4.178c.698 2.037 1.248 4.725.85 7.672-.416 3.07-2.029 5.848-2.627 12.771-.371 4.303.227 8.373.733 10.926 1.714.706 4.027 1.143 6.58 1.143.084 0 .164-.005.248-.006.234-.002.47-.006.701-.016-2.276-2.257-5.483-6.052-5.635-9.66z"/><path fill="#B4B5B4" d="M58.89 138.589c0 1.967-4.281 3.563-9.56 3.563-5.282 0-9.561-1.596-9.561-3.563 0-1.968 4.279-3.562 9.561-3.562 5.279 0 9.56 1.594 9.56 3.562"/><path fill="#D8232A" d="M63.242 159.212c.595-6.923 1.713-7.599 1.83-12.331.045-1.754-.549-5.333-1.071-8.112h-2.292v28.369c0 1.004.824 1.924 2.195 2.641-.489-2.567-1.018-6.455-.662-10.567M69.912 138.769c-.034 2.428-.323 6.098-1.418 9.462-1.791 5.491-2.149 7.759-1.91 13.368.154 3.608 3.361 7.403 5.634 9.66 4.836-.207 8.613-1.972 8.613-4.121v-28.369H69.912"/><path fill="#FFFFFE" d="M63.959 159.212c.595-6.923 2.208-9.701 2.625-12.771.4-2.947-.151-5.635-.848-7.672h-1.735c.522 2.779 1.116 6.358 1.071 8.112-.117 4.732-1.235 5.408-1.83 12.331-.356 4.112.173 8 .662 10.567.244.127.51.246.785.359-.504-2.553-1.102-6.623-.73-10.926"/><path fill="url(#L)" d="M66.584 161.599c-.239-5.609.119-7.877 1.91-13.368 1.095-3.364 1.384-7.034 1.418-9.462h-4.176c.697 2.037 1.248 4.725.848 7.672-.417 3.07-2.03 5.848-2.625 12.771-.372 4.303.226 8.373.73 10.926 1.715.706 4.027 1.143 6.58 1.143.084 0 .166-.005.248-.006.236-.002.471-.006.701-.016-2.273-2.257-5.48-6.052-5.634-9.66z"/><path fill="#B4B5B4" d="M80.831 138.589c0 1.967-4.281 3.563-9.56 3.563-5.281 0-9.561-1.596-9.561-3.563 0-1.968 4.28-3.562 9.561-3.562 5.279 0 9.56 1.594 9.56 3.562"/><path fill="url(#M)" d="M105.591 138.769v28.369c0 2.287 4.281 4.143 9.561 4.143 5.281 0 9.562-1.856 9.562-4.143v-28.369z"/><path fill="#FFFFFE" d="m115.3 150.353.805-2.412-1.096-1.095.656-1.096 3.799 3.142-.73.657-1.608-1.022-1.242 2.775-.584-.949"/><path fill="none" stroke="#FFFFFE" stroke-linecap="round" stroke-linejoin="round" d="m115.3 150.353.805-2.412-1.096-1.095.656-1.096 3.799 3.142-.73.657-1.608-1.022-1.242 2.775z"/><path fill="#FFFFFE" d="M112.665 154.669a2.02 2.02 0 1 1-2.019-2.021 2.02 2.02 0 0 1 2.019 2.021"/><path fill="none" stroke="#FFFFFE" stroke-linecap="round" stroke-linejoin="round" d="M112.665 154.669a2.02 2.02 0 1 1-2.019-2.021 2.02 2.02 0 0 1 2.019 2.021z"/><path fill="#FFFFFE" d="M111.263 153.182s-1.09-.286-1.578.134c-.486.42-.672.84-.621 1.411.051.571.135.773.135.773s-.051-1.192.552-1.663c.606-.47 1.194-.554 1.194-.554l.318-.101"/><path fill="none" stroke="#FFFFFE" stroke-linecap="round" stroke-linejoin="round" d="M111.263 153.182s-1.09-.286-1.578.134c-.486.42-.672.84-.621 1.411.051.571.135.773.135.773s-.051-1.192.552-1.663c.606-.47 1.194-.554 1.194-.554z"/><path fill="#FFFFFE" d="M113.144 158.47a2.021 2.021 0 1 1-4.042 0 2.021 2.021 0 0 1 4.042 0"/><path fill="none" stroke="#FFFFFE" stroke-linecap="round" stroke-linejoin="round" d="M113.144 158.47a2.021 2.021 0 1 1-4.042 0 2.021 2.021 0 0 1 4.042 0z"/><path fill="#FFFFFE" d="M111.742 156.983s-1.092-.286-1.578.134c-.487.42-.672.84-.622 1.411.051.571.135.772.135.772s-.053-1.192.553-1.662c.605-.47 1.193-.554 1.193-.554l.319-.101"/><path fill="none" stroke="#FFFFFE" stroke-linecap="round" stroke-linejoin="round" d="M111.742 156.983s-1.092-.286-1.578.134c-.487.42-.672.84-.622 1.411.051.571.135.772.135.772s-.053-1.192.553-1.662c.605-.47 1.193-.554 1.193-.554z"/><path fill="#FFFFFE" d="M112.837 150.671a2.02 2.02 0 1 1-4.04.002 2.02 2.02 0 0 1 4.04-.002"/><path fill="none" stroke="#FFFFFE" stroke-linecap="round" stroke-linejoin="round" d="M112.837 150.671a2.02 2.02 0 1 1-4.04.002 2.02 2.02 0 0 1 4.04-.002z"/><path fill="#FFFFFE" d="M111.435 149.183s-1.09-.285-1.578.135c-.486.42-.672.84-.621 1.41.051.571.135.774.135.774s-.051-1.193.552-1.664c.606-.469 1.194-.553 1.194-.553l.318-.102"/><path fill="none" stroke="#FFFFFE" stroke-linecap="round" stroke-linejoin="round" d="M111.435 149.183s-1.09-.285-1.578.135c-.486.42-.672.84-.621 1.41.051.571.135.774.135.774s-.051-1.193.552-1.664c.606-.469 1.194-.553 1.194-.553z"/><path fill="#FFFFFE" d="M116.607 150.24a2.02 2.02 0 1 1-4.04.002 2.02 2.02 0 0 1 4.04-.002"/><path fill="none" stroke="#FFFFFE" stroke-linecap="round" stroke-linejoin="round" d="M116.607 150.24a2.02 2.02 0 1 1-4.04.002 2.02 2.02 0 0 1 4.04-.002z"/><path fill="#FFFFFE" d="M115.205 148.753s-1.092-.286-1.579.134c-.486.42-.671.84-.621 1.411.049.571.135.772.135.772s-.053-1.192.553-1.662c.605-.471 1.193-.555 1.193-.555l.319-.1"/><path fill="none" stroke="#FFFFFE" stroke-linecap="round" stroke-linejoin="round" d="M115.205 148.753s-1.092-.286-1.579.134c-.486.42-.671.84-.621 1.411.049.571.135.772.135.772s-.053-1.192.553-1.662c.605-.471 1.193-.555 1.193-.555z"/><path fill="#FFFFFE" d="M120.269 151.64a2.022 2.022 0 1 1-4.043 0 2.022 2.022 0 0 1 4.043 0"/><path fill="none" stroke="#FFFFFE" stroke-linecap="round" stroke-linejoin="round" d="M120.269 151.64a2.022 2.022 0 1 1-4.043 0 2.022 2.022 0 0 1 4.043 0z"/><path fill="#FFFFFE" d="M118.867 150.153s-1.092-.286-1.578.134c-.489.42-.674.84-.624 1.411.051.571.135.772.135.772s-.051-1.192.555-1.662c.603-.471 1.191-.555 1.191-.555l.321-.1"/><path fill="none" stroke="#FFFFFE" stroke-linecap="round" stroke-linejoin="round" d="M118.867 150.153s-1.092-.286-1.578.134c-.489.42-.674.84-.624 1.411.051.571.135.772.135.772s-.051-1.192.555-1.662c.603-.471 1.191-.555 1.191-.555z"/><path fill="#FFFFFE" d="M123.39 154.009a2.02 2.02 0 1 1-4.04.002 2.02 2.02 0 0 1 4.04-.002"/><path fill="none" stroke="#FFFFFE" stroke-linecap="round" stroke-linejoin="round" d="M123.39 154.009a2.02 2.02 0 1 1-4.04.002 2.02 2.02 0 0 1 4.04-.002z"/><path fill="#FFFFFE" d="M121.988 152.522s-1.09-.286-1.578.134c-.487.42-.672.84-.621 1.411.05.571.134.772.134.772s-.051-1.192.553-1.662c.605-.47 1.193-.554 1.193-.554l.319-.101"/><path fill="none" stroke="#FFFFFE" stroke-linecap="round" stroke-linejoin="round" d="M121.988 152.522s-1.09-.286-1.578.134c-.487.42-.672.84-.621 1.411.05.571.134.772.134.772s-.051-1.192.553-1.662c.605-.47 1.193-.554 1.193-.554z"/><path fill="#FFFFFE" d="M114.669 153.579a2.022 2.022 0 1 1-4.042-.004 2.022 2.022 0 0 1 4.042.004"/><path fill="none" stroke="#FFFFFE" stroke-linecap="round" stroke-linejoin="round" d="M114.669 153.579a2.022 2.022 0 1 1-4.042-.004 2.022 2.022 0 0 1 4.042.004z"/><path fill="#FFFFFE" d="M113.267 152.091s-1.092-.285-1.578.134c-.488.42-.674.841-.623 1.411.051.571.135.772.135.772s-.051-1.192.554-1.662c.604-.47 1.192-.555 1.192-.555l.32-.1"/><path fill="none" stroke="#FFFFFE" stroke-linecap="round" stroke-linejoin="round" d="M113.267 152.091s-1.092-.285-1.578.134c-.488.42-.674.841-.623 1.411.051.571.135.772.135.772s-.051-1.192.554-1.662c.604-.47 1.192-.555 1.192-.555z"/><path fill="#FFFFFE" d="M117.728 154.239a2.02 2.02 0 1 1-4.04 0 2.02 2.02 0 0 1 4.04 0"/><path fill="none" stroke="#FFFFFE" stroke-linecap="round" stroke-linejoin="round" d="M117.728 154.239a2.02 2.02 0 1 1-4.04 0 2.02 2.02 0 0 1 4.04 0z"/><path fill="#FFFFFE" d="M116.326 152.752s-1.092-.286-1.579.134c-.488.42-.671.84-.623 1.41.051.571.135.773.135.773s-.051-1.192.555-1.663c.603-.47 1.193-.554 1.193-.554l.319-.1"/><path fill="none" stroke="#FFFFFE" stroke-linecap="round" stroke-linejoin="round" d="M116.326 152.752s-1.092-.286-1.579.134c-.488.42-.671.84-.623 1.41.051.571.135.773.135.773s-.051-1.192.555-1.663c.603-.47 1.193-.554 1.193-.554z"/><path fill="#FFFFFE" d="M120.527 155.962a2.02 2.02 0 1 1-4.04 0 2.02 2.02 0 0 1 4.04 0"/><path fill="none" stroke="#FFFFFE" stroke-linecap="round" stroke-linejoin="round" d="M120.527 155.962a2.02 2.02 0 1 1-4.04 0 2.02 2.02 0 0 1 4.04 0z"/><path fill="#FFFFFE" d="M119.124 154.474s-1.089-.285-1.578.135c-.486.42-.672.84-.621 1.41.051.571.135.773.135.773s-.051-1.193.553-1.663c.605-.469 1.193-.553 1.193-.553l.318-.102"/><path fill="none" stroke="#FFFFFE" stroke-linecap="round" stroke-linejoin="round" d="M119.124 154.474s-1.089-.285-1.578.135c-.486.42-.672.84-.621 1.41.051.571.135.773.135.773s-.051-1.193.553-1.663c.605-.469 1.193-.553 1.193-.553z"/><path fill="#FFFFFE" d="M114.927 157.253a2.02 2.02 0 1 1-4.041 0 2.02 2.02 0 1 1 4.041 0"/><path fill="none" stroke="#FFFFFE" stroke-linecap="round" stroke-linejoin="round" d="M114.927 157.253a2.02 2.02 0 1 1-4.041 0 2.02 2.02 0 1 1 4.041 0z"/><path fill="#FFFFFE" d="M113.525 155.767s-1.09-.286-1.578.134c-.487.42-.672.84-.621 1.411.05.57.134.772.134.772s-.05-1.192.553-1.663c.606-.47 1.193-.554 1.193-.554l.319-.1"/><path fill="none" stroke="#FFFFFE" stroke-linecap="round" stroke-linejoin="round" d="M113.525 155.767s-1.09-.286-1.578.134c-.487.42-.672.84-.621 1.411.05.57.134.772.134.772s-.05-1.192.553-1.663c.606-.47 1.193-.554 1.193-.554z"/><path fill="#FFFFFE" d="M117.621 158.223a2.021 2.021 0 1 1-4.043 0 2.021 2.021 0 0 1 4.043 0"/><path fill="none" stroke="#FFFFFE" stroke-linecap="round" stroke-linejoin="round" d="M117.621 158.223a2.021 2.021 0 1 1-4.043 0 2.021 2.021 0 0 1 4.043 0z"/><path fill="#FFFFFE" d="M116.218 156.736s-1.092-.285-1.578.135c-.488.419-.674.839-.623 1.41.051.57.135.772.135.772s-.051-1.192.554-1.663c.604-.47 1.192-.554 1.192-.554l.32-.1"/><path fill="none" stroke="#FFFFFE" stroke-linecap="round" stroke-linejoin="round" d="M116.218 156.736s-1.092-.285-1.578.135c-.488.419-.674.839-.623 1.41.051.57.135.772.135.772s-.051-1.192.554-1.663c.604-.47 1.192-.554 1.192-.554z"/><path fill="#FFFFFE" d="M115.574 161.345a2.022 2.022 0 1 1-4.043 0 2.022 2.022 0 0 1 4.043 0"/><path fill="none" stroke="#FFFFFE" stroke-linecap="round" stroke-linejoin="round" d="M115.574 161.345a2.022 2.022 0 1 1-4.043 0 2.022 2.022 0 0 1 4.043 0z"/><path fill="#FFFFFE" d="M114.171 159.859s-1.091-.286-1.578.134c-.486.42-.672.841-.621 1.411.051.57.135.771.135.771s-.053-1.191.553-1.662c.605-.469 1.193-.554 1.193-.554l.318-.1"/><path fill="none" stroke="#FFFFFE" stroke-linecap="round" stroke-linejoin="round" d="M114.171 159.859s-1.091-.286-1.578.134c-.486.42-.672.841-.621 1.411.051.57.135.771.135.771s-.053-1.191.553-1.662c.605-.469 1.193-.554 1.193-.554z"/><path fill="#009949" d="m115.3 150.353.805-2.412-1.096-1.095.656-1.096 3.799 3.142-.73.657-1.608-1.022-1.242 2.775-.584-.949"/><path fill="#961565" d="M112.665 154.669a2.02 2.02 0 1 1-2.019-2.021 2.02 2.02 0 0 1 2.019 2.021"/><path fill="#FFFFFE" d="M111.263 153.182s-1.09-.286-1.578.134c-.486.42-.672.84-.621 1.411.051.571.135.773.135.773s-.051-1.192.552-1.663c.606-.47 1.194-.554 1.194-.554l.318-.101"/><path fill="#961565" d="M113.144 158.47a2.021 2.021 0 1 1-4.042 0 2.021 2.021 0 0 1 4.042 0"/><path fill="#FFFFFE" d="M111.742 156.983s-1.092-.286-1.578.134c-.487.42-.672.84-.622 1.411.051.571.135.772.135.772s-.053-1.192.553-1.662c.605-.47 1.193-.554 1.193-.554l.319-.101"/><path fill="#961565" d="M112.837 150.671a2.02 2.02 0 1 1-4.04.002 2.02 2.02 0 0 1 4.04-.002"/><path fill="#FFFFFE" d="M111.435 149.183s-1.09-.285-1.578.135c-.486.42-.672.84-.621 1.41.051.571.135.774.135.774s-.051-1.193.552-1.664c.606-.469 1.194-.553 1.194-.553l.318-.102"/><path fill="#961565" d="M116.607 150.24a2.02 2.02 0 1 1-4.04.002 2.02 2.02 0 0 1 4.04-.002"/><path fill="#FFFFFE" d="M115.205 148.753s-1.092-.286-1.579.134c-.486.42-.671.84-.621 1.411.049.571.135.772.135.772s-.053-1.192.553-1.662c.605-.471 1.193-.555 1.193-.555l.319-.1"/><path fill="#961565" d="M120.269 151.64a2.022 2.022 0 1 1-4.043 0 2.022 2.022 0 0 1 4.043 0"/><path fill="#FFFFFE" d="M118.867 150.153s-1.092-.286-1.578.134c-.489.42-.674.84-.624 1.411.051.571.135.772.135.772s-.051-1.192.555-1.662c.603-.471 1.191-.555 1.191-.555l.321-.1"/><path fill="#961565" d="M123.39 154.009a2.02 2.02 0 1 1-4.04.002 2.02 2.02 0 0 1 4.04-.002"/><path fill="#FFFFFE" d="M121.988 152.522s-1.09-.286-1.578.134c-.487.42-.672.84-.621 1.411.05.571.134.772.134.772s-.051-1.192.553-1.662c.605-.47 1.193-.554 1.193-.554l.319-.101"/><path fill="#961565" d="M114.669 153.579a2.022 2.022 0 1 1-4.042-.004 2.022 2.022 0 0 1 4.042.004"/><path fill="#FFFFFE" d="M113.267 152.091s-1.092-.285-1.578.134c-.488.42-.674.841-.623 1.411.051.571.135.772.135.772s-.051-1.192.554-1.662c.604-.47 1.192-.555 1.192-.555l.32-.1"/><path fill="#961565" d="M117.728 154.239a2.02 2.02 0 1 1-4.04 0 2.02 2.02 0 0 1 4.04 0"/><path fill="#FFFFFE" d="M116.326 152.752s-1.092-.286-1.579.134c-.488.42-.671.84-.623 1.41.051.571.135.773.135.773s-.051-1.192.555-1.663c.603-.47 1.193-.554 1.193-.554l.319-.1"/><path fill="#961565" d="M120.527 155.962a2.02 2.02 0 1 1-4.04 0 2.02 2.02 0 0 1 4.04 0"/><path fill="#FFFFFE" d="M119.124 154.474s-1.089-.285-1.578.135c-.486.42-.672.84-.621 1.41.051.571.135.773.135.773s-.051-1.193.553-1.663c.605-.469 1.193-.553 1.193-.553l.318-.102"/><path fill="#961565" d="M114.927 157.253a2.02 2.02 0 1 1-4.041 0 2.02 2.02 0 1 1 4.041 0"/><path fill="#FFFFFE" d="M113.525 155.767s-1.09-.286-1.578.134c-.487.42-.672.84-.621 1.411.05.57.134.772.134.772s-.05-1.192.553-1.663c.606-.47 1.193-.554 1.193-.554l.319-.1"/><path fill="#961565" d="M117.621 158.223a2.021 2.021 0 1 1-4.043 0 2.021 2.021 0 0 1 4.043 0"/><path fill="#FFFFFE" d="M116.218 156.736s-1.092-.285-1.578.135c-.488.419-.674.839-.623 1.41.051.57.135.772.135.772s-.051-1.192.554-1.663c.604-.47 1.192-.554 1.192-.554l.32-.1"/><path fill="#961565" d="M115.574 161.345a2.022 2.022 0 1 1-4.043 0 2.022 2.022 0 0 1 4.043 0"/><path fill="#FFFFFE" d="M114.171 159.859s-1.091-.286-1.578.134c-.486.42-.672.841-.621 1.411.051.57.135.771.135.771s-.053-1.191.553-1.662c.605-.469 1.193-.554 1.193-.554l.318-.1"/><path fill="#961565" d="M120.048 166.845a2.02 2.02 0 1 1-4.042.002 2.02 2.02 0 0 1 4.042-.002"/><path fill="#FFFFFE" d="M118.646 165.359s-1.092-.286-1.578.134c-.487.42-.672.841-.621 1.411.05.57.134.771.134.771s-.052-1.191.553-1.662c.606-.469 1.194-.554 1.194-.554l.318-.1"/><path fill="#961565" d="M123.048 163.22a1.52 1.52 0 1 1-3.041.003 1.52 1.52 0 0 1 3.041-.003"/><path fill="#FFFFFE" d="M121.994 162.101s-.823-.215-1.188.102c-.367.316-.506.632-.469 1.062.039.429.102.58.102.58s-.039-.896.416-1.25c.455-.354.898-.418.898-.418l.241-.076"/><path fill="#961565" d="M110.298 164.095a1.52 1.52 0 1 1-3.041.003 1.52 1.52 0 0 1 3.041-.003"/><path fill="#FFFFFE" d="M109.244 162.976s-.823-.215-1.188.102c-.367.316-.506.632-.469 1.062.039.429.102.58.102.58s-.039-.896.416-1.25c.455-.354.898-.418.898-.418l.241-.076"/><path fill="#B4B5B4" d="M124.714 138.589c0 1.967-4.281 3.563-9.562 3.563s-9.561-1.596-9.561-3.563c0-1.968 4.28-3.562 9.561-3.562s9.562 1.594 9.562 3.562"/><path fill="url(#N)" d="M127.533 138.769v28.369c0 2.287 4.279 4.143 9.56 4.143 5.279 0 9.563-1.856 9.563-4.143v-28.369z"/><g clip-path="url(#O)"><path fill="none" stroke="#C3DA84" stroke-width=".5" d="M128.372 132.002v46.763m1.592-46.763v46.763m1.592-46.763v46.763m1.592-46.763v46.763m1.592-46.763v46.763m1.591-46.763v46.763m1.592-46.763v46.763m1.592-46.763v46.763m1.592-46.763v46.763m1.592-46.763v46.763m1.591-46.763v46.763m1.592-46.763v46.763"/></g><path fill="url(#P)" d="M139.751 154.244s-1.324-4.614 1.198-5.971c2.521-1.359 3.289-1.426 3.289-1.426s1.093 2.754.265 4.387c-.828 1.631-1.871 2.494-2.648 2.906-.899.475-1.994 1.04-1.994 1.04z"/><path fill="url(#Q)" d="m141.634 150.886-1.236 3.237s.254-3.406 1.506-4.422c1.254-1.016 1.826-2.142 1.826-2.142z"/><path fill="url(#R)" d="M139.244 160.505s.22-4.793-2.545-5.531c-2.768-.74-3.53-.627-3.53-.627s-.427 2.932.756 4.328c1.182 1.397 2.397 1.996 3.248 2.217.985.254 2.18.551 2.18.551z"/><path fill="url(#S)" d="m136.636 157.674 1.949 2.864s-1.033-3.255-2.486-3.953c-1.455-.7-2.271-1.663-2.271-1.663z"/><path fill="url(#T)" d="M138.884 165.568s.141-3.84 2.397-4.246c2.256-.406 2.855-.267 2.855-.267s.149 2.366-.887 3.404c-1.037 1.035-2.044 1.433-2.738 1.552-.803.139-1.775.296-1.775.296z"/><path fill="url(#U)" d="m141.152 163.48-1.744 2.156s1.039-2.528 2.244-2.99c1.207-.461 1.922-1.176 1.922-1.176z"/><path fill="#B4B5B4" d="M146.656 138.589c0 1.967-4.284 3.563-9.563 3.563-5.281 0-9.56-1.596-9.56-3.563 0-1.968 4.279-3.562 9.56-3.562 5.279 0 9.563 1.594 9.563 3.562"/><path fill="url(#V)" d="M149.472 138.769v28.369c0 2.287 4.281 4.143 9.563 4.143 5.277 0 9.56-1.856 9.56-4.143v-28.369z"/><g clip-path="url(#W)"><path fill="none" stroke="#C3DA84" stroke-width=".5" d="M150.312 132.002v46.763m1.592-46.763v46.763m1.592-46.763v46.763m1.591-46.763v46.763m1.592-46.763v46.763m1.592-46.763v46.763m1.592-46.763v46.763m1.592-46.763v46.763m1.591-46.763v46.763m1.592-46.763v46.763m1.592-46.763v46.763m1.592-46.763v46.763"/></g><path fill="url(#X)" d="M161.691 154.244s-1.322-4.614 1.199-5.971c2.522-1.359 3.287-1.426 3.287-1.426s1.094 2.754.266 4.387c-.828 1.631-1.869 2.494-2.649 2.906-.898.475-1.992 1.04-1.992 1.04z"/><path fill="url(#Y)" d="m163.574 150.886-1.235 3.237s.252-3.406 1.506-4.422c1.254-1.016 1.824-2.142 1.824-2.142z"/><path fill="url(#Z)" d="M161.185 160.505s.221-4.793-2.547-5.531c-2.767-.74-3.529-.627-3.529-.627s-.426 2.932.756 4.328c1.183 1.397 2.396 1.996 3.248 2.217.984.254 2.181.551 2.181.551z"/><path fill="url(#aa)" d="m158.576 157.674 1.951 2.864s-1.033-3.255-2.488-3.953c-1.454-.7-2.27-1.663-2.27-1.663z"/><path fill="url(#ab)" d="M160.826 165.568s.138-3.84 2.394-4.246c2.258-.406 2.858-.267 2.858-.267s.146 2.366-.889 3.404c-1.035 1.035-2.043 1.433-2.736 1.552-.803.139-1.776.296-1.776.296z"/><path fill="url(#ac)" d="m163.093 163.48-1.744 2.156s1.037-2.528 2.244-2.99c1.205-.461 1.92-1.176 1.92-1.176z"/><path fill="#B4B5B4" d="M168.595 138.589c0 1.967-4.281 3.563-9.56 3.563-5.282 0-9.561-1.596-9.561-3.563 0-1.968 4.279-3.562 9.561-3.562 5.279 0 9.56 1.594 9.56 3.562"/><path fill="url(#ad)" d="M83.65 138.769v28.369c0 2.287 4.281 4.143 9.56 4.143 5.282 0 9.563-1.856 9.563-4.143v-28.369z"/><path fill="#FFFFFE" d="m93.359 150.353.805-2.412-1.096-1.095.656-1.096 3.799 3.142-.73.657-1.608-1.022-1.242 2.775-.584-.949"/><path fill="none" stroke="#FFFFFE" stroke-linecap="round" stroke-linejoin="round" d="m93.359 150.353.805-2.412-1.096-1.095.656-1.096 3.799 3.142-.73.657-1.608-1.022-1.242 2.775z"/><path fill="#FFFFFE" d="M90.724 154.669a2.02 2.02 0 1 1-2.019-2.021 2.02 2.02 0 0 1 2.019 2.021"/><path fill="none" stroke="#FFFFFE" stroke-linecap="round" stroke-linejoin="round" d="M90.724 154.669a2.02 2.02 0 1 1-2.019-2.021 2.02 2.02 0 0 1 2.019 2.021z"/><path fill="#FFFFFE" d="M89.322 153.182s-1.09-.286-1.578.134c-.487.42-.672.84-.622 1.411.051.571.135.773.135.773s-.051-1.192.553-1.663c.605-.47 1.193-.554 1.193-.554l.319-.101"/><path fill="none" stroke="#FFFFFE" stroke-linecap="round" stroke-linejoin="round" d="M89.322 153.182s-1.09-.286-1.578.134c-.487.42-.672.84-.622 1.411.051.571.135.773.135.773s-.051-1.192.553-1.663c.605-.47 1.193-.554 1.193-.554z"/><path fill="#FFFFFE" d="M91.203 158.47a2.022 2.022 0 1 1-4.043-.001 2.022 2.022 0 0 1 4.043.001"/><path fill="none" stroke="#FFFFFE" stroke-linecap="round" stroke-linejoin="round" d="M91.203 158.47a2.022 2.022 0 1 1-4.043-.001 2.022 2.022 0 0 1 4.043.001z"/><path fill="#FFFFFE" d="M89.8 156.983s-1.091-.286-1.578.134c-.486.42-.672.84-.621 1.411.051.571.135.772.135.772s-.053-1.192.553-1.662c.605-.47 1.193-.554 1.193-.554l.318-.101"/><path fill="none" stroke="#FFFFFE" stroke-linecap="round" stroke-linejoin="round" d="M89.8 156.983s-1.091-.286-1.578.134c-.486.42-.672.84-.621 1.411.051.571.135.772.135.772s-.053-1.192.553-1.662c.605-.47 1.193-.554 1.193-.554z"/><path fill="#FFFFFE" d="M90.896 150.671a2.02 2.02 0 1 1-4.04.001 2.02 2.02 0 0 1 4.04-.001"/><path fill="none" stroke="#FFFFFE" stroke-linecap="round" stroke-linejoin="round" d="M90.896 150.671a2.02 2.02 0 1 1-4.04.001 2.02 2.02 0 0 1 4.04-.001z"/><path fill="#FFFFFE" d="M89.494 149.183s-1.09-.285-1.579.135c-.486.42-.671.84-.621 1.41.051.571.135.774.135.774s-.051-1.193.553-1.664c.605-.469 1.193-.553 1.193-.553l.319-.102"/><path fill="none" stroke="#FFFFFE" stroke-linecap="round" stroke-linejoin="round" d="M89.494 149.183s-1.09-.285-1.579.135c-.486.42-.671.84-.621 1.41.051.571.135.774.135.774s-.051-1.193.553-1.664c.605-.469 1.193-.553 1.193-.553z"/><path fill="#FFFFFE" d="M94.665 150.24a2.02 2.02 0 1 1-4.041 0 2.022 2.022 0 0 1 4.041 0"/><path fill="none" stroke="#FFFFFE" stroke-linecap="round" stroke-linejoin="round" d="M94.665 150.24a2.02 2.02 0 1 1-4.041 0 2.022 2.022 0 0 1 4.041 0z"/><path fill="#FFFFFE" d="M93.263 148.753s-1.092-.286-1.578.134-.672.84-.621 1.411c.049.571.135.772.135.772s-.053-1.192.552-1.662c.606-.471 1.194-.555 1.194-.555l.318-.1"/><path fill="none" stroke="#FFFFFE" stroke-linecap="round" stroke-linejoin="round" d="M93.263 148.753s-1.092-.286-1.578.134-.672.84-.621 1.411c.049.571.135.772.135.772s-.053-1.192.552-1.662c.606-.471 1.194-.555 1.194-.555z"/><path fill="#FFFFFE" d="M98.328 151.64a2.022 2.022 0 1 1-4.045 0 2.022 2.022 0 0 1 4.045 0"/><path fill="none" stroke="#FFFFFE" stroke-linecap="round" stroke-linejoin="round" d="M98.328 151.64a2.022 2.022 0 1 1-4.045 0 2.022 2.022 0 0 1 4.045 0z"/><path fill="#FFFFFE" d="M96.925 150.153s-1.091-.286-1.578.134c-.488.42-.674.84-.623 1.411.051.571.135.772.135.772s-.051-1.192.555-1.662c.603-.471 1.191-.555 1.191-.555l.32-.1"/><path fill="none" stroke="#FFFFFE" stroke-linecap="round" stroke-linejoin="round" d="M96.925 150.153s-1.091-.286-1.578.134c-.488.42-.674.84-.623 1.411.051.571.135.772.135.772s-.051-1.192.555-1.662c.603-.471 1.191-.555 1.191-.555z"/><path fill="#FFFFFE" d="M101.449 154.009a2.021 2.021 0 1 1-4.042 0 2.021 2.021 0 0 1 4.042 0"/><path fill="none" stroke="#FFFFFE" stroke-linecap="round" stroke-linejoin="round" d="M101.449 154.009a2.021 2.021 0 1 1-4.042 0 2.021 2.021 0 0 1 4.042 0z"/><path fill="#FFFFFE" d="M100.046 152.522s-1.09-.286-1.578.134c-.486.42-.672.84-.621 1.411.051.571.135.772.135.772s-.051-1.192.553-1.662c.605-.47 1.193-.554 1.193-.554l.318-.101"/><path fill="none" stroke="#FFFFFE" stroke-linecap="round" stroke-linejoin="round" d="M100.046 152.522s-1.09-.286-1.578.134c-.486.42-.672.84-.621 1.411.051.571.135.772.135.772s-.051-1.192.553-1.662c.605-.47 1.193-.554 1.193-.554z"/><path fill="#FFFFFE" d="M92.728 153.579a2.021 2.021 0 1 1-4.044-.002 2.021 2.021 0 0 1 4.044.002"/><path fill="none" stroke="#FFFFFE" stroke-linecap="round" stroke-linejoin="round" d="M92.728 153.579a2.021 2.021 0 1 1-4.044-.002 2.021 2.021 0 0 1 4.044.002z"/><path fill="#FFFFFE" d="M91.326 152.091s-1.092-.285-1.579.134c-.488.42-.673.841-.623 1.411.051.571.135.772.135.772s-.05-1.192.555-1.662c.604-.47 1.191-.555 1.191-.555l.321-.1"/><path fill="none" stroke="#FFFFFE" stroke-linecap="round" stroke-linejoin="round" d="M91.326 152.091s-1.092-.285-1.579.134c-.488.42-.673.841-.623 1.411.051.571.135.772.135.772s-.05-1.192.555-1.662c.604-.47 1.191-.555 1.191-.555z"/><path fill="#FFFFFE" d="M95.787 154.239a2.02 2.02 0 1 1-4.041-.001 2.02 2.02 0 0 1 4.041.001"/><path fill="none" stroke="#FFFFFE" stroke-linecap="round" stroke-linejoin="round" d="M95.787 154.239a2.02 2.02 0 1 1-4.041-.001 2.02 2.02 0 0 1 4.041.001z"/><path fill="#FFFFFE" d="M94.384 152.752s-1.091-.286-1.578.134c-.488.42-.672.84-.623 1.41.051.571.135.773.135.773s-.051-1.192.555-1.663c.603-.47 1.193-.554 1.193-.554l.318-.1"/><path fill="none" stroke="#FFFFFE" stroke-linecap="round" stroke-linejoin="round" d="M94.384 152.752s-1.091-.286-1.578.134c-.488.42-.672.84-.623 1.41.051.571.135.773.135.773s-.051-1.192.555-1.663c.603-.47 1.193-.554 1.193-.554z"/><path fill="#FFFFFE" d="M98.585 155.962a2.02 2.02 0 1 1-4.041 0 2.02 2.02 0 1 1 4.041 0"/><path fill="none" stroke="#FFFFFE" stroke-linecap="round" stroke-linejoin="round" d="M98.585 155.962a2.02 2.02 0 1 1-4.041 0 2.02 2.02 0 1 1 4.041 0z"/><path fill="#FFFFFE" d="M97.183 154.474s-1.09-.285-1.578.135c-.486.42-.672.84-.621 1.41.051.571.135.773.135.773s-.051-1.193.552-1.663c.606-.469 1.194-.553 1.194-.553l.318-.102"/><path fill="none" stroke="#FFFFFE" stroke-linecap="round" stroke-linejoin="round" d="M97.183 154.474s-1.09-.285-1.578.135c-.486.42-.672.84-.621 1.41.051.571.135.773.135.773s-.051-1.193.552-1.663c.606-.469 1.194-.553 1.194-.553z"/><path fill="#FFFFFE" d="M92.986 157.253a2.02 2.02 0 1 1-4.041.003 2.02 2.02 0 0 1 4.041-.003"/><path fill="none" stroke="#FFFFFE" stroke-linecap="round" stroke-linejoin="round" d="M92.986 157.253a2.02 2.02 0 1 1-4.041.003 2.02 2.02 0 0 1 4.041-.003z"/><path fill="#FFFFFE" d="M91.583 155.767s-1.089-.286-1.578.134c-.486.42-.672.84-.621 1.411.051.57.135.772.135.772s-.051-1.192.553-1.663c.605-.47 1.193-.554 1.193-.554l.318-.1"/><path fill="none" stroke="#FFFFFE" stroke-linecap="round" stroke-linejoin="round" d="M91.583 155.767s-1.089-.286-1.578.134c-.486.42-.672.84-.621 1.411.051.57.135.772.135.772s-.051-1.192.553-1.663c.605-.47 1.193-.554 1.193-.554z"/><path fill="#FFFFFE" d="M95.679 158.223a2.02 2.02 0 1 1-4.041 0 2.02 2.02 0 0 1 4.041 0"/><path fill="none" stroke="#FFFFFE" stroke-linecap="round" stroke-linejoin="round" d="M95.679 158.223a2.02 2.02 0 1 1-4.041 0 2.02 2.02 0 0 1 4.041 0z"/><path fill="#FFFFFE" d="M94.277 156.736s-1.092-.285-1.578.135c-.489.419-.674.839-.623 1.41.05.57.134.772.134.772s-.05-1.192.555-1.663c.604-.47 1.191-.554 1.191-.554l.321-.1"/><path fill="none" stroke="#FFFFFE" stroke-linecap="round" stroke-linejoin="round" d="M94.277 156.736s-1.092-.285-1.578.135c-.489.419-.674.839-.623 1.41.05.57.134.772.134.772s-.05-1.192.555-1.663c.604-.47 1.191-.554 1.191-.554z"/><path fill="#FFFFFE" d="M93.632 161.345a2.02 2.02 0 1 1-4.042.002 2.02 2.02 0 0 1 4.042-.002"/><path fill="none" stroke="#FFFFFE" stroke-linecap="round" stroke-linejoin="round" d="M93.632 161.345a2.02 2.02 0 1 1-4.042.002 2.02 2.02 0 0 1 4.042-.002z"/><path fill="#FFFFFE" d="M92.23 159.859s-1.092-.286-1.578.134c-.487.42-.672.841-.621 1.411.051.57.134.771.134.771s-.052-1.191.553-1.662c.606-.469 1.194-.554 1.194-.554l.318-.1"/><path fill="none" stroke="#FFFFFE" stroke-linecap="round" stroke-linejoin="round" d="M92.23 159.859s-1.092-.286-1.578.134c-.487.42-.672.841-.621 1.411.051.57.134.771.134.771s-.052-1.191.553-1.662c.606-.469 1.194-.554 1.194-.554z"/><path fill="#009949" d="m93.359 150.353.805-2.412-1.096-1.095.656-1.096 3.799 3.142-.73.657-1.608-1.022-1.242 2.775-.584-.949"/><path fill="#961565" d="M90.724 154.669a2.02 2.02 0 1 1-2.019-2.021 2.02 2.02 0 0 1 2.019 2.021"/><path fill="#FFFFFE" d="M89.322 153.182s-1.09-.286-1.578.134c-.487.42-.672.84-.622 1.411.051.571.135.773.135.773s-.051-1.192.553-1.663c.605-.47 1.193-.554 1.193-.554l.319-.101"/><path fill="#961565" d="M91.203 158.47a2.022 2.022 0 1 1-4.043-.001 2.022 2.022 0 0 1 4.043.001"/><path fill="#FFFFFE" d="M89.8 156.983s-1.091-.286-1.578.134c-.486.42-.672.84-.621 1.411.051.571.135.772.135.772s-.053-1.192.553-1.662c.605-.47 1.193-.554 1.193-.554l.318-.101"/><path fill="#961565" d="M90.896 150.671a2.02 2.02 0 1 1-4.04.001 2.02 2.02 0 0 1 4.04-.001"/><path fill="#FFFFFE" d="M89.494 149.183s-1.09-.285-1.579.135c-.486.42-.671.84-.621 1.41.051.571.135.774.135.774s-.051-1.193.553-1.664c.605-.469 1.193-.553 1.193-.553l.319-.102"/><path fill="#961565" d="M94.665 150.24a2.02 2.02 0 1 1-4.041 0 2.022 2.022 0 0 1 4.041 0"/><path fill="#FFFFFE" d="M93.263 148.753s-1.092-.286-1.578.134-.672.84-.621 1.411c.049.571.135.772.135.772s-.053-1.192.552-1.662c.606-.471 1.194-.555 1.194-.555l.318-.1"/><path fill="#961565" d="M98.328 151.64a2.022 2.022 0 1 1-4.045 0 2.022 2.022 0 0 1 4.045 0"/><path fill="#FFFFFE" d="M96.925 150.153s-1.091-.286-1.578.134c-.488.42-.674.84-.623 1.411.051.571.135.772.135.772s-.051-1.192.555-1.662c.603-.471 1.191-.555 1.191-.555l.32-.1"/><path fill="#961565" d="M101.449 154.009a2.021 2.021 0 1 1-4.042 0 2.021 2.021 0 0 1 4.042 0"/><path fill="#FFFFFE" d="M100.046 152.522s-1.09-.286-1.578.134c-.486.42-.672.84-.621 1.411.051.571.135.772.135.772s-.051-1.192.553-1.662c.605-.47 1.193-.554 1.193-.554l.318-.101"/><path fill="#961565" d="M92.728 153.579a2.021 2.021 0 1 1-4.044-.002 2.021 2.021 0 0 1 4.044.002"/><path fill="#FFFFFE" d="M91.326 152.091s-1.092-.285-1.579.134c-.488.42-.673.841-.623 1.411.051.571.135.772.135.772s-.05-1.192.555-1.662c.604-.47 1.191-.555 1.191-.555l.321-.1"/><path fill="#961565" d="M95.787 154.239a2.02 2.02 0 1 1-4.041-.001 2.02 2.02 0 0 1 4.041.001"/><path fill="#FFFFFE" d="M94.384 152.752s-1.091-.286-1.578.134c-.488.42-.672.84-.623 1.41.051.571.135.773.135.773s-.051-1.192.555-1.663c.603-.47 1.193-.554 1.193-.554l.318-.1"/><path fill="#961565" d="M98.585 155.962a2.02 2.02 0 1 1-4.041 0 2.02 2.02 0 1 1 4.041 0"/><path fill="#FFFFFE" d="M97.183 154.474s-1.09-.285-1.578.135c-.486.42-.672.84-.621 1.41.051.571.135.773.135.773s-.051-1.193.552-1.663c.606-.469 1.194-.553 1.194-.553l.318-.102"/><path fill="#961565" d="M92.986 157.253a2.02 2.02 0 1 1-4.041.003 2.02 2.02 0 0 1 4.041-.003"/><path fill="#FFFFFE" d="M91.583 155.767s-1.089-.286-1.578.134c-.486.42-.672.84-.621 1.411.051.57.135.772.135.772s-.051-1.192.553-1.663c.605-.47 1.193-.554 1.193-.554l.318-.1"/><path fill="#961565" d="M95.679 158.223a2.02 2.02 0 1 1-4.041 0 2.02 2.02 0 0 1 4.041 0"/><path fill="#FFFFFE" d="M94.277 156.736s-1.092-.285-1.578.135c-.489.419-.674.839-.623 1.41.05.57.134.772.134.772s-.05-1.192.555-1.663c.604-.47 1.191-.554 1.191-.554l.321-.1"/><path fill="#961565" d="M93.632 161.345a2.02 2.02 0 1 1-4.042.002 2.02 2.02 0 0 1 4.042-.002"/><path fill="#FFFFFE" d="M92.23 159.859s-1.092-.286-1.578.134c-.487.42-.672.841-.621 1.411.051.57.134.771.134.771s-.052-1.191.553-1.662c.606-.469 1.194-.554 1.194-.554l.318-.1"/><path fill="#961565" d="M98.107 166.845a2.021 2.021 0 1 1-4.042.002 2.021 2.021 0 0 1 4.042-.002"/><path fill="#FFFFFE" d="M96.705 165.359s-1.092-.286-1.579.134c-.486.42-.671.841-.621 1.411.051.57.135.771.135.771s-.053-1.191.553-1.662c.605-.469 1.193-.554 1.193-.554l.319-.1"/><path fill="#961565" d="M101.107 163.22a1.521 1.521 0 1 1-3.043.001 1.521 1.521 0 0 1 3.043-.001"/><path fill="#FFFFFE" d="M100.052 162.101s-.822-.215-1.187.102c-.367.316-.506.632-.469 1.062.039.429.102.58.102.58s-.039-.896.416-1.25c.455-.354.898-.418.898-.418l.24-.076"/><path fill="#961565" d="M88.357 164.095a1.521 1.521 0 1 1-3.043.001 1.521 1.521 0 0 1 3.043-.001"/><path fill="#FFFFFE" d="M87.302 162.976s-.822-.215-1.187.102c-.368.316-.506.632-.469 1.062.039.429.101.58.101.58s-.038-.896.417-1.25c.455-.354.898-.418.898-.418l.24-.076"/><path fill="#B4B5B4" d="M102.773 138.589c0 1.967-4.281 3.563-9.563 3.563-5.279 0-9.56-1.596-9.56-3.563 0-1.968 4.281-3.562 9.56-3.562 5.282 0 9.563 1.594 9.563 3.562"/><path fill="url(#ae)" d="M15.679 198.771h64.166v40.666H15.679z"/><g clip-path="url(#af)"><path fill="url(#ag)" d="M43.269 214.777c11.993 2.328 27.19 16.152 36.551 24.66H15.679v-3.521c1.468-2.249 3.333-4.194 5.172-6.133 5.166-5.166 12.629-13.203 21.527-14.926z"/></g><path fill="#FFFFFE" d="M27.416 204.149c-.18 0-.35.036-.504.102 0-.013.004-.026.004-.04 0-.718-.583-1.301-1.303-1.301-.25 0-.481.074-.679.197a1.3 1.3 0 0 0-1.183-.765c-.609 0-1.117.421-1.258.988a1.298 1.298 0 0 0-2.254.881c0 .016.005.031.005.047a1.3 1.3 0 0 0-1.82 1.193c0 .718.582 1.301 1.301 1.301.194 0 .377-.045.542-.122a1.301 1.301 0 0 0 1.273 1.037c.392 0 .739-.177.977-.451.168.526.654.908 1.234.908.493 0 .915-.277 1.137-.679a1.303 1.303 0 0 0 1.998-.809c.161.074.34.116.53.116a1.3 1.3 0 0 0 0-2.603M39.772 207.445c-.179 0-.349.037-.504.101.001-.013.004-.025.004-.039a1.301 1.301 0 0 0-1.982-1.105 1.3 1.3 0 0 0-1.181-.764c-.61 0-1.118.422-1.26.989a1.284 1.284 0 0 0-.951-.42c-.719 0-1.302.582-1.302 1.3 0 .016.005.032.005.047a1.3 1.3 0 1 0-.52 2.493c.195 0 .378-.045.544-.122a1.3 1.3 0 0 0 1.273 1.037c.391 0 .738-.176.977-.45.167.525.654.907 1.234.907.491 0 .914-.276 1.136-.678a1.3 1.3 0 0 0 1.998-.808 1.297 1.297 0 0 0 1.831-1.187c0-.718-.583-1.301-1.302-1.301M65.183 202.964c-.17 0-.332.036-.478.096 0-.012.003-.023.003-.037a1.237 1.237 0 0 0-1.885-1.051 1.235 1.235 0 0 0-2.324.213 1.226 1.226 0 0 0-.905-.399c-.683 0-1.238.553-1.238 1.237 0 .016.005.029.005.045a1.24 1.24 0 1 0-.494 2.373c.184 0 .358-.044.515-.116a1.233 1.233 0 0 0 2.142.557c.159.5.622.864 1.174.864.468 0 .87-.264 1.081-.647a1.238 1.238 0 0 0 1.9-.767 1.238 1.238 0 1 0 .504-2.368"/><path fill="url(#ah)" d="M70.896 207.516c3.292-.071 6.068 1.284 8.949 2.665v23.089l-38.041-.905s2.192-4.592 7.123-9.758c4.932-5.166 12.056-13.203 20.549-14.926z"/><g clip-path="url(#ai)"><path fill="url(#aj)" d="M46.527 227.669c11.251.108 22.403 2.086 33.318 4.694v7.074H15.679v-6.009c9.852-3.772 20.324-5.569 30.848-5.759z"/></g><path fill="url(#ak)" d="M19.581 222.748h8.571v13.162h-8.571z"/><path fill="url(#al)" d="M19.581 224.031h8.571v.972h-8.571z"/><path fill="url(#am)" d="M19.581 233.654h8.571v.971h-8.571z"/><path fill="#A31249" d="M21.432 226.689h4.869v4.926h-4.869z"/><path fill="#191B51" d="M29.509 222.748h8.572v13.162h-8.572z"/><path fill="url(#an)" d="M29.509 224.031h8.572v.972h-8.572z"/><path fill="url(#ao)" d="M29.509 233.654h8.572v.971h-8.572z"/><path fill="#005698" d="M31.361 226.689h4.869v4.926h-4.869z"/><path fill="none" stroke="#B4B5B4" stroke-width=".75" d="M27.674 72.035a2.842 2.842 0 0 1-2.844 2.843h-5.746a2.843 2.843 0 1 1 0-5.687h5.746a2.843 2.843 0 0 1 2.844 2.844zm22.577 0a2.842 2.842 0 0 1-2.843 2.843h-5.746a2.843 2.843 0 1 1 0-5.687h5.746a2.843 2.843 0 0 1 2.843 2.844zm22.579 0a2.843 2.843 0 0 1-2.844 2.843H64.24a2.843 2.843 0 1 1 0-5.687h5.746a2.844 2.844 0 0 1 2.844 2.844zm22.578 0a2.843 2.843 0 0 1-2.844 2.843h-5.747a2.843 2.843 0 1 1 0-5.687h5.747a2.844 2.844 0 0 1 2.844 2.844zm22.577 0a2.843 2.843 0 0 1-2.844 2.843h-5.747a2.843 2.843 0 1 1 0-5.687h5.747a2.844 2.844 0 0 1 2.844 2.844zm22.577 0a2.842 2.842 0 0 1-2.844 2.843h-5.746a2.843 2.843 0 1 1 0-5.687h5.746a2.843 2.843 0 0 1 2.844 2.844zm22.578 0a2.841 2.841 0 0 1-2.844 2.843h-5.746a2.843 2.843 0 1 1 0-5.687h5.746a2.842 2.842 0 0 1 2.844 2.844zM27.674 127.623a2.843 2.843 0 0 1-2.844 2.843h-5.746a2.844 2.844 0 0 1 0-5.687h5.746a2.842 2.842 0 0 1 2.844 2.844zm22.577 0a2.843 2.843 0 0 1-2.843 2.843h-5.746a2.843 2.843 0 1 1 0-5.687h5.746a2.842 2.842 0 0 1 2.843 2.844zm22.579 0a2.844 2.844 0 0 1-2.844 2.843H64.24a2.843 2.843 0 1 1 0-5.687h5.746a2.844 2.844 0 0 1 2.844 2.844zm22.578 0a2.844 2.844 0 0 1-2.844 2.843h-5.747a2.844 2.844 0 0 1 0-5.687h5.747a2.844 2.844 0 0 1 2.844 2.844zm22.577 0a2.843 2.843 0 0 1-2.844 2.843h-5.747a2.844 2.844 0 0 1 0-5.687h5.747a2.843 2.843 0 0 1 2.844 2.844zm22.577 0a2.843 2.843 0 0 1-2.844 2.843h-5.746a2.844 2.844 0 0 1 0-5.687h5.746a2.842 2.842 0 0 1 2.844 2.844zm22.578 0a2.842 2.842 0 0 1-2.844 2.843h-5.746a2.844 2.844 0 0 1 0-5.687h5.746a2.842 2.842 0 0 1 2.844 2.844zM27.674 183.21a2.843 2.843 0 0 1-2.844 2.844h-5.746a2.844 2.844 0 0 1 0-5.687h5.746a2.842 2.842 0 0 1 2.844 2.843zm22.577 0a2.843 2.843 0 0 1-2.843 2.844h-5.746a2.844 2.844 0 1 1 0-5.687h5.746a2.842 2.842 0 0 1 2.843 2.843zM72.83 183.21a2.844 2.844 0 0 1-2.844 2.844H64.24a2.844 2.844 0 1 1 0-5.687h5.746a2.843 2.843 0 0 1 2.844 2.843zm22.578 0a2.844 2.844 0 0 1-2.844 2.844h-5.747a2.844 2.844 0 0 1 0-5.687h5.747a2.843 2.843 0 0 1 2.844 2.843zm22.577 0a2.844 2.844 0 0 1-2.844 2.844h-5.747a2.844 2.844 0 0 1 0-5.687h5.747a2.843 2.843 0 0 1 2.844 2.843zm22.577 0a2.843 2.843 0 0 1-2.844 2.844h-5.746a2.844 2.844 0 0 1 0-5.687h5.746a2.842 2.842 0 0 1 2.844 2.843zm22.578 0a2.842 2.842 0 0 1-2.844 2.844h-5.746a2.844 2.844 0 0 1 0-5.687h5.746a2.841 2.841 0 0 1 2.844 2.843z"/></svg>